<svg xmlns="http://www.w3.org/2000/svg" xmlns:xlink="http://www.w3.org/1999/xlink" viewBox="0 0 200 200"><defs><style>.cls-1,.cls-4,.cls-7{fill:#fff;}.cls-1{opacity:0;}.cls-2{fill:url(#Neues_Verlaufsfeld_2);}.cls-3{opacity:0.4;}.cls-5{fill:#3e3e3e;}.cls-6{opacity:0.7;fill:url(#Unbenannter_Verlauf_154);}.cls-7{opacity:0.1;}.cls-8{fill:url(#Unbenannter_Verlauf_79);}</style><linearGradient id="Neues_Verlaufsfeld_2" x1="5.9" y1="124.91" x2="194.28" y2="124.91" gradientUnits="userSpaceOnUse"><stop offset="0" stop-color="#8a8a8a"/><stop offset="0.04" stop-color="#9e9e9e"/><stop offset="0.15" stop-color="#bebebe"/><stop offset="0.32" stop-color="#ededed"/><stop offset="0.4" stop-color="#fff"/><stop offset="0.45" stop-color="#f6f6f6"/><stop offset="0.6" stop-color="#e0e0e0"/><stop offset="0.63" stop-color="#cacaca"/><stop offset="0.69" stop-color="#999"/><stop offset="0.75" stop-color="#7b7b7b"/><stop offset="0.78" stop-color="#707070"/><stop offset="0.82" stop-color="#737373"/><stop offset="0.85" stop-color="#7e7e7e"/><stop offset="0.88" stop-color="#909090"/><stop offset="0.91" stop-color="#a9a9a9"/><stop offset="0.94" stop-color="#c9c9c9"/><stop offset="0.96" stop-color="#efefef"/><stop offset="0.96" stop-color="#f0f0f0"/><stop offset="1" stop-color="#d9d9d9"/></linearGradient><linearGradient id="Unbenannter_Verlauf_154" x1="102" y1="26.19" x2="100.64" y2="121.4" gradientUnits="userSpaceOnUse"><stop offset="0" stop-color="#666"/><stop offset="0.7" stop-color="#9e9e9e" stop-opacity="0"/></linearGradient><linearGradient id="Unbenannter_Verlauf_79" x1="51.19" y1="73.19" x2="133.84" y2="209.62" gradientUnits="userSpaceOnUse"><stop offset="0" stop-color="#fff"/><stop offset="0.02" stop-color="#fff" stop-opacity="0.86"/><stop offset="0.06" stop-color="#fff" stop-opacity="0.68"/><stop offset="0.1" stop-color="#fff" stop-opacity="0.52"/><stop offset="0.14" stop-color="#fff" stop-opacity="0.38"/><stop offset="0.18" stop-color="#fff" stop-opacity="0.26"/><stop offset="0.23" stop-color="#fff" stop-opacity="0.16"/><stop offset="0.29" stop-color="#fff" stop-opacity="0.09"/><stop offset="0.35" stop-color="#fff" stop-opacity="0.04"/><stop offset="0.43" stop-color="#fff" stop-opacity="0.01"/><stop offset="0.59" stop-color="#fff" stop-opacity="0"/></linearGradient></defs><g id="BG"><rect class="cls-1" width="200" height="200"/></g><g id="Dreifarbig"><g id="sine-2-1-2"><path id="Einfarbig" class="cls-2" d="M194.28,120a68.64,68.64,0,0,0-60.14-68.26,287.58,287.58,0,0,0-34.76-1.89,284.31,284.31,0,0,0-32.73,1.75A68.77,68.77,0,0,0,5.9,119.92V200H194.28Z" transform="translate(-4.3 -1.89)"/><g class="cls-3"><path d="M107.45,94c-.16-27.85-16.27-42.45-18.72-44l-.08,0c-8.09.26-15.41.8-22,1.57A68.77,68.77,0,0,0,5.9,119.92V200H43.15C53.66,151.56,107.76,147.68,107.45,94Z" transform="translate(-4.3 -1.89)"/><path d="M134.14,51.73q-6.6-.81-14.2-1.28c4.36,5.92,13.58,23.73,13.71,47.21C134,151.29,83.44,162.39,72.71,200H194.28V120A68.64,68.64,0,0,0,134.14,51.73Z" transform="translate(-4.3 -1.89)"/></g><path class="cls-4" d="M90.61,50,89.16,50c3.6,2.51,18.64,18,18.79,44,.17,28.8-15.27,43-31.6,57.94-13.68,12.55-27.83,25.52-32.69,47.89l1,.22C49.43,178,63.46,165.16,77,152.72,93.53,137.58,109.12,123.28,109,94,108.8,68,94.79,53.63,90.61,50Z" transform="translate(-4.3 -1.89)"/><path class="cls-5" d="M89.41,50,88,50c3.6,2.51,18.84,18,19,44,.17,28.8-15.27,43-31.6,57.94-13.68,12.55-27.83,25.52-32.69,47.89l1,.22C48.43,178,62.46,165.16,76,152.72,92.53,137.58,108.12,123.28,108,94,107.8,68,93.59,53.63,89.41,50Z" transform="translate(-4.3 -1.89)"/><path class="cls-4" d="M74.19,200.12l-1-.28c4.49-15.72,15.7-26.66,27.57-38.25,16.49-16.1,33.54-32.76,33.37-63.93C134,75,125.24,56.81,120.59,50.48l1.24.09c5.07,6.89,13.19,24.24,13.33,47.08.18,31.6-17,48.4-33.67,64.65C89.72,173.8,78.6,184.65,74.19,200.12Z" transform="translate(-4.3 -1.89)"/><path class="cls-5" d="M73.19,200.12l-1-.28c4.49-15.72,15.7-26.66,27.57-38.25,16.49-16.1,33.54-32.76,33.37-63.93C133,75,124.05,56.74,119.4,50.41l1.19.07c5.06,6.9,13.43,24.33,13.57,47.17.18,31.6-17,48.4-33.67,64.65C88.72,173.8,77.6,184.65,73.19,200.12Z" transform="translate(-4.3 -1.89)"/><path id="Top-Schatten" class="cls-6" d="M194.28,120a68.64,68.64,0,0,0-60.14-68.26,287.58,287.58,0,0,0-34.76-1.89,284.31,284.31,0,0,0-32.73,1.75A68.77,68.77,0,0,0,5.9,119.92V200H194.28Z" transform="translate(-4.3 -1.89)"/><path id="Seite-Licht" class="cls-7" d="M194.28,120c0-41.08-32.3-61.31-44.07-64.12,0,0,30.79,15.79,31,49.63.14,22.49.38,94.5.38,94.5h12.7Z" transform="translate(-4.3 -1.89)"/><path id="Glanzlicht" class="cls-8" d="M172.24,200V112.41c0-33.4-27.32-62.62-60.71-62.62H80.9c-33.39,0-60.72,29.22-60.72,62.62V200Z" transform="translate(-4.3 -1.89)"/><path d="M114.54,144.25h-4.1V127.8c0-2,0-3.53.14-4.68-.27.28-.59.59-1,.93s-1.7,1.4-3.92,3.2l-2.05-2.59,7.49-5.89h3.42Z" transform="translate(-4.3 -1.89)"/><path class="cls-4" d="M68.56,110.46H50.24v-3.29l7-7a57.84,57.84,0,0,0,4.1-4.48,10.75,10.75,0,0,0,1.47-2.49,6.6,6.6,0,0,0,.46-2.49,3.8,3.8,0,0,0-1.1-2.88,4.18,4.18,0,0,0-3-1.06,8.08,8.08,0,0,0-3,.57,14.33,14.33,0,0,0-3.36,2.08l-2.35-2.87a15.32,15.32,0,0,1,4.38-2.7,12.85,12.85,0,0,1,4.53-.79,8.93,8.93,0,0,1,6,2,6.68,6.68,0,0,1,2.27,5.3A9.48,9.48,0,0,1,67,93.79a14.33,14.33,0,0,1-2,3.39,46.32,46.32,0,0,1-4.52,4.72l-4.7,4.55v.18H68.56Z" transform="translate(-4.3 -1.89)"/><path class="cls-4" d="M159.37,182.44H141.05v-3.29l7-7a59.23,59.23,0,0,0,4.09-4.48,10.75,10.75,0,0,0,1.47-2.49,6.6,6.6,0,0,0,.46-2.49,3.84,3.84,0,0,0-1.1-2.89,4.22,4.22,0,0,0-3-1,8.12,8.12,0,0,0-3,.57,14.58,14.58,0,0,0-3.36,2.07l-2.35-2.86a15.22,15.22,0,0,1,4.39-2.7,12.75,12.75,0,0,1,4.52-.79,8.93,8.93,0,0,1,6.05,2,6.68,6.68,0,0,1,2.27,5.3,9.48,9.48,0,0,1-.65,3.48,14.33,14.33,0,0,1-2,3.39,45.22,45.22,0,0,1-4.52,4.72l-4.69,4.55v.18h12.83Z" transform="translate(-4.3 -1.89)"/></g></g></svg>