<svg xmlns="http://www.w3.org/2000/svg" xmlns:xlink="http://www.w3.org/1999/xlink" viewBox="0 0 200 200"><defs><style>.cls-1,.cls-5{fill:#fff;}.cls-1{opacity:0;}.cls-2{fill:url(#Neues_Verlaufsfeld_2);}.cls-3{opacity:0.4;}.cls-4{opacity:0.7;fill:url(#Unbenannter_Verlauf_154);}.cls-5{opacity:0.1;}.cls-6{fill:url(#Unbenannter_Verlauf_79);}.cls-7{opacity:0.5;}</style><linearGradient id="Neues_Verlaufsfeld_2" x1="5.9" y1="124.89" x2="194.28" y2="124.89" gradientUnits="userSpaceOnUse"><stop offset="0" stop-color="#8a8a8a"/><stop offset="0.04" stop-color="#9e9e9e"/><stop offset="0.15" stop-color="#bebebe"/><stop offset="0.32" stop-color="#ededed"/><stop offset="0.4" stop-color="#fff"/><stop offset="0.45" stop-color="#f6f6f6"/><stop offset="0.6" stop-color="#e0e0e0"/><stop offset="0.63" stop-color="#cacaca"/><stop offset="0.69" stop-color="#999"/><stop offset="0.75" stop-color="#7b7b7b"/><stop offset="0.78" stop-color="#707070"/><stop offset="0.82" stop-color="#737373"/><stop offset="0.85" stop-color="#7e7e7e"/><stop offset="0.88" stop-color="#909090"/><stop offset="0.91" stop-color="#a9a9a9"/><stop offset="0.94" stop-color="#c9c9c9"/><stop offset="0.96" stop-color="#efefef"/><stop offset="0.96" stop-color="#f0f0f0"/><stop offset="1" stop-color="#d9d9d9"/></linearGradient><linearGradient id="Unbenannter_Verlauf_154" x1="102" y1="26.2" x2="100.64" y2="121.37" gradientUnits="userSpaceOnUse"><stop offset="0" stop-color="#666"/><stop offset="0.7" stop-color="#9e9e9e" stop-opacity="0"/></linearGradient><linearGradient id="Unbenannter_Verlauf_79" x1="51.19" y1="73.19" x2="133.84" y2="209.62" gradientUnits="userSpaceOnUse"><stop offset="0" stop-color="#fff"/><stop offset="0.02" stop-color="#fff" stop-opacity="0.86"/><stop offset="0.06" stop-color="#fff" stop-opacity="0.68"/><stop offset="0.1" stop-color="#fff" stop-opacity="0.52"/><stop offset="0.14" stop-color="#fff" stop-opacity="0.38"/><stop offset="0.18" stop-color="#fff" stop-opacity="0.26"/><stop offset="0.23" stop-color="#fff" stop-opacity="0.16"/><stop offset="0.29" stop-color="#fff" stop-opacity="0.09"/><stop offset="0.35" stop-color="#fff" stop-opacity="0.04"/><stop offset="0.43" stop-color="#fff" stop-opacity="0.01"/><stop offset="0.59" stop-color="#fff" stop-opacity="0"/></linearGradient></defs><g id="BG"><rect class="cls-1" width="200" height="200"/></g><g id="Frei"><g id="diagonal-frei-1"><path id="Einfarbig" class="cls-2" d="M194.28,120a68.64,68.64,0,0,0-60.14-68.26,287.58,287.58,0,0,0-34.76-1.89,284.31,284.31,0,0,0-32.73,1.75A68.77,68.77,0,0,0,5.9,119.92v80H194.28Z" transform="translate(-4.3 -1.89)"/><path class="cls-3" d="M107.72,49.94c-2.7-.07-5.47-.1-8.34-.1a284.31,284.31,0,0,0-32.73,1.75A68.77,68.77,0,0,0,5.9,119.92v80H39l69-149.61Z" transform="translate(-4.3 -1.89)"/><path id="Top-Schatten" class="cls-4" d="M194.28,120a68.64,68.64,0,0,0-60.14-68.26,287.58,287.58,0,0,0-34.76-1.89,284.31,284.31,0,0,0-32.73,1.75A68.77,68.77,0,0,0,5.9,119.92v80H194.28Z" transform="translate(-4.3 -1.89)"/><path id="Seite-Licht" class="cls-5" d="M194.28,120c0-41.08-32.3-61.31-44.07-64.12,0,0,30.79,15.79,31,49.63.14,22.49.38,94.5.38,94.5h12.7Z" transform="translate(-4.3 -1.89)"/><path id="Glanzlicht" class="cls-6" d="M172.24,200V112.41c0-33.4-27.32-62.62-60.71-62.62H80.9c-33.39,0-60.72,29.22-60.72,62.62V200Z" transform="translate(-4.3 -1.89)"/><path d="M40.14,200.58l-2.18-1,2.69-5.85,2.18,1Zm6-13.12-2.19-1,3.34-7.27,2.18,1Zm6.67-14.54-2.18-1L54,164.65l2.18,1Zm6.68-14.54-2.19-1,3.34-7.27,2.18,1Zm6.67-14.54-2.18-1,3.34-7.27,2.18,1Zm6.68-14.54-2.19-1L74,121l2.18,1Zm6.67-14.54-2.18-1,3.34-7.27,2.18,1Zm6.68-14.54-2.19-1,3.34-7.27,2.18,1Zm6.67-14.55-2.18-1,3.34-7.27,2.18,1Zm6.68-14.54-2.19-1,3.34-7.27,2.18,1Zm6.67-14.54-2.18-1,3.34-7.27,2.18,1Zm6.68-14.54-2.19-1,3.34-7.27,2.18,1Z" transform="translate(-4.3 -1.89)"/><polygon class="cls-7" points="93.17 35.74 103.37 41.63 103.37 29.85 93.17 35.74"/><polygon class="cls-7" points="125.29 35.74 115.09 29.85 115.09 41.63 125.29 35.74"/></g></g></svg>