<svg xmlns="http://www.w3.org/2000/svg" xmlns:xlink="http://www.w3.org/1999/xlink" viewBox="0 0 200 200"><defs><style>.cls-1,.cls-5,.cls-7{fill:#fff;}.cls-1{opacity:0;}.cls-2{fill:url(#Neues_Verlaufsfeld_2);}.cls-3{opacity:0.4;}.cls-4{fill:#3e3e3e;}.cls-6{opacity:0.7;fill:url(#Unbenannter_Verlauf_154);}.cls-7{opacity:0.1;}.cls-8{fill:url(#Unbenannter_Verlauf_79);}</style><linearGradient id="Neues_Verlaufsfeld_2" x1="5.9" y1="124.84" x2="194.28" y2="124.84" gradientUnits="userSpaceOnUse"><stop offset="0" stop-color="#8a8a8a"/><stop offset="0.04" stop-color="#9e9e9e"/><stop offset="0.15" stop-color="#bebebe"/><stop offset="0.32" stop-color="#ededed"/><stop offset="0.4" stop-color="#fff"/><stop offset="0.45" stop-color="#f6f6f6"/><stop offset="0.6" stop-color="#e0e0e0"/><stop offset="0.63" stop-color="#cacaca"/><stop offset="0.69" stop-color="#999"/><stop offset="0.75" stop-color="#7b7b7b"/><stop offset="0.78" stop-color="#707070"/><stop offset="0.82" stop-color="#737373"/><stop offset="0.85" stop-color="#7e7e7e"/><stop offset="0.88" stop-color="#909090"/><stop offset="0.91" stop-color="#a9a9a9"/><stop offset="0.94" stop-color="#c9c9c9"/><stop offset="0.96" stop-color="#efefef"/><stop offset="0.96" stop-color="#f0f0f0"/><stop offset="1" stop-color="#d9d9d9"/></linearGradient><linearGradient id="Unbenannter_Verlauf_154" x1="102" y1="26.22" x2="100.64" y2="121.32" gradientUnits="userSpaceOnUse"><stop offset="0" stop-color="#666"/><stop offset="0.7" stop-color="#9e9e9e" stop-opacity="0"/></linearGradient><linearGradient id="Unbenannter_Verlauf_79" x1="51.19" y1="73.19" x2="133.84" y2="209.62" gradientUnits="userSpaceOnUse"><stop offset="0" stop-color="#fff"/><stop offset="0.02" stop-color="#fff" stop-opacity="0.86"/><stop offset="0.06" stop-color="#fff" stop-opacity="0.68"/><stop offset="0.1" stop-color="#fff" stop-opacity="0.52"/><stop offset="0.14" stop-color="#fff" stop-opacity="0.38"/><stop offset="0.18" stop-color="#fff" stop-opacity="0.26"/><stop offset="0.23" stop-color="#fff" stop-opacity="0.16"/><stop offset="0.29" stop-color="#fff" stop-opacity="0.09"/><stop offset="0.35" stop-color="#fff" stop-opacity="0.04"/><stop offset="0.43" stop-color="#fff" stop-opacity="0.01"/><stop offset="0.59" stop-color="#fff" stop-opacity="0"/></linearGradient></defs><g id="BG"><rect class="cls-1" width="200" height="200"/></g><g id="Dreifarbig"><g id="vertical-2-1-1"><path id="Einfarbig" class="cls-2" d="M194.28,120a68.64,68.64,0,0,0-60.14-68.26,287.58,287.58,0,0,0-34.76-1.89,284.31,284.31,0,0,0-32.73,1.75A68.77,68.77,0,0,0,5.9,119.92v79.92H194.28Z" transform="translate(-4.3 -1.89)"/><g class="cls-3"><path d="M147.17,54.63V199.84h47.11V120A68.79,68.79,0,0,0,147.17,54.63Z" transform="translate(-4.3 -1.89)"/><path d="M99.38,49.84a284.31,284.31,0,0,0-32.73,1.75A68.77,68.77,0,0,0,5.9,119.92v79.92h94v-150Z" transform="translate(-4.3 -1.89)"/></g><g id="Fuge"><polygon class="cls-4" points="95.5 197.97 94.4 197.97 94.4 49.42 95.5 49.54 95.5 197.97"/></g><g id="Fuge-2" data-name="Fuge"><polygon class="cls-5" points="143.67 197.97 142.56 197.97 142.56 52.65 143.67 53 143.67 197.97"/><polygon class="cls-4" points="142.77 197.91 141.67 197.91 141.67 52.33 142.77 52.7 142.77 197.91"/></g><path id="Top-Schatten" class="cls-6" d="M194.28,120a68.64,68.64,0,0,0-60.14-68.26,287.58,287.58,0,0,0-34.76-1.89,284.31,284.31,0,0,0-32.73,1.75A68.77,68.77,0,0,0,5.9,119.92v79.92H194.28Z" transform="translate(-4.3 -1.89)"/><path id="Seite-Licht" class="cls-7" d="M194.28,120c0-41.08-32.3-61.31-44.07-64.12,0,0,30.79,15.79,31,49.63.14,22.49.38,94.34.38,94.34h12.7Z" transform="translate(-4.3 -1.89)"/><path id="Glanzlicht" class="cls-8" d="M172.24,200V112.41c0-33.4-27.32-62.62-60.71-62.62H80.9c-33.39,0-60.72,29.22-60.72,62.62V200Z" transform="translate(-4.3 -1.89)"/><path d="M127.25,149.71h-5V129.43q0-3.63.18-5.76c-.33.34-.74.72-1.22,1.14s-2.09,1.73-4.82,3.95l-2.54-3.2L123,118.3h4.21Z" transform="translate(-4.3 -1.89)"/><path class="cls-5" d="M176,149.71h-5V129.43c0-2.42.05-4.34.17-5.76-.33.34-.74.72-1.22,1.14s-2.08,1.73-4.82,3.95l-2.54-3.2,9.24-7.26H176Z" transform="translate(-4.3 -1.89)"/><path class="cls-5" d="M62.94,149.93H41.65v-3.82l8.1-8.14a70.29,70.29,0,0,0,4.76-5.21,12.72,12.72,0,0,0,1.71-2.89,7.78,7.78,0,0,0,.53-2.9,4.41,4.41,0,0,0-1.27-3.35,4.9,4.9,0,0,0-3.54-1.23,9.3,9.3,0,0,0-3.49.67,16.34,16.34,0,0,0-3.9,2.4l-2.73-3.33A17.68,17.68,0,0,1,46.91,119a14.87,14.87,0,0,1,5.27-.93,10.32,10.32,0,0,1,7,2.29,7.72,7.72,0,0,1,2.65,6.16,10.74,10.74,0,0,1-.77,4,16.28,16.28,0,0,1-2.34,3.95A53.8,53.8,0,0,1,53.49,140L48,145.27v.22H62.94Z" transform="translate(-4.3 -1.89)"/></g></g></svg>