<svg xmlns="http://www.w3.org/2000/svg" xmlns:xlink="http://www.w3.org/1999/xlink" viewBox="0 0 200 200"><defs><style>.cls-1,.cls-4{fill:#fff;}.cls-1{opacity:0;}.cls-2{fill:url(#Unbenannter_Verlauf_21);}.cls-3{opacity:0.4;}.cls-5{fill:#616161;}.cls-6{fill:url(#Unbenannter_Verlauf_49);}.cls-7{fill:url(#Unbenannter_Verlauf_49-2);}.cls-8{opacity:0.34;fill:url(#Unbenannter_Verlauf_8);}</style><radialGradient id="Unbenannter_Verlauf_21" cx="100.24" cy="144.19" r="93.75" gradientUnits="userSpaceOnUse"><stop offset="0.73" stop-color="#6d6d6d"/><stop offset="0.78" stop-color="#9e9e9e"/><stop offset="0.81" stop-color="#929292"/><stop offset="0.88" stop-color="#707070"/><stop offset="0.9" stop-color="#767676"/><stop offset="0.92" stop-color="#858585"/><stop offset="0.94" stop-color="#a0a0a0"/><stop offset="0.97" stop-color="#bababa"/><stop offset="0.98" stop-color="silver"/><stop offset="0.99" stop-color="#d2d2d2"/><stop offset="1" stop-color="#d9d9d9"/></radialGradient><linearGradient id="Unbenannter_Verlauf_49" x1="168.86" y1="220.12" x2="20.2" y2="57.57" gradientUnits="userSpaceOnUse"><stop offset="0.62" stop-color="#fff" stop-opacity="0"/><stop offset="1" stop-color="#fff"/></linearGradient><linearGradient id="Unbenannter_Verlauf_49-2" x1="76.34" y1="132.99" x2="26.59" y2="78.58" xlink:href="#Unbenannter_Verlauf_49"/><linearGradient id="Unbenannter_Verlauf_8" x1="174.1" y1="189.96" x2="159.1" y2="182.53" xlink:href="#Unbenannter_Verlauf_49"/></defs><g id="BG"><rect class="cls-1" width="200" height="200"/></g><g id="Zweifarbig"><g id="segment-1-1"><path class="cls-2" d="M63.91,200a66.48,66.48,0,1,1,72.65,0H176a94,94,0,1,0-151.51,0Z" transform="translate(-4.3 -1.89)"/><g class="cls-3"><path d="M166.71,144.34A66.4,66.4,0,0,1,136.56,200H176a94.16,94.16,0,0,0,15.86-76.79l-26.21,9.33A66.48,66.48,0,0,1,166.71,144.34Z" transform="translate(-4.3 -1.89)"/><path d="M24.48,200H63.91a67,67,0,0,1-21.85-23.49l-26.18,9.31A93.94,93.94,0,0,0,24.48,200Z" transform="translate(-4.3 -1.89)"/></g><g id="Fuge"><polygon class="cls-4" points="11.71 184.21 37.94 174.92 37.73 174.55 11.51 183.88 11.71 184.21"/><polygon class="cls-5" points="11.58 183.94 37.76 174.6 37.56 174.28 11.42 183.63 11.58 183.94"/></g><g id="Fuge-2" data-name="Fuge"><polygon class="cls-4" points="161.43 131.04 187.64 121.73 187.55 121.34 161.36 130.68 161.43 131.04"/><polygon class="cls-5" points="161.38 130.73 187.57 121.4 187.49 121.05 161.32 130.39 161.38 130.73"/></g><path class="cls-6" d="M168.72,200.11a91.14,91.14,0,1,0-141.56,0Z" transform="translate(-4.3 -1.89)"/><path class="cls-7" d="M28,90.38c23.64-33.71,72.42-36.08,73.15-34S59.82,63.52,37.1,96.11c-24.54,35.2-13.71,80.31-15.78,80.42S2.71,126.49,28,90.38Z" transform="translate(-4.3 -1.89)"/><path class="cls-8" d="M150.58,200c22.12-20.26,23-37.77,20.44-36-2.25,1.54-6.17,19.67-26.7,36Z" transform="translate(-4.3 -1.89)"/><path class="cls-4" d="M182.61,161h-3.22V148.09c0-1.54,0-2.76.11-3.67-.21.22-.47.46-.77.73s-1.33,1.1-3.08,2.52l-1.62-2,5.9-4.63h2.68Z" transform="translate(-4.3 -1.89)"/><path d="M175,120h-3.22V107.1c0-1.55,0-2.77.11-3.67-.21.21-.46.46-.77.72s-1.33,1.11-3.08,2.52l-1.61-2,5.89-4.63H175Z" transform="translate(-4.3 -1.89)"/></g></g></svg>