<svg xmlns="http://www.w3.org/2000/svg" xmlns:xlink="http://www.w3.org/1999/xlink" viewBox="0 0 200 200"><defs><style>.cls-1,.cls-5,.cls-7{fill:#fff;}.cls-1{opacity:0;}.cls-2{fill:url(#Neues_Verlaufsfeld_2);}.cls-3{opacity:0.4;}.cls-4{fill:#3e3e3e;}.cls-6{opacity:0.7;fill:url(#Unbenannter_Verlauf_154);}.cls-7{opacity:0.1;}.cls-8{fill:url(#Unbenannter_Verlauf_79);}</style><linearGradient id="Neues_Verlaufsfeld_2" x1="5.9" y1="124.91" x2="194.28" y2="124.91" gradientUnits="userSpaceOnUse"><stop offset="0" stop-color="#8a8a8a"/><stop offset="0.04" stop-color="#9e9e9e"/><stop offset="0.15" stop-color="#bebebe"/><stop offset="0.32" stop-color="#ededed"/><stop offset="0.4" stop-color="#fff"/><stop offset="0.45" stop-color="#f6f6f6"/><stop offset="0.6" stop-color="#e0e0e0"/><stop offset="0.63" stop-color="#cacaca"/><stop offset="0.69" stop-color="#999"/><stop offset="0.75" stop-color="#7b7b7b"/><stop offset="0.78" stop-color="#707070"/><stop offset="0.82" stop-color="#737373"/><stop offset="0.85" stop-color="#7e7e7e"/><stop offset="0.88" stop-color="#909090"/><stop offset="0.91" stop-color="#a9a9a9"/><stop offset="0.94" stop-color="#c9c9c9"/><stop offset="0.96" stop-color="#efefef"/><stop offset="0.96" stop-color="#f0f0f0"/><stop offset="1" stop-color="#d9d9d9"/></linearGradient><linearGradient id="Unbenannter_Verlauf_154" x1="102" y1="26.19" x2="100.64" y2="121.4" gradientUnits="userSpaceOnUse"><stop offset="0" stop-color="#666"/><stop offset="0.7" stop-color="#9e9e9e" stop-opacity="0"/></linearGradient><linearGradient id="Unbenannter_Verlauf_79" x1="51.19" y1="73.19" x2="133.84" y2="209.62" gradientUnits="userSpaceOnUse"><stop offset="0" stop-color="#fff"/><stop offset="0.02" stop-color="#fff" stop-opacity="0.86"/><stop offset="0.06" stop-color="#fff" stop-opacity="0.68"/><stop offset="0.1" stop-color="#fff" stop-opacity="0.52"/><stop offset="0.14" stop-color="#fff" stop-opacity="0.38"/><stop offset="0.18" stop-color="#fff" stop-opacity="0.26"/><stop offset="0.23" stop-color="#fff" stop-opacity="0.16"/><stop offset="0.29" stop-color="#fff" stop-opacity="0.09"/><stop offset="0.35" stop-color="#fff" stop-opacity="0.04"/><stop offset="0.43" stop-color="#fff" stop-opacity="0.01"/><stop offset="0.59" stop-color="#fff" stop-opacity="0"/></linearGradient></defs><g id="BG"><rect class="cls-1" width="200" height="200"/></g><g id="Dreifarbig"><g id="sine-1-2-1"><path id="Einfarbig" class="cls-2" d="M194.28,120a68.64,68.64,0,0,0-60.14-68.26,287.58,287.58,0,0,0-34.76-1.89,284.31,284.31,0,0,0-32.73,1.75A68.77,68.77,0,0,0,5.9,119.92V200H194.28Z" transform="translate(-4.3 -1.89)"/><g class="cls-3"><path d="M150.21,55.87c7,4.77,15.63,16.66,16.6,37.38,2.52,53.57-49,69.14-59.71,106.73h87.18V120C194.28,99.64,183.91,68.68,150.21,55.87Z" transform="translate(-4.3 -1.89)"/><path d="M88.16,94C88,69.46,75.45,55.2,70.82,51.14c-1.42.14-2.82.29-4.17.45A68.77,68.77,0,0,0,5.9,119.92V200h13C29.6,162.39,88.46,147.67,88.16,94Z" transform="translate(-4.3 -1.89)"/></g><path class="cls-4" d="M70.9,51.23l-1.45.17C74.06,55.55,87.1,69.47,87.24,94c.17,31-19.36,48.67-38.25,65.78C35.35,172.17,22.42,184.09,17.9,200l1,0c4.45-15.6,17.22-27.17,30.75-39.42,19-17.26,38.76-35.1,38.58-66.52C88.1,70.08,76.12,55.71,70.9,51.23Z" transform="translate(-4.3 -1.89)"/><path class="cls-5" d="M72.11,51.12,71,51.23c4.2,4,17.05,18.27,17.2,43.25.17,31-19.36,48.67-38.25,65.78C36.4,172.49,23.59,184.32,19,200h1c4.55-15.38,17.2-26.85,30.6-39,19-17.26,38.76-35.1,38.58-66.52C89,70.28,77.17,55.5,72.11,51.12Z" transform="translate(-4.3 -1.89)"/><path class="cls-5" d="M108.08,200.12l-1-.28c4.4-15.39,15.39-26.93,27-39.14,16.79-17.62,34.15-35.83,32.66-67.43-1.16-24.83-12.84-34.59-16.38-37l-1.92-1.23,4.18,1.62c2.72,2,13.93,11.26,15.12,36.55,1.51,32-16,50.4-32.93,68.17C123.32,173.51,112.41,185,108.08,200.12Z" transform="translate(-4.3 -1.89)"/><path class="cls-4" d="M106.88,200.12l-1-.28c4.4-15.39,15.39-26.93,27-39.14,16.79-17.62,34.15-35.83,32.66-67.43-1.16-24.83-12.84-34.59-16.38-37l-2.95-1.94,4.06,1.41c3.64,2.46,15.08,12.18,16.27,37.47,1.51,32-16,50.4-32.93,68.17C122.12,173.51,111.21,185,106.88,200.12Z" transform="translate(-4.3 -1.89)"/><path id="Top-Schatten" class="cls-6" d="M194.28,120a68.64,68.64,0,0,0-60.14-68.26,287.58,287.58,0,0,0-34.76-1.89,284.31,284.31,0,0,0-32.73,1.75A68.77,68.77,0,0,0,5.9,119.92V200H194.28Z" transform="translate(-4.3 -1.89)"/><path id="Seite-Licht" class="cls-7" d="M194.28,120c0-41.08-32.3-61.31-44.07-64.12,0,0,30.79,15.79,31,49.63.14,22.49.38,94.5.38,94.5h12.7Z" transform="translate(-4.3 -1.89)"/><path id="Glanzlicht" class="cls-8" d="M172.24,200V112.41c0-33.4-27.32-62.62-60.71-62.62H80.9c-33.39,0-60.72,29.22-60.72,62.62V200Z" transform="translate(-4.3 -1.89)"/><path class="cls-5" d="M50.27,119.21H45.22V98.92c0-2.42.06-4.34.17-5.75-.33.34-.73.72-1.21,1.13s-2.09,1.74-4.82,4l-2.54-3.2,9.24-7.27h4.21Z" transform="translate(-4.3 -1.89)"/><path class="cls-5" d="M168.92,187.91h-5V167.63c0-2.42.06-4.34.17-5.76-.33.34-.73.72-1.21,1.14s-2.09,1.73-4.83,4l-2.53-3.2,9.24-7.26h4.21Z" transform="translate(-4.3 -1.89)"/><path d="M121.08,151H99.79v-3.82l8.1-8.15a68.51,68.51,0,0,0,4.76-5.21,12.39,12.39,0,0,0,1.7-2.88,7.8,7.8,0,0,0,.54-2.91,4.45,4.45,0,0,0-1.28-3.35,4.92,4.92,0,0,0-3.53-1.22,9.45,9.45,0,0,0-3.49.66,16.36,16.36,0,0,0-3.9,2.41L100,123.19a17.82,17.82,0,0,1,5.09-3.14,15,15,0,0,1,5.26-.92,10.33,10.33,0,0,1,7,2.29,7.72,7.72,0,0,1,2.64,6.15,10.75,10.75,0,0,1-.76,4,16.37,16.37,0,0,1-2.34,3.94,53.17,53.17,0,0,1-5.26,5.49l-5.45,5.29v.21h14.91Z" transform="translate(-4.3 -1.89)"/></g></g></svg>