<svg xmlns="http://www.w3.org/2000/svg" xmlns:xlink="http://www.w3.org/1999/xlink" viewBox="0 0 200 200"><defs><style>.cls-1,.cls-4,.cls-7{fill:#fff;}.cls-1{opacity:0;}.cls-2{fill:url(#Neues_Verlaufsfeld_2);}.cls-3{opacity:0.4;}.cls-5{fill:#616161;}.cls-6{opacity:0.7;fill:url(#Unbenannter_Verlauf_154);}.cls-7{opacity:0.1;}.cls-8{fill:url(#Unbenannter_Verlauf_79);}</style><linearGradient id="Neues_Verlaufsfeld_2" x1="5.9" y1="124.84" x2="194.28" y2="124.84" gradientUnits="userSpaceOnUse"><stop offset="0" stop-color="#8a8a8a"/><stop offset="0.04" stop-color="#9e9e9e"/><stop offset="0.15" stop-color="#bebebe"/><stop offset="0.32" stop-color="#ededed"/><stop offset="0.4" stop-color="#fff"/><stop offset="0.45" stop-color="#f6f6f6"/><stop offset="0.6" stop-color="#e0e0e0"/><stop offset="0.63" stop-color="#cacaca"/><stop offset="0.69" stop-color="#999"/><stop offset="0.75" stop-color="#7b7b7b"/><stop offset="0.78" stop-color="#707070"/><stop offset="0.82" stop-color="#737373"/><stop offset="0.85" stop-color="#7e7e7e"/><stop offset="0.88" stop-color="#909090"/><stop offset="0.91" stop-color="#a9a9a9"/><stop offset="0.94" stop-color="#c9c9c9"/><stop offset="0.96" stop-color="#efefef"/><stop offset="0.96" stop-color="#f0f0f0"/><stop offset="1" stop-color="#d9d9d9"/></linearGradient><linearGradient id="Unbenannter_Verlauf_154" x1="102" y1="26.22" x2="100.64" y2="121.32" gradientUnits="userSpaceOnUse"><stop offset="0" stop-color="#666"/><stop offset="0.7" stop-color="#9e9e9e" stop-opacity="0"/></linearGradient><linearGradient id="Unbenannter_Verlauf_79" x1="51.19" y1="73.19" x2="133.84" y2="209.62" gradientUnits="userSpaceOnUse"><stop offset="0" stop-color="#fff"/><stop offset="0.02" stop-color="#fff" stop-opacity="0.86"/><stop offset="0.06" stop-color="#fff" stop-opacity="0.68"/><stop offset="0.1" stop-color="#fff" stop-opacity="0.52"/><stop offset="0.14" stop-color="#fff" stop-opacity="0.38"/><stop offset="0.18" stop-color="#fff" stop-opacity="0.26"/><stop offset="0.23" stop-color="#fff" stop-opacity="0.16"/><stop offset="0.29" stop-color="#fff" stop-opacity="0.09"/><stop offset="0.35" stop-color="#fff" stop-opacity="0.04"/><stop offset="0.43" stop-color="#fff" stop-opacity="0.01"/><stop offset="0.59" stop-color="#fff" stop-opacity="0"/></linearGradient></defs><g id="BG"><rect class="cls-1" width="200" height="200"/></g><g id="Dreifarbig"><g id="diagonal-1-2-1"><path id="Einfarbig" class="cls-2" d="M194.28,120a68.64,68.64,0,0,0-60.14-68.26,287.58,287.58,0,0,0-34.76-1.89,284.31,284.31,0,0,0-32.73,1.75A68.77,68.77,0,0,0,5.9,119.92v79.92H194.28Z" transform="translate(-4.3 -1.89)"/><g class="cls-3"><path d="M194.28,199.84V120A68.84,68.84,0,0,0,179.56,77.4l-57.1,122.44Z" transform="translate(-4.3 -1.89)"/><path d="M66.65,51.59A68.77,68.77,0,0,0,5.9,119.92v79.92H18.54L88.4,50C80.41,50.29,73.17,50.83,66.65,51.59Z" transform="translate(-4.3 -1.89)"/></g><g id="Fuge"><polygon class="cls-4" points="15.32 197.95 14.1 197.95 84.26 48.13 85.5 48.09 15.32 197.95"/><polygon class="cls-5" points="14.33 197.95 13.12 197.93 83.26 48.16 84.47 48.12 14.33 197.95"/></g><g id="Fuge-2" data-name="Fuge"><polygon class="cls-4" points="119.36 197.87 118.14 197.87 175.22 75.44 175.98 76.42 119.36 197.87"/><polygon class="cls-5" points="117.94 198.85 116.73 198.82 174.6 74.67 175.37 75.64 117.94 198.85"/></g><path id="Top-Schatten" class="cls-6" d="M194.28,120a68.64,68.64,0,0,0-60.14-68.26,287.58,287.58,0,0,0-34.76-1.89,284.31,284.31,0,0,0-32.73,1.75A68.77,68.77,0,0,0,5.9,119.92v79.92H194.28Z" transform="translate(-4.3 -1.89)"/><path id="Seite-Licht" class="cls-7" d="M194.28,120c0-41.08-32.3-61.31-44.07-64.12,0,0,30.79,15.79,31,49.63.14,22.49.38,94.34.38,94.34h12.7Z" transform="translate(-4.3 -1.89)"/><path id="Glanzlicht" class="cls-8" d="M172.24,200V112.41c0-33.4-27.32-62.62-60.71-62.62H80.9c-33.39,0-60.72,29.22-60.72,62.62V200Z" transform="translate(-4.3 -1.89)"/><path class="cls-4" d="M172,184.64h-5V164.35c0-2.42,0-4.34.17-5.75-.33.34-.73.72-1.21,1.13s-2.09,1.74-4.83,4l-2.53-3.2,9.24-7.26H172Z" transform="translate(-4.3 -1.89)"/><path d="M110.14,147.17H88.85v-3.83L97,135.2a68.27,68.27,0,0,0,4.76-5.21,12.51,12.51,0,0,0,1.71-2.89,8,8,0,0,0,.53-2.9,4.39,4.39,0,0,0-1.28-3.35,4.87,4.87,0,0,0-3.53-1.22,9.49,9.49,0,0,0-3.49.66,16.36,16.36,0,0,0-3.9,2.41L89,119.37a17.73,17.73,0,0,1,5.09-3.14,15.05,15.05,0,0,1,5.27-.92,10.32,10.32,0,0,1,7,2.29,7.71,7.71,0,0,1,2.64,6.15,10.75,10.75,0,0,1-.76,4,16.37,16.37,0,0,1-2.34,3.94,51.78,51.78,0,0,1-5.25,5.49l-5.46,5.29v.21h14.91Z" transform="translate(-4.3 -1.89)"/><path class="cls-4" d="M45.15,111.94h-5V91.66c0-2.42.06-4.34.17-5.76-.33.34-.73.72-1.21,1.14S37,88.77,34.24,91l-2.54-3.2,9.24-7.26h4.21Z" transform="translate(-4.3 -1.89)"/></g></g></svg>