<svg xmlns="http://www.w3.org/2000/svg" xmlns:xlink="http://www.w3.org/1999/xlink" viewBox="0 0 200 200"><defs><style>.cls-1,.cls-5,.cls-7{fill:#fff;}.cls-1{opacity:0;}.cls-2{fill:url(#Neues_Verlaufsfeld_2);}.cls-3{opacity:0.4;}.cls-4{fill:#3e3e3e;}.cls-6{opacity:0.7;fill:url(#Unbenannter_Verlauf_154);}.cls-7{opacity:0.1;}.cls-8{fill:url(#Unbenannter_Verlauf_79);}</style><linearGradient id="Neues_Verlaufsfeld_2" x1="5.9" y1="124.91" x2="194.28" y2="124.91" gradientUnits="userSpaceOnUse"><stop offset="0" stop-color="#8a8a8a"/><stop offset="0.04" stop-color="#9e9e9e"/><stop offset="0.15" stop-color="#bebebe"/><stop offset="0.32" stop-color="#ededed"/><stop offset="0.4" stop-color="#fff"/><stop offset="0.45" stop-color="#f6f6f6"/><stop offset="0.6" stop-color="#e0e0e0"/><stop offset="0.63" stop-color="#cacaca"/><stop offset="0.69" stop-color="#999"/><stop offset="0.75" stop-color="#7b7b7b"/><stop offset="0.78" stop-color="#707070"/><stop offset="0.82" stop-color="#737373"/><stop offset="0.85" stop-color="#7e7e7e"/><stop offset="0.88" stop-color="#909090"/><stop offset="0.91" stop-color="#a9a9a9"/><stop offset="0.94" stop-color="#c9c9c9"/><stop offset="0.96" stop-color="#efefef"/><stop offset="0.96" stop-color="#f0f0f0"/><stop offset="1" stop-color="#d9d9d9"/></linearGradient><linearGradient id="Unbenannter_Verlauf_154" x1="102" y1="26.19" x2="100.64" y2="121.4" gradientUnits="userSpaceOnUse"><stop offset="0" stop-color="#666"/><stop offset="0.7" stop-color="#9e9e9e" stop-opacity="0"/></linearGradient><linearGradient id="Unbenannter_Verlauf_79" x1="51.19" y1="73.19" x2="133.84" y2="209.62" gradientUnits="userSpaceOnUse"><stop offset="0" stop-color="#fff"/><stop offset="0.02" stop-color="#fff" stop-opacity="0.86"/><stop offset="0.06" stop-color="#fff" stop-opacity="0.68"/><stop offset="0.1" stop-color="#fff" stop-opacity="0.52"/><stop offset="0.14" stop-color="#fff" stop-opacity="0.38"/><stop offset="0.18" stop-color="#fff" stop-opacity="0.26"/><stop offset="0.23" stop-color="#fff" stop-opacity="0.16"/><stop offset="0.29" stop-color="#fff" stop-opacity="0.09"/><stop offset="0.35" stop-color="#fff" stop-opacity="0.04"/><stop offset="0.43" stop-color="#fff" stop-opacity="0.01"/><stop offset="0.59" stop-color="#fff" stop-opacity="0"/></linearGradient></defs><g id="BG"><rect class="cls-1" width="200" height="200"/></g><g id="Zweifarbig"><g id="sine-1-1"><path id="Einfarbig" class="cls-2" d="M194.28,120a68.64,68.64,0,0,0-60.14-68.26,287.58,287.58,0,0,0-34.76-1.89,284.31,284.31,0,0,0-32.73,1.75A68.77,68.77,0,0,0,5.9,119.92V200H194.28Z" transform="translate(-4.3 -1.89)"/><path class="cls-3" d="M134.14,51.73c-6.65-.81-14-1.38-22.24-1.67,2.44,1.53,18.55,16.13,18.71,44,.31,53.65-58.59,68.36-69.3,106h133V120A68.64,68.64,0,0,0,134.14,51.73Z" transform="translate(-4.3 -1.89)"/><path class="cls-4" d="M112.2,50l-1.48,0c.18.11,19.22,14.27,19.39,44,.18,31-19.36,48.67-38.25,65.78C78.22,172.17,65.3,184.09,60.78,200l1,0c4.44-15.6,17.21-27.17,30.74-39.42,19.06-17.26,38.76-35.1,38.58-66.52C131,67.2,115.93,52.37,112.2,50Z" transform="translate(-4.3 -1.89)"/><path class="cls-5" d="M113.59,50.05l-1.07,0c.19.11,18.34,14.7,18.51,44.41.18,31-19.36,48.67-38.25,65.78C79.27,172.49,66.46,184.32,61.83,200h1c4.56-15.38,17.2-26.85,30.6-39,19.06-17.26,38.76-35.1,38.58-66.52C131.88,67.64,117.31,52.38,113.59,50.05Z" transform="translate(-4.3 -1.89)"/><path id="Top-Schatten" class="cls-6" d="M194.28,120a68.64,68.64,0,0,0-60.14-68.26,287.58,287.58,0,0,0-34.76-1.89,284.31,284.31,0,0,0-32.73,1.75A68.77,68.77,0,0,0,5.9,119.92V200H194.28Z" transform="translate(-4.3 -1.89)"/><path id="Seite-Licht" class="cls-7" d="M194.28,120c0-41.08-32.3-61.31-44.07-64.12,0,0,30.79,15.79,31,49.63.14,22.49.38,94.5.38,94.5h12.7Z" transform="translate(-4.3 -1.89)"/><path id="Glanzlicht" class="cls-8" d="M172.24,200V112.41c0-33.4-27.32-62.62-60.71-62.62H80.9c-33.39,0-60.72,29.22-60.72,62.62V200Z" transform="translate(-4.3 -1.89)"/><path d="M75.86,110.29h-5V90c0-2.42.06-4.34.17-5.76a15.5,15.5,0,0,1-1.21,1.14c-.48.42-2.09,1.73-4.83,4l-2.53-3.2,9.24-7.26h4.21Z" transform="translate(-4.3 -1.89)"/><path class="cls-5" d="M154.2,181.56h-5V161.28c0-2.42,0-4.34.17-5.76-.33.34-.74.72-1.22,1.14s-2.08,1.73-4.82,4l-2.53-3.2,9.23-7.26h4.22Z" transform="translate(-4.3 -1.89)"/></g></g></svg>