<svg xmlns="http://www.w3.org/2000/svg" xmlns:xlink="http://www.w3.org/1999/xlink" viewBox="0 0 200 200"><defs><style>.cls-1,.cls-5{fill:#fff;}.cls-1{opacity:0;}.cls-2{fill:url(#Neues_Verlaufsfeld_2);}.cls-3{opacity:0.4;}.cls-4{opacity:0.7;fill:url(#Unbenannter_Verlauf_154);}.cls-5{opacity:0.1;}.cls-6{fill:url(#Unbenannter_Verlauf_79);}.cls-7{opacity:0.5;}</style><linearGradient id="Neues_Verlaufsfeld_2" x1="5.9" y1="124.91" x2="194.28" y2="124.91" gradientUnits="userSpaceOnUse"><stop offset="0" stop-color="#8a8a8a"/><stop offset="0.04" stop-color="#9e9e9e"/><stop offset="0.15" stop-color="#bebebe"/><stop offset="0.32" stop-color="#ededed"/><stop offset="0.4" stop-color="#fff"/><stop offset="0.45" stop-color="#f6f6f6"/><stop offset="0.6" stop-color="#e0e0e0"/><stop offset="0.63" stop-color="#cacaca"/><stop offset="0.69" stop-color="#999"/><stop offset="0.75" stop-color="#7b7b7b"/><stop offset="0.78" stop-color="#707070"/><stop offset="0.82" stop-color="#737373"/><stop offset="0.85" stop-color="#7e7e7e"/><stop offset="0.88" stop-color="#909090"/><stop offset="0.91" stop-color="#a9a9a9"/><stop offset="0.94" stop-color="#c9c9c9"/><stop offset="0.96" stop-color="#efefef"/><stop offset="0.96" stop-color="#f0f0f0"/><stop offset="1" stop-color="#d9d9d9"/></linearGradient><linearGradient id="Unbenannter_Verlauf_154" x1="102" y1="26.19" x2="100.64" y2="121.4" gradientUnits="userSpaceOnUse"><stop offset="0" stop-color="#666"/><stop offset="0.7" stop-color="#9e9e9e" stop-opacity="0"/></linearGradient><linearGradient id="Unbenannter_Verlauf_79" x1="51.19" y1="73.19" x2="133.84" y2="209.62" gradientUnits="userSpaceOnUse"><stop offset="0" stop-color="#fff"/><stop offset="0.02" stop-color="#fff" stop-opacity="0.86"/><stop offset="0.06" stop-color="#fff" stop-opacity="0.68"/><stop offset="0.1" stop-color="#fff" stop-opacity="0.52"/><stop offset="0.14" stop-color="#fff" stop-opacity="0.38"/><stop offset="0.18" stop-color="#fff" stop-opacity="0.26"/><stop offset="0.23" stop-color="#fff" stop-opacity="0.16"/><stop offset="0.29" stop-color="#fff" stop-opacity="0.09"/><stop offset="0.35" stop-color="#fff" stop-opacity="0.04"/><stop offset="0.43" stop-color="#fff" stop-opacity="0.01"/><stop offset="0.59" stop-color="#fff" stop-opacity="0"/></linearGradient></defs><g id="BG"><rect class="cls-1" width="200" height="200"/></g><g id="Frei"><g id="sine-frei-1"><path id="Einfarbig" class="cls-2" d="M194.28,120a68.64,68.64,0,0,0-60.14-68.26,287.58,287.58,0,0,0-34.76-1.89,284.31,284.31,0,0,0-32.73,1.75A68.77,68.77,0,0,0,5.9,119.92V200H194.28Z" transform="translate(-4.3 -1.89)"/><path class="cls-3" d="M98.46,94c-.15-26.42-14.65-40.9-18.23-43.63q2.19-.13,4.44-.24-9.8.45-18,1.42A68.77,68.77,0,0,0,5.9,119.92V200H29.16C39.9,162.39,98.77,147.67,98.46,94Z" transform="translate(-4.3 -1.89)"/><path id="Top-Schatten" class="cls-4" d="M194.28,120a68.64,68.64,0,0,0-60.14-68.26,287.58,287.58,0,0,0-34.76-1.89,284.31,284.31,0,0,0-32.73,1.75A68.77,68.77,0,0,0,5.9,119.92V200H194.28Z" transform="translate(-4.3 -1.89)"/><path id="Seite-Licht" class="cls-5" d="M194.28,120c0-41.08-32.3-61.31-44.07-64.12,0,0,30.79,15.79,31,49.63.14,22.49.38,94.5.38,94.5h12.7Z" transform="translate(-4.3 -1.89)"/><path id="Glanzlicht" class="cls-6" d="M172.24,200V112.41c0-33.4-27.32-62.62-60.71-62.62H80.9c-33.39,0-60.72,29.22-60.72,62.62V200Z" transform="translate(-4.3 -1.89)"/><path d="M30.32,200.31,28,199.65a47.77,47.77,0,0,1,2.71-7.17l2.17,1A44,44,0,0,0,30.32,200.31Zm6.43-13.59-2-1.33a74.56,74.56,0,0,1,4.86-6.5l1.85,1.54A71.9,71.9,0,0,0,36.75,186.72Zm10-12.17L45,172.88c1.69-1.75,3.56-3.6,5.73-5.66L52.41,169C50.27,171,48.42,172.82,46.75,174.55Zm11.51-11-1.62-1.77,2.67-2.43q1.63-1.47,3.25-3l1.62,1.77-3.25,3Zm11.8-10.86-1.65-1.74c2.09-2,3.94-3.82,5.65-5.59L75.78,147C74.05,148.81,72.18,150.67,70.06,152.68Zm11.17-11.62L79.4,139.5c1.78-2.08,3.43-4.17,4.9-6.2l2,1.41C84.74,136.79,83.05,138.93,81.23,141.06Zm9.44-13.15-2.07-1.2a69.65,69.65,0,0,0,3.54-7l2.2,1A67.59,67.59,0,0,1,90.67,127.91ZM97.1,113l-2.31-.67a61,61,0,0,0,1.69-7.63l2.37.37A64,64,0,0,1,97.1,113Zm2.52-16-2.4-.08c0-.81,0-1.63,0-2.45v-.41c0-1.68-.09-3.35-.22-5l2.39-.2c.14,1.7.22,3.44.23,5.17v.43C99.66,95.31,99.65,96.16,99.62,97ZM95.89,81.31a60.27,60.27,0,0,0-2.14-7.53L96,73a63,63,0,0,1,2.23,7.84ZM90.64,66.58a70.56,70.56,0,0,0-4-6.79l2-1.32a72.13,72.13,0,0,1,4.08,7ZM82.05,53.41c-1.56-1.95-3.3-4-5.17-6l1.76-1.63c1.9,2.05,3.68,4.11,5.29,6.11ZM71.31,41.78c-1.76-1.71-3.67-3.48-5.83-5.42l1.6-1.78c2.18,2,4.11,3.74,5.9,5.47Z" transform="translate(-4.3 -1.89)"/><polygon class="cls-7" points="48.99 35.74 59.19 41.63 59.19 29.85 48.99 35.74"/><polygon class="cls-7" points="81.1 35.74 70.91 29.85 70.91 41.63 81.1 35.74"/></g></g></svg>