<svg xmlns="http://www.w3.org/2000/svg" xmlns:xlink="http://www.w3.org/1999/xlink" viewBox="0 0 200 200"><defs><style>.cls-1,.cls-4,.cls-8{fill:#fff;}.cls-1{opacity:0;}.cls-2{fill:url(#Neues_Verlaufsfeld_2);}.cls-3{opacity:0.4;}.cls-5{fill:#616161;}.cls-6{fill:#3e3e3e;}.cls-7{opacity:0.7;fill:url(#Unbenannter_Verlauf_154);}.cls-8{opacity:0.1;}.cls-9{fill:url(#Unbenannter_Verlauf_79);}.cls-10{opacity:0.5;}</style><linearGradient id="Neues_Verlaufsfeld_2" x1="6.1" y1="124.84" x2="194.48" y2="124.84" gradientUnits="userSpaceOnUse"><stop offset="0" stop-color="#8a8a8a"/><stop offset="0.04" stop-color="#9e9e9e"/><stop offset="0.15" stop-color="#bebebe"/><stop offset="0.32" stop-color="#ededed"/><stop offset="0.4" stop-color="#fff"/><stop offset="0.45" stop-color="#f6f6f6"/><stop offset="0.6" stop-color="#e0e0e0"/><stop offset="0.63" stop-color="#cacaca"/><stop offset="0.69" stop-color="#999"/><stop offset="0.75" stop-color="#7b7b7b"/><stop offset="0.78" stop-color="#707070"/><stop offset="0.82" stop-color="#737373"/><stop offset="0.85" stop-color="#7e7e7e"/><stop offset="0.88" stop-color="#909090"/><stop offset="0.91" stop-color="#a9a9a9"/><stop offset="0.94" stop-color="#c9c9c9"/><stop offset="0.96" stop-color="#efefef"/><stop offset="0.96" stop-color="#f0f0f0"/><stop offset="1" stop-color="#d9d9d9"/></linearGradient><linearGradient id="Unbenannter_Verlauf_154" x1="102.2" y1="26.22" x2="100.84" y2="121.32" gradientUnits="userSpaceOnUse"><stop offset="0" stop-color="#666"/><stop offset="0.7" stop-color="#9e9e9e" stop-opacity="0"/></linearGradient><linearGradient id="Unbenannter_Verlauf_79" x1="51.39" y1="73.19" x2="134.04" y2="209.62" gradientUnits="userSpaceOnUse"><stop offset="0" stop-color="#fff"/><stop offset="0.02" stop-color="#fff" stop-opacity="0.86"/><stop offset="0.06" stop-color="#fff" stop-opacity="0.68"/><stop offset="0.1" stop-color="#fff" stop-opacity="0.52"/><stop offset="0.14" stop-color="#fff" stop-opacity="0.38"/><stop offset="0.18" stop-color="#fff" stop-opacity="0.26"/><stop offset="0.23" stop-color="#fff" stop-opacity="0.16"/><stop offset="0.29" stop-color="#fff" stop-opacity="0.09"/><stop offset="0.35" stop-color="#fff" stop-opacity="0.04"/><stop offset="0.43" stop-color="#fff" stop-opacity="0.01"/><stop offset="0.59" stop-color="#fff" stop-opacity="0"/></linearGradient></defs><g id="BG"><rect class="cls-1" width="200" height="200"/></g><g id="Frei"><g id="Frei-2" data-name="Frei"><path id="Einfarbig" class="cls-2" d="M194.48,120a68.64,68.64,0,0,0-60.14-68.26,287.58,287.58,0,0,0-34.76-1.89,284.31,284.31,0,0,0-32.73,1.75A68.77,68.77,0,0,0,6.1,119.92v79.92H194.48Z" transform="translate(-4.3 -1.89)"/><g class="cls-3"><path d="M6.1,119.92v79.92H26V71.49A68.72,68.72,0,0,0,6.1,119.92Z" transform="translate(-4.3 -1.89)"/><path d="M99.58,49.84a284.31,284.31,0,0,0-32.73,1.75A68.36,68.36,0,0,0,43.2,58.83v141H113V50.09C108.73,49.92,104.28,49.84,99.58,49.84Z" transform="translate(-4.3 -1.89)"/><path d="M164.59,63.16V199.84h29.89V120A68.91,68.91,0,0,0,164.59,63.16Z" transform="translate(-4.3 -1.89)"/></g><g id="Fuge"><rect class="cls-4" x="108.57" y="48.2" width="1.1" height="149.77"/><rect class="cls-5" x="107.67" y="48.2" width="1.1" height="149.77"/></g><g id="Fuge-2" data-name="Fuge"><polygon class="cls-4" points="22.58 197.97 21.64 197.97 21.64 69.7 22.58 68.7 22.58 197.97"/><polygon class="cls-5" points="21.71 197.97 20.87 197.97 20.77 70.6 21.71 69.6 21.71 197.97"/></g><g id="Fuge-3" data-name="Fuge"><polygon class="cls-6" points="159.88 60.97 160.9 61.67 160.9 197.97 159.88 197.97 159.88 60.97"/></g><g id="Fuge-4" data-name="Fuge"><polygon class="cls-6" points="38.83 56.98 39.84 56.45 39.84 197.97 38.83 197.97 38.83 56.98"/></g><path id="Top-Schatten" class="cls-7" d="M194.48,120a68.64,68.64,0,0,0-60.14-68.26,287.58,287.58,0,0,0-34.76-1.89,284.31,284.31,0,0,0-32.73,1.75A68.77,68.77,0,0,0,6.1,119.92v79.92H194.48Z" transform="translate(-4.3 -1.89)"/><path id="Seite-Licht" class="cls-8" d="M194.48,120c0-41.08-32.3-61.31-44.07-64.12,0,0,30.79,15.79,31,49.63.14,22.49.38,94.34.38,94.34h12.7Z" transform="translate(-4.3 -1.89)"/><path id="Glanzlicht" class="cls-9" d="M172.44,200V112.41c0-33.4-27.32-62.62-60.71-62.62H81.1c-33.39,0-60.72,29.22-60.72,62.62V200Z" transform="translate(-4.3 -1.89)"/><path d="M43.13,188.19h2.08v7.9H43.13Z" transform="translate(-4.3 -1.89)"/><path d="M43.13,175.16h2.08v7.91H43.13Z" transform="translate(-4.3 -1.89)"/><path d="M43.13,162.14h2.08V170H43.13Z" transform="translate(-4.3 -1.89)"/><path d="M43.13,149.12h2.08V157H43.13Z" transform="translate(-4.3 -1.89)"/><path d="M43.13,136.09h2.08V144H43.13Z" transform="translate(-4.3 -1.89)"/><path d="M43.13,123.07h2.08V131H43.13Z" transform="translate(-4.3 -1.89)"/><path d="M43.13,110h2.08V118H43.13Z" transform="translate(-4.3 -1.89)"/><path d="M43.13,97h2.08v7.9H43.13Z" transform="translate(-4.3 -1.89)"/><path d="M43.13,84h2.08v7.9H43.13Z" transform="translate(-4.3 -1.89)"/><path d="M43.13,71h2.08v7.91H43.13Z" transform="translate(-4.3 -1.89)"/><path d="M43.13,58h2.08v7.9H43.13Z" transform="translate(-4.3 -1.89)"/><path d="M43.13,44.93h2.08v7.9H43.13Z" transform="translate(-4.3 -1.89)"/><path d="M43.13,31.9h2.08v7.9H43.13Z" transform="translate(-4.3 -1.89)"/><path d="M43.13,18.88h2.08v7.9H43.13Z" transform="translate(-4.3 -1.89)"/><polygon class="cls-10" points="23.55 22.88 33.74 28.77 33.74 16.99 23.55 22.88"/><polygon class="cls-10" points="55.66 22.88 45.47 16.99 45.47 28.77 55.66 22.88"/></g></g></svg>