<svg xmlns="http://www.w3.org/2000/svg" xmlns:xlink="http://www.w3.org/1999/xlink" viewBox="0 0 200 200"><defs><style>.cls-1,.cls-4,.cls-7{fill:#fff;}.cls-1{opacity:0;}.cls-2{fill:url(#Neues_Verlaufsfeld_2);}.cls-3{opacity:0.4;}.cls-5{fill:#3e3e3e;}.cls-6{opacity:0.7;fill:url(#Unbenannter_Verlauf_154);}.cls-7{opacity:0.1;}.cls-8{fill:url(#Unbenannter_Verlauf_79);}</style><linearGradient id="Neues_Verlaufsfeld_2" x1="5.9" y1="124.84" x2="194.28" y2="124.84" gradientUnits="userSpaceOnUse"><stop offset="0" stop-color="#8a8a8a"/><stop offset="0.04" stop-color="#9e9e9e"/><stop offset="0.15" stop-color="#bebebe"/><stop offset="0.32" stop-color="#ededed"/><stop offset="0.4" stop-color="#fff"/><stop offset="0.45" stop-color="#f6f6f6"/><stop offset="0.6" stop-color="#e0e0e0"/><stop offset="0.63" stop-color="#cacaca"/><stop offset="0.69" stop-color="#999"/><stop offset="0.75" stop-color="#7b7b7b"/><stop offset="0.78" stop-color="#707070"/><stop offset="0.82" stop-color="#737373"/><stop offset="0.85" stop-color="#7e7e7e"/><stop offset="0.88" stop-color="#909090"/><stop offset="0.91" stop-color="#a9a9a9"/><stop offset="0.94" stop-color="#c9c9c9"/><stop offset="0.96" stop-color="#efefef"/><stop offset="0.96" stop-color="#f0f0f0"/><stop offset="1" stop-color="#d9d9d9"/></linearGradient><linearGradient id="Unbenannter_Verlauf_154" x1="102" y1="26.22" x2="100.64" y2="121.32" gradientUnits="userSpaceOnUse"><stop offset="0" stop-color="#666"/><stop offset="0.7" stop-color="#9e9e9e" stop-opacity="0"/></linearGradient><linearGradient id="Unbenannter_Verlauf_79" x1="51.19" y1="73.19" x2="133.84" y2="209.62" gradientUnits="userSpaceOnUse"><stop offset="0" stop-color="#fff"/><stop offset="0.02" stop-color="#fff" stop-opacity="0.86"/><stop offset="0.06" stop-color="#fff" stop-opacity="0.68"/><stop offset="0.1" stop-color="#fff" stop-opacity="0.52"/><stop offset="0.14" stop-color="#fff" stop-opacity="0.38"/><stop offset="0.18" stop-color="#fff" stop-opacity="0.26"/><stop offset="0.23" stop-color="#fff" stop-opacity="0.16"/><stop offset="0.29" stop-color="#fff" stop-opacity="0.09"/><stop offset="0.35" stop-color="#fff" stop-opacity="0.04"/><stop offset="0.43" stop-color="#fff" stop-opacity="0.01"/><stop offset="0.59" stop-color="#fff" stop-opacity="0"/></linearGradient></defs><g id="BG"><rect class="cls-1" width="200" height="200"/></g><g id="Dreifarbig"><g id="vertical-2-1-2"><path id="Einfarbig" class="cls-2" d="M194.28,120a68.64,68.64,0,0,0-60.14-68.26,287.58,287.58,0,0,0-34.76-1.89,284.31,284.31,0,0,0-32.73,1.75A68.77,68.77,0,0,0,5.9,119.92v79.92H194.28Z" transform="translate(-4.3 -1.89)"/><g class="cls-3"><path d="M134.14,51.73q-7-.85-15.21-1.34V199.66h75.2v-84A68.59,68.59,0,0,0,134.14,51.73Z" transform="translate(-4.3 -1.89)"/><path d="M81.25,50.34q-7.81.45-14.6,1.25a68.74,68.74,0,0,0-60.59,64v84.09H81.25Z" transform="translate(-4.3 -1.89)"/></g><g id="Fuge"><polygon class="cls-4" points="115.63 197.97 114.53 197.97 114.53 48.5 115.63 48.56 115.63 197.97"/><polygon class="cls-5" points="114.73 197.91 113.63 197.91 113.63 48.43 114.73 48.5 114.73 197.91"/></g><g id="Fuge-2" data-name="Fuge"><polygon class="cls-4" points="77.98 198.41 76.87 198.41 76.83 48.45 77.93 48.4 77.98 198.41"/><polygon class="cls-5" points="77.03 198.4 75.93 198.4 75.93 48.52 77.03 48.45 77.03 198.4"/></g><path id="Top-Schatten" class="cls-6" d="M194.28,120a68.64,68.64,0,0,0-60.14-68.26,287.58,287.58,0,0,0-34.76-1.89,284.31,284.31,0,0,0-32.73,1.75A68.77,68.77,0,0,0,5.9,119.92v79.92H194.28Z" transform="translate(-4.3 -1.89)"/><path id="Seite-Licht" class="cls-7" d="M194.28,120c0-41.08-32.3-61.31-44.07-64.12,0,0,30.79,15.79,31,49.63.14,22.49.38,94.34.38,94.34h12.7Z" transform="translate(-4.3 -1.89)"/><path id="Glanzlicht" class="cls-8" d="M172.24,200V112.41c0-33.4-27.32-62.62-60.71-62.62H80.9c-33.39,0-60.72,29.22-60.72,62.62V200Z" transform="translate(-4.3 -1.89)"/><path d="M104.22,149.71h-5V129.43c0-2.42.06-4.34.17-5.76-.33.34-.73.72-1.21,1.14s-2.09,1.73-4.82,3.95l-2.54-3.2L100,118.3h4.21Z" transform="translate(-4.3 -1.89)"/><path class="cls-4" d="M167.92,149.93H146.63v-3.82l8.1-8.14a70.29,70.29,0,0,0,4.76-5.21,12.72,12.72,0,0,0,1.71-2.89,7.79,7.79,0,0,0,.54-2.9,4.45,4.45,0,0,0-1.28-3.36,4.93,4.93,0,0,0-3.54-1.22,9.33,9.33,0,0,0-3.49.67,16.34,16.34,0,0,0-3.9,2.4l-2.72-3.33A17.42,17.42,0,0,1,151.9,119a14.78,14.78,0,0,1,5.26-.93,10.36,10.36,0,0,1,7,2.29,7.72,7.72,0,0,1,2.64,6.15,11,11,0,0,1-.76,4,16.34,16.34,0,0,1-2.35,3.95,53.8,53.8,0,0,1-5.25,5.49L153,145.27v.22h14.91Z" transform="translate(-4.3 -1.89)"/><path class="cls-4" d="M55,149.93H33.71v-3.82l8.1-8.14a70.29,70.29,0,0,0,4.76-5.21,12.72,12.72,0,0,0,1.71-2.89,8,8,0,0,0,.53-2.9,4.45,4.45,0,0,0-1.27-3.36A4.94,4.94,0,0,0,44,122.39a9.3,9.3,0,0,0-3.49.67,16.34,16.34,0,0,0-3.9,2.4l-2.73-3.33A17.68,17.68,0,0,1,39,119a14.87,14.87,0,0,1,5.27-.93,10.32,10.32,0,0,1,7,2.29,7.73,7.73,0,0,1,2.65,6.15,10.76,10.76,0,0,1-.77,4,16.61,16.61,0,0,1-2.34,3.95A53.8,53.8,0,0,1,45.55,140l-5.46,5.28v.22H55Z" transform="translate(-4.3 -1.89)"/></g></g></svg>