<svg xmlns="http://www.w3.org/2000/svg" xmlns:xlink="http://www.w3.org/1999/xlink" viewBox="0 0 200 200"><defs><style>.cls-1,.cls-4,.cls-7{fill:#fff;}.cls-1{opacity:0;}.cls-2{fill:url(#Neues_Verlaufsfeld_2);}.cls-3{opacity:0.4;}.cls-5{fill:#3e3e3e;}.cls-6{opacity:0.7;fill:url(#Unbenannter_Verlauf_154);}.cls-7{opacity:0.1;}.cls-8{fill:url(#Unbenannter_Verlauf_79);}</style><linearGradient id="Neues_Verlaufsfeld_2" x1="5.9" y1="124.84" x2="194.28" y2="124.84" gradientUnits="userSpaceOnUse"><stop offset="0" stop-color="#8a8a8a"/><stop offset="0.04" stop-color="#9e9e9e"/><stop offset="0.15" stop-color="#bebebe"/><stop offset="0.32" stop-color="#ededed"/><stop offset="0.4" stop-color="#fff"/><stop offset="0.45" stop-color="#f6f6f6"/><stop offset="0.6" stop-color="#e0e0e0"/><stop offset="0.63" stop-color="#cacaca"/><stop offset="0.69" stop-color="#999"/><stop offset="0.75" stop-color="#7b7b7b"/><stop offset="0.78" stop-color="#707070"/><stop offset="0.82" stop-color="#737373"/><stop offset="0.85" stop-color="#7e7e7e"/><stop offset="0.88" stop-color="#909090"/><stop offset="0.91" stop-color="#a9a9a9"/><stop offset="0.94" stop-color="#c9c9c9"/><stop offset="0.96" stop-color="#efefef"/><stop offset="0.96" stop-color="#f0f0f0"/><stop offset="1" stop-color="#d9d9d9"/></linearGradient><linearGradient id="Unbenannter_Verlauf_154" x1="102" y1="26.22" x2="100.64" y2="121.32" gradientUnits="userSpaceOnUse"><stop offset="0" stop-color="#666"/><stop offset="0.7" stop-color="#9e9e9e" stop-opacity="0"/></linearGradient><linearGradient id="Unbenannter_Verlauf_79" x1="51.19" y1="73.19" x2="133.84" y2="209.62" gradientUnits="userSpaceOnUse"><stop offset="0" stop-color="#fff"/><stop offset="0.02" stop-color="#fff" stop-opacity="0.86"/><stop offset="0.06" stop-color="#fff" stop-opacity="0.68"/><stop offset="0.1" stop-color="#fff" stop-opacity="0.52"/><stop offset="0.14" stop-color="#fff" stop-opacity="0.38"/><stop offset="0.18" stop-color="#fff" stop-opacity="0.26"/><stop offset="0.23" stop-color="#fff" stop-opacity="0.16"/><stop offset="0.29" stop-color="#fff" stop-opacity="0.09"/><stop offset="0.35" stop-color="#fff" stop-opacity="0.04"/><stop offset="0.43" stop-color="#fff" stop-opacity="0.01"/><stop offset="0.59" stop-color="#fff" stop-opacity="0"/></linearGradient></defs><g id="BG"><rect class="cls-1" width="200" height="200"/></g><g id="Dreifarbig"><g id="vertical-1-3-1"><path id="Einfarbig" class="cls-2" d="M194.28,120a68.64,68.64,0,0,0-60.14-68.26,287.58,287.58,0,0,0-34.76-1.89,284.31,284.31,0,0,0-32.73,1.75A68.77,68.77,0,0,0,5.9,119.92v79.92H194.28Z" transform="translate(-4.3 -1.89)"/><g class="cls-3"><path d="M156.61,58.55V199.84h37.67V120A68.87,68.87,0,0,0,156.61,58.55Z" transform="translate(-4.3 -1.89)"/><path d="M5.9,119.92v79.92H43.58V58.54A68.83,68.83,0,0,0,5.9,119.92Z" transform="translate(-4.3 -1.89)"/></g><g id="Fuge"><polygon class="cls-4" points="153.3 197.95 152.2 197.95 152.2 56.59 153.3 57.16 153.3 197.95"/><polygon class="cls-5" points="152.41 197.95 151.3 197.95 151.3 56.15 152.41 56.7 152.41 197.95"/></g><g id="Fuge-2" data-name="Fuge"><polygon class="cls-4" points="40.28 197.97 39.17 197.97 39.17 56.69 40.28 56.14 40.28 197.97"/><polygon class="cls-5" points="39.38 197.91 38.28 197.91 38.28 57.16 39.38 56.59 39.38 197.91"/></g><path id="Top-Schatten" class="cls-6" d="M194.28,120a68.64,68.64,0,0,0-60.14-68.26,287.58,287.58,0,0,0-34.76-1.89,284.31,284.31,0,0,0-32.73,1.75A68.77,68.77,0,0,0,5.9,119.92v79.92H194.28Z" transform="translate(-4.3 -1.89)"/><path id="Seite-Licht" class="cls-7" d="M194.28,120c0-41.08-32.3-61.31-44.07-64.12,0,0,30.79,15.79,31,49.63.14,22.49.38,94.34.38,94.34h12.7Z" transform="translate(-4.3 -1.89)"/><path id="Glanzlicht" class="cls-8" d="M172.24,200V112.41c0-33.4-27.32-62.62-60.71-62.62H80.9c-33.39,0-60.72,29.22-60.72,62.62V200Z" transform="translate(-4.3 -1.89)"/><path class="cls-4" d="M28.71,149.71H23.66V129.43c0-2.42.06-4.34.17-5.76-.33.34-.73.72-1.21,1.14s-2.09,1.73-4.83,3.95l-2.53-3.2,9.24-7.26h4.21Z" transform="translate(-4.3 -1.89)"/><path class="cls-4" d="M180.69,149.71h-5.05V129.43c0-2.42.05-4.34.17-5.76-.33.34-.74.72-1.21,1.14s-2.09,1.73-4.83,3.95l-2.53-3.2,9.24-7.26h4.21Z" transform="translate(-4.3 -1.89)"/><path d="M111.14,125.09a7.26,7.26,0,0,1-1.74,5,8.77,8.77,0,0,1-4.9,2.68v.17a9.46,9.46,0,0,1,5.67,2.35,6.73,6.73,0,0,1,1.89,5,8.31,8.31,0,0,1-3.2,7c-2.14,1.64-5.17,2.46-9.11,2.46a20.54,20.54,0,0,1-8.81-1.7v-4.49a20.1,20.1,0,0,0,4.23,1.53,18.79,18.79,0,0,0,4.3.53,9.11,9.11,0,0,0,5.46-1.35,4.9,4.9,0,0,0,1.8-4.19,4,4,0,0,0-2-3.7c-1.33-.78-3.42-1.18-6.27-1.18H95.73v-4.1H98.5q7.53,0,7.52-5.2a3.83,3.83,0,0,0-1.31-3.11,5.84,5.84,0,0,0-3.87-1.1,11.91,11.91,0,0,0-3.43.5,16.39,16.39,0,0,0-3.91,2L91,120.6a16.46,16.46,0,0,1,10-3.18c3.16,0,5.64.68,7.41,2A6.7,6.7,0,0,1,111.14,125.09Z" transform="translate(-4.3 -1.89)"/></g></g></svg>