<svg xmlns="http://www.w3.org/2000/svg" xmlns:xlink="http://www.w3.org/1999/xlink" viewBox="0 0 200 200"><defs><style>.cls-1,.cls-8{fill:#fff;}.cls-1{opacity:0;}.cls-2{fill:url(#Unbenannter_Verlauf_40);}.cls-3{fill:url(#Unbenannter_Verlauf_42);}.cls-4{opacity:0.29;fill:url(#Unbenannter_Verlauf_227);}.cls-5{opacity:0.25;fill:url(#Unbenannter_Verlauf_73);}.cls-6{fill:url(#Unbenannter_Verlauf_95);}.cls-7{opacity:0.4;}</style><linearGradient id="Unbenannter_Verlauf_40" x1="99" y1="191.98" x2="99" y2="121.39" gradientUnits="userSpaceOnUse"><stop offset="0" stop-color="#6b6b6b"/><stop offset="0.15" stop-color="#9e9e9e"/><stop offset="0.22" stop-color="#bebebe"/><stop offset="0.35" stop-color="#ededed"/><stop offset="0.41" stop-color="#fff"/><stop offset="0.46" stop-color="#f6f6f6"/><stop offset="0.63" stop-color="#e0e0e0"/><stop offset="0.69" stop-color="#cacaca"/><stop offset="0.83" stop-color="#999"/><stop offset="0.94" stop-color="#7b7b7b"/><stop offset="1" stop-color="#707070"/></linearGradient><radialGradient id="Unbenannter_Verlauf_42" cx="33.43" cy="173.34" r="7.87" gradientTransform="translate(-231.87 -1194.42) rotate(-9.6) scale(1 8.04)" gradientUnits="userSpaceOnUse"><stop offset="0.18" stop-color="#fff" stop-opacity="0.7"/><stop offset="0.46" stop-color="#fff" stop-opacity="0.7"/><stop offset="0.54" stop-color="#fff" stop-opacity="0.7"/><stop offset="0.56" stop-color="#fff" stop-opacity="0.61"/><stop offset="0.61" stop-color="#fff" stop-opacity="0.42"/><stop offset="0.66" stop-color="#fff" stop-opacity="0.27"/><stop offset="0.7" stop-color="#fff" stop-opacity="0.15"/><stop offset="0.75" stop-color="#fff" stop-opacity="0.07"/><stop offset="0.8" stop-color="#fff" stop-opacity="0.02"/><stop offset="0.84" stop-color="#fff" stop-opacity="0"/></radialGradient><linearGradient id="Unbenannter_Verlauf_227" x1="66.01" y1="156.47" x2="95.05" y2="158.5" gradientUnits="userSpaceOnUse"><stop offset="0" stop-color="#fff" stop-opacity="0"/><stop offset="0.04" stop-color="#fff" stop-opacity="0.06"/><stop offset="0.24" stop-color="#fff" stop-opacity="0.34"/><stop offset="0.44" stop-color="#fff" stop-opacity="0.58"/><stop offset="0.61" stop-color="#fff" stop-opacity="0.76"/><stop offset="0.76" stop-color="#fff" stop-opacity="0.89"/><stop offset="0.89" stop-color="#fff" stop-opacity="0.97"/><stop offset="0.97" stop-color="#fff"/></linearGradient><linearGradient id="Unbenannter_Verlauf_73" x1="49.39" y1="143.36" x2="147.26" y2="143.36" gradientUnits="userSpaceOnUse"><stop offset="0" stop-color="#fff" stop-opacity="0.4"/><stop offset="0.5" stop-color="#f0efee" stop-opacity="0.4"/><stop offset="1" stop-color="#fff" stop-opacity="0.4"/></linearGradient><linearGradient id="Unbenannter_Verlauf_95" x1="87.94" y1="51.58" x2="194.85" y2="479.41" gradientUnits="userSpaceOnUse"><stop offset="0" stop-color="#e3e3e3"/><stop offset="0.18" stop-color="#8a8a8a"/><stop offset="1" stop-color="#e0e0e0"/></linearGradient></defs><g id="BG"><rect class="cls-1" width="200" height="200"/></g><g id="Zweifarbig"><g id="horizontal-1-1"><path class="cls-2" d="M38.36,176.77c1.25,8.94,2.22,16.7,3,23.23H156.68c.74-6.53,1.71-14.29,3-23.23,1.8-12.9,11.69-40.11,14.51-47.69a5,5,0,0,0-.22-3.92l-9.14-18.27H33.21l-9.14,18.27a5,5,0,0,0-.22,3.92C26.67,136.66,36.56,163.87,38.36,176.77Z" transform="translate(-4.3 -1.89)"/><path class="cls-3" d="M38.23,176.77c1.08,6.54,2.1,15.11,3,23.23h6.13a169.24,169.24,0,0,0-2.62-21.33C41.92,166.13,42,168.74,32,130.5c-2-7.45,8.26-23.61,8.26-23.61h-7.2l-9.14,18.27a5,5,0,0,0-.22,3.92C26.54,136.66,36.11,163.92,38.23,176.77Z" transform="translate(-4.3 -1.89)"/><path class="cls-4" d="M69.76,199.66H96.14c-.67-3.22-1.52-6.6-2.6-10-6-19.19-11.57-41.55-1.62-57.18,8.71-13.7,51.77-13.12,47-13.65,0,0-65.13-7.73-76.14,13.89-7.21,14.17-3.66,32.28,3.05,46.39C68.33,184.42,69.41,192.11,69.76,199.66Z" transform="translate(-4.3 -1.89)"/><path class="cls-5" d="M55.19,200.57H142c.14-2.57.31-5.26.52-8.09,2-26.25,17.87-53.75,8.63-83.49C146.28,93.3,128.62,85.42,99,86.26c0,0-41.45-2.9-50.86,20.91-7.59,19.22-3.66,44.41,3.05,63.81C53.82,178.66,54.88,189.78,55.19,200.57Z" transform="translate(-4.3 -1.89)"/><path class="cls-6" d="M100.48,50c-31.07,0-95,11.34-95,35.8v27.28c0,18.13,36.1,19.52,94.4,19.52s94.39-1.39,94.39-19.52V85.84C194.28,61.38,131.55,50,100.48,50Z" transform="translate(-4.3 -1.89)"/><path class="cls-7" d="M5.49,91.75v21.37c0,18.13,36.1,19.52,94.4,19.52s94.39-1.39,94.39-19.52V91.75Z" transform="translate(-4.3 -1.89)"/><path d="M103.82,84h-3.51V69.84c0-1.68,0-3,.11-4-.22.23-.51.5-.84.79s-1.45,1.2-3.36,2.75l-1.76-2.23,6.43-5.05h2.93Z" transform="translate(-4.3 -1.89)"/><path class="cls-8" d="M103.82,123.81h-3.51V109.69c0-1.68,0-3,.11-4a11.26,11.26,0,0,1-.84.8c-.33.29-1.45,1.2-3.36,2.75L94.46,107l6.43-5h2.93Z" transform="translate(-4.3 -1.89)"/></g></g></svg>