<svg xmlns="http://www.w3.org/2000/svg" xmlns:xlink="http://www.w3.org/1999/xlink" viewBox="0 0 200 200"><defs><style>.cls-1,.cls-5{fill:#fff;}.cls-1{opacity:0;}.cls-2{fill:url(#Neues_Verlaufsfeld_2);}.cls-3{opacity:0.4;}.cls-4{opacity:0.7;fill:url(#Unbenannter_Verlauf_154);}.cls-5{opacity:0.1;}.cls-6{fill:url(#Unbenannter_Verlauf_79);}.cls-7{opacity:0.5;}</style><linearGradient id="Neues_Verlaufsfeld_2" x1="5.9" y1="124.84" x2="194.28" y2="124.84" gradientUnits="userSpaceOnUse"><stop offset="0" stop-color="#8a8a8a"/><stop offset="0.04" stop-color="#9e9e9e"/><stop offset="0.15" stop-color="#bebebe"/><stop offset="0.32" stop-color="#ededed"/><stop offset="0.4" stop-color="#fff"/><stop offset="0.45" stop-color="#f6f6f6"/><stop offset="0.6" stop-color="#e0e0e0"/><stop offset="0.63" stop-color="#cacaca"/><stop offset="0.69" stop-color="#999"/><stop offset="0.75" stop-color="#7b7b7b"/><stop offset="0.78" stop-color="#707070"/><stop offset="0.82" stop-color="#737373"/><stop offset="0.85" stop-color="#7e7e7e"/><stop offset="0.88" stop-color="#909090"/><stop offset="0.91" stop-color="#a9a9a9"/><stop offset="0.94" stop-color="#c9c9c9"/><stop offset="0.96" stop-color="#efefef"/><stop offset="0.96" stop-color="#f0f0f0"/><stop offset="1" stop-color="#d9d9d9"/></linearGradient><linearGradient id="Unbenannter_Verlauf_154" x1="102" y1="26.22" x2="100.64" y2="121.32" gradientUnits="userSpaceOnUse"><stop offset="0" stop-color="#666"/><stop offset="0.7" stop-color="#9e9e9e" stop-opacity="0"/></linearGradient><linearGradient id="Unbenannter_Verlauf_79" x1="51.19" y1="73.19" x2="133.84" y2="209.62" gradientUnits="userSpaceOnUse"><stop offset="0" stop-color="#fff"/><stop offset="0.02" stop-color="#fff" stop-opacity="0.86"/><stop offset="0.06" stop-color="#fff" stop-opacity="0.68"/><stop offset="0.1" stop-color="#fff" stop-opacity="0.52"/><stop offset="0.14" stop-color="#fff" stop-opacity="0.38"/><stop offset="0.18" stop-color="#fff" stop-opacity="0.26"/><stop offset="0.23" stop-color="#fff" stop-opacity="0.16"/><stop offset="0.29" stop-color="#fff" stop-opacity="0.09"/><stop offset="0.35" stop-color="#fff" stop-opacity="0.04"/><stop offset="0.43" stop-color="#fff" stop-opacity="0.01"/><stop offset="0.59" stop-color="#fff" stop-opacity="0"/></linearGradient></defs><g id="BG"><rect class="cls-1" width="200" height="200"/></g><g id="Frei"><g id="vertical-frei-3"><path id="Einfarbig" class="cls-2" d="M194.28,120a68.64,68.64,0,0,0-60.14-68.26,287.58,287.58,0,0,0-34.76-1.89,284.31,284.31,0,0,0-32.73,1.75A68.77,68.77,0,0,0,5.9,119.92v79.92H194.28Z" transform="translate(-4.3 -1.89)"/><g class="cls-3"><path d="M99.38,49.84a284.31,284.31,0,0,0-32.73,1.75,68.84,68.84,0,0,0-13.65,3V199.84h47.09v-150Z" transform="translate(-4.3 -1.89)"/><path d="M147,54.57V199.84h47.1v-85A68.75,68.75,0,0,0,147,54.57Z" transform="translate(-4.3 -1.89)"/></g><path id="Top-Schatten" class="cls-4" d="M194.28,120a68.64,68.64,0,0,0-60.14-68.26,287.58,287.58,0,0,0-34.76-1.89,284.31,284.31,0,0,0-32.73,1.75A68.77,68.77,0,0,0,5.9,119.92v79.92H194.28Z" transform="translate(-4.3 -1.89)"/><path id="Seite-Licht" class="cls-5" d="M194.28,120c0-41.08-32.3-61.31-44.07-64.12,0,0,30.79,15.79,31,49.63.14,22.49.38,94.34.38,94.34h12.7Z" transform="translate(-4.3 -1.89)"/><path id="Glanzlicht" class="cls-6" d="M172.24,200V112.41c0-33.4-27.32-62.62-60.71-62.62H80.9c-33.39,0-60.72,29.22-60.72,62.62V200Z" transform="translate(-4.3 -1.89)"/><path d="M51.86,188.19h2.08v7.9H51.86Z" transform="translate(-4.3 -1.89)"/><path d="M51.86,175.16h2.08v7.91H51.86Z" transform="translate(-4.3 -1.89)"/><path d="M51.86,162.14h2.08V170H51.86Z" transform="translate(-4.3 -1.89)"/><path d="M51.86,149.12h2.08V157H51.86Z" transform="translate(-4.3 -1.89)"/><path d="M51.86,136.09h2.08V144H51.86Z" transform="translate(-4.3 -1.89)"/><path d="M51.86,123.07h2.08V131H51.86Z" transform="translate(-4.3 -1.89)"/><path d="M51.86,110h2.08V118H51.86Z" transform="translate(-4.3 -1.89)"/><path d="M51.86,97h2.08v7.9H51.86Z" transform="translate(-4.3 -1.89)"/><path d="M51.86,84h2.08v7.9H51.86Z" transform="translate(-4.3 -1.89)"/><path d="M51.86,71h2.08v7.91H51.86Z" transform="translate(-4.3 -1.89)"/><path d="M51.86,58h2.08v7.9H51.86Z" transform="translate(-4.3 -1.89)"/><path d="M51.86,44.93h2.08v7.9H51.86Z" transform="translate(-4.3 -1.89)"/><path d="M51.86,31.9h2.08v7.9H51.86Z" transform="translate(-4.3 -1.89)"/><path d="M51.86,18.88h2.08v7.9H51.86Z" transform="translate(-4.3 -1.89)"/><polygon class="cls-7" points="32.28 22.88 42.48 28.77 42.48 16.99 32.28 22.88"/><polygon class="cls-7" points="64.39 22.88 54.2 16.99 54.2 28.77 64.39 22.88"/><path d="M98.72,188.19h2.08v7.9H98.72Z" transform="translate(-4.3 -1.89)"/><path d="M98.72,175.16h2.08v7.91H98.72Z" transform="translate(-4.3 -1.89)"/><path d="M98.72,162.14h2.08V170H98.72Z" transform="translate(-4.3 -1.89)"/><path d="M98.72,149.12h2.08V157H98.72Z" transform="translate(-4.3 -1.89)"/><path d="M98.72,136.09h2.08V144H98.72Z" transform="translate(-4.3 -1.89)"/><path d="M98.72,123.07h2.08V131H98.72Z" transform="translate(-4.3 -1.89)"/><path d="M98.72,110h2.08V118H98.72Z" transform="translate(-4.3 -1.89)"/><path d="M98.72,97h2.08v7.9H98.72Z" transform="translate(-4.3 -1.89)"/><path d="M98.72,84h2.08v7.9H98.72Z" transform="translate(-4.3 -1.89)"/><path d="M98.72,71h2.08v7.91H98.72Z" transform="translate(-4.3 -1.89)"/><path d="M98.72,58h2.08v7.9H98.72Z" transform="translate(-4.3 -1.89)"/><path d="M98.72,44.93h2.08v7.9H98.72Z" transform="translate(-4.3 -1.89)"/><path d="M98.72,31.9h2.08v7.9H98.72Z" transform="translate(-4.3 -1.89)"/><path d="M98.72,18.88h2.08v7.9H98.72Z" transform="translate(-4.3 -1.89)"/><polygon class="cls-7" points="79.14 22.88 89.34 28.77 89.34 16.99 79.14 22.88"/><polygon class="cls-7" points="111.25 22.88 101.06 16.99 101.06 28.77 111.25 22.88"/><path d="M146.2,188.19h2.08v7.9H146.2Z" transform="translate(-4.3 -1.89)"/><path d="M146.2,175.16h2.08v7.91H146.2Z" transform="translate(-4.3 -1.89)"/><path d="M146.2,162.14h2.08V170H146.2Z" transform="translate(-4.3 -1.89)"/><path d="M146.2,149.12h2.08V157H146.2Z" transform="translate(-4.3 -1.89)"/><path d="M146.2,136.09h2.08V144H146.2Z" transform="translate(-4.3 -1.89)"/><path d="M146.2,123.07h2.08V131H146.2Z" transform="translate(-4.3 -1.89)"/><path d="M146.2,110h2.08V118H146.2Z" transform="translate(-4.3 -1.89)"/><path d="M146.2,97h2.08v7.9H146.2Z" transform="translate(-4.3 -1.89)"/><path d="M146.2,84h2.08v7.9H146.2Z" transform="translate(-4.3 -1.89)"/><path d="M146.2,71h2.08v7.91H146.2Z" transform="translate(-4.3 -1.89)"/><path d="M146.2,58h2.08v7.9H146.2Z" transform="translate(-4.3 -1.89)"/><path d="M146.2,44.93h2.08v7.9H146.2Z" transform="translate(-4.3 -1.89)"/><path d="M146.2,31.9h2.08v7.9H146.2Z" transform="translate(-4.3 -1.89)"/><path d="M146.2,18.88h2.08v7.9H146.2Z" transform="translate(-4.3 -1.89)"/><polygon class="cls-7" points="126.62 22.88 136.82 28.77 136.82 16.99 126.62 22.88"/><polygon class="cls-7" points="158.74 22.88 148.54 16.99 148.54 28.77 158.74 22.88"/></g></g></svg>