<svg xmlns="http://www.w3.org/2000/svg" xmlns:xlink="http://www.w3.org/1999/xlink" viewBox="0 0 200 200"><defs><style>.cls-1,.cls-5,.cls-7{fill:#fff;}.cls-1{opacity:0;}.cls-2{fill:url(#Neues_Verlaufsfeld_2);}.cls-3{opacity:0.4;}.cls-4{fill:#3e3e3e;}.cls-6{opacity:0.7;fill:url(#Unbenannter_Verlauf_154);}.cls-7{opacity:0.1;}.cls-8{fill:url(#Unbenannter_Verlauf_79);}</style><linearGradient id="Neues_Verlaufsfeld_2" x1="5.9" y1="124.91" x2="194.28" y2="124.91" gradientUnits="userSpaceOnUse"><stop offset="0" stop-color="#8a8a8a"/><stop offset="0.04" stop-color="#9e9e9e"/><stop offset="0.15" stop-color="#bebebe"/><stop offset="0.32" stop-color="#ededed"/><stop offset="0.4" stop-color="#fff"/><stop offset="0.45" stop-color="#f6f6f6"/><stop offset="0.6" stop-color="#e0e0e0"/><stop offset="0.63" stop-color="#cacaca"/><stop offset="0.69" stop-color="#999"/><stop offset="0.75" stop-color="#7b7b7b"/><stop offset="0.78" stop-color="#707070"/><stop offset="0.82" stop-color="#737373"/><stop offset="0.85" stop-color="#7e7e7e"/><stop offset="0.88" stop-color="#909090"/><stop offset="0.91" stop-color="#a9a9a9"/><stop offset="0.94" stop-color="#c9c9c9"/><stop offset="0.96" stop-color="#efefef"/><stop offset="0.96" stop-color="#f0f0f0"/><stop offset="1" stop-color="#d9d9d9"/></linearGradient><linearGradient id="Unbenannter_Verlauf_154" x1="102" y1="26.19" x2="100.64" y2="121.4" gradientUnits="userSpaceOnUse"><stop offset="0" stop-color="#666"/><stop offset="0.7" stop-color="#9e9e9e" stop-opacity="0"/></linearGradient><linearGradient id="Unbenannter_Verlauf_79" x1="51.19" y1="73.19" x2="133.84" y2="209.62" gradientUnits="userSpaceOnUse"><stop offset="0" stop-color="#fff"/><stop offset="0.02" stop-color="#fff" stop-opacity="0.86"/><stop offset="0.06" stop-color="#fff" stop-opacity="0.68"/><stop offset="0.1" stop-color="#fff" stop-opacity="0.52"/><stop offset="0.14" stop-color="#fff" stop-opacity="0.38"/><stop offset="0.18" stop-color="#fff" stop-opacity="0.26"/><stop offset="0.23" stop-color="#fff" stop-opacity="0.16"/><stop offset="0.29" stop-color="#fff" stop-opacity="0.09"/><stop offset="0.35" stop-color="#fff" stop-opacity="0.04"/><stop offset="0.43" stop-color="#fff" stop-opacity="0.01"/><stop offset="0.59" stop-color="#fff" stop-opacity="0"/></linearGradient></defs><g id="BG"><rect class="cls-1" width="200" height="200"/></g><g id="Dreifarbig"><g id="sine-1-1-1"><path id="Einfarbig" class="cls-2" d="M194.28,120a68.64,68.64,0,0,0-60.14-68.26,287.58,287.58,0,0,0-34.76-1.89,284.31,284.31,0,0,0-32.73,1.75A68.77,68.77,0,0,0,5.9,119.92V200H194.28Z" transform="translate(-4.3 -1.89)"/><g class="cls-3"><path d="M99.83,94C99.68,67.36,84.89,52.85,81.5,50.33q-8,.45-14.85,1.26A68.77,68.77,0,0,0,5.9,119.92V200H30.54C41.28,162.39,100.14,147.67,99.83,94Z" transform="translate(-4.3 -1.89)"/><path d="M140.46,53c5.25,7.17,17.07,21.19,17.29,42.92.56,53.64-49.77,66.43-60.51,104h97V120C194.28,92.86,176.21,60.42,140.46,53Z" transform="translate(-4.3 -1.89)"/></g><path class="cls-4" d="M82.24,51.23l-1.45.17C85.41,55.55,98.44,69.47,98.58,94c.18,31-19.36,48.67-38.25,65.78C46.69,172.17,33.77,184.09,29.25,200l1,0c4.44-15.6,17.21-27.17,30.74-39.42C80.06,143.3,99.76,125.46,99.58,94,99.44,70.08,87.46,55.71,82.24,51.23Z" transform="translate(-4.3 -1.89)"/><path class="cls-5" d="M83.45,51.12l-1.15.11c4.2,4,17.06,18.27,17.2,43.25.18,31-19.36,48.67-38.25,65.78C47.74,172.49,34.93,184.32,30.3,200h1c4.56-15.38,17.2-26.85,30.6-39C81,143.74,100.68,125.9,100.5,94.48,100.36,70.28,88.51,55.5,83.45,51.12Z" transform="translate(-4.3 -1.89)"/><path class="cls-5" d="M99.13,200.12l-1-.28c4.47-15.63,15.55-26.83,27.28-38.69C141.93,144.49,159,127.26,158.65,96c-.2-19.9-10.91-34.21-16.66-41.9-.48-.65-.7-.93-1.1-1.49l1.49.33.41.56c5.82,7.78,16.65,22.26,16.86,42.49.33,31.71-16.86,49.09-33.49,65.9C114.51,173.62,103.52,184.73,99.13,200.12Z" transform="translate(-4.3 -1.89)"/><path class="cls-4" d="M97.73,200.12l-1-.28c4.47-15.63,15.55-26.83,27.28-38.69,16.49-16.66,33.54-33.89,33.21-65.18-.2-19.9-10.91-34.21-16.66-41.9-.48-.65-.7-.93-1.1-1.49l1.49.33.41.56C147.21,61.25,158,75.73,158.25,96c.33,31.71-16.86,49.09-33.49,65.9C113.11,173.62,102.12,184.73,97.73,200.12Z" transform="translate(-4.3 -1.89)"/><path id="Top-Schatten" class="cls-6" d="M194.28,120a68.64,68.64,0,0,0-60.14-68.26,287.58,287.58,0,0,0-34.76-1.89,284.31,284.31,0,0,0-32.73,1.75A68.77,68.77,0,0,0,5.9,119.92V200H194.28Z" transform="translate(-4.3 -1.89)"/><path id="Seite-Licht" class="cls-7" d="M194.28,120c0-41.08-32.3-61.31-44.07-64.12,0,0,30.79,15.79,31,49.63.14,22.49.38,94.5.38,94.5h12.7Z" transform="translate(-4.3 -1.89)"/><path id="Glanzlicht" class="cls-8" d="M172.24,200V112.41c0-33.4-27.32-62.62-60.71-62.62H80.9c-33.39,0-60.72,29.22-60.72,62.62V200Z" transform="translate(-4.3 -1.89)"/><path class="cls-5" d="M55.67,119.41H50.62V99.12c0-2.42.06-4.34.17-5.75-.33.34-.73.72-1.21,1.13s-2.09,1.74-4.82,4l-2.54-3.2L51.46,88h4.21Z" transform="translate(-4.3 -1.89)"/><path class="cls-5" d="M166.52,187.91h-5.05V167.63c0-2.42.06-4.34.17-5.76-.33.34-.73.72-1.21,1.14s-2.09,1.73-4.83,4l-2.53-3.2,9.24-7.26h4.21Z" transform="translate(-4.3 -1.89)"/><path d="M117.15,151.57H112.1V131.28c0-2.42.06-4.34.17-5.75-.33.34-.73.72-1.21,1.14s-2.09,1.73-4.82,4l-2.54-3.2,9.24-7.26h4.21Z" transform="translate(-4.3 -1.89)"/></g></g></svg>