<svg id="Ebene_1" data-name="Ebene 1" xmlns="http://www.w3.org/2000/svg" viewBox="0 0 416 352"><defs><style>.cls-1{fill:#262626;}</style></defs><g id="monitor_mac_desktop" data-name="monitor mac desktop"><path class="cls-1" d="M449.94,94.06A48.35,48.35,0,0,0,416,80H96a48,48,0,0,0-48,48V320a48.05,48.05,0,0,0,48,48H240v32H192a16,16,0,0,0,0,32H320a16,16,0,0,0,0-32H272V368h16a16,16,0,0,0,0-32H96a16,16,0,0,1-16-16V128a16,16,0,0,1,16-16H416a16,16,0,0,1,16,16V320a16,16,0,0,1-16,16H352a16,16,0,0,0,0,32h64a48.05,48.05,0,0,0,48-48V128A48.35,48.35,0,0,0,449.94,94.06Z" transform="translate(-48 -80)"/></g><path class="cls-1" d="M162.63,254.42a5.36,5.36,0,0,0-7.58,0h0l-33.75,33.75v-30a5.36,5.36,0,1,0-10.72,0v42.91a5.36,5.36,0,0,0,5.36,5.36h42.91a5.36,5.36,0,0,0,0-10.72h-30L162.63,262a5.36,5.36,0,0,0,0-7.58Z" transform="translate(-48 -80)"/><path class="cls-1" d="M164.2,145.46a5.36,5.36,0,0,0-5.36-5.36H115.93a5.36,5.36,0,0,0-5.36,5.36v42.91a5.36,5.36,0,1,0,10.72,0v-30L155,192.17a5.37,5.37,0,0,0,7.59-7.6l-33.75-33.74h30A5.37,5.37,0,0,0,164.2,145.46Z" transform="translate(-48 -80)"/><path class="cls-1" d="M395,252.85a5.36,5.36,0,0,0-5.37,5.36v30l-33.74-33.75a5.37,5.37,0,1,0-7.6,7.59l33.76,33.75h-30a5.36,5.36,0,0,0,0,10.72H395a5.36,5.36,0,0,0,5.36-5.36V258.21A5.36,5.36,0,0,0,395,252.85Z" transform="translate(-48 -80)"/><path class="cls-1" d="M400,143.41a5.36,5.36,0,0,0-5-3.31H352.12a5.37,5.37,0,0,0,0,10.73h30l-33.76,33.74a5.37,5.37,0,1,0,7.6,7.6l33.74-33.76v30a5.37,5.37,0,0,0,10.73,0V145.46A5.36,5.36,0,0,0,400,143.41Z" transform="translate(-48 -80)"/></svg>