<svg xmlns="http://www.w3.org/2000/svg" xmlns:xlink="http://www.w3.org/1999/xlink" viewBox="0 0 200 200"><defs><style>.cls-1,.cls-4,.cls-7{fill:#fff;}.cls-1{opacity:0;}.cls-2{fill:url(#Neues_Verlaufsfeld_2);}.cls-3{opacity:0.7;fill:url(#Unbenannter_Verlauf_154);}.cls-4{opacity:0.1;}.cls-5{fill:url(#Unbenannter_Verlauf_79);}.cls-6{fill:url(#Unbenannter_Verlauf_33);}.cls-8{fill:url(#Unbenannter_Verlauf_48);}</style><linearGradient id="Neues_Verlaufsfeld_2" x1="5.9" y1="124.84" x2="194.28" y2="124.84" gradientUnits="userSpaceOnUse"><stop offset="0" stop-color="#8a8a8a"/><stop offset="0.04" stop-color="#9e9e9e"/><stop offset="0.15" stop-color="#bebebe"/><stop offset="0.32" stop-color="#ededed"/><stop offset="0.4" stop-color="#fff"/><stop offset="0.45" stop-color="#f6f6f6"/><stop offset="0.6" stop-color="#e0e0e0"/><stop offset="0.63" stop-color="#cacaca"/><stop offset="0.69" stop-color="#999"/><stop offset="0.75" stop-color="#7b7b7b"/><stop offset="0.78" stop-color="#707070"/><stop offset="0.82" stop-color="#737373"/><stop offset="0.85" stop-color="#7e7e7e"/><stop offset="0.88" stop-color="#909090"/><stop offset="0.91" stop-color="#a9a9a9"/><stop offset="0.94" stop-color="#c9c9c9"/><stop offset="0.96" stop-color="#efefef"/><stop offset="0.96" stop-color="#f0f0f0"/><stop offset="1" stop-color="#d9d9d9"/></linearGradient><linearGradient id="Unbenannter_Verlauf_154" x1="102" y1="26.22" x2="100.64" y2="121.32" gradientUnits="userSpaceOnUse"><stop offset="0" stop-color="#666"/><stop offset="0.7" stop-color="#9e9e9e" stop-opacity="0"/></linearGradient><linearGradient id="Unbenannter_Verlauf_79" x1="51.3" y1="73.29" x2="133.84" y2="209.52" gradientUnits="userSpaceOnUse"><stop offset="0" stop-color="#fff"/><stop offset="0.02" stop-color="#fff" stop-opacity="0.86"/><stop offset="0.06" stop-color="#fff" stop-opacity="0.68"/><stop offset="0.1" stop-color="#fff" stop-opacity="0.52"/><stop offset="0.14" stop-color="#fff" stop-opacity="0.38"/><stop offset="0.18" stop-color="#fff" stop-opacity="0.26"/><stop offset="0.23" stop-color="#fff" stop-opacity="0.16"/><stop offset="0.29" stop-color="#fff" stop-opacity="0.09"/><stop offset="0.35" stop-color="#fff" stop-opacity="0.04"/><stop offset="0.43" stop-color="#fff" stop-opacity="0.01"/><stop offset="0.59" stop-color="#fff" stop-opacity="0"/></linearGradient><linearGradient id="Unbenannter_Verlauf_33" x1="80.89" y1="142.77" x2="118.89" y2="142.77" gradientTransform="translate(0.21 0.21)" gradientUnits="userSpaceOnUse"><stop offset="0"/><stop offset="0.1" stop-color="#1d1d1b" stop-opacity="0.7"/><stop offset="0.5" stop-opacity="0.7"/><stop offset="0.9" stop-color="#1d1d1b" stop-opacity="0.7"/><stop offset="1"/></linearGradient><linearGradient id="Unbenannter_Verlauf_48" x1="80.89" y1="142.77" x2="118.89" y2="142.77" gradientTransform="translate(0.21 0.21)" gradientUnits="userSpaceOnUse"><stop offset="0" stop-opacity="0.5"/><stop offset="0.1" stop-color="#1d1d1b" stop-opacity="0"/><stop offset="0.5" stop-opacity="0"/><stop offset="0.9" stop-color="#1d1d1b" stop-opacity="0"/><stop offset="1" stop-opacity="0.5"/></linearGradient></defs><g id="BG"><rect class="cls-1" width="200" height="200"/></g><g id="Diamanten"><g id="Kanal_quer" data-name="Kanal quer"><path id="Einfarbig" class="cls-2" d="M194.28,120a68.64,68.64,0,0,0-60.14-68.26,287.58,287.58,0,0,0-34.76-1.89,284.31,284.31,0,0,0-32.73,1.75A68.77,68.77,0,0,0,5.9,119.92v79.92H194.28Z" transform="translate(-0.3 -0.19)"/><path id="Top-Schatten" class="cls-3" d="M194.28,120a68.64,68.64,0,0,0-60.14-68.26,287.58,287.58,0,0,0-34.76-1.89,284.31,284.31,0,0,0-32.73,1.75A68.77,68.77,0,0,0,5.9,119.92v79.92H194.28Z" transform="translate(-0.3 -0.19)"/><path id="Seite-Licht" class="cls-4" d="M194.28,120c0-41.08-32.3-61.31-44.07-64.12,0,0,30.79,15.79,31,49.63.14,22.49.38,94.34.38,94.34h12.7Z" transform="translate(-0.3 -0.19)"/><path id="Glanzlicht" class="cls-5" d="M172.24,199.89v-87.6c0-33.39-27.32-62.41-60.71-62.41l-30.63.2c-33.39,0-60.72,28.82-60.72,62.21v87.6Z" transform="translate(-0.3 -0.19)"/><rect class="cls-6" x="81.09" y="48.79" width="38" height="188.38" transform="translate(242.77 42.7) rotate(90)"/><rect class="cls-7" x="5.6" y="122.79" width="188.38" height="1"/><rect class="cls-7" x="5.6" y="161.79" width="188.38" height="1"/><path class="cls-7" d="M186,142.88A20.49,20.49,0,0,0,173.38,124H157.52a20.49,20.49,0,0,0,.51,38h14.84A20.49,20.49,0,0,0,186,142.88Z" transform="translate(-0.3 -0.19)"/><path class="cls-7" d="M142.47,142.88A20.51,20.51,0,0,0,129.9,124H114a20.49,20.49,0,0,0,.52,38h14.84A20.49,20.49,0,0,0,142.47,142.88Z" transform="translate(-0.3 -0.19)"/><path class="cls-7" d="M98.72,142.88A20.51,20.51,0,0,0,86.15,124H70.28a20.49,20.49,0,0,0,.52,38H85.63A20.5,20.5,0,0,0,98.72,142.88Z" transform="translate(-0.3 -0.19)"/><path class="cls-7" d="M55.23,142.88A20.5,20.5,0,0,0,42.67,124H26.8a20.49,20.49,0,0,0,.52,38H42.15A20.49,20.49,0,0,0,55.23,142.88Z" transform="translate(-0.3 -0.19)"/><rect class="cls-8" x="81.09" y="48.79" width="38" height="188.38" transform="translate(242.77 42.7) rotate(90)"/></g></g></svg>