<svg xmlns="http://www.w3.org/2000/svg" viewBox="0 0 67.44 35.13"><defs><style>.cls-1{opacity:0.5;}.cls-2{fill:#181716;}</style></defs><g id="Ringmasse" class="cls-1"><path class="cls-2" d="M121.94,98v8.15a2.69,2.69,0,0,1-2.09,2.68,2.62,2.62,0,0,1-3.15-2.56V98h-6.89v3.9a2.69,2.69,0,0,1-2.09,2.68,2.63,2.63,0,0,1-3.15-2.56V98H97.85v8.15a2.71,2.71,0,0,1-2.09,2.69,2.63,2.63,0,0,1-3.15-2.57V98H85.89v3.9a2.69,2.69,0,0,1-2.1,2.68A2.62,2.62,0,0,1,80.65,102V98H73.87v8.15a2.69,2.69,0,0,1-2.1,2.68,2.61,2.61,0,0,1-3.14-2.56V98H63.91a2.63,2.63,0,0,0-2.63,2.63v9.32a2.63,2.63,0,0,0,2.63,2.63h62.18a2.63,2.63,0,0,0,2.63-2.63v-9.32A2.63,2.63,0,0,0,126.09,98Z" transform="translate(-61.28 -77.44)"/><path d="M103.15,87.72h8.48v5.84a1.1,1.1,0,0,0,1.88.78L121,86.83a1.1,1.1,0,0,0,0-1.56l-7.51-7.51a1.1,1.1,0,0,0-1.88.78v5.84h-8.48A18.63,18.63,0,0,1,103.15,87.72Zm-4.34,1.93a5.09,5.09,0,1,0-7.2,0A5.1,5.1,0,0,0,98.81,89.65Zm-20,3.91V87.72h8.47a18.63,18.63,0,0,1,0-3.34H78.79V78.54a1.11,1.11,0,0,0-1.89-.78l-7.51,7.51a1.1,1.1,0,0,0,0,1.56l7.51,7.51A1.11,1.11,0,0,0,78.79,93.56Z" transform="translate(-61.28 -77.44)"/></g></svg>