<svg xmlns="http://www.w3.org/2000/svg" xmlns:xlink="http://www.w3.org/1999/xlink" viewBox="0 0 200 200"><defs><style>.cls-1{fill:#fff;opacity:0;}.cls-2{fill:url(#Neues_Verlaufsfeld_2);}.cls-3,.cls-4,.cls-5{opacity:0.4;}.cls-4{fill:url(#Unbenannter_Verlauf_6);}.cls-5{fill:url(#Unbenannter_Verlauf_6-2);}.cls-6{opacity:0.7;fill:url(#Unbenannter_Verlauf_154);}.cls-7{fill:url(#Unbenannter_Verlauf_21);}.cls-11,.cls-8{opacity:0.65;}.cls-8{fill:url(#Unbenannter_Verlauf_24);}.cls-9{fill:#6b6b6b;}.cls-10{fill:url(#Unbenannter_Verlauf_21-2);}.cls-11{fill:url(#Unbenannter_Verlauf_24-2);}.cls-12{fill:url(#Unbenannter_Verlauf_79);}.cls-13{fill:#999;}</style><linearGradient id="Neues_Verlaufsfeld_2" x1="5.9" y1="124.84" x2="194.28" y2="124.84" gradientUnits="userSpaceOnUse"><stop offset="0" stop-color="#8a8a8a"/><stop offset="0.04" stop-color="#9e9e9e"/><stop offset="0.15" stop-color="#bebebe"/><stop offset="0.32" stop-color="#ededed"/><stop offset="0.4" stop-color="#fff"/><stop offset="0.45" stop-color="#f6f6f6"/><stop offset="0.6" stop-color="#e0e0e0"/><stop offset="0.63" stop-color="#cacaca"/><stop offset="0.69" stop-color="#999"/><stop offset="0.75" stop-color="#7b7b7b"/><stop offset="0.78" stop-color="#707070"/><stop offset="0.82" stop-color="#737373"/><stop offset="0.85" stop-color="#7e7e7e"/><stop offset="0.88" stop-color="#909090"/><stop offset="0.91" stop-color="#a9a9a9"/><stop offset="0.94" stop-color="#c9c9c9"/><stop offset="0.96" stop-color="#efefef"/><stop offset="0.96" stop-color="#f0f0f0"/><stop offset="1" stop-color="#d9d9d9"/></linearGradient><linearGradient id="Unbenannter_Verlauf_6" x1="20.21" y1="197.95" x2="20.21" y2="113.55" gradientUnits="userSpaceOnUse"><stop offset="0"/><stop offset="0.09" stop-color="#1d1d1b" stop-opacity="0.95"/><stop offset="0.3" stop-color="#111110" stop-opacity="0.57"/><stop offset="0.66" stop-color="#040404" stop-opacity="0.14"/><stop offset="1" stop-opacity="0"/></linearGradient><linearGradient id="Unbenannter_Verlauf_6-2" x1="171.14" y1="197.95" x2="171.14" y2="113.55" xlink:href="#Unbenannter_Verlauf_6"/><linearGradient id="Unbenannter_Verlauf_154" x1="102" y1="26.22" x2="100.64" y2="121.32" gradientUnits="userSpaceOnUse"><stop offset="0" stop-color="#666"/><stop offset="0.7" stop-color="#9e9e9e" stop-opacity="0"/></linearGradient><linearGradient id="Unbenannter_Verlauf_21" x1="171.12" y1="113.55" x2="171.12" y2="118.28" gradientUnits="userSpaceOnUse"><stop offset="0" stop-color="#fff"/><stop offset="1" stop-opacity="0"/></linearGradient><linearGradient id="Unbenannter_Verlauf_24" x1="152.28" y1="155.75" x2="189.95" y2="155.75" gradientUnits="userSpaceOnUse"><stop offset="0"/><stop offset="0.6" stop-opacity="0"/></linearGradient><linearGradient id="Unbenannter_Verlauf_21-2" x1="20.21" y1="113.55" x2="20.21" y2="118.28" xlink:href="#Unbenannter_Verlauf_21"/><linearGradient id="Unbenannter_Verlauf_24-2" x1="39.28" y1="155.75" x2="1.6" y2="155.75" xlink:href="#Unbenannter_Verlauf_24"/><linearGradient id="Unbenannter_Verlauf_79" x1="58.18" y1="66.57" x2="141.82" y2="204.62" gradientUnits="userSpaceOnUse"><stop offset="0" stop-color="#fff"/><stop offset="0.02" stop-color="#fff" stop-opacity="0.86"/><stop offset="0.06" stop-color="#fff" stop-opacity="0.68"/><stop offset="0.1" stop-color="#fff" stop-opacity="0.52"/><stop offset="0.14" stop-color="#fff" stop-opacity="0.38"/><stop offset="0.18" stop-color="#fff" stop-opacity="0.26"/><stop offset="0.23" stop-color="#fff" stop-opacity="0.16"/><stop offset="0.29" stop-color="#fff" stop-opacity="0.09"/><stop offset="0.35" stop-color="#fff" stop-opacity="0.04"/><stop offset="0.43" stop-color="#fff" stop-opacity="0.01"/><stop offset="0.59" stop-color="#fff" stop-opacity="0"/></linearGradient></defs><g id="BG"><rect class="cls-1" width="200" height="200"/></g><g id="Stufen"><g id="beide"><path class="cls-2" d="M156.61,115.43V58.55a67.62,67.62,0,0,0-22.47-6.82,287.58,287.58,0,0,0-34.76-1.89,284.31,284.31,0,0,0-32.73,1.75,68.47,68.47,0,0,0-23.07,6.95v57.09H6.05c-.09,1.42-.15,2.85-.15,4.29v79.92H194.28V120c0-1.53-.07-3-.17-4.56Z" transform="translate(-4.3 -1.89)"/><rect class="cls-3" x="1.6" y="113.74" width="37.68" height="84.03"/><rect class="cls-4" x="1.6" y="113.55" width="37.22" height="84.41"/><rect class="cls-3" x="152.3" y="113.74" width="37.68" height="84.03"/><rect class="cls-5" x="152.53" y="113.55" width="37.22" height="84.41"/><path class="cls-6" d="M156.61,115.43V58.55a67.62,67.62,0,0,0-22.47-6.82,287.58,287.58,0,0,0-34.76-1.89,284.31,284.31,0,0,0-32.73,1.75,68.47,68.47,0,0,0-23.07,6.95v57.09H6.05c-.09,1.42-.15,2.85-.15,4.29v79.92H194.28V120c0-1.53-.07-3-.17-4.56Z" transform="translate(-4.3 -1.89)"/><rect class="cls-7" x="152.5" y="113.55" width="37.22" height="4.73"/><rect class="cls-8" x="152.28" y="113.55" width="37.68" height="84.41"/><polygon class="cls-9" points="151.45 198.1 152.36 198.1 152.36 56.72 151.45 56.32 151.45 198.1"/><rect class="cls-10" x="1.6" y="113.55" width="37.22" height="4.73"/><rect class="cls-11" x="1.6" y="113.55" width="37.68" height="84.41"/><path class="cls-12" d="M156.61,115.43V71.49a60.25,60.25,0,0,0-45.08-20.6s-15.39-.35-28,.28c-16.06.79-30.29,2.57-40,9V200H172.24V115.43Z" transform="translate(-4.3 -1.89)"/><polygon class="cls-13" points="38.83 198.1 39.73 198.1 39.73 56.52 38.83 57.12 38.83 198.1"/></g></g></svg>