<svg xmlns="http://www.w3.org/2000/svg" xmlns:xlink="http://www.w3.org/1999/xlink" viewBox="0 0 200 200"><defs><style>.cls-1,.cls-4,.cls-6{fill:#fff;}.cls-1{opacity:0;}.cls-2{fill:url(#Neues_Verlaufsfeld_2);}.cls-3,.cls-7{opacity:0.7;}.cls-3{fill:url(#Unbenannter_Verlauf_154);}.cls-4{opacity:0.1;}.cls-5{fill:url(#Unbenannter_Verlauf_79);}</style><linearGradient id="Neues_Verlaufsfeld_2" x1="5.9" y1="124.84" x2="194.28" y2="124.84" gradientUnits="userSpaceOnUse"><stop offset="0" stop-color="#8a8a8a"/><stop offset="0.04" stop-color="#9e9e9e"/><stop offset="0.15" stop-color="#bebebe"/><stop offset="0.32" stop-color="#ededed"/><stop offset="0.4" stop-color="#fff"/><stop offset="0.45" stop-color="#f6f6f6"/><stop offset="0.6" stop-color="#e0e0e0"/><stop offset="0.63" stop-color="#cacaca"/><stop offset="0.69" stop-color="#999"/><stop offset="0.75" stop-color="#7b7b7b"/><stop offset="0.78" stop-color="#707070"/><stop offset="0.82" stop-color="#737373"/><stop offset="0.85" stop-color="#7e7e7e"/><stop offset="0.88" stop-color="#909090"/><stop offset="0.91" stop-color="#a9a9a9"/><stop offset="0.94" stop-color="#c9c9c9"/><stop offset="0.96" stop-color="#efefef"/><stop offset="0.96" stop-color="#f0f0f0"/><stop offset="1" stop-color="#d9d9d9"/></linearGradient><linearGradient id="Unbenannter_Verlauf_154" x1="102" y1="26.22" x2="100.64" y2="121.32" gradientUnits="userSpaceOnUse"><stop offset="0" stop-color="#666"/><stop offset="0.7" stop-color="#9e9e9e" stop-opacity="0"/></linearGradient><linearGradient id="Unbenannter_Verlauf_79" x1="51.41" y1="73.51" x2="133.83" y2="209.55" gradientUnits="userSpaceOnUse"><stop offset="0" stop-color="#fff"/><stop offset="0.02" stop-color="#fff" stop-opacity="0.86"/><stop offset="0.06" stop-color="#fff" stop-opacity="0.68"/><stop offset="0.1" stop-color="#fff" stop-opacity="0.52"/><stop offset="0.14" stop-color="#fff" stop-opacity="0.38"/><stop offset="0.18" stop-color="#fff" stop-opacity="0.26"/><stop offset="0.23" stop-color="#fff" stop-opacity="0.16"/><stop offset="0.29" stop-color="#fff" stop-opacity="0.09"/><stop offset="0.35" stop-color="#fff" stop-opacity="0.04"/><stop offset="0.43" stop-color="#fff" stop-opacity="0.01"/><stop offset="0.59" stop-color="#fff" stop-opacity="0"/></linearGradient></defs><g id="BG"><rect class="cls-1" width="200" height="200"/></g><g id="Diamanten"><g id="Freie_Aufteilung" data-name="Freie Aufteilung"><path id="Einfarbig" class="cls-2" d="M194.28,120a68.64,68.64,0,0,0-60.14-68.26,287.58,287.58,0,0,0-34.76-1.89,284.31,284.31,0,0,0-32.73,1.75A68.77,68.77,0,0,0,5.9,119.92v79.92H194.28Z" transform="translate(-0.3 -0.19)"/><path id="Top-Schatten" class="cls-3" d="M194.28,120a68.64,68.64,0,0,0-60.14-68.26,287.58,287.58,0,0,0-34.76-1.89,284.31,284.31,0,0,0-32.73,1.75A68.77,68.77,0,0,0,5.9,119.92v79.92H194.28Z" transform="translate(-0.3 -0.19)"/><path id="Seite-Licht" class="cls-4" d="M194.28,120c0-41.08-32.3-61.31-44.07-64.12,0,0,30.79,15.79,31,49.63.14,22.49.38,94.34.38,94.34h12.7Z" transform="translate(-0.3 -0.19)"/><path id="Glanzlicht" class="cls-5" d="M114.81,50.17l-.42,0-3-.11c-3.82-.13-7.81-.2-12-.2-6.46,0-12.47.18-18.07.5l-4,.25c-31.76,1.92-57.18,29.5-57.18,61.7v87.6H172.24v-87.6C172.24,80,146.69,52,114.81,50.17Z" transform="translate(-0.3 -0.19)"/><circle class="cls-6" cx="109.18" cy="130.06" r="26.4"/><path class="cls-7" d="M109.49,153.07a22.83,22.83,0,1,1,22.82-22.83A22.85,22.85,0,0,1,109.49,153.07Zm0-40.85a18,18,0,1,0,18,18A18,18,0,0,0,109.49,112.22Z" transform="translate(-0.3 -0.19)"/><circle class="cls-6" cx="68" cy="163.14" r="19.26"/><path class="cls-7" d="M68.3,180A16.66,16.66,0,1,1,85,163.32,16.67,16.67,0,0,1,68.3,180Zm0-29.81a13.16,13.16,0,1,0,13.15,13.15A13.17,13.17,0,0,0,68.3,150.17Z" transform="translate(-0.3 -0.19)"/><circle class="cls-6" cx="152.85" cy="158.95" r="14.9"/><path class="cls-7" d="M153.15,172A12.89,12.89,0,1,1,166,159.14,12.9,12.9,0,0,1,153.15,172Zm0-23.07a10.18,10.18,0,1,0,10.18,10.18A10.19,10.19,0,0,0,153.15,149Z" transform="translate(-0.3 -0.19)"/><circle class="cls-6" cx="55.75" cy="119.44" r="14"/><path class="cls-7" d="M56.05,131.74a12.11,12.11,0,1,1,12.1-12.11A12.13,12.13,0,0,1,56.05,131.74Zm0-21.67a9.56,9.56,0,1,0,9.56,9.56A9.57,9.57,0,0,0,56.05,110.07Z" transform="translate(-0.3 -0.19)"/><circle class="cls-6" cx="72.58" cy="88.73" r="9.56"/><path class="cls-7" d="M72.88,97.18a8.27,8.27,0,1,1,8.27-8.26A8.27,8.27,0,0,1,72.88,97.18Zm0-14.79a6.53,6.53,0,1,0,6.53,6.53A6.54,6.54,0,0,0,72.88,82.39Z" transform="translate(-0.3 -0.19)"/><circle class="cls-6" cx="139.96" cy="102.67" r="9.56"/><path class="cls-7" d="M140.27,111.12a8.27,8.27,0,1,1,8.26-8.26A8.27,8.27,0,0,1,140.27,111.12Zm0-14.79a6.53,6.53,0,1,0,6.52,6.53A6.54,6.54,0,0,0,140.27,96.33Z" transform="translate(-0.3 -0.19)"/><circle class="cls-6" cx="105.47" cy="185.85" r="9.56"/><path class="cls-7" d="M105.77,194.3A8.27,8.27,0,1,1,114,186,8.27,8.27,0,0,1,105.77,194.3Zm0-14.79A6.53,6.53,0,1,0,112.3,186,6.53,6.53,0,0,0,105.77,179.51Z" transform="translate(-0.3 -0.19)"/></g></g></svg>