<svg xmlns="http://www.w3.org/2000/svg" xmlns:xlink="http://www.w3.org/1999/xlink" viewBox="0 0 265 200"><defs><style>.cls-1,.cls-6{fill:#fff;}.cls-1{opacity:0;}.cls-2{isolation:isolate;}.cls-3{fill:url(#Neues_Verlaufsfeld_1);}.cls-4{fill:#666;}.cls-5{fill:url(#Neues_Verlaufsfeld_4);}.cls-7{fill:#3e3e3e;}.cls-8{fill:url(#Neues_Verlaufsfeld_3);}</style><linearGradient id="Neues_Verlaufsfeld_1" x1="308.8" y1="208.26" x2="308.8" y2="102.08" gradientTransform="matrix(-1, 0, 0, 1, 680.11, 0)" gradientUnits="userSpaceOnUse"><stop offset="0" stop-color="#adadad"/><stop offset="0.18" stop-color="#cfcfcf"/><stop offset="0.58" stop-color="#767676"/><stop offset="0.86" stop-color="#3c3c3c"/><stop offset="1" stop-color="#262626"/></linearGradient><linearGradient id="Neues_Verlaufsfeld_4" x1="296.57" y1="214.86" x2="298.6" y2="59.97" gradientTransform="matrix(-1, 0, 0, 1, 680.11, 0)" gradientUnits="userSpaceOnUse"><stop offset="0" stop-color="#8a8a8a"/><stop offset="0.75" stop-color="#fff"/><stop offset="0.81" stop-color="#f6f6f6"/><stop offset="1" stop-color="#e0e0e0"/></linearGradient><linearGradient id="Neues_Verlaufsfeld_3" x1="383.38" y1="50.87" x2="383.38" y2="193.12" gradientTransform="matrix(-1, 0, 0, 1, 680.11, 0)" gradientUnits="userSpaceOnUse"><stop offset="0" stop-color="#666"/><stop offset="0.24" stop-color="#fff"/><stop offset="0.26" stop-color="#f9f9f9"/><stop offset="0.62" stop-color="#9d9d9d"/><stop offset="0.88" stop-color="#636363"/><stop offset="1" stop-color="#4d4d4d"/></linearGradient></defs><g id="BG_Kopie" data-name="BG Kopie"><rect class="cls-1" width="265" height="200"/></g><g id="Ebene_5" data-name="Ebene 5"><g id="Seitlich_Kanal_rechts" data-name="Seitlich Kanal rechts" class="cls-2"><path class="cls-3" d="M359.27,200q-.39-3.72-.88-7.37c-7.34-54.34-32.16-94.31-61.65-94.31h86.6c29.49,0,54.31,40,61.65,94.31q.5,3.65.88,7.37Z" transform="translate(-207.47)"/><path class="cls-4" d="M445.18,200c0-.32-.06-.65-.08-1-.18-2.22-.39-4.74-.6-6.32-7.47-55.28-32.62-93.88-61.16-93.88H304.77c25.63,6.42,47.28,43.17,54.12,93.75.22,1.61.41,4,.6,6.4l.09,1h-1c0-.31-.05-.63-.07-.95-.18-2.24-.39-4.77-.6-6.35-7.48-55.28-32.63-93.88-61.16-93.88v-1h86.6c29.05,0,54.61,39,62.15,94.75.22,1.6.41,4,.6,6.37l.09,1.06Z" transform="translate(-207.47)"/><path class="cls-5" d="M445.87,200c-6-58.05-31.72-101.68-62.53-101.68S326.82,142,320.81,200H296.72C303,115.6,339.39,50.87,383.34,50.87S463.67,115.6,470,200Z" transform="translate(-207.47)"/><path class="cls-4" d="M383.34,97.82c30.19,0,56.52,42.88,62.92,102.18h-1C438.89,141.27,413,98.82,383.34,98.82S327.79,141.27,321.43,200h-1C326.82,140.7,353.15,97.82,383.34,97.82Z" transform="translate(-207.47)"/><path class="cls-4" d="M469.37,200c-6.61-84.85-43.44-148.63-86-148.63s-79.43,63.78-86,148.63h-1c3.17-40.76,13.47-78.26,29.08-105.75,16.07-28.3,36.65-43.88,58-43.88s41.89,15.58,58,43.88c15.61,27.49,25.91,65,29.08,105.75Z" transform="translate(-207.47)"/><g class="cls-2"><path class="cls-4" d="M383.33,61.49c-20.06,0-39.37,14.57-54.38,41a6,6,0,0,0-.18,4.62l6.21,15c.32.76.78,1.2,1.28,1.2a1.44,1.44,0,0,0,1.14-.88c12.65-22.48,29-34.86,45.94-34.86s33.24,12.34,45.89,34.76c.32.57.72.89,1.13.89s1-.45,1.28-1.21L437.83,107a5.92,5.92,0,0,0-.18-4.61C422.65,76,403.36,61.49,383.33,61.49Z" transform="translate(-207.47)"/><path class="cls-6" d="M391.09,75a19.91,19.91,0,0,1,2.86-10,8.12,8.12,0,0,1,1.45-1.64,49,49,0,0,1,8.53,3.45A18.25,18.25,0,0,1,405,69.47a26.34,26.34,0,0,1,.65,11.47A19.64,19.64,0,0,1,402.09,90a7.09,7.09,0,0,1-2,1.74,39.8,39.8,0,0,0-6-2.43,17.84,17.84,0,0,1-1.52-3.25A30,30,0,0,1,391.09,75Z" transform="translate(-207.47)"/><path class="cls-6" d="M378.07,85.23A25.66,25.66,0,0,1,375.5,75a24,24,0,0,1,1.78-11,13.42,13.42,0,0,1,1.23-2.18,43.15,43.15,0,0,1,4.82-.29c1.32,0,2.64.07,3.95.2a.76.76,0,0,1,.11.14,12,12,0,0,1,1.13,2,24,24,0,0,1,1.83,11,25.54,25.54,0,0,1-2.52,10.33,11.79,11.79,0,0,1-1.06,1.68,9.33,9.33,0,0,1-.79.94c-.88-.07-1.76-.11-2.64-.11-1.13,0-2.26.06-3.39.17A10.44,10.44,0,0,1,378.07,85.23Z" transform="translate(-207.47)"/><path class="cls-6" d="M363.84,90.38a19.42,19.42,0,0,1-3.58-9,26.58,26.58,0,0,1,.59-11.52,18.71,18.71,0,0,1,1.07-2.75,49.13,49.13,0,0,1,8.48-3.62,7.28,7.28,0,0,1,1.45,1.59,19.75,19.75,0,0,1,2.92,10,29.94,29.94,0,0,1-1.4,11.11,18.94,18.94,0,0,1-1.52,3.33,41,41,0,0,0-6,2.54A6.31,6.31,0,0,1,363.84,90.38Z" transform="translate(-207.47)"/><path class="cls-6" d="M346,94.12a27.18,27.18,0,0,1-.64-11.55,24.79,24.79,0,0,1,.9-3.49,74.89,74.89,0,0,1,7.63-6.74,5.35,5.35,0,0,1,1.74,1c1.83,1.59,3.24,4.65,3.9,8.6a32,32,0,0,1-.21,11.42A22.08,22.08,0,0,1,358.3,97a63.69,63.69,0,0,0-5.88,5.2,4.42,4.42,0,0,1-2-.85C348.73,100.17,347.08,97.73,346,94.12Z" transform="translate(-207.47)"/><path class="cls-6" d="M339.44,117.82a4,4,0,0,1-.91-.1c-1.83-.45-3.71-2.2-5.1-5.29a24.12,24.12,0,0,1-1.81-11,26.75,26.75,0,0,1,.31-3c.08-.47.17-.93.28-1.4q3.09-4.9,6.39-9.17a3.68,3.68,0,0,1,.66-.06,4.1,4.1,0,0,1,1.42.26c1.94.72,3.65,3.16,4.71,6.75a31.51,31.51,0,0,1,1,11.3,25.59,25.59,0,0,1-.58,3.57q-2.87,3.7-5.57,8c-.11,0-.23.06-.35.07Z" transform="translate(-207.47)"/><path class="cls-6" d="M420.56,94.12c1-3.59,2.74-6.08,4.68-6.86a3.82,3.82,0,0,1,1.45-.28,3.51,3.51,0,0,1,.72.07q3.24,4.11,6.29,8.84a25.51,25.51,0,0,1,.68,4.52,24.73,24.73,0,0,1-1.77,11c-1.39,3.11-3.25,4.88-5.06,5.35a5.21,5.21,0,0,1-1.17.15,3.4,3.4,0,0,1-.45,0q-2.79-4.34-5.75-8.08a25.24,25.24,0,0,1-.55-3.44A31.1,31.1,0,0,1,420.56,94.12Z" transform="translate(-207.47)"/><path class="cls-6" d="M406.33,81.42c.64-4,2-7,3.86-8.65a4.4,4.4,0,0,1,1.76-1,73.14,73.14,0,0,1,7.61,6.53,23.33,23.33,0,0,1,.94,3.57,27,27,0,0,1,.33,2.85,29.42,29.42,0,0,1,0,3,26.18,26.18,0,0,1-.92,5.72A18,18,0,0,1,418,97.93a10.2,10.2,0,0,1-1.18,1.6,7.83,7.83,0,0,1-1.28,1.19,4.48,4.48,0,0,1-1.89.85,62.09,62.09,0,0,0-6-5.13,26.15,26.15,0,0,1-1-3.57A32.27,32.27,0,0,1,406.33,81.42Z" transform="translate(-207.47)"/><path class="cls-7" d="M334.52,122.38l-6.21-15a6.43,6.43,0,0,1,.2-5C343.61,75.66,363.08,61,383.34,61S423,75.61,438.08,102.15a6.39,6.39,0,0,1,.21,5l-6.19,15.08c-.39,1-1,1.52-1.74,1.52a1.9,1.9,0,0,1-1.57-1.14c-12.56-22.26-28.7-34.51-45.45-34.51s-32.94,12.29-45.51,34.61a1.89,1.89,0,0,1-1.57,1.13C335.55,123.89,334.91,123.34,334.52,122.38Zm95.14-.21c.22.39.49.63.7.63s.6-.35.82-.9l6.18-15.09a5.41,5.41,0,0,0-.14-4.17C422.31,76.43,403.18,62,383.34,62s-39,14.49-54,40.79a5.52,5.52,0,0,0-.15,4.18l6.22,15c.22.55.53.89.81.89s.49-.24.7-.62c12.75-22.65,29.22-35.12,46.38-35.12S416.92,99.58,429.66,122.17Z" transform="translate(-207.47)"/></g><path class="cls-8" d="M374.4,51.77a49.32,49.32,0,0,0-10,3.19,62.18,62.18,0,0,0-14.08,8.75c-9,7.34-17.29,17.59-24.52,30.18a179.42,179.42,0,0,0-10.4,21.48q-3.21,7.86-5.95,16.45-2.28,7.13-4.21,14.69-1.72,6.75-3.16,13.82-1.35,6.66-2.43,13.57-1,6.71-1.82,13.63c-.46,4.1-.83,8.27-1.15,12.47h-86.6c.31-4.2.69-8.37,1.15-12.47q.78-6.92,1.82-13.63,1.08-6.92,2.43-13.57,1.42-7.07,3.15-13.82,1.94-7.56,4.21-14.69,2.75-8.58,6-16.45a179.42,179.42,0,0,1,10.4-21.48c7.23-12.59,15.5-22.84,24.52-30.18A62.18,62.18,0,0,1,277.84,55a49.12,49.12,0,0,1,10-3.19,45.19,45.19,0,0,1,8.62-.9H383A45.27,45.27,0,0,0,374.4,51.77Z" transform="translate(-207.47)"/><path class="cls-4" d="M374.5,52.26a48.91,48.91,0,0,0-9.86,3.16,61.56,61.56,0,0,0-14,8.68c-8.9,7.24-17.11,17.35-24.4,30a176.88,176.88,0,0,0-10.37,21.42c-2.14,5.22-4.14,10.74-6,16.42-1.51,4.72-2.92,9.65-4.2,14.66-1.14,4.48-2.21,9.12-3.15,13.79-.9,4.43-1.71,9-2.42,13.55s-1.31,9.05-1.82,13.61c-.4,3.58-.74,8.24-1,12.36V200h-1v-.12c.3-4.13.63-8.8,1-12.4.52-4.57,1.13-9.17,1.83-13.66s1.53-9.15,2.43-13.59c.95-4.68,2-9.34,3.16-13.84,1.28-5,2.7-10,4.22-14.72,1.82-5.69,3.83-11.24,6-16.49a178.87,178.87,0,0,1,10.43-21.54c7.35-12.8,15.64-23,24.64-30.32a62.78,62.78,0,0,1,14.19-8.82,49.85,49.85,0,0,1,9.63-3.13H296.42a44.57,44.57,0,0,0-8.52.89A48.71,48.71,0,0,0,278,55.42a61.35,61.35,0,0,0-14,8.68c-8.91,7.24-17.11,17.35-24.41,30a179.9,179.9,0,0,0-10.37,21.42c-2.13,5.22-4.13,10.74-5.94,16.42-1.51,4.72-2.93,9.65-4.2,14.66-1.15,4.48-2.21,9.12-3.15,13.79-.9,4.45-1.72,9-2.42,13.55s-1.31,9-1.82,13.61c-.41,3.58-.74,8.24-1,12.36V200h-1v-.12c.29-4.13.63-8.8,1-12.4.52-4.6,1.13-9.19,1.83-13.66s1.52-9.12,2.43-13.59c.95-4.68,2-9.34,3.16-13.84,1.28-5,2.7-10,4.22-14.72,1.82-5.69,3.83-11.24,6-16.49a178.87,178.87,0,0,1,10.43-21.54c7.35-12.8,15.64-23,24.64-30.32a62.78,62.78,0,0,1,14.19-8.82,49.84,49.84,0,0,1,10.06-3.22,45.83,45.83,0,0,1,8.71-.91h86.93v1H383A44.65,44.65,0,0,0,374.5,52.26Z" transform="translate(-207.47)"/></g></g></svg>