<?xml version="1.0" encoding="utf-8"?>
<!-- Generator: Adobe Illustrator 25.3.1, SVG Export Plug-In . SVG Version: 6.00 Build 0)  -->
<svg version="1.1" id="Ebene_1" xmlns="http://www.w3.org/2000/svg" xmlns:xlink="http://www.w3.org/1999/xlink" x="0px" y="0px"
	 viewBox="0 0 17.1 18" style="enable-background:new 0 0 17.1 18;" xml:space="preserve">
<style type="text/css">
	.st0{fill-rule:evenodd;clip-rule:evenodd;fill:#AB3333;}
</style>
<path id="Form_2_Kopie" class="st0" d="M16.5,3.9h-1.1l-0.7,11.5c-0.1,1.4-1.3,2.5-2.7,2.5H5.2c-1.4,0-2.5-1.1-2.6-2.5L1.8,3.9H0.7
	C0.3,3.9,0,3.6,0,3.3c0-0.4,0.3-0.7,0.7-0.7h4.6V1.7C5.3,0.8,6,0,7,0h3.2c1,0,1.7,0.8,1.7,1.8v0.9h4.6c0.4,0,0.7,0.3,0.7,0.7
	C17.1,3.7,16.8,3.9,16.5,3.9z M10.5,1.7c0-0.2-0.2-0.4-0.4-0.4H7c-0.2,0-0.4,0.2-0.4,0.4v0.9h4L10.5,1.7L10.5,1.7z M3.1,3.9
	l0.7,11.5c0,0.7,0.6,1.3,1.4,1.3h6.7c0.7,0,1.3-0.6,1.4-1.3L14,4L3.1,3.9z M11.2,14.5c-0.4,0-0.7-0.3-0.7-0.7v-7
	c0-0.4,0.3-0.7,0.7-0.7s0.7,0.3,0.7,0.7c0,0,0,0,0,0v7C11.9,14.2,11.6,14.5,11.2,14.5z M8.6,14.5c-0.4,0-0.7-0.3-0.7-0.7v-7
	c0-0.4,0.3-0.7,0.7-0.7c0.4,0,0.7,0.3,0.7,0.7v7C9.2,14.2,8.9,14.5,8.6,14.5z M5.9,14.5c-0.4,0-0.7-0.3-0.7-0.7v-7
	c0-0.4,0.3-0.7,0.7-0.7c0.4,0,0.7,0.3,0.7,0.7v7C6.6,14.2,6.3,14.5,5.9,14.5z"/>
</svg>
