<?xml version="1.0" encoding="utf-8"?>
<!-- Generator: Adobe Illustrator 25.3.1, SVG Export Plug-In . SVG Version: 6.00 Build 0)  -->
<svg version="1.1" id="Ebene_1" xmlns="http://www.w3.org/2000/svg" xmlns:xlink="http://www.w3.org/1999/xlink" x="0px" y="0px"
	 viewBox="0 0 68.9 84.9" style="enable-background:new 0 0 68.9 84.9;" xml:space="preserve">
<style type="text/css">
	.st0{opacity:0.5;}
	.st1{fill:#FFFFFF;}
	.st2{fill:#FEFEFE;}
	.st3{fill:#FDFDFD;}
	.st4{fill:#FCFCFC;}
	.st5{fill:#FBFBFB;}
	.st6{fill:#FAFAFA;}
	.st7{fill:#F9F9F9;}
	.st8{fill:#F8F8F8;}
	.st9{fill:#F7F7F7;}
	.st10{fill:#F6F6F6;}
	.st11{fill:#F5F5F5;}
	.st12{fill:#F4F4F4;}
	.st13{fill:#F3F3F3;}
	.st14{fill:#F2F2F2;}
	.st15{fill:#F1F1F1;}
	.st16{fill:#F0F0F0;}
	.st17{fill:#EFEFEF;}
	.st18{fill:#EEEEEE;}
	.st19{fill:#EDEDED;}
	.st20{fill:#ECECEC;}
	.st21{fill:#EBEBEB;}
	.st22{fill:#EAEAEA;}
	.st23{fill:#E9E9E9;}
	.st24{fill:#E8E8E8;}
	.st25{fill:#E7E7E7;}
	.st26{fill:#E6E6E6;}
	.st27{fill:#E5E5E5;}
	.st28{fill:#E4E4E4;}
	.st29{fill:#E3E3E3;}
	.st30{fill:#E2E2E2;}
	.st31{fill:#E1E1E1;}
	.st32{fill:#E0E0E0;}
	.st33{fill:#DFDFDF;}
	.st34{fill:#DEDEDE;}
	.st35{fill:#DDDDDD;}
	.st36{fill:#DCDCDC;}
	.st37{fill:#DBDBDB;}
	.st38{fill:#DADADA;}
	.st39{fill:#D9D9D9;}
	.st40{fill:#D8D8D8;}
	.st41{fill:#D7D7D7;}
	.st42{fill:#D6D6D6;}
	.st43{fill:#D5D5D5;}
	.st44{fill:#D4D4D4;}
	.st45{fill:#D3D3D3;}
	.st46{fill:#D2D2D2;}
	.st47{fill:#D1D1D1;}
	.st48{fill:#D0D0D0;}
	.st49{fill:#CFCFCF;}
	.st50{fill:#CECECE;}
	.st51{fill:#CDCDCD;}
	.st52{fill:#CCCCCC;}
	.st53{fill:#CBCBCB;}
	.st54{fill:#CACACA;}
	.st55{fill:#C9C9C9;}
	.st56{fill:#C8C8C8;}
	.st57{fill:#C7C7C7;}
	.st58{fill:#C6C6C6;}
	.st59{fill:#C5C5C5;}
	.st60{fill:#C4C4C4;}
	.st61{fill:#C3C3C3;}
	.st62{fill:#C2C2C2;}
	.st63{fill:#C1C1C1;}
	.st64{fill:#C0C0C0;}
	.st65{fill:#BFBFBF;}
	.st66{fill:#BEBEBE;}
	.st67{fill:#BDBDBD;}
	.st68{fill:#BCBCBC;}
	.st69{fill:#BBBBBB;}
	.st70{fill:#BABABA;}
	.st71{fill:#B9B9B9;}
	.st72{fill:#B8B8B8;}
	.st73{fill:#B7B7B7;}
	.st74{fill:#B6B6B6;}
	.st75{fill:#B5B5B5;}
	.st76{fill:#B4B4B4;}
	.st77{fill:#B3B3B3;}
	.st78{fill:#B2B2B2;}
	.st79{fill:#B1B1B1;}
	.st80{fill:#B0B0B0;}
	.st81{fill:#AFAFAF;}
	.st82{fill:#AEAEAE;}
	.st83{fill:#ADADAD;}
	.st84{fill:#ACACAC;}
	.st85{fill:#ABABAB;}
	.st86{fill:#AAAAAA;}
	.st87{fill:#A9A9A9;}
	.st88{fill:#A8A8A8;}
	.st89{fill:#A7A7A7;}
	.st90{fill:#A6A6A6;}
	.st91{fill:#A5A5A5;}
	.st92{fill:#A4A4A4;}
	.st93{fill:#A3A3A3;}
	.st94{fill:#A2A2A2;}
	.st95{fill:#A1A1A1;}
	.st96{fill:#A0A0A0;}
	.st97{fill:#9F9F9F;}
	.st98{fill:#9E9E9E;}
	.st99{fill:#9D9D9D;}
	.st100{fill:#9C9C9C;}
	.st101{fill:#9B9B9B;}
	.st102{fill:#9A9A9A;}
	.st103{fill:#999999;}
	.st104{fill:#989898;}
	.st105{fill:#979797;}
	.st106{fill:#969696;}
	.st107{fill:#959595;}
	.st108{fill:#949494;}
	.st109{fill:#939393;}
	.st110{fill:#929292;}
	.st111{fill:#919191;}
	.st112{fill:#909090;}
	.st113{fill:#8F8F8F;}
	.st114{fill:#8E8E8E;}
	.st115{fill:#8D8D8D;}
	.st116{fill:#8C8C8C;}
	.st117{fill:#8B8B8B;}
	.st118{fill:#8A8A8A;}
	.st119{fill:#898989;}
	.st120{fill:#888888;}
	.st121{fill:#878787;}
	.st122{fill:#868686;}
	.st123{fill:#858585;}
	.st124{fill:#848484;}
	.st125{fill:#838383;}
	.st126{fill:#828282;}
	.st127{fill:#818181;}
	.st128{fill:#808080;}
	.st129{fill:#7F7F7F;}
	.st130{fill:#7E7E7E;}
	.st131{fill:#7D7D7D;}
	.st132{fill:#7C7C7C;}
	.st133{fill:#7B7B7B;}
	.st134{fill:#7A7A7A;}
	.st135{fill:#797979;}
	.st136{fill:#787878;}
	.st137{fill:#777777;}
	.st138{fill:#767676;}
	.st139{fill:#757575;}
	.st140{fill:#747474;}
	.st141{fill:#737373;}
	.st142{fill:#727272;}
	.st143{fill:#717171;}
	.st144{fill:#707070;}
	.st145{fill:#6F6F6F;}
	.st146{fill:#6E6E6E;}
	.st147{fill:#6D6D6D;}
	.st148{fill:#6C6C6C;}
	.st149{fill:#6B6B6B;}
	.st150{fill:#6A6A6A;}
	.st151{fill:#696969;}
	.st152{fill:#686868;}
	.st153{fill:#676767;}
	.st154{fill:#666666;}
	.st155{fill:#656565;}
	.st156{fill:#646464;}
	.st157{fill:#636363;}
	.st158{fill:#626262;}
	.st159{fill:#616161;}
	.st160{fill:#606060;}
	.st161{fill:#5F5F5F;}
	.st162{fill:#5E5E5E;}
	.st163{fill:#5D5D5D;}
	.st164{fill:#5C5C5C;}
	.st165{fill:#5B5B5B;}
	.st166{fill:#5A5A5A;}
	.st167{fill:#595959;}
	.st168{fill:#585858;}
	.st169{fill:#575757;}
	.st170{fill:#565656;}
	.st171{fill:#555555;}
	.st172{fill:#545454;}
	.st173{fill:#535353;}
	.st174{fill:#525252;}
	.st175{fill:#515151;}
	.st176{fill:#505050;}
	.st177{fill:#4F4F4F;}
	.st178{fill:#4E4E4E;}
	.st179{fill:#4D4D4D;}
	.st180{fill:#4C4C4C;}
	.st181{fill:#4B4B4B;}
	.st182{fill:#4A4A4A;}
	.st183{fill:#494949;}
	.st184{fill:#484848;}
	.st185{fill:#474747;}
	.st186{fill:#464646;}
	.st187{fill:#454545;}
	.st188{fill:#444444;}
	.st189{fill:#434343;}
	.st190{fill:#424242;}
	.st191{fill:#414141;}
	.st192{fill:#404040;}
	.st193{fill:#3F3F3F;}
	.st194{fill:#3E3E3E;}
	.st195{fill:#3D3D3D;}
	.st196{fill:#3C3C3C;}
	.st197{fill:#3B3B3B;}
	.st198{fill:#3A3A3A;}
	.st199{fill:#393939;}
	.st200{fill:#383838;}
	.st201{fill:#373737;}
	.st202{fill:#363636;}
	.st203{fill:#353535;}
	.st204{fill:#343434;}
	.st205{fill:#333333;}
	.st206{fill:#323232;}
	.st207{fill:#313131;}
	.st208{fill:#303030;}
	.st209{fill:#2F2F2F;}
	.st210{fill:#2E2E2E;}
	.st211{fill:#2D2D2D;}
	.st212{fill:#2C2C2C;}
	.st213{fill:#2B2B2B;}
	.st214{fill:#2A2A2A;}
	.st215{fill:#292929;}
	.st216{fill:#282828;}
	.st217{fill:#272727;}
	.st218{fill:#262626;}
	.st219{fill:#252525;}
	.st220{fill:#242424;}
	.st221{fill:#232323;}
	.st222{fill:#222222;}
	.st223{fill:#212121;}
	.st224{fill:#202020;}
	.st225{fill:#1F1F1F;}
	.st226{fill:#1E1E1E;}
	.st227{fill:#1D1D1D;}
	.st228{fill:#1C1C1C;}
	.st229{fill:#1B1B1B;}
	.st230{fill:#1A1A1A;}
	.st231{fill:#191919;}
	.st232{fill:#181818;}
	.st233{fill:#171717;}
	.st234{fill:#161616;}
	.st235{fill:#151515;}
	.st236{fill:#141414;}
	.st237{fill:#131313;}
	.st238{fill:#121212;}
	.st239{fill:#111111;}
	.st240{fill:#101010;}
	.st241{fill:#0F0F0F;}
	.st242{fill:#0E0E0E;}
	.st243{fill:#0D0D0D;}
	.st244{fill:#0C0C0C;}
	.st245{fill:#0B0B0B;}
	.st246{fill:#0A0A0A;}
	.st247{fill:#090909;}
	.st248{fill:#080808;}
	.st249{fill:#070707;}
	.st250{fill:#060606;}
	.st251{fill:#050505;}
	.st252{fill:#040404;}
	.st253{fill:#030303;}
	.st254{fill:#020202;}
	.st255{fill:#010101;}
	.st256{opacity:0.46;}
	.st257{opacity:0.46;fill:url(#SVGID_1_);enable-background:new    ;}
	.st258{clip-path:url(#SVGID_3_);}
	.st259{fill:url(#SVGID_4_);}
	.st260{fill:url(#SVGID-2_1_);}
	.st261{fill:url(#SVGID-3_1_);}
	.st262{clip-path:url(#SVGID_7_);}
	.st263{clip-path:url(#SVGID_8_);}
	.st264{fill:url(#SVGID_9_);}
	.st265{fill:url(#SVGID_10_);}
	.st266{fill:#AB3333;}
	.st267{fill:#A68D77;}
</style>
<g id="Ringhöhe">
	<g class="st0">
		<ellipse class="st1" cx="36.3" cy="78.1" rx="32.6" ry="6.8"/>
		<ellipse class="st2" cx="36.3" cy="78.1" rx="32.5" ry="6.8"/>
		<ellipse class="st3" cx="36.3" cy="78.1" rx="32.4" ry="6.8"/>
		<ellipse class="st4" cx="36.3" cy="78.1" rx="32.4" ry="6.7"/>
		<ellipse class="st5" cx="36.2" cy="78.1" rx="32.3" ry="6.7"/>
		<ellipse class="st6" cx="36.2" cy="78.1" rx="32.2" ry="6.7"/>
		<ellipse class="st7" cx="36.2" cy="78.1" rx="32.1" ry="6.7"/>
		<ellipse class="st8" cx="36.1" cy="78.1" rx="32" ry="6.7"/>
		<ellipse class="st9" cx="36.1" cy="78.1" rx="31.9" ry="6.7"/>
		<ellipse class="st10" cx="36.1" cy="78.1" rx="31.8" ry="6.6"/>
		<ellipse class="st11" cx="36" cy="78.1" rx="31.7" ry="6.6"/>
		<ellipse class="st12" cx="36" cy="78.1" rx="31.7" ry="6.6"/>
		<ellipse class="st13" cx="36" cy="78.1" rx="31.6" ry="6.6"/>
		<ellipse class="st14" cx="36" cy="78.1" rx="31.5" ry="6.6"/>
		<ellipse class="st15" cx="35.9" cy="78.1" rx="31.4" ry="6.6"/>
		<ellipse class="st16" cx="35.9" cy="78.1" rx="31.3" ry="6.5"/>
		<ellipse class="st17" cx="35.9" cy="78.1" rx="31.2" ry="6.5"/>
		<ellipse class="st18" cx="35.8" cy="78.1" rx="31.1" ry="6.5"/>
		<ellipse class="st19" cx="35.8" cy="78.1" rx="31" ry="6.5"/>
		<ellipse class="st20" cx="35.8" cy="78.1" rx="31" ry="6.5"/>
		<ellipse class="st21" cx="35.7" cy="78.1" rx="30.9" ry="6.5"/>
		<ellipse class="st22" cx="35.7" cy="78.1" rx="30.8" ry="6.5"/>
		<ellipse class="st23" cx="35.7" cy="78.1" rx="30.7" ry="6.4"/>
		<ellipse class="st24" cx="35.7" cy="78.1" rx="30.6" ry="6.4"/>
		<ellipse class="st25" cx="35.6" cy="78.1" rx="30.5" ry="6.4"/>
		<ellipse class="st26" cx="35.6" cy="78.1" rx="30.4" ry="6.4"/>
		<ellipse class="st27" cx="35.6" cy="78.1" rx="30.3" ry="6.4"/>
		<ellipse class="st28" cx="35.5" cy="78.1" rx="30.3" ry="6.4"/>
		<ellipse class="st29" cx="35.5" cy="78.1" rx="30.2" ry="6.3"/>
		<ellipse class="st30" cx="35.5" cy="78.1" rx="30.1" ry="6.3"/>
		<ellipse class="st31" cx="35.4" cy="78.1" rx="30" ry="6.3"/>
		<ellipse class="st32" cx="35.4" cy="78.1" rx="29.9" ry="6.3"/>
		<ellipse class="st33" cx="35.4" cy="78" rx="29.8" ry="6.3"/>
		<ellipse class="st34" cx="35.4" cy="78" rx="29.7" ry="6.3"/>
		<ellipse class="st35" cx="35.3" cy="78" rx="29.6" ry="6.2"/>
		<ellipse class="st36" cx="35.3" cy="78" rx="29.6" ry="6.2"/>
		<ellipse class="st37" cx="35.3" cy="78" rx="29.5" ry="6.2"/>
		<ellipse class="st38" cx="35.2" cy="78" rx="29.4" ry="6.2"/>
		<ellipse class="st39" cx="35.2" cy="78" rx="29.3" ry="6.2"/>
		<ellipse class="st40" cx="35.2" cy="78" rx="29.2" ry="6.2"/>
		<ellipse class="st41" cx="35.2" cy="78" rx="29.1" ry="6.1"/>
		<ellipse class="st42" cx="35.1" cy="78" rx="29" ry="6.1"/>
		<ellipse class="st43" cx="35.1" cy="78" rx="28.9" ry="6.1"/>
		<ellipse class="st44" cx="35.1" cy="78" rx="28.9" ry="6.1"/>
		<ellipse class="st45" cx="35" cy="78" rx="28.8" ry="6.1"/>
		<ellipse class="st46" cx="35" cy="78" rx="28.7" ry="6.1"/>
		<ellipse class="st47" cx="35" cy="78" rx="28.6" ry="6"/>
		<ellipse class="st48" cx="34.9" cy="78" rx="28.5" ry="6"/>
		<ellipse class="st49" cx="34.9" cy="78" rx="28.4" ry="6"/>
		<ellipse class="st50" cx="34.9" cy="78" rx="28.3" ry="6"/>
		<ellipse class="st51" cx="34.9" cy="78" rx="28.3" ry="6"/>
		<ellipse class="st52" cx="34.8" cy="78" rx="28.2" ry="6"/>
		<ellipse class="st53" cx="34.8" cy="78" rx="28.1" ry="6"/>
		<ellipse class="st54" cx="34.8" cy="78" rx="28" ry="5.9"/>
		<ellipse class="st55" cx="34.7" cy="78" rx="27.9" ry="5.9"/>
		<ellipse class="st56" cx="34.7" cy="78" rx="27.8" ry="5.9"/>
		<ellipse class="st57" cx="34.7" cy="78" rx="27.7" ry="5.9"/>
		<ellipse class="st58" cx="34.6" cy="78" rx="27.6" ry="5.9"/>
		<ellipse class="st59" cx="34.6" cy="78" rx="27.6" ry="5.9"/>
		<ellipse class="st60" cx="34.6" cy="78" rx="27.5" ry="5.8"/>
		<ellipse class="st61" cx="34.6" cy="78" rx="27.4" ry="5.8"/>
		<ellipse class="st62" cx="34.5" cy="78" rx="27.3" ry="5.8"/>
		<ellipse class="st63" cx="34.5" cy="78" rx="27.2" ry="5.8"/>
		<ellipse class="st64" cx="34.5" cy="78" rx="27.1" ry="5.8"/>
		<ellipse class="st65" cx="34.4" cy="78" rx="27" ry="5.8"/>
		<ellipse class="st66" cx="34.4" cy="77.9" rx="26.9" ry="5.7"/>
		<ellipse class="st67" cx="34.4" cy="77.9" rx="26.9" ry="5.7"/>
		<ellipse class="st68" cx="34.3" cy="77.9" rx="26.8" ry="5.7"/>
		<ellipse class="st69" cx="34.3" cy="77.9" rx="26.7" ry="5.7"/>
		<ellipse class="st70" cx="34.3" cy="77.9" rx="26.6" ry="5.7"/>
		<ellipse class="st71" cx="34.3" cy="77.9" rx="26.5" ry="5.7"/>
		<ellipse class="st72" cx="34.2" cy="77.9" rx="26.4" ry="5.6"/>
		<ellipse class="st73" cx="34.2" cy="77.9" rx="26.3" ry="5.6"/>
		<ellipse class="st74" cx="34.2" cy="77.9" rx="26.2" ry="5.6"/>
		<ellipse class="st75" cx="34.1" cy="77.9" rx="26.2" ry="5.6"/>
		<ellipse class="st76" cx="34.1" cy="77.9" rx="26.1" ry="5.6"/>
		<ellipse class="st77" cx="34.1" cy="77.9" rx="26" ry="5.6"/>
		<ellipse class="st78" cx="34" cy="77.9" rx="25.9" ry="5.6"/>
		<ellipse class="st79" cx="34" cy="77.9" rx="25.8" ry="5.5"/>
		<ellipse class="st80" cx="34" cy="77.9" rx="25.7" ry="5.5"/>
		<ellipse class="st81" cx="34" cy="77.9" rx="25.6" ry="5.5"/>
		<ellipse class="st82" cx="33.9" cy="77.9" rx="25.5" ry="5.5"/>
		<ellipse class="st83" cx="33.9" cy="77.9" rx="25.5" ry="5.5"/>
		<ellipse class="st84" cx="33.9" cy="77.9" rx="25.4" ry="5.5"/>
		<ellipse class="st85" cx="33.8" cy="77.9" rx="25.3" ry="5.4"/>
		<ellipse class="st86" cx="33.8" cy="77.9" rx="25.2" ry="5.4"/>
		<ellipse class="st87" cx="33.8" cy="77.9" rx="25.1" ry="5.4"/>
		<ellipse class="st88" cx="33.8" cy="77.9" rx="25" ry="5.4"/>
		<ellipse class="st89" cx="33.7" cy="77.9" rx="24.9" ry="5.4"/>
		<ellipse class="st90" cx="33.7" cy="77.9" rx="24.8" ry="5.4"/>
		<ellipse class="st91" cx="33.7" cy="77.9" rx="24.8" ry="5.3"/>
		<ellipse class="st92" cx="33.6" cy="77.9" rx="24.7" ry="5.3"/>
		<ellipse class="st93" cx="33.6" cy="77.9" rx="24.6" ry="5.3"/>
		<ellipse class="st94" cx="33.6" cy="77.9" rx="24.5" ry="5.3"/>
		<ellipse class="st95" cx="33.5" cy="77.9" rx="24.4" ry="5.3"/>
		<ellipse class="st96" cx="33.5" cy="77.9" rx="24.3" ry="5.3"/>
		<ellipse class="st97" cx="33.5" cy="77.9" rx="24.2" ry="5.2"/>
		<ellipse class="st98" cx="33.5" cy="77.8" rx="24.1" ry="5.2"/>
		<ellipse class="st99" cx="33.4" cy="77.8" rx="24.1" ry="5.2"/>
		<ellipse class="st100" cx="33.4" cy="77.8" rx="24" ry="5.2"/>
		<ellipse class="st101" cx="33.4" cy="77.8" rx="23.9" ry="5.2"/>
		<ellipse class="st102" cx="33.3" cy="77.8" rx="23.8" ry="5.2"/>
		<ellipse class="st103" cx="33.3" cy="77.8" rx="23.7" ry="5.1"/>
		<ellipse class="st104" cx="33.3" cy="77.8" rx="23.6" ry="5.1"/>
		<ellipse class="st105" cx="33.2" cy="77.8" rx="23.5" ry="5.1"/>
		<ellipse class="st106" cx="33.2" cy="77.8" rx="23.4" ry="5.1"/>
		<ellipse class="st107" cx="33.2" cy="77.8" rx="23.4" ry="5.1"/>
		<ellipse class="st108" cx="33.2" cy="77.8" rx="23.3" ry="5.1"/>
		<ellipse class="st109" cx="33.1" cy="77.8" rx="23.2" ry="5.1"/>
		<ellipse class="st110" cx="33.1" cy="77.8" rx="23.1" ry="5"/>
		<ellipse class="st111" cx="33.1" cy="77.8" rx="23" ry="5"/>
		<ellipse class="st112" cx="33" cy="77.8" rx="22.9" ry="5"/>
		<ellipse class="st113" cx="33" cy="77.8" rx="22.8" ry="5"/>
		<ellipse class="st114" cx="33" cy="77.8" rx="22.7" ry="5"/>
		<ellipse class="st115" cx="32.9" cy="77.8" rx="22.7" ry="5"/>
		<ellipse class="st116" cx="32.9" cy="77.8" rx="22.6" ry="4.9"/>
		<ellipse class="st117" cx="32.9" cy="77.8" rx="22.5" ry="4.9"/>
		<ellipse class="st118" cx="32.9" cy="77.8" rx="22.4" ry="4.9"/>
		<ellipse class="st119" cx="32.8" cy="77.8" rx="22.3" ry="4.9"/>
		<ellipse class="st120" cx="32.8" cy="77.8" rx="22.2" ry="4.9"/>
		<ellipse class="st121" cx="32.8" cy="77.8" rx="22.1" ry="4.9"/>
		<ellipse class="st122" cx="32.7" cy="77.8" rx="22" ry="4.8"/>
		<ellipse class="st123" cx="32.7" cy="77.8" rx="22" ry="4.8"/>
		<ellipse class="st124" cx="32.7" cy="77.8" rx="21.9" ry="4.8"/>
		<ellipse class="st125" cx="32.6" cy="77.8" rx="21.8" ry="4.8"/>
		<ellipse class="st126" cx="32.6" cy="77.8" rx="21.7" ry="4.8"/>
		<ellipse class="st127" cx="32.6" cy="77.8" rx="21.6" ry="4.8"/>
		<ellipse class="st128" cx="32.6" cy="77.8" rx="21.5" ry="4.7"/>
		<ellipse class="st129" cx="32.5" cy="77.8" rx="21.4" ry="4.7"/>
		<ellipse class="st130" cx="32.5" cy="77.8" rx="21.3" ry="4.7"/>
		<ellipse class="st131" cx="32.5" cy="77.7" rx="21.3" ry="4.7"/>
		<ellipse class="st132" cx="32.4" cy="77.7" rx="21.2" ry="4.7"/>
		<ellipse class="st133" cx="32.4" cy="77.7" rx="21.1" ry="4.7"/>
		<ellipse class="st134" cx="32.4" cy="77.7" rx="21" ry="4.7"/>
		<ellipse class="st135" cx="32.4" cy="77.7" rx="20.9" ry="4.6"/>
		<ellipse class="st136" cx="32.3" cy="77.7" rx="20.8" ry="4.6"/>
		<ellipse class="st137" cx="32.3" cy="77.7" rx="20.7" ry="4.6"/>
		<ellipse class="st138" cx="32.3" cy="77.7" rx="20.7" ry="4.6"/>
		<ellipse class="st139" cx="32.2" cy="77.7" rx="20.6" ry="4.6"/>
		<ellipse class="st140" cx="32.2" cy="77.7" rx="20.5" ry="4.6"/>
		<ellipse class="st141" cx="32.2" cy="77.7" rx="20.4" ry="4.5"/>
		<ellipse class="st142" cx="32.1" cy="77.7" rx="20.3" ry="4.5"/>
		<ellipse class="st143" cx="32.1" cy="77.7" rx="20.2" ry="4.5"/>
		<ellipse class="st144" cx="32.1" cy="77.7" rx="20.1" ry="4.5"/>
		<ellipse class="st145" cx="32.1" cy="77.7" rx="20" ry="4.5"/>
		<ellipse class="st146" cx="32" cy="77.7" rx="20" ry="4.5"/>
		<ellipse class="st147" cx="32" cy="77.7" rx="19.9" ry="4.4"/>
		<ellipse class="st148" cx="32" cy="77.7" rx="19.8" ry="4.4"/>
		<ellipse class="st149" cx="31.9" cy="77.7" rx="19.7" ry="4.4"/>
		<ellipse class="st150" cx="31.9" cy="77.7" rx="19.6" ry="4.4"/>
		<ellipse class="st151" cx="31.9" cy="77.7" rx="19.5" ry="4.4"/>
		<ellipse class="st152" cx="31.8" cy="77.7" rx="19.4" ry="4.4"/>
		<ellipse class="st153" cx="31.8" cy="77.7" rx="19.3" ry="4.3"/>
		<ellipse class="st154" cx="31.8" cy="77.7" rx="19.3" ry="4.3"/>
		<ellipse class="st155" cx="31.8" cy="77.7" rx="19.2" ry="4.3"/>
		<ellipse class="st156" cx="31.7" cy="77.7" rx="19.1" ry="4.3"/>
		<ellipse class="st157" cx="31.7" cy="77.7" rx="19" ry="4.3"/>
		<ellipse class="st158" cx="31.7" cy="77.7" rx="18.9" ry="4.3"/>
		<ellipse class="st159" cx="31.6" cy="77.7" rx="18.8" ry="4.3"/>
		<ellipse class="st160" cx="31.6" cy="77.7" rx="18.7" ry="4.2"/>
		<ellipse class="st161" cx="31.6" cy="77.7" rx="18.6" ry="4.2"/>
		<ellipse class="st162" cx="31.5" cy="77.7" rx="18.6" ry="4.2"/>
		<ellipse class="st163" cx="31.5" cy="77.7" rx="18.5" ry="4.2"/>
		<ellipse class="st164" cx="31.5" cy="77.6" rx="18.4" ry="4.2"/>
		<ellipse class="st165" cx="31.5" cy="77.6" rx="18.3" ry="4.2"/>
		<ellipse class="st166" cx="31.4" cy="77.6" rx="18.2" ry="4.1"/>
		<ellipse class="st167" cx="31.4" cy="77.6" rx="18.1" ry="4.1"/>
		<ellipse class="st168" cx="31.4" cy="77.6" rx="18" ry="4.1"/>
		<ellipse class="st169" cx="31.3" cy="77.6" rx="17.9" ry="4.1"/>
		<ellipse class="st170" cx="31.3" cy="77.6" rx="17.9" ry="4.1"/>
		<ellipse class="st171" cx="31.3" cy="77.6" rx="17.8" ry="4.1"/>
		<ellipse class="st172" cx="31.2" cy="77.6" rx="17.7" ry="4"/>
		<ellipse class="st173" cx="31.2" cy="77.6" rx="17.6" ry="4"/>
		<ellipse class="st174" cx="31.2" cy="77.6" rx="17.5" ry="4"/>
		<ellipse class="st175" cx="31.2" cy="77.6" rx="17.4" ry="4"/>
		<ellipse class="st176" cx="31.1" cy="77.6" rx="17.3" ry="4"/>
		<ellipse class="st177" cx="31.1" cy="77.6" rx="17.2" ry="4"/>
		<ellipse class="st178" cx="31.1" cy="77.6" rx="17.2" ry="3.9"/>
		<ellipse class="st179" cx="31" cy="77.6" rx="17.1" ry="3.9"/>
		<ellipse class="st180" cx="31" cy="77.6" rx="17" ry="3.9"/>
		<ellipse class="st181" cx="31" cy="77.6" rx="16.9" ry="3.9"/>
		<ellipse class="st182" cx="30.9" cy="77.6" rx="16.8" ry="3.9"/>
		<ellipse class="st183" cx="30.9" cy="77.6" rx="16.7" ry="3.9"/>
		<ellipse class="st184" cx="30.9" cy="77.6" rx="16.6" ry="3.8"/>
		<ellipse class="st185" cx="30.9" cy="77.6" rx="16.5" ry="3.8"/>
		<ellipse class="st186" cx="30.8" cy="77.6" rx="16.5" ry="3.8"/>
		<ellipse class="st187" cx="30.8" cy="77.6" rx="16.4" ry="3.8"/>
		<ellipse class="st188" cx="30.8" cy="77.6" rx="16.3" ry="3.8"/>
		<ellipse class="st189" cx="30.7" cy="77.6" rx="16.2" ry="3.8"/>
		<ellipse class="st190" cx="30.7" cy="77.6" rx="16.1" ry="3.8"/>
		<ellipse class="st191" cx="30.7" cy="77.6" rx="16" ry="3.7"/>
		<ellipse class="st192" cx="30.7" cy="77.6" rx="15.9" ry="3.7"/>
		<ellipse class="st193" cx="30.6" cy="77.6" rx="15.8" ry="3.7"/>
		<ellipse class="st194" cx="30.6" cy="77.6" rx="15.8" ry="3.7"/>
		<ellipse class="st195" cx="30.6" cy="77.6" rx="15.7" ry="3.7"/>
		<ellipse class="st196" cx="30.5" cy="77.6" rx="15.6" ry="3.7"/>
		<ellipse class="st197" cx="30.5" cy="77.5" rx="15.5" ry="3.6"/>
		<ellipse class="st198" cx="30.5" cy="77.5" rx="15.4" ry="3.6"/>
		<ellipse class="st199" cx="30.4" cy="77.5" rx="15.3" ry="3.6"/>
		<ellipse class="st200" cx="30.4" cy="77.5" rx="15.2" ry="3.6"/>
		<ellipse class="st201" cx="30.4" cy="77.5" rx="15.1" ry="3.6"/>
		<ellipse class="st202" cx="30.4" cy="77.5" rx="15.1" ry="3.6"/>
		<ellipse class="st203" cx="30.3" cy="77.5" rx="15" ry="3.5"/>
		<ellipse class="st204" cx="30.3" cy="77.5" rx="14.9" ry="3.5"/>
		<ellipse class="st205" cx="30.3" cy="77.5" rx="14.8" ry="3.5"/>
		<ellipse class="st206" cx="30.2" cy="77.5" rx="14.7" ry="3.5"/>
		<ellipse class="st207" cx="30.2" cy="77.5" rx="14.6" ry="3.5"/>
		<ellipse class="st208" cx="30.2" cy="77.5" rx="14.5" ry="3.5"/>
		<ellipse class="st209" cx="30.1" cy="77.5" rx="14.4" ry="3.4"/>
		<ellipse class="st210" cx="30.1" cy="77.5" rx="14.4" ry="3.4"/>
		<ellipse class="st211" cx="30.1" cy="77.5" rx="14.3" ry="3.4"/>
		<ellipse class="st212" cx="30.1" cy="77.5" rx="14.2" ry="3.4"/>
		<ellipse class="st213" cx="30" cy="77.5" rx="14.1" ry="3.4"/>
		<ellipse class="st214" cx="30" cy="77.5" rx="14" ry="3.4"/>
		<ellipse class="st215" cx="30" cy="77.5" rx="13.9" ry="3.4"/>
		<ellipse class="st216" cx="29.9" cy="77.5" rx="13.8" ry="3.3"/>
		<ellipse class="st217" cx="29.9" cy="77.5" rx="13.7" ry="3.3"/>
		<ellipse class="st218" cx="29.9" cy="77.5" rx="13.7" ry="3.3"/>
		<ellipse class="st219" cx="29.8" cy="77.5" rx="13.6" ry="3.3"/>
		<ellipse class="st220" cx="29.8" cy="77.5" rx="13.5" ry="3.3"/>
		<ellipse class="st221" cx="29.8" cy="77.5" rx="13.4" ry="3.3"/>
		<ellipse class="st222" cx="29.8" cy="77.5" rx="13.3" ry="3.2"/>
		<ellipse class="st223" cx="29.7" cy="77.5" rx="13.2" ry="3.2"/>
		<ellipse class="st224" cx="29.7" cy="77.5" rx="13.1" ry="3.2"/>
		<ellipse class="st225" cx="29.7" cy="77.5" rx="13.1" ry="3.2"/>
		<ellipse class="st226" cx="29.6" cy="77.5" rx="13" ry="3.2"/>
		<ellipse class="st227" cx="29.6" cy="77.5" rx="12.9" ry="3.2"/>
		<ellipse class="st228" cx="29.6" cy="77.5" rx="12.8" ry="3.1"/>
		<ellipse class="st229" cx="29.5" cy="77.5" rx="12.7" ry="3.1"/>
		<ellipse class="st230" cx="29.5" cy="77.4" rx="12.6" ry="3.1"/>
		<ellipse class="st231" cx="29.5" cy="77.4" rx="12.5" ry="3.1"/>
		<ellipse class="st232" cx="29.5" cy="77.4" rx="12.4" ry="3.1"/>
		<ellipse class="st233" cx="29.4" cy="77.4" rx="12.4" ry="3.1"/>
		<ellipse class="st234" cx="29.4" cy="77.4" rx="12.3" ry="3"/>
		<ellipse class="st235" cx="29.4" cy="77.4" rx="12.2" ry="3"/>
		<ellipse class="st236" cx="29.3" cy="77.4" rx="12.1" ry="3"/>
		<ellipse class="st237" cx="29.3" cy="77.4" rx="12" ry="3"/>
		<ellipse class="st238" cx="29.3" cy="77.4" rx="11.9" ry="3"/>
		<ellipse class="st239" cx="29.3" cy="77.4" rx="11.8" ry="3"/>
		<ellipse class="st240" cx="29.2" cy="77.4" rx="11.7" ry="2.9"/>
		<ellipse class="st241" cx="29.2" cy="77.4" rx="11.7" ry="2.9"/>
		<ellipse class="st242" cx="29.2" cy="77.4" rx="11.6" ry="2.9"/>
		<ellipse class="st243" cx="29.1" cy="77.4" rx="11.5" ry="2.9"/>
		<ellipse class="st244" cx="29.1" cy="77.4" rx="11.4" ry="2.9"/>
		<ellipse class="st245" cx="29.1" cy="77.4" rx="11.3" ry="2.9"/>
		<ellipse class="st246" cx="29" cy="77.4" rx="11.2" ry="2.9"/>
		<ellipse class="st247" cx="29" cy="77.4" rx="11.1" ry="2.8"/>
		<ellipse class="st248" cx="29" cy="77.4" rx="11" ry="2.8"/>
		<ellipse class="st249" cx="29" cy="77.4" rx="11" ry="2.8"/>
		<ellipse class="st250" cx="28.9" cy="77.4" rx="10.9" ry="2.8"/>
		<ellipse class="st251" cx="28.9" cy="77.4" rx="10.8" ry="2.8"/>
		<ellipse class="st252" cx="28.9" cy="77.4" rx="10.7" ry="2.8"/>
		<ellipse class="st253" cx="28.8" cy="77.4" rx="10.6" ry="2.7"/>
		<ellipse class="st254" cx="28.8" cy="77.4" rx="10.5" ry="2.7"/>
		<ellipse class="st255" cx="28.8" cy="77.4" rx="10.4" ry="2.7"/>
		<ellipse cx="28.7" cy="77.4" rx="10.3" ry="2.7"/>
	</g>
	<g>
		<g class="st256">
			
				<linearGradient id="SVGID_1_" gradientUnits="userSpaceOnUse" x1="38.3419" y1="-7.4268" x2="38.3419" y2="-63.5268" gradientTransform="matrix(1 0 0 1 -17.19 80.1268)">
				<stop  offset="0" style="stop-color:#FFFFFF"/>
				<stop  offset="1" style="stop-color:#000000;stop-opacity:0.2"/>
			</linearGradient>
			<path id="SVGID" class="st257" d="M36.8,72.3l-13.5,0.4c-2.4,0-4.7-0.7-6.7-2.1C14.4,69,12.4,67,11,64.7C9.3,62,8,59,7.1,55.9
				c-1-3.5-1.5-7.1-1.6-10.8c-0.1-3.7,0.3-7.3,1.1-10.9c0.7-3.1,1.9-6.1,3.4-8.9c1.3-2.4,3.1-4.5,5.3-6.1c1.9-1.5,4.2-2.3,6.6-2.4
				l13.5-0.2c-2.4,0.1-4.7,0.9-6.6,2.4c-2.1,1.7-3.9,3.7-5.3,6.1c-1.6,2.8-2.7,5.8-3.4,8.9c-0.8,3.5-1.2,7.2-1.1,10.8
				c0.1,3.7,0.6,7.3,1.6,10.8c0.9,3.1,2.2,6.1,3.9,8.8c1.4,2.3,3.3,4.3,5.6,5.9C32.1,71.6,34.4,72.3,36.8,72.3z"/>
			<g>
				<defs>
					<path id="SVGID_2_" d="M36.8,72.3l-13.5,0.4c-2.4,0-4.7-0.7-6.7-2.1C14.4,69,12.4,67,11,64.7C9.3,62,8,59,7.1,55.9
						c-1-3.5-1.5-7.1-1.6-10.8c-0.1-3.7,0.3-7.3,1.1-10.9c0.7-3.1,1.9-6.1,3.4-8.9c1.3-2.4,3.1-4.5,5.3-6.1c1.9-1.5,4.2-2.3,6.6-2.4
						l13.5-0.2c-2.4,0.1-4.7,0.9-6.6,2.4c-2.1,1.7-3.9,3.7-5.3,6.1c-1.6,2.8-2.7,5.8-3.4,8.9c-0.8,3.5-1.2,7.2-1.1,10.8
						c0.1,3.7,0.6,7.3,1.6,10.8c0.9,3.1,2.2,6.1,3.9,8.8c1.4,2.3,3.3,4.3,5.6,5.9C32.1,71.6,34.4,72.3,36.8,72.3z"/>
				</defs>
				<clipPath id="SVGID_3_">
					<use xlink:href="#SVGID_2_"  style="overflow:visible;"/>
				</clipPath>
				<g class="st258">
					<g>
						
							<linearGradient id="SVGID_4_" gradientUnits="userSpaceOnUse" x1="38.3419" y1="-7.4268" x2="38.3419" y2="-63.5268" gradientTransform="matrix(1 0 0 1 -17.19 80.1268)">
							<stop  offset="0" style="stop-color:#FFFFFF"/>
							<stop  offset="1" style="stop-color:#000000;stop-opacity:0.2"/>
						</linearGradient>
						<path class="st259" d="M36.8,72.3l-13.5,0.4c-2.4,0-4.7-0.7-6.7-2.1C14.4,69,12.4,67,11,64.7C9.3,62,8,59,7.1,55.9
							c-1-3.5-1.5-7.1-1.6-10.8c-0.1-3.7,0.3-7.3,1.1-10.9c0.7-3.1,1.9-6.1,3.4-8.9c1.3-2.4,3.1-4.5,5.3-6.1
							c1.9-1.5,4.2-2.3,6.6-2.4l13.5-0.2c-2.4,0.1-4.7,0.9-6.6,2.4c-2.1,1.7-3.9,3.7-5.3,6.1c-1.6,2.8-2.7,5.8-3.4,8.9
							c-0.8,3.5-1.2,7.2-1.1,10.8c0.1,3.7,0.6,7.3,1.6,10.8c0.9,3.1,2.2,6.1,3.9,8.8c1.4,2.3,3.3,4.3,5.6,5.9
							C32.1,71.6,34.4,72.3,36.8,72.3"/>
					</g>
				</g>
			</g>
		</g>
		<g>
			
				<linearGradient id="SVGID-2_1_" gradientUnits="userSpaceOnUse" x1="57.6103" y1="1.3732" x2="57.6103" y2="-72.3306" gradientTransform="matrix(1 0 0 1 -17.19 80.1268)">
				<stop  offset="0" style="stop-color:#C6C6C5"/>
				<stop  offset="0.71" style="stop-color:#FFFFFF;stop-opacity:0.3"/>
				<stop  offset="1" style="stop-color:#C6C6C5"/>
			</linearGradient>
			<path id="SVGID-2" class="st260" d="M37.1,81.1l-13.5,0.4c3.1,0,6.2-1.1,8.7-3c2.9-2.1,5.3-4.9,7.1-8c2.1-3.7,3.7-7.7,4.6-11.8
				c1.1-4.7,1.6-9.6,1.5-14.4c-0.1-4.9-0.8-9.7-2.1-14.4c-1.1-4.1-2.9-8-5.2-11.6c-1.9-3.1-4.4-5.7-7.4-7.7
				c-2.6-1.8-5.7-2.7-8.9-2.6l13.5-0.2c3.2-0.1,6.3,0.8,8.9,2.6c3,2,5.5,4.6,7.4,7.7c2.3,3.5,4,7.4,5.1,11.5c1.3,4.7,2,9.5,2.1,14.3
				c0.1,4.8-0.4,9.7-1.5,14.4c-1,4.1-2.5,8.1-4.6,11.8c-1.8,3.1-4.2,5.9-7.1,8C43.2,80,40.2,81.1,37.1,81.1z"/>
			
				<linearGradient id="SVGID-3_1_" gradientUnits="userSpaceOnUse" x1="57.9582" y1="1.6732" x2="57.9582" y2="-72.5293" gradientTransform="matrix(1 0 0 1 -17.19 80.1268)">
				<stop  offset="0" style="stop-color:#C6C6C5"/>
				<stop  offset="0.71" style="stop-color:#FFFFFF;stop-opacity:0.3"/>
				<stop  offset="1" style="stop-color:#C6C6C5"/>
			</linearGradient>
			<path id="SVGID-3" class="st261" d="M23.6,81.8v-0.5h0.5c2.9-0.2,5.7-1.2,8.1-2.9c2.9-2.1,5.2-4.8,7-7.9
				c2.1-3.7,3.7-7.7,4.6-11.8c1.1-4.7,1.6-9.6,1.5-14.4c-0.1-4.8-0.8-9.6-2.1-14.3c-1.1-4.1-2.8-7.9-5.1-11.5
				c-1.9-3-4.4-5.6-7.3-7.6c-2.4-1.6-5.3-2.6-8.2-2.6h-0.5V7.8h0.5l13-0.2c3.2-0.1,6.3,0.8,9,2.6c3,2,5.6,4.6,7.5,7.7
				c2.3,3.6,4,7.5,5.2,11.6c1.3,4.7,2,9.5,2.1,14.4c0.1,4.9-0.4,9.7-1.5,14.5c-1,4.2-2.6,8.2-4.7,11.9c-1.8,3.2-4.2,5.9-7.1,8.1
				c-2.6,1.9-5.7,3-8.9,3l-12.9,0.4H23.6z M25.9,8.2c1.8,0.5,3.5,1.2,5,2.2c3,2,5.6,4.6,7.5,7.7c2.3,3.6,4,7.6,5.2,11.7
				c1.3,4.7,2,9.5,2.1,14.4c0.1,4.9-0.4,9.7-1.5,14.5c-0.9,4.2-2.5,8.2-4.6,11.9c-1.7,3.2-4.2,6-7.1,8.1c-1.5,1.1-3.1,1.9-4.9,2.4
				l9.4-0.3c3.1,0,6.1-1.1,8.6-2.9c2.9-2.1,5.2-4.8,7-7.9c2.1-3.6,3.7-7.6,4.6-11.7c1.1-4.7,1.6-9.5,1.5-14.3
				c-0.1-4.8-0.8-9.6-2.1-14.3c-1.1-4.1-2.8-7.9-5.1-11.5c-1.9-3-4.4-5.6-7.4-7.6c-2.6-1.8-5.6-2.6-8.7-2.5L25.9,8.2z"/>
			<g>
				<defs>
					<path id="SVGID_5_" d="M37.1,81.1l-13.5,0.4c3.1,0,6.2-1.1,8.7-3c2.9-2.1,5.3-4.9,7.1-8c2.1-3.7,3.7-7.7,4.6-11.8
						c1.1-4.7,1.6-9.6,1.5-14.4c-0.1-4.9-0.8-9.7-2.1-14.4c-1.1-4.1-2.9-8-5.2-11.6c-1.9-3.1-4.4-5.7-7.4-7.7
						c-2.6-1.8-5.7-2.7-8.9-2.6l13.5-0.2c3.2-0.1,6.3,0.8,8.9,2.6c3,2,5.5,4.6,7.4,7.7c2.3,3.5,4,7.4,5.1,11.5
						c1.3,4.7,2,9.5,2.1,14.3c0.1,4.8-0.4,9.7-1.5,14.4c-1,4.1-2.5,8.1-4.6,11.8c-1.8,3.1-4.2,5.9-7.1,8
						C43.2,80,40.2,81.1,37.1,81.1z"/>
				</defs>
				<defs>
					<path id="SVGID_6_" d="M23.6,81.8v-0.5h0.5c2.9-0.2,5.7-1.2,8.1-2.9c2.9-2.1,5.2-4.8,7-7.9c2.1-3.7,3.7-7.7,4.6-11.8
						c1.1-4.7,1.6-9.6,1.5-14.4c-0.1-4.8-0.8-9.6-2.1-14.3c-1.1-4.1-2.8-7.9-5.1-11.5c-1.9-3-4.4-5.6-7.3-7.6
						c-2.4-1.6-5.3-2.6-8.2-2.6h-0.5V7.8h0.5l13-0.2c3.2-0.1,6.3,0.8,9,2.6c3,2,5.6,4.6,7.5,7.7c2.3,3.6,4,7.5,5.2,11.6
						c1.3,4.7,2,9.5,2.1,14.4c0.1,4.9-0.4,9.7-1.5,14.5c-1,4.2-2.6,8.2-4.7,11.9c-1.8,3.2-4.2,5.9-7.1,8.1c-2.6,1.9-5.7,3-8.9,3
						l-12.9,0.4H23.6z M25.9,8.2c1.8,0.5,3.5,1.2,5,2.2c3,2,5.6,4.6,7.5,7.7c2.3,3.6,4,7.6,5.2,11.7c1.3,4.7,2,9.5,2.1,14.4
						c0.1,4.9-0.4,9.7-1.5,14.5c-0.9,4.2-2.5,8.2-4.6,11.9c-1.7,3.2-4.2,6-7.1,8.1c-1.5,1.1-3.1,1.9-4.9,2.4l9.4-0.3
						c3.1,0,6.1-1.1,8.6-2.9c2.9-2.1,5.2-4.8,7-7.9c2.1-3.6,3.7-7.6,4.6-11.7c1.1-4.7,1.6-9.5,1.5-14.3c-0.1-4.8-0.8-9.6-2.1-14.3
						c-1.1-4.1-2.8-7.9-5.1-11.5c-1.9-3-4.4-5.6-7.4-7.6c-2.6-1.8-5.6-2.6-8.7-2.5L25.9,8.2z"/>
				</defs>
				<clipPath id="SVGID_7_">
					<use xlink:href="#SVGID_5_"  style="overflow:visible;"/>
				</clipPath>
				<clipPath id="SVGID_8_" class="st262">
					<use xlink:href="#SVGID_6_"  style="overflow:visible;"/>
				</clipPath>
				<g class="st263">
					<g>
						
							<linearGradient id="SVGID_9_" gradientUnits="userSpaceOnUse" x1="57.6103" y1="1.3732" x2="57.6103" y2="-72.3306" gradientTransform="matrix(1 0 0 1 -17.19 80.1268)">
							<stop  offset="0" style="stop-color:#C6C6C5"/>
							<stop  offset="0.71" style="stop-color:#FFFFFF;stop-opacity:0.3"/>
							<stop  offset="1" style="stop-color:#C6C6C5"/>
						</linearGradient>
						<path class="st264" d="M37.1,81.1l-13.5,0.4c3.1,0,6.2-1.1,8.7-3c2.9-2.1,5.3-4.9,7.1-8c2.1-3.7,3.7-7.7,4.6-11.8
							c1.1-4.7,1.6-9.6,1.5-14.4c-0.1-4.9-0.8-9.7-2.1-14.4c-1.1-4.1-2.9-8-5.2-11.6c-1.9-3.1-4.4-5.7-7.4-7.7
							c-2.6-1.8-5.7-2.7-8.9-2.6l13.5-0.2c3.2-0.1,6.3,0.8,8.9,2.6c3,2,5.5,4.6,7.4,7.7c2.3,3.5,4,7.4,5.1,11.5
							c1.3,4.7,2,9.5,2.1,14.3c0.1,4.8-0.4,9.7-1.5,14.4c-1,4.1-2.5,8.1-4.6,11.8c-1.8,3.1-4.2,5.9-7.1,8
							C43.2,80,40.2,81.1,37.1,81.1"/>
						
							<linearGradient id="SVGID_10_" gradientUnits="userSpaceOnUse" x1="57.9582" y1="1.6732" x2="57.9582" y2="-72.5293" gradientTransform="matrix(1 0 0 1 -17.19 80.1268)">
							<stop  offset="0" style="stop-color:#C6C6C5"/>
							<stop  offset="0.71" style="stop-color:#FFFFFF;stop-opacity:0.3"/>
							<stop  offset="1" style="stop-color:#C6C6C5"/>
						</linearGradient>
						<path class="st265" d="M23.6,81.8v-0.5h0.5c2.9-0.2,5.7-1.2,8.1-2.9c2.9-2.1,5.2-4.8,7-7.9c2.1-3.7,3.7-7.7,4.6-11.8
							c1.1-4.7,1.6-9.6,1.5-14.4c-0.1-4.8-0.8-9.6-2.1-14.3c-1.1-4.1-2.8-7.9-5.1-11.5c-1.9-3-4.4-5.6-7.3-7.6
							c-2.4-1.6-5.3-2.6-8.2-2.6h-0.5V7.8h0.5l13-0.2c3.2-0.1,6.3,0.8,9,2.6c3,2,5.6,4.6,7.5,7.7c2.3,3.6,4,7.5,5.2,11.6
							c1.3,4.7,2,9.5,2.1,14.4c0.1,4.9-0.4,9.7-1.5,14.5c-1,4.2-2.6,8.2-4.7,11.9c-1.8,3.2-4.2,5.9-7.1,8.1c-2.6,1.9-5.7,3-8.9,3
							l-12.9,0.4H23.6z M25.9,8.2c1.8,0.5,3.5,1.2,5,2.2c3,2,5.6,4.6,7.5,7.7c2.3,3.6,4,7.6,5.2,11.7c1.3,4.7,2,9.5,2.1,14.4
							c0.1,4.9-0.4,9.7-1.5,14.5c-0.9,4.2-2.5,8.2-4.6,11.9c-1.7,3.2-4.2,6-7.1,8.1c-1.5,1.1-3.1,1.9-4.9,2.4l9.4-0.3
							c3.1,0,6.1-1.1,8.6-2.9c2.9-2.1,5.2-4.8,7-7.9c2.1-3.6,3.7-7.6,4.6-11.7c1.1-4.7,1.6-9.5,1.5-14.3c-0.1-4.8-0.8-9.6-2.1-14.3
							c-1.1-4.1-2.8-7.9-5.1-11.5c-1.9-3-4.4-5.6-7.4-7.6c-2.6-1.8-5.6-2.6-8.7-2.5L25.9,8.2z"/>
					</g>
				</g>
			</g>
		</g>
		<path class="st266" d="M0.3,45.3C0.2,40.5,0.7,35.7,1.7,31c0.9-4.1,2.4-8.1,4.5-11.8c1.7-3.1,4.1-5.9,6.9-8.1
			c2.5-1.9,5.5-3,8.7-3.2c3.2-0.1,6.3,0.8,8.9,2.6c3,2,5.5,4.6,7.4,7.7c2.3,3.6,4,7.5,5.2,11.6c1.3,4.7,2,9.5,2.1,14.4
			c0.1,4.8-0.4,9.7-1.5,14.4c-0.9,4.1-2.5,8.1-4.6,11.8c-1.8,3.1-4.2,5.9-7.1,8c-2.5,1.9-5.6,2.9-8.7,3c-3.1,0-6.2-1-8.8-2.8
			c-2.9-2.1-5.4-4.7-7.3-7.7c-2.2-3.6-3.9-7.5-5.1-11.5C1.1,54.8,0.4,50.1,0.3,45.3z M40,44.4c-0.1-3.7-0.6-7.3-1.6-10.9
			c-0.9-3.1-2.2-6.1-3.9-8.8c-1.4-2.3-3.3-4.3-5.6-5.8c-2-1.4-4.3-2.1-6.7-2c-2.4,0.1-4.7,0.9-6.6,2.4c-2.1,1.7-3.9,3.7-5.3,6.1
			c-1.6,2.8-2.7,5.8-3.4,8.9c-0.8,3.6-1.2,7.2-1.1,10.9c0.1,3.7,0.6,7.3,1.6,10.8c0.9,3.1,2.2,6.1,3.9,8.8c1.4,2.3,3.3,4.3,5.6,5.9
			c2,1.4,4.3,2.1,6.7,2.1c2.4-0.1,4.7-0.9,6.6-2.3c2.2-1.6,4-3.7,5.3-6.1c1.6-2.8,2.8-5.8,3.5-9C39.8,51.8,40.1,48.1,40,44.4"/>
		<path class="st267" d="M23.4,81.8c-3.1,0-6.2-1-8.8-2.8c-3-2.1-5.5-4.7-7.4-7.8c-2.3-3.6-4-7.5-5.1-11.6C0.8,55,0.1,50.2,0,45.4
			c-0.1-4.8,0.4-9.6,1.4-14.3C2.3,27,3.9,23,5.9,19.3c1.7-3.2,4.1-5.9,7-8.1c2.5-1.9,5.6-3,8.8-3.2c3.2-0.1,6.3,0.8,9,2.6
			c3,2,5.6,4.6,7.5,7.7c2.3,3.6,4.1,7.6,5.2,11.7c1.3,4.7,2,9.5,2.1,14.4c0.1,4.9-0.4,9.7-1.5,14.5c-1,4.2-2.5,8.2-4.6,11.9
			c-1.8,3.2-4.2,5.9-7.1,8.1C29.7,80.8,26.6,81.9,23.4,81.8C23.5,81.8,23.5,81.8,23.4,81.8z M0.5,45.3c0.1,4.8,0.8,9.5,2.1,14.1
			c1.1,4.1,2.8,7.9,5,11.5c1.9,3,4.3,5.6,7.2,7.7c5.2,3.7,12.2,3.6,17.3-0.3c2.9-2.1,5.2-4.8,7-7.9c2.1-3.7,3.7-7.7,4.6-11.8
			c1.1-4.7,1.6-9.6,1.5-14.4c-0.1-4.8-0.8-9.6-2.1-14.3C42,25.8,40.3,22,38,18.4c-1.9-3-4.4-5.6-7.3-7.6c-2.6-1.7-5.6-2.7-8.7-2.6
			c-3.1,0.2-6.1,1.2-8.6,3.1c-2.8,2.2-5.2,4.9-6.9,8C4.4,22.9,2.9,26.9,2,31C0.9,35.7,0.4,40.5,0.5,45.3z M23.2,72.9
			c-2.4,0-4.7-0.7-6.7-2.1c-2.3-1.6-4.2-3.6-5.6-5.9c-1.7-2.7-3-5.7-3.9-8.8C6,52.6,5.5,49,5.4,45.3C5.3,41.6,5.7,38,6.5,34.4
			c0.7-3.2,1.9-6.2,3.5-9c1.3-2.4,3.1-4.5,5.3-6.2c4-3.1,9.5-3.2,13.6-0.4c2.3,1.6,4.2,3.6,5.7,5.9c1.8,2.7,3.1,5.7,3.9,8.9
			c1,3.6,1.5,7.3,1.6,11c0.1,3.7-0.3,7.4-1.1,11c-0.7,3.2-1.9,6.2-3.5,9c-1.4,2.4-3.2,4.5-5.4,6.2c-2,1.5-4.3,2.3-6.8,2.3
			C23.3,72.9,23.3,72.9,23.2,72.9z M22.4,17.1h-0.3c-2.4,0.1-4.6,1-6.5,2.4c-2.2,1.6-3.9,3.7-5.2,6.1c-1.6,2.8-2.7,5.8-3.4,8.9
			C6.2,38,5.8,41.7,5.9,45.3C6,48.9,6.5,52.5,7.5,56c0.8,3.1,2.1,6,3.8,8.7c1.4,2.3,3.3,4.3,5.5,5.8c1.9,1.3,4.2,2.1,6.6,2.1
			c2.4,0,4.6-0.8,6.5-2.3c2.2-1.6,4-3.7,5.3-6c1.6-2.8,2.8-5.8,3.5-8.9c0.8-3.6,1.2-7.2,1.1-10.9c-0.1-3.7-0.6-7.3-1.6-10.8
			c-0.9-3.1-2.2-6.1-3.9-8.8c-1.4-2.3-3.3-4.3-5.6-5.8C26.9,17.8,24.7,17.1,22.4,17.1z"/>
	</g>
	<polygon class="st266" points="14.2,25.7 28.3,25.7 21.2,18.4 	"/>
	<path class="st1" d="M14.2,25.7l7-7.3l7.2,7.3H14.2 M13.1,26.2h16.3l-0.7-0.8l-7.2-7.3l-0.3-0.3l-0.4,0.3l-7,7.3
		C13.8,25.4,13.1,26.2,13.1,26.2z"/>
	<rect x="20.7" y="4.4" class="st1" width="0.9" height="13.3"/>
	<polygon class="st266" points="28,0.4 13.9,0.4 21,7.7 	"/>
	<path class="st1" d="M13.9,0.4H28l-7,7.3L13.9,0.4 M12.8,0l0.7,0.8l7.2,7.3L21,8.4l0.3-0.3l7-7.3L29,0H12.8z"/>
</g>
</svg>
