<svg xmlns="http://www.w3.org/2000/svg" xmlns:xlink="http://www.w3.org/1999/xlink" viewBox="0 0 265 200"><defs><style>.cls-1,.cls-6{fill:#fff;}.cls-1{opacity:0;}.cls-2{isolation:isolate;}.cls-3{fill:url(#Neues_Verlaufsfeld_1);}.cls-4{fill:#666;}.cls-5{fill:url(#Neues_Verlaufsfeld_4);}.cls-7{fill:url(#Neues_Verlaufsfeld_3);}</style><linearGradient id="Neues_Verlaufsfeld_1" x1="308.8" y1="208.26" x2="308.8" y2="102.08" gradientTransform="matrix(-1, 0, 0, 1, 680.11, 0)" gradientUnits="userSpaceOnUse"><stop offset="0" stop-color="#adadad"/><stop offset="0.18" stop-color="#cfcfcf"/><stop offset="0.58" stop-color="#767676"/><stop offset="0.86" stop-color="#3c3c3c"/><stop offset="1" stop-color="#262626"/></linearGradient><linearGradient id="Neues_Verlaufsfeld_4" x1="296.57" y1="214.86" x2="298.6" y2="59.97" gradientTransform="matrix(-1, 0, 0, 1, 680.11, 0)" gradientUnits="userSpaceOnUse"><stop offset="0" stop-color="#8a8a8a"/><stop offset="0.75" stop-color="#fff"/><stop offset="0.81" stop-color="#f6f6f6"/><stop offset="1" stop-color="#e0e0e0"/></linearGradient><linearGradient id="Neues_Verlaufsfeld_3" x1="383.38" y1="50.87" x2="383.38" y2="193.12" gradientTransform="matrix(-1, 0, 0, 1, 680.11, 0)" gradientUnits="userSpaceOnUse"><stop offset="0" stop-color="#666"/><stop offset="0.24" stop-color="#fff"/><stop offset="0.26" stop-color="#f9f9f9"/><stop offset="0.62" stop-color="#9d9d9d"/><stop offset="0.88" stop-color="#636363"/><stop offset="1" stop-color="#4d4d4d"/></linearGradient></defs><g id="BG_Kopie" data-name="BG Kopie"><rect class="cls-1" width="265" height="200"/></g><g id="Ebene_5" data-name="Ebene 5"><g id="Seitlich_Eingerieben_rechts" data-name="Seitlich Eingerieben rechts" class="cls-2"><path class="cls-3" d="M359.27,200q-.39-3.72-.88-7.37c-7.34-54.34-32.16-94.31-61.65-94.31h86.6c29.49,0,54.31,40,61.65,94.31q.5,3.65.88,7.37Z" transform="translate(-207.47)"/><path class="cls-4" d="M445.18,200c0-.32-.06-.65-.08-1-.18-2.22-.39-4.74-.6-6.32-7.47-55.28-32.62-93.88-61.16-93.88H304.77c25.63,6.42,47.28,43.17,54.12,93.75.22,1.61.41,4,.6,6.4l.09,1h-1c0-.31-.05-.63-.07-.95-.18-2.24-.39-4.77-.6-6.35-7.48-55.28-32.63-93.88-61.16-93.88v-1h86.6c29.05,0,54.61,39,62.15,94.75.22,1.6.41,4,.6,6.37l.09,1.06Z" transform="translate(-207.47)"/><path class="cls-5" d="M445.87,200c-6-58.05-31.72-101.68-62.53-101.68S326.82,142,320.81,200H296.72C303,115.6,339.39,50.87,383.34,50.87S463.67,115.6,470,200Z" transform="translate(-207.47)"/><path class="cls-4" d="M383.34,97.82c30.19,0,56.52,42.88,62.92,102.18h-1C438.89,141.27,413,98.82,383.34,98.82S327.79,141.27,321.43,200h-1C326.82,140.7,353.15,97.82,383.34,97.82Z" transform="translate(-207.47)"/><path class="cls-4" d="M469.37,200c-6.61-84.85-43.44-148.63-86-148.63s-79.43,63.78-86,148.63h-1c3.17-40.76,13.47-78.26,29.08-105.75,16.07-28.3,36.65-43.88,58-43.88s41.89,15.58,58,43.88c15.61,27.49,25.91,65,29.08,105.75Z" transform="translate(-207.47)"/><path class="cls-6" d="M429.6,95c-1.83,0-3.6,1.89-4.58,5.28-1.47,5.07-.6,11.55,1.92,14.47a3.56,3.56,0,0,0,2.66,1.43c1.82,0,3.6-1.89,4.58-5.28,1.47-5.07.6-11.55-1.93-14.47A3.54,3.54,0,0,0,429.6,95Z" transform="translate(-207.47)"/><path class="cls-4" d="M426.57,115.08c-2.63-3-3.54-9.74-2-14.94,1-3.53,2.91-5.64,5.06-5.64h0a4,4,0,0,1,3,1.6c2.63,3,3.54,9.74,2,14.94-1,3.53-2.91,5.64-5.06,5.64A4,4,0,0,1,426.57,115.08Zm3-19.58h0c-1.65,0-3.22,1.89-4.1,4.92-1.42,4.91-.61,11.2,1.82,14a3.11,3.11,0,0,0,2.28,1.25c1.65,0,3.22-1.88,4.1-4.92,1.42-4.91.6-11.19-1.82-14a3.13,3.13,0,0,0-2.28-1.26Z" transform="translate(-207.47)"/><path class="cls-6" d="M417.34,79.62c-2.19,0-4.24,2.75-5,7.13-1,5.53.51,11.56,3.27,13.47a3,3,0,0,0,1.74.59c2.19,0,4.24-2.76,5-7.13.95-5.54-.51-11.57-3.28-13.48A3,3,0,0,0,417.34,79.62Z" transform="translate(-207.47)"/><path class="cls-4" d="M415.33,100.63c-3-2-4.48-8.18-3.48-14,.78-4.51,3-7.54,5.49-7.54a3.51,3.51,0,0,1,2,.67c2.95,2,4.48,8.17,3.48,14-.79,4.58-2.95,7.55-5.49,7.55A3.48,3.48,0,0,1,415.33,100.63Zm-2.5-13.8c-.92,5.35.45,11.17,3.07,13a2.52,2.52,0,0,0,1.45.5c2,0,3.82-2.77,4.51-6.72.92-5.35-.46-11.17-3.07-13a2.53,2.53,0,0,0-1.45-.49C415.37,80.12,413.52,82.88,412.83,86.83Z" transform="translate(-207.47)"/><path class="cls-6" d="M404.13,69.36c-2.59,0-4.85,3.79-5.24,9.06-.42,5.79,1.59,11.17,4.48,12a3,3,0,0,0,.77.11c2.59,0,4.85-3.79,5.23-9.07.42-5.79-1.58-11.16-4.47-12A3,3,0,0,0,404.13,69.36Z" transform="translate(-207.47)"/><path class="cls-4" d="M403.23,90.91c-3.16-.92-5.28-6.42-4.84-12.53.41-5.51,2.82-9.52,5.74-9.52A3.25,3.25,0,0,1,405,69c3.15.92,5.28,6.42,4.83,12.52-.4,5.52-2.81,9.53-5.73,9.53A3.19,3.19,0,0,1,403.23,90.91Zm-3.84-12.45c-.4,5.46,1.49,10.73,4.12,11.5s5-3.17,5.36-8.52S407.39,70.72,404.76,70a2.34,2.34,0,0,0-.63-.09C401.78,69.86,399.75,73.56,399.39,78.46Z" transform="translate(-207.47)"/><path class="cls-6" d="M390.35,64.23h-.21c-2.92.23-5.2,5.15-5.08,11s2.46,10.17,5.28,10.17h.22c2.92-.23,5.19-5.15,5.08-11S393.18,64.23,390.35,64.23Z" transform="translate(-207.47)"/><path class="cls-4" d="M384.56,75.25c-.13-6.2,2.31-11.25,5.54-11.51h.25c3.13,0,5.67,4.69,5.79,10.67.12,6.19-2.31,11.24-5.54,11.5h-.26C387.21,85.91,384.67,81.23,384.56,75.25Zm5.79-10.52h-.17c-2.62.2-4.73,5-4.62,10.49s2.32,9.9,5,9.68,4.73-5,4.62-10.49-2.26-9.69-4.79-9.69Z" transform="translate(-207.47)"/><path class="cls-6" d="M376.38,64.22a2.83,2.83,0,0,0-1.18.26c-2.85,1.3-4.64,7-4,12.67.55,4.92,2.74,8.26,5.16,8.26a2.77,2.77,0,0,0,1.17-.27c2.85-1.29,4.64-7,4-12.67C381,67.55,378.8,64.22,376.38,64.22Z" transform="translate(-207.47)"/><path class="cls-4" d="M370.71,77.21c-.68-6,1.2-11.78,4.29-13.19a3.37,3.37,0,0,1,1.38-.3c2.75,0,5.07,3.57,5.65,8.69.68,6-1.2,11.79-4.28,13.19a3.38,3.38,0,0,1-1.38.31C373.62,85.91,371.29,82.33,370.71,77.21Zm4.7-12.28c-2.62,1.2-4.32,6.77-3.71,12.17.59,5.19,3.14,8.72,5.64,7.59s4.31-6.76,3.7-12.16c-.51-4.53-2.47-7.81-4.66-7.81A2.39,2.39,0,0,0,375.41,64.93Z" transform="translate(-207.47)"/><path class="cls-6" d="M362.58,69.34a3.22,3.22,0,0,0-2.09.86c-2.69,2.33-3.93,8.55-2.77,13.93.87,4,2.82,6.39,4.86,6.39a3.19,3.19,0,0,0,2.1-.87c2.69-2.31,3.93-8.55,2.77-13.91C366.58,71.73,364.63,69.34,362.58,69.34Z" transform="translate(-207.47)"/><path class="cls-4" d="M357.23,84.23c-1.21-5.61.08-11.94,2.93-14.4a3.67,3.67,0,0,1,2.42-1c2.36,0,4.47,2.66,5.36,6.79,1.19,5.53-.12,12-2.93,14.4a3.68,3.68,0,0,1-2.43,1C360.22,91,358.12,88.36,357.23,84.23Zm3.59-13.65c-2.56,2.21-3.73,8.24-2.61,13.44.78,3.59,2.53,6,4.37,6a2.75,2.75,0,0,0,1.78-.76c2.55-2.2,3.72-8.22,2.6-13.43-.78-3.59-2.54-6-4.38-6A2.7,2.7,0,0,0,360.82,70.58Z" transform="translate(-207.47)"/><path class="cls-6" d="M349.37,79.58a3.8,3.8,0,0,0-3,1.82c-2.42,3.28-3,9.86-1.41,14.71,1,3,2.69,4.65,4.38,4.65a3.8,3.8,0,0,0,3-1.82c2.42-3.28,3.05-9.86,1.42-14.71C352.73,81.21,351.06,79.58,349.37,79.58Z" transform="translate(-207.47)"/><path class="cls-4" d="M344.51,96.27c-1.68-5-1-11.78,1.49-15.17a4.29,4.29,0,0,1,3.36-2h0c2,0,3.8,1.87,4.86,5,1.68,5,1,11.77-1.49,15.16a4.29,4.29,0,0,1-3.37,2C347.39,101.26,345.57,99.39,344.51,96.27Zm4.86-16.19h0a3.33,3.33,0,0,0-2.55,1.62c-2.34,3.15-2.94,9.55-1.35,14.25.91,2.7,2.38,4.31,3.91,4.31a3.36,3.36,0,0,0,2.57-1.62c2.33-3.15,2.93-9.54,1.34-14.24-.91-2.71-2.38-4.32-3.91-4.32Z" transform="translate(-207.47)"/><path class="cls-6" d="M337.11,95c-1.36,0-2.71,1-3.75,3.11a18.86,18.86,0,0,0,0,15c1,2.07,2.39,3.1,3.74,3.1s2.72-1,3.75-3.11a18.89,18.89,0,0,0,0-15C339.82,96,338.46,95,337.11,95Z" transform="translate(-207.47)"/><path class="cls-4" d="M332.92,113.26a19.47,19.47,0,0,1,0-15.43c1.09-2.18,2.58-3.38,4.19-3.38s3.1,1.19,4.19,3.37a19.45,19.45,0,0,1,0,15.42c-1.09,2.18-2.58,3.39-4.2,3.39S334,115.43,332.92,113.26Zm.89-15a18.3,18.3,0,0,0,0,14.53c.91,1.82,2.08,2.82,3.29,2.82s2.4-1,3.31-2.84a18.3,18.3,0,0,0,0-14.53c-.91-1.81-2.08-2.81-3.29-2.81S334.72,96.45,333.81,98.28Z" transform="translate(-207.47)"/><path class="cls-7" d="M374.4,51.77a49.32,49.32,0,0,0-10,3.19,62.18,62.18,0,0,0-14.08,8.75c-9,7.34-17.29,17.59-24.52,30.18a179.42,179.42,0,0,0-10.4,21.48q-3.21,7.86-5.95,16.45-2.28,7.13-4.21,14.69-1.72,6.75-3.16,13.82-1.35,6.66-2.43,13.57-1,6.71-1.82,13.63c-.46,4.1-.83,8.27-1.15,12.47h-86.6c.31-4.2.69-8.37,1.15-12.47q.78-6.92,1.82-13.63,1.08-6.92,2.43-13.57,1.42-7.07,3.15-13.82,1.94-7.56,4.21-14.69,2.75-8.58,6-16.45a179.42,179.42,0,0,1,10.4-21.48c7.23-12.59,15.5-22.84,24.52-30.18A62.18,62.18,0,0,1,277.84,55a49.12,49.12,0,0,1,10-3.19,45.19,45.19,0,0,1,8.62-.9H383A45.27,45.27,0,0,0,374.4,51.77Z" transform="translate(-207.47)"/><path class="cls-4" d="M374.5,52.26a48.91,48.91,0,0,0-9.86,3.16,61.56,61.56,0,0,0-14,8.68c-8.9,7.24-17.11,17.35-24.4,30a176.88,176.88,0,0,0-10.37,21.42c-2.14,5.22-4.14,10.74-6,16.42-1.51,4.72-2.92,9.65-4.2,14.66-1.14,4.48-2.21,9.12-3.15,13.79-.9,4.43-1.71,9-2.42,13.55s-1.31,9.05-1.82,13.61c-.4,3.58-.74,8.24-1,12.36V200h-1v-.12c.3-4.13.63-8.8,1-12.4.52-4.57,1.13-9.17,1.83-13.66s1.53-9.15,2.43-13.59c.95-4.68,2-9.34,3.16-13.84,1.28-5,2.7-10,4.22-14.72,1.82-5.69,3.83-11.24,6-16.49a178.87,178.87,0,0,1,10.43-21.54c7.35-12.8,15.64-23,24.64-30.32a62.78,62.78,0,0,1,14.19-8.82,49.85,49.85,0,0,1,9.63-3.13H296.42a44.57,44.57,0,0,0-8.52.89A48.71,48.71,0,0,0,278,55.42a61.35,61.35,0,0,0-14,8.68c-8.91,7.24-17.11,17.35-24.41,30a179.9,179.9,0,0,0-10.37,21.42c-2.13,5.22-4.13,10.74-5.94,16.42-1.51,4.72-2.93,9.65-4.2,14.66-1.15,4.48-2.21,9.12-3.15,13.79-.9,4.45-1.72,9-2.42,13.55s-1.31,9-1.82,13.61c-.41,3.58-.74,8.24-1,12.36V200h-1v-.12c.29-4.13.63-8.8,1-12.4.52-4.6,1.13-9.19,1.83-13.66s1.52-9.12,2.43-13.59c.95-4.68,2-9.34,3.16-13.84,1.28-5,2.7-10,4.22-14.72,1.82-5.69,3.83-11.24,6-16.49a178.87,178.87,0,0,1,10.43-21.54c7.35-12.8,15.64-23,24.64-30.32a62.78,62.78,0,0,1,14.19-8.82,49.84,49.84,0,0,1,10.06-3.22,45.83,45.83,0,0,1,8.71-.91h86.93v1H383A44.65,44.65,0,0,0,374.5,52.26Z" transform="translate(-207.47)"/></g></g></svg>