<?xml version="1.0" encoding="UTF-8" standalone="no"?>
<!-- Generator: Adobe Illustrator 24.3.0, SVG Export Plug-In . SVG Version: 6.00 Build 0)  -->

<svg
   xmlns:dc="http://purl.org/dc/elements/1.1/"
   xmlns:cc="http://creativecommons.org/ns#"
   xmlns:rdf="http://www.w3.org/1999/02/22-rdf-syntax-ns#"
   xmlns:svg="http://www.w3.org/2000/svg"
   xmlns="http://www.w3.org/2000/svg"
   xmlns:sodipodi="http://sodipodi.sourceforge.net/DTD/sodipodi-0.dtd"
   xmlns:inkscape="http://www.inkscape.org/namespaces/inkscape"
   version="1.1"
   x="0px"
   y="0px"
   viewBox="0 0 200 200"
   style="enable-background:new 0 0 200 200;"
   xml:space="preserve"
   id="svg6321"
   sodipodi:docname="princess_45.svg"
   inkscape:version="0.92.4 (5da689c313, 2019-01-14)"><metadata
   id="metadata6327"><rdf:RDF><cc:Work
       rdf:about=""><dc:format>image/svg+xml</dc:format><dc:type
         rdf:resource="http://purl.org/dc/dcmitype/StillImage" /><dc:title></dc:title></cc:Work></rdf:RDF></metadata><defs
   id="defs6325" /><sodipodi:namedview
   pagecolor="#ffffff"
   bordercolor="#666666"
   borderopacity="1"
   objecttolerance="10"
   gridtolerance="10"
   guidetolerance="10"
   inkscape:pageopacity="0"
   inkscape:pageshadow="2"
   inkscape:window-width="1443"
   inkscape:window-height="908"
   id="namedview6323"
   showgrid="false"
   inkscape:zoom="1.18"
   inkscape:cx="81.355932"
   inkscape:cy="100"
   inkscape:window-x="0"
   inkscape:window-y="0"
   inkscape:window-maximized="0"
   inkscape:current-layer="svg6321" />
<style
   type="text/css"
   id="style5893">
	.st0{opacity:0;fill:#FFFFFF;}
	.st1{display:none;}
	.st2{display:inline;}
	.st3{fill:#F2F2F2;}
	.st4{fill:#E6E6E6;}
	.st5{fill:url(#SVGID_1_);}
	.st6{fill:#3E3E3E;}
	.st7{fill:#808080;}
	.st8{fill:#CCCCCC;}
	.st9{fill:#FFFFFF;}
	.st10{fill:#B3B3B3;}
	.st11{fill:url(#SVGID_2_);}
	.st12{fill:url(#SVGID_3_);}
	.st13{fill:url(#SVGID_4_);}
	.st14{fill:url(#SVGID_5_);}
	.st15{fill:url(#SVGID_6_);}
	.st16{fill:url(#SVGID_7_);}
	.st17{fill:url(#SVGID_8_);}
	.st18{fill:url(#SVGID_9_);}
	.st19{fill:url(#SVGID_10_);}
	.st20{fill:url(#SVGID_11_);}
	.st21{display:inline;fill:#3E3E3E;}
	.st22{fill:url(#SVGID_12_);}
	.st23{fill:url(#SVGID_13_);}
</style>
<g
   id="BG"
   transform="matrix(0.61385746,0.61385746,-0.61385746,0.61385746,99.961386,-22.710104)">
	<rect
   x="-0.1"
   class="st0"
   width="200"
   height="200"
   id="rect5895"
   y="0"
   style="opacity:0;fill:#ffffff" />
</g>
<g
   id="Brillant"
   class="st1">
	<g
   class="st2"
   id="g5914">
		<path
   class="st3"
   d="M27.2,70.2l21,8.4l-3.5-34.4c0,0-8,9.1-10.2,12.4C32.3,59.8,27.2,70.2,27.2,70.2z"
   id="path5898" />
		<path
   class="st3"
   d="M69.9,27.3l8.1,20.1l-34.2-1.5c0,0,9.1-9.1,12.4-11.3C59.5,32.5,69.9,27.3,69.9,27.3z"
   id="path5900" />
		<path
   class="st4"
   d="M27.2,129.9l21-8.4l-3.5,34.4c0,0-8-9.1-10.2-12.4C32.3,140.3,27.2,129.9,27.2,129.9z"
   id="path5902" />
		<path
   class="st3"
   d="M69.9,172.8l8.1-20.1l-34.2,1.5c0,0,9.1,9.1,12.4,11.3C59.5,167.7,69.9,172.8,69.9,172.8z"
   id="path5904" />
		<path
   class="st3"
   d="M172.8,70.2l-21,8.4l3.5-34.4c0,0,8,9.1,10.2,12.4C167.7,59.8,172.8,70.2,172.8,70.2z"
   id="path5906" />
		<path
   class="st4"
   d="M130,27.3l-8.1,20.1l34.2-1.5c0,0-9.1-9.1-12.4-11.3C140.4,32.5,130,27.3,130,27.3z"
   id="path5908" />
		<path
   class="st3"
   d="M172.8,129.9l-21-8.4l3.5,34.4c0,0,8-9.1,10.2-12.4C167.7,140.3,172.8,129.9,172.8,129.9z"
   id="path5910" />
		<path
   class="st4"
   d="M130,172.8l-8.1-20.1l34.2,1.5c0,0-9.1,9.1-12.4,11.3C140.4,167.7,130,172.8,130,172.8z"
   id="path5912" />
	</g>
	<g
   class="st2"
   id="g5927">
		<linearGradient
   id="SVGID_1_"
   gradientUnits="userSpaceOnUse"
   x1="99.8868"
   y1="138.5823"
   x2="99.8868"
   y2="62.7394">
			<stop
   offset="0"
   style="stop-color:#C9C9C9"
   id="stop5916" />
			<stop
   offset="0.3411"
   style="stop-color:#BABABA"
   id="stop5918" />
			<stop
   offset="1"
   style="stop-color:#F7F7F7"
   id="stop5920" />
		</linearGradient>
		<polygon
   class="st5"
   points="69.6,69.7 57,100 69.6,130.3 99.9,142.9 130.2,130.3 142.8,100 130.2,69.7 99.9,57.1   "
   id="polygon5923" />
		<path
   class="st6"
   d="M99.9,144.5l-31.5-13l-13-31.5l13-31.5l31.5-13l31.5,13l13,31.5l-13,31.5L99.9,144.5z M70.7,129.2l29.2,12.1    l29.2-12.1l12.1-29.2l-12.1-29.2L99.9,58.8L70.7,70.8L58.6,100L70.7,129.2z"
   id="path5925" />
	</g>
	<g
   class="st2"
   id="g5965">
		<g
   id="g5945">
			<polygon
   class="st4"
   points="48.1,121.4 69.6,130.3 57,100    "
   id="polygon5929" />
			<polygon
   class="st3"
   points="121.3,151.7 130.2,130.3 99.9,142.9    "
   id="polygon5931" />
			<polygon
   class="st4"
   points="78.5,48.3 69.6,69.7 99.9,57.1    "
   id="polygon5933" />
			<polygon
   class="st7"
   points="151.6,78.6 130.2,69.7 142.8,100    "
   id="polygon5935" />
			<polygon
   class="st8"
   points="142.8,100 130.2,130.3 151.6,121.4    "
   id="polygon5937" />
			<polygon
   class="st3"
   points="78.5,151.7 99.9,142.9 69.6,130.3    "
   id="polygon5939" />
			<polygon
   class="st3"
   points="48.1,78.6 57,100 69.6,69.7    "
   id="polygon5941" />
			<polygon
   class="st3"
   points="121.3,48.3 99.9,57.1 130.2,69.7    "
   id="polygon5943" />
		</g>
		<g
   id="g5963">
			<path
   class="st6"
   d="M72.3,133.1l-26.2-10.8L57,96.1L72.3,133.1z M50.1,120.6l16.7,6.9L57,103.9L50.1,120.6z"
   id="path5947" />
			<path
   class="st6"
   d="M122.1,153.7L96,142.9l37-15.3L122.1,153.7z M103.8,142.9l16.7,6.9l6.9-16.7L103.8,142.9z"
   id="path5949" />
			<path
   class="st6"
   d="M66.8,72.5l10.8-26.2l26.2,10.8L66.8,72.5z M79.3,50.2l-6.9,16.7L96,57.1L79.3,50.2z"
   id="path5951" />
			<path
   class="st6"
   d="M142.8,103.9l-15.3-37l26.2,10.8L142.8,103.9z M133,72.5l9.8,23.6l6.9-16.7L133,72.5z"
   id="path5953" />
			<path
   class="st6"
   d="M127.4,133.1l15.3-37l10.8,26.2L127.4,133.1z M142.8,103.9l-9.8,23.6l16.7-6.9L142.8,103.9z"
   id="path5955" />
			<path
   class="st6"
   d="M77.6,153.7l-10.8-26.2l37,15.3L77.6,153.7z M72.3,133.1l6.9,16.7l16.7-6.9L72.3,133.1z"
   id="path5957" />
			<path
   class="st6"
   d="M57,103.9L46.2,77.8l26.2-10.8L57,103.9z M50.1,79.4L57,96.1l9.8-23.6L50.1,79.4z"
   id="path5959" />
			<path
   class="st6"
   d="M133,72.5L96,57.1l26.2-10.8L133,72.5z M103.8,57.1l23.6,9.8l-6.9-16.7L103.8,57.1z"
   id="path5961" />
		</g>
	</g>
	<g
   class="st2"
   id="g5987">
		<g
   id="g5975">
			<polygon
   class="st9"
   points="142.8,100 151.6,78.6 177.9,100 151.6,121.4    "
   id="polygon5967" />
			<polygon
   class="st10"
   points="57,100 48.1,121.4 21.9,100 48.1,78.6    "
   id="polygon5969" />
			<polygon
   class="st4"
   points="99.9,57.1 78.5,48.3 99.9,22 121.3,48.3    "
   id="polygon5971" />
			<polygon
   class="st3"
   points="100,142.9 121.4,151.7 100,178 78.6,151.7    "
   id="polygon5973" />
		</g>
		<g
   id="g5985">
			<path
   class="st6"
   d="M151,123.9l-9.9-23.9l9.9-23.9l29.3,23.9L151,123.9z M144.4,100l7.9,19l23.3-19l-23.3-19L144.4,100z"
   id="path5977" />
			<path
   class="st6"
   d="M48.8,123.9L19.5,100l29.3-23.9l9.9,23.9L48.8,123.9z M24.2,100l23.3,19l7.9-19l-7.9-19L24.2,100z"
   id="path5979" />
			<path
   class="st6"
   d="M99.9,58.8L76,48.9l23.9-29.3l23.9,29.3L99.9,58.8z M80.9,47.6l19,7.9l19-7.9l-19-23.3L80.9,47.6z"
   id="path5981" />
			<path
   class="st6"
   d="M100,180.4l-23.9-29.3l23.9-9.9l23.9,9.9L100,180.4z M81,152.4l19,23.3l19-23.3l-19-7.9L81,152.4z"
   id="path5983" />
		</g>
	</g>
	<g
   class="st2"
   id="g6009">
		<g
   id="g5997">
			<polygon
   class="st4"
   points="78.5,47.4 44.6,45.9 48.1,78.6 69.6,69.7    "
   id="polygon5989" />
			<polygon
   class="st4"
   points="121.4,47.4 155.3,45.9 151.7,78.6 130.3,69.7    "
   id="polygon5991" />
			<polygon
   class="st9"
   points="78.5,152.7 44.6,154.2 48.1,121.5 69.6,130.4    "
   id="polygon5993" />
			<polygon
   class="st8"
   points="121.4,152.7 155.3,154.2 151.7,121.5 130.3,130.4    "
   id="polygon5995" />
		</g>
		<g
   id="g6007">
			<path
   class="st6"
   d="M46.9,80.7l-3.9-36.4L80.6,46l-9.9,24.8L46.9,80.7z M46.3,47.4l3.1,29l19-7.9l7.9-19.7L46.3,47.4z"
   id="path5999" />
			<path
   class="st6"
   d="M153,80.7l-23.9-9.9L119.3,46l37.7-1.7L153,80.7z M131.5,68.5l19,7.9l3.1-29l-30,1.4L131.5,68.5z"
   id="path6001" />
			<path
   class="st6"
   d="M42.9,155.8l3.9-36.4l23.9,9.9l9.9,24.8L42.9,155.8z M49.4,123.7l-3.1,29l30-1.4l-7.9-19.7L49.4,123.7z"
   id="path6003" />
			<path
   class="st6"
   d="M157,155.8l-37.7-1.7l9.9-24.8l23.9-9.9L157,155.8z M123.6,151.3l30,1.4l-3.1-29l-19,7.9L123.6,151.3z"
   id="path6005" />
		</g>
	</g>
	<g
   class="st2"
   id="g6047">
		<g
   id="g6027">
			<path
   class="st10"
   d="M70,27.3l8.4,21L99.9,22c0,0-11.4,0.2-15.2,0.9C81,23.6,70,27.3,70,27.3z"
   id="path6011" />
			<path
   class="st8"
   d="M130,27.3l-8.4,21L100.1,22c0,0,11.4,0.2,15.2,0.9C119.1,23.6,130,27.3,130,27.3z"
   id="path6013" />
			<path
   class="st4"
   d="M70,173l8.4-21l21.4,26.3c0,0-11.4-0.2-15.2-0.9C81,176.7,70,173,70,173z"
   id="path6015" />
			<path
   class="st3"
   d="M130,173l-8.4-21l-21.4,26.3c0,0,11.4-0.2,15.2-0.9C119.1,176.7,130,173,130,173z"
   id="path6017" />
			<path
   class="st3"
   d="M27.2,130.1l21-8.4l-26.3-21.4c0,0,0.2,11.4,0.9,15.2C23.4,119.2,27.2,130.1,27.2,130.1z"
   id="path6019" />
			<path
   class="st3"
   d="M27.2,70.2l21,8.4L21.9,100c0,0,0.2-11.4,0.9-15.2C23.4,81.1,27.2,70.2,27.2,70.2z"
   id="path6021" />
			<path
   class="st8"
   d="M172.9,130.1l-21-8.4l26.3-21.4c0,0-0.2,11.4-0.9,15.2C176.6,119.2,172.9,130.1,172.9,130.1z"
   id="path6023" />
			<path
   class="st10"
   d="M172.9,70.2l-21,8.4l26.3,21.4c0,0-0.2-11.4-0.9-15.2C176.6,81.1,172.9,70.2,172.9,70.2z"
   id="path6025" />
		</g>
		<g
   id="g6045">
			<path
   class="st6"
   d="M78,51.2l-9.9-24.8l1.5-0.5c0.5-0.2,11.1-3.8,14.9-4.5c3.8-0.7,14.9-0.9,15.4-0.9l3.2-0.1L78,51.2z M72,28.2     l6.9,17.1l17.8-21.8c-3.6,0.1-9.3,0.4-11.7,0.8C82.2,24.9,75.1,27.2,72,28.2z"
   id="path6029" />
			<path
   class="st6"
   d="M122,51.2L96.9,20.4l3.2,0.1c0.5,0,11.6,0.2,15.4,0.9c3.8,0.7,14.5,4.3,14.9,4.5l1.5,0.5L122,51.2z      M103.4,23.6l17.8,21.8l6.9-17.1c-3.1-1-10.2-3.3-13-3.8C112.7,23.9,107,23.7,103.4,23.6z"
   id="path6031" />
			<path
   class="st6"
   d="M103.1,179.9l-3.2-0.1c-0.5,0-11.6-0.2-15.4-0.9c-3.8-0.7-14.5-4.3-14.9-4.5l-1.5-0.5l9.9-24.8L103.1,179.9z      M72,172.1c3.1,1,10.2,3.3,13,3.8c2.4,0.4,8,0.7,11.7,0.8l-17.8-21.8L72,172.1z"
   id="path6033" />
			<path
   class="st6"
   d="M96.9,179.9l25.1-30.7l9.9,24.8l-1.5,0.5c-0.5,0.2-11.1,3.8-14.9,4.5c-3.8,0.7-14.9,0.9-15.4,0.9L96.9,179.9     z M121.1,154.9l-17.8,21.8c3.6-0.1,9.3-0.4,11.7-0.8c2.8-0.5,9.9-2.8,13-3.8L121.1,154.9z"
   id="path6035" />
			<path
   class="st6"
   d="M26.2,132.1l-0.5-1.5c-0.2-0.5-3.8-11.1-4.5-14.9c-0.7-3.8-0.9-14.9-0.9-15.4L20.3,97L51,122.1L26.2,132.1z      M23.4,103.5c0.1,3.6,0.4,9.3,0.8,11.7c0.5,2.8,2.8,9.9,3.8,13l17.1-6.9L23.4,103.5z"
   id="path6037" />
			<path
   class="st6"
   d="M20.3,103.2l0.1-3.2c0-0.5,0.2-11.6,0.9-15.4c0.7-3.8,4.3-14.5,4.5-14.9l0.5-1.5L51,78.1L20.3,103.2z      M28.1,72.2c-1,3.1-3.3,10.2-3.8,13c-0.4,2.4-0.7,8-0.8,11.7L45.2,79L28.1,72.2z"
   id="path6039" />
			<path
   class="st6"
   d="M173.8,132.1l-24.8-9.9L179.7,97l-0.1,3.2c0,0.5-0.2,11.6-0.9,15.4c-0.7,3.8-4.3,14.5-4.5,14.9L173.8,132.1z      M154.8,121.2l17.1,6.9c1-3.1,3.3-10.2,3.8-13c0.4-2.4,0.7-8,0.8-11.7L154.8,121.2z"
   id="path6041" />
			<path
   class="st6"
   d="M179.7,103.2L149,78.1l24.8-9.9l0.5,1.5c0.2,0.5,3.8,11.1,4.5,14.9c0.7,3.8,0.9,14.9,0.9,15.4L179.7,103.2z      M154.8,79l21.8,17.8c-0.1-3.6-0.4-9.3-0.8-11.7c-0.5-2.8-2.8-9.9-3.8-13L154.8,79z"
   id="path6043" />
		</g>
	</g>
	<g
   class="st2"
   id="g6051">
		<path
   class="st6"
   d="M99.9,180.6c-44.4,0-80.6-36.1-80.6-80.6s36.1-80.6,80.6-80.6c44.4,0,80.6,36.1,80.6,80.6    S144.3,180.6,99.9,180.6z M99.9,23.4c-42.2,0-76.6,34.4-76.6,76.6s34.4,76.6,76.6,76.6s76.6-34.4,76.6-76.6S142.1,23.4,99.9,23.4z    "
   id="path6049" />
	</g>
</g>
<g
   id="Princess"
   transform="matrix(0.61385746,0.61385746,-0.61385746,0.61385746,99.961386,-22.710104)">
	<g
   id="g6144">
		<linearGradient
   id="SVGID_2_"
   gradientUnits="userSpaceOnUse"
   x1="147.2438"
   y1="130.6526"
   x2="68.807701"
   y2="209.08859">
			<stop
   offset="0"
   style="stop-color:#FFFFFF"
   id="stop6054" />
			<stop
   offset="0.1111"
   style="stop-color:#FAFAFA"
   id="stop6056" />
			<stop
   offset="0.2386"
   style="stop-color:#ECECEC"
   id="stop6058" />
			<stop
   offset="0.3744"
   style="stop-color:#D5D5D5"
   id="stop6060" />
			<stop
   offset="0.5158"
   style="stop-color:#B5B5B5"
   id="stop6062" />
			<stop
   offset="0.6603"
   style="stop-color:#8C8C8C"
   id="stop6064" />
			<stop
   offset="0.7001"
   style="stop-color:#808080"
   id="stop6066" />
			<stop
   offset="0.7425"
   style="stop-color:#9C9C9C"
   id="stop6068" />
			<stop
   offset="0.824"
   style="stop-color:#CDCDCD"
   id="stop6070" />
			<stop
   offset="0.8861"
   style="stop-color:#ECECEC"
   id="stop6072" />
			<stop
   offset="0.9209"
   style="stop-color:#F7F7F7"
   id="stop6074" />
		</linearGradient>
		<polygon
   class="st11"
   points="177.9,178 99.9,100 21.9,178 "
   id="polygon6077"
   style="fill:url(#SVGID_2_)" />
		<linearGradient
   id="SVGID_3_"
   gradientUnits="userSpaceOnUse"
   x1="149.15109"
   y1="-27.274599"
   x2="54.7523"
   y2="67.1241">
			<stop
   offset="0"
   style="stop-color:#FFFFFF"
   id="stop6079" />
			<stop
   offset="0.1111"
   style="stop-color:#FAFAFA"
   id="stop6081" />
			<stop
   offset="0.2386"
   style="stop-color:#ECECEC"
   id="stop6083" />
			<stop
   offset="0.3744"
   style="stop-color:#D5D5D5"
   id="stop6085" />
			<stop
   offset="0.5158"
   style="stop-color:#B5B5B5"
   id="stop6087" />
			<stop
   offset="0.6603"
   style="stop-color:#8C8C8C"
   id="stop6089" />
			<stop
   offset="0.7001"
   style="stop-color:#808080"
   id="stop6091" />
			<stop
   offset="0.7425"
   style="stop-color:#9C9C9C"
   id="stop6093" />
			<stop
   offset="0.824"
   style="stop-color:#CDCDCD"
   id="stop6095" />
			<stop
   offset="0.8861"
   style="stop-color:#ECECEC"
   id="stop6097" />
			<stop
   offset="0.9209"
   style="stop-color:#F7F7F7"
   id="stop6099" />
		</linearGradient>
		<polygon
   class="st12"
   points="177.9,22 99.9,100 21.9,22 "
   id="polygon6102"
   style="fill:url(#SVGID_3_)" />
		<linearGradient
   id="SVGID_4_"
   gradientUnits="userSpaceOnUse"
   x1="138.89149"
   y1="172.4557"
   x2="138.89149"
   y2="30.0051">
			<stop
   offset="0"
   style="stop-color:#FFFFFF"
   id="stop6104" />
			<stop
   offset="8.898241e-02"
   style="stop-color:#F1F1F1"
   id="stop6106" />
			<stop
   offset="0.2557"
   style="stop-color:#CECECE"
   id="stop6108" />
			<stop
   offset="0.4806"
   style="stop-color:#949494"
   id="stop6110" />
			<stop
   offset="0.556"
   style="stop-color:#808080"
   id="stop6112" />
			<stop
   offset="0.6446"
   style="stop-color:#9F9F9F"
   id="stop6114" />
			<stop
   offset="0.8339"
   style="stop-color:#DFDFDF"
   id="stop6116" />
			<stop
   offset="0.9235"
   style="stop-color:#F7F7F7"
   id="stop6118" />
		</linearGradient>
		<polygon
   class="st13"
   points="177.9,178 99.9,100 177.9,22 "
   id="polygon6121"
   style="fill:url(#SVGID_4_)" />
		
			<linearGradient
   id="SVGID_5_"
   gradientUnits="userSpaceOnUse"
   x1="215.4016"
   y1="28.550699"
   x2="215.4016"
   y2="171.0013"
   gradientTransform="rotate(180,138.89155,100.0001)">
			<stop
   offset="0"
   style="stop-color:#FFFFFF"
   id="stop6123" />
			<stop
   offset="8.898241e-02"
   style="stop-color:#F1F1F1"
   id="stop6125" />
			<stop
   offset="0.2557"
   style="stop-color:#CECECE"
   id="stop6127" />
			<stop
   offset="0.4806"
   style="stop-color:#949494"
   id="stop6129" />
			<stop
   offset="0.556"
   style="stop-color:#808080"
   id="stop6131" />
			<stop
   offset="0.6446"
   style="stop-color:#9F9F9F"
   id="stop6133" />
			<stop
   offset="0.8339"
   style="stop-color:#DFDFDF"
   id="stop6135" />
			<stop
   offset="0.9235"
   style="stop-color:#F7F7F7"
   id="stop6137" />
		</linearGradient>
		<polygon
   class="st14"
   points="23.4,23.5 101.4,101.5 23.4,179.5 "
   id="polygon6140"
   style="fill:url(#SVGID_5_)" />
		<path
   class="st6"
   d="m 179.4,179.5 h -159 v -159 h 159 z m -156,-3 h 153 v -153 h -153 z"
   id="path6142"
   inkscape:connector-curvature="0"
   style="fill:#3e3e3e" />
	</g>
	
		<rect
   x="98.900002"
   y="-8.1999998"
   transform="matrix(0.7071,-0.7071,0.7071,0.7071,-41.4545,99.9199)"
   class="st6"
   width="2"
   height="216.39999"
   id="rect6146"
   style="fill:#3e3e3e" />
	<rect
   x="-8.3000002"
   y="99"
   transform="matrix(0.7071,-0.7071,0.7071,0.7071,-41.4545,99.9197)"
   class="st6"
   width="216.39999"
   height="2"
   id="rect6148"
   style="fill:#3e3e3e" />
	<g
   id="g6182">
		<linearGradient
   id="SVGID_6_"
   gradientUnits="userSpaceOnUse"
   x1="62.843498"
   y1="75.68"
   x2="151.4695"
   y2="133.8658">
			<stop
   offset="0"
   style="stop-color:#FFFFFF"
   id="stop6150" />
			<stop
   offset="9.934354e-02"
   style="stop-color:#F8F8F8"
   id="stop6152" />
			<stop
   offset="0.2389"
   style="stop-color:#E6E6E6"
   id="stop6154" />
			<stop
   offset="0.4021"
   style="stop-color:#C8C8C8"
   id="stop6156" />
			<stop
   offset="0.582"
   style="stop-color:#9F9F9F"
   id="stop6158" />
			<stop
   offset="0.7"
   style="stop-color:#808080"
   id="stop6160" />
			<stop
   offset="0.7466"
   style="stop-color:#9C9C9C"
   id="stop6162" />
			<stop
   offset="0.8362"
   style="stop-color:#CDCDCD"
   id="stop6164" />
			<stop
   offset="0.9044"
   style="stop-color:#ECECEC"
   id="stop6166" />
			<stop
   offset="0.9426"
   style="stop-color:#F7F7F7"
   id="stop6168" />
		</linearGradient>
		<rect
   x="46.900002"
   y="47"
   class="st15"
   width="106"
   height="106"
   id="rect6171"
   style="fill:url(#SVGID_6_)" />
		<linearGradient
   id="SVGID_7_"
   gradientUnits="userSpaceOnUse"
   x1="143.461"
   y1="40.495098"
   x2="69.339104"
   y2="141.715">
			<stop
   offset="0"
   style="stop-color:#FFFFFF"
   id="stop6173" />
			<stop
   offset="0.7478"
   style="stop-color:#FFFFFF;stop-opacity:0"
   id="stop6175" />
		</linearGradient>
		<rect
   x="46.900002"
   y="47"
   class="st16"
   width="106"
   height="106"
   id="rect6178"
   style="fill:url(#SVGID_7_)" />
		<path
   class="st6"
   d="m 154.4,154.5 h -109 v -109 h 109 z m -106,-3 h 103 v -103 h -103 z"
   id="path6180"
   inkscape:connector-curvature="0"
   style="fill:#3e3e3e" />
	</g>
</g>
<g
   id="Baguette"
   class="st1">
	<g
   class="st2"
   id="g6275">
		<linearGradient
   id="SVGID_8_"
   gradientUnits="userSpaceOnUse"
   x1="123.5697"
   y1="196.2344"
   x2="79.6867"
   y2="160.0224">
			<stop
   offset="0"
   style="stop-color:#FFFFFF"
   id="stop6185" />
			<stop
   offset="0.1111"
   style="stop-color:#FAFAFA"
   id="stop6187" />
			<stop
   offset="0.2386"
   style="stop-color:#ECECEC"
   id="stop6189" />
			<stop
   offset="0.3744"
   style="stop-color:#D5D5D5"
   id="stop6191" />
			<stop
   offset="0.5158"
   style="stop-color:#B5B5B5"
   id="stop6193" />
			<stop
   offset="0.6603"
   style="stop-color:#8C8C8C"
   id="stop6195" />
			<stop
   offset="0.7001"
   style="stop-color:#808080"
   id="stop6197" />
			<stop
   offset="0.7425"
   style="stop-color:#9C9C9C"
   id="stop6199" />
			<stop
   offset="0.824"
   style="stop-color:#CDCDCD"
   id="stop6201" />
			<stop
   offset="0.8861"
   style="stop-color:#ECECEC"
   id="stop6203" />
			<stop
   offset="0.9209"
   style="stop-color:#F7F7F7"
   id="stop6205" />
		</linearGradient>
		<polygon
   class="st17"
   points="78,160.4 59.9,178 139.9,178 121.8,160.4   "
   id="polygon6208" />
		
			<linearGradient
   id="SVGID_9_"
   gradientUnits="userSpaceOnUse"
   x1="72.0249"
   y1="344.174"
   x2="112.2556"
   y2="303.9432"
   gradientTransform="matrix(1 0 0 -1 0 338.4348)">
			<stop
   offset="0"
   style="stop-color:#FFFFFF"
   id="stop6210" />
			<stop
   offset="0.1111"
   style="stop-color:#FAFAFA"
   id="stop6212" />
			<stop
   offset="0.2386"
   style="stop-color:#ECECEC"
   id="stop6214" />
			<stop
   offset="0.3744"
   style="stop-color:#D5D5D5"
   id="stop6216" />
			<stop
   offset="0.5158"
   style="stop-color:#B5B5B5"
   id="stop6218" />
			<stop
   offset="0.6603"
   style="stop-color:#8C8C8C"
   id="stop6220" />
			<stop
   offset="0.7001"
   style="stop-color:#808080"
   id="stop6222" />
			<stop
   offset="0.7425"
   style="stop-color:#9C9C9C"
   id="stop6224" />
			<stop
   offset="0.824"
   style="stop-color:#CDCDCD"
   id="stop6226" />
			<stop
   offset="0.8861"
   style="stop-color:#ECECEC"
   id="stop6228" />
			<stop
   offset="0.9209"
   style="stop-color:#F7F7F7"
   id="stop6230" />
		</linearGradient>
		<polygon
   class="st18"
   points="78,39.7 59.9,22.1 139.9,22.1 121.8,39.7   "
   id="polygon6233" />
		<linearGradient
   id="SVGID_10_"
   gradientUnits="userSpaceOnUse"
   x1="179.8735"
   y1="140.034"
   x2="131.72"
   y2="91.8806">
			<stop
   offset="0.1889"
   style="stop-color:#FFFFFF"
   id="stop6235" />
			<stop
   offset="0.2477"
   style="stop-color:#F1F1F1"
   id="stop6237" />
			<stop
   offset="0.3577"
   style="stop-color:#CECECE"
   id="stop6239" />
			<stop
   offset="0.5062"
   style="stop-color:#949494"
   id="stop6241" />
			<stop
   offset="0.556"
   style="stop-color:#808080"
   id="stop6243" />
			<stop
   offset="0.6446"
   style="stop-color:#9F9F9F"
   id="stop6245" />
			<stop
   offset="0.8339"
   style="stop-color:#DFDFDF"
   id="stop6247" />
			<stop
   offset="0.9235"
   style="stop-color:#F7F7F7"
   id="stop6249" />
		</linearGradient>
		<polygon
   class="st19"
   points="121.8,160.4 121.8,39.7 140.3,22 140.3,178   "
   id="polygon6252" />
		
			<linearGradient
   id="SVGID_11_"
   gradientUnits="userSpaceOnUse"
   x1="148.1364"
   y1="153.8811"
   x2="196.2899"
   y2="105.7277"
   gradientTransform="matrix(-1 0 0 1 262.0937 0)">
			<stop
   offset="0.4558"
   style="stop-color:#FFFFFF"
   id="stop6254" />
			<stop
   offset="0.4755"
   style="stop-color:#F1F1F1"
   id="stop6256" />
			<stop
   offset="0.5124"
   style="stop-color:#CECECE"
   id="stop6258" />
			<stop
   offset="0.5621"
   style="stop-color:#949494"
   id="stop6260" />
			<stop
   offset="0.5788"
   style="stop-color:#808080"
   id="stop6262" />
			<stop
   offset="0.6804"
   style="stop-color:#9F9F9F"
   id="stop6264" />
			<stop
   offset="0.8973"
   style="stop-color:#DFDFDF"
   id="stop6266" />
			<stop
   offset="1"
   style="stop-color:#F7F7F7"
   id="stop6268" />
		</linearGradient>
		<polygon
   class="st20"
   points="78.2,160.4 78.2,39.7 59.7,22 59.7,178   "
   id="polygon6271" />
		<path
   class="st6"
   d="M141.4,179.5H58.5v-159h82.9V179.5z M61.5,176.5h76.9v-153H61.5V176.5z"
   id="path6273" />
	</g>
	<rect
   x="67.9"
   y="18.3"
   transform="matrix(0.7071 -0.7071 0.7071 0.7071 -1.67 57.7981)"
   class="st21"
   width="2"
   height="25.2"
   id="rect6277" />
	
		<rect
   x="118.4"
   y="29.9"
   transform="matrix(0.7071 -0.7071 0.7071 0.7071 16.5013 101.6675)"
   class="st21"
   width="25.2"
   height="2"
   id="rect6279" />
	<rect
   x="130"
   y="156.5"
   transform="matrix(0.7071 -0.7071 0.7071 0.7071 -81.2 142.1366)"
   class="st21"
   width="2"
   height="25.2"
   id="rect6281" />
	
		<rect
   x="56.3"
   y="168.1"
   transform="matrix(0.7071 -0.7071 0.7071 0.7071 -99.3708 98.2682)"
   class="st21"
   width="25.2"
   height="2"
   id="rect6283" />
	<g
   class="st2"
   id="g6317">
		<linearGradient
   id="SVGID_12_"
   gradientUnits="userSpaceOnUse"
   x1="79.8029"
   y1="122.234"
   x2="129.6304"
   y2="67.0711">
			<stop
   offset="0"
   style="stop-color:#FFFFFF"
   id="stop6285" />
			<stop
   offset="9.934354e-02"
   style="stop-color:#F8F8F8"
   id="stop6287" />
			<stop
   offset="0.2389"
   style="stop-color:#E6E6E6"
   id="stop6289" />
			<stop
   offset="0.4021"
   style="stop-color:#C8C8C8"
   id="stop6291" />
			<stop
   offset="0.582"
   style="stop-color:#9F9F9F"
   id="stop6293" />
			<stop
   offset="0.7"
   style="stop-color:#808080"
   id="stop6295" />
			<stop
   offset="0.7466"
   style="stop-color:#9C9C9C"
   id="stop6297" />
			<stop
   offset="0.8362"
   style="stop-color:#CDCDCD"
   id="stop6299" />
			<stop
   offset="0.9044"
   style="stop-color:#ECECEC"
   id="stop6301" />
			<stop
   offset="0.9426"
   style="stop-color:#F7F7F7"
   id="stop6303" />
		</linearGradient>
		<rect
   x="78"
   y="39.6"
   class="st22"
   width="43.8"
   height="120.9"
   id="rect6306" />
		<linearGradient
   id="SVGID_13_"
   gradientUnits="userSpaceOnUse"
   x1="42.1933"
   y1="46.033"
   x2="118.4819"
   y2="117.3943">
			<stop
   offset="0"
   style="stop-color:#FFFFFF"
   id="stop6308" />
			<stop
   offset="0.7478"
   style="stop-color:#FFFFFF;stop-opacity:0"
   id="stop6310" />
		</linearGradient>
		<rect
   x="78"
   y="39.6"
   class="st23"
   width="43.8"
   height="120.9"
   id="rect6313" />
		<path
   class="st6"
   d="M123.3,161.9H76.6V38.1h46.7V161.9z M79.6,158.9h40.7V41.1H79.6V158.9z"
   id="path6315" />
	</g>
</g>
<g
   id="HL"
   transform="matrix(0.61385746,0.61385746,-0.61385746,0.61385746,99.961386,-22.710104)">
</g>
</svg>