<svg xmlns="http://www.w3.org/2000/svg" xmlns:xlink="http://www.w3.org/1999/xlink" viewBox="0 0 200 200"><defs><style>.cls-1,.cls-4,.cls-7,.cls-8{fill:#fff;}.cls-1{opacity:0;}.cls-2{fill:url(#Neues_Verlaufsfeld_2);}.cls-3,.cls-7{opacity:0.7;}.cls-3{fill:url(#Unbenannter_Verlauf_154);}.cls-4{opacity:0.1;}.cls-5{fill:url(#Unbenannter_Verlauf_79);}.cls-6{fill:url(#Unbenannter_Verlauf_33);}</style><linearGradient id="Neues_Verlaufsfeld_2" x1="5.9" y1="124.84" x2="194.28" y2="124.84" gradientUnits="userSpaceOnUse"><stop offset="0" stop-color="#8a8a8a"/><stop offset="0.04" stop-color="#9e9e9e"/><stop offset="0.15" stop-color="#bebebe"/><stop offset="0.32" stop-color="#ededed"/><stop offset="0.4" stop-color="#fff"/><stop offset="0.45" stop-color="#f6f6f6"/><stop offset="0.6" stop-color="#e0e0e0"/><stop offset="0.63" stop-color="#cacaca"/><stop offset="0.69" stop-color="#999"/><stop offset="0.75" stop-color="#7b7b7b"/><stop offset="0.78" stop-color="#707070"/><stop offset="0.82" stop-color="#737373"/><stop offset="0.85" stop-color="#7e7e7e"/><stop offset="0.88" stop-color="#909090"/><stop offset="0.91" stop-color="#a9a9a9"/><stop offset="0.94" stop-color="#c9c9c9"/><stop offset="0.96" stop-color="#efefef"/><stop offset="0.96" stop-color="#f0f0f0"/><stop offset="1" stop-color="#d9d9d9"/></linearGradient><linearGradient id="Unbenannter_Verlauf_154" x1="102" y1="26.22" x2="100.64" y2="121.32" gradientUnits="userSpaceOnUse"><stop offset="0" stop-color="#666"/><stop offset="0.7" stop-color="#9e9e9e" stop-opacity="0"/></linearGradient><linearGradient id="Unbenannter_Verlauf_79" x1="51.19" y1="73.28" x2="133.84" y2="209.7" gradientUnits="userSpaceOnUse"><stop offset="0" stop-color="#fff"/><stop offset="0.02" stop-color="#fff" stop-opacity="0.86"/><stop offset="0.06" stop-color="#fff" stop-opacity="0.68"/><stop offset="0.1" stop-color="#fff" stop-opacity="0.52"/><stop offset="0.14" stop-color="#fff" stop-opacity="0.38"/><stop offset="0.18" stop-color="#fff" stop-opacity="0.26"/><stop offset="0.23" stop-color="#fff" stop-opacity="0.16"/><stop offset="0.29" stop-color="#fff" stop-opacity="0.09"/><stop offset="0.35" stop-color="#fff" stop-opacity="0.04"/><stop offset="0.43" stop-color="#fff" stop-opacity="0.01"/><stop offset="0.59" stop-color="#fff" stop-opacity="0"/></linearGradient><linearGradient id="Unbenannter_Verlauf_33" x1="74.02" y1="144.24" x2="125.15" y2="144.24" gradientUnits="userSpaceOnUse"><stop offset="0"/><stop offset="0.1" stop-color="#1d1d1b" stop-opacity="0.7"/><stop offset="0.5" stop-opacity="0.7"/><stop offset="0.9" stop-color="#1d1d1b" stop-opacity="0.7"/><stop offset="1"/></linearGradient></defs><g id="BG"><rect class="cls-1" width="200" height="200"/></g><g id="Diamanten"><g id="Verschnitten"><path id="Einfarbig" class="cls-2" d="M194.28,120a68.64,68.64,0,0,0-60.14-68.26,287.58,287.58,0,0,0-34.76-1.89,284.31,284.31,0,0,0-32.73,1.75A68.77,68.77,0,0,0,5.9,119.92v79.92H194.28Z" transform="translate(-0.3 -0.19)"/><path id="Top-Schatten" class="cls-3" d="M194.28,120a68.64,68.64,0,0,0-60.14-68.26,287.58,287.58,0,0,0-34.76-1.89,284.31,284.31,0,0,0-32.73,1.75A68.77,68.77,0,0,0,5.9,119.92v79.92H194.28Z" transform="translate(-0.3 -0.19)"/><path id="Seite-Licht" class="cls-4" d="M194.28,120c0-41.08-32.3-61.31-44.07-64.12,0,0,30.79,15.79,31,49.63.14,22.49.38,94.34.38,94.34h12.7Z" transform="translate(-0.3 -0.19)"/><path id="Glanzlicht" class="cls-5" d="M172.24,200.09v-87.6c0-33.39-27.32-62.61-60.71-62.61H80.9c-33.39,0-60.72,29.22-60.72,62.61v87.6Z" transform="translate(-0.3 -0.19)"/><path class="cls-6" d="M80,88.63h39.13a6,6,0,0,1,6,6V199.85a0,0,0,0,1,0,0H74a0,0,0,0,1,0,0V94.63A6,6,0,0,1,80,88.63Z"/><path class="cls-7" d="M74.32,200V94.82a6,6,0,0,1,6-6h39.13a6,6,0,0,1,6,6V200h1V94.82a7,7,0,0,0-7-7H80.32a7,7,0,0,0-7,7V200Z" transform="translate(-0.3 -0.19)"/><circle class="cls-8" cx="99.49" cy="114.73" r="16"/><circle class="cls-8" cx="83.54" cy="98.69" r="3.5"/><circle class="cls-8" cx="115.49" cy="98.69" r="3.5"/><circle class="cls-8" cx="83.54" cy="130.69" r="3.5"/><circle class="cls-8" cx="115.49" cy="130.69" r="3.5"/><circle class="cls-8" cx="99.49" cy="157.29" r="16"/><circle class="cls-8" cx="83.54" cy="141.25" r="3.5"/><circle class="cls-8" cx="115.49" cy="141.25" r="3.5"/><circle class="cls-8" cx="83.54" cy="173.25" r="3.5"/><circle class="cls-8" cx="115.49" cy="173.25" r="3.5"/><path class="cls-8" d="M99.79,184a16,16,0,0,0-16,16h32A16,16,0,0,0,99.79,184Z" transform="translate(-0.3 -0.19)"/><circle class="cls-8" cx="83.54" cy="183.81" r="3.5"/><circle class="cls-8" cx="115.49" cy="183.81" r="3.5"/></g></g></svg>