<svg xmlns="http://www.w3.org/2000/svg" xmlns:xlink="http://www.w3.org/1999/xlink" viewBox="0 0 200 200"><defs><style>.cls-1,.cls-6{fill:#fff;}.cls-1{opacity:0;}.cls-2{fill:url(#Neues_Verlaufsfeld_2);}.cls-3{opacity:0.7;fill:url(#Unbenannter_Verlauf_154);}.cls-4{opacity:0.4;}.cls-5{opacity:0.6;fill:url(#Unbenannter_Verlauf_21);}.cls-6{opacity:0.1;}.cls-7{fill:url(#Unbenannter_Verlauf_79);}.cls-8{fill:#999;}</style><linearGradient id="Neues_Verlaufsfeld_2" x1="5.9" y1="125.6" x2="194.28" y2="125.6" gradientUnits="userSpaceOnUse"><stop offset="0" stop-color="#8a8a8a"/><stop offset="0.04" stop-color="#9e9e9e"/><stop offset="0.15" stop-color="#bebebe"/><stop offset="0.32" stop-color="#ededed"/><stop offset="0.4" stop-color="#fff"/><stop offset="0.45" stop-color="#f6f6f6"/><stop offset="0.6" stop-color="#e0e0e0"/><stop offset="0.63" stop-color="#cacaca"/><stop offset="0.69" stop-color="#999"/><stop offset="0.75" stop-color="#7b7b7b"/><stop offset="0.78" stop-color="#707070"/><stop offset="0.82" stop-color="#737373"/><stop offset="0.85" stop-color="#7e7e7e"/><stop offset="0.88" stop-color="#909090"/><stop offset="0.91" stop-color="#a9a9a9"/><stop offset="0.94" stop-color="#c9c9c9"/><stop offset="0.96" stop-color="#efefef"/><stop offset="0.96" stop-color="#f0f0f0"/><stop offset="1" stop-color="#d9d9d9"/></linearGradient><linearGradient id="Unbenannter_Verlauf_154" x1="101.98" y1="27.58" x2="100.63" y2="121.93" gradientUnits="userSpaceOnUse"><stop offset="0" stop-color="#666"/><stop offset="0.7" stop-color="#9e9e9e" stop-opacity="0"/></linearGradient><linearGradient id="Unbenannter_Verlauf_21" x1="95.79" y1="49.48" x2="95.79" y2="197.95" gradientUnits="userSpaceOnUse"><stop offset="0"/><stop offset="0.99" stop-opacity="0"/></linearGradient><linearGradient id="Unbenannter_Verlauf_79" x1="51.19" y1="73.2" x2="133.84" y2="209.62" gradientUnits="userSpaceOnUse"><stop offset="0" stop-color="#fff"/><stop offset="0.02" stop-color="#fff" stop-opacity="0.86"/><stop offset="0.06" stop-color="#fff" stop-opacity="0.68"/><stop offset="0.1" stop-color="#fff" stop-opacity="0.52"/><stop offset="0.14" stop-color="#fff" stop-opacity="0.38"/><stop offset="0.18" stop-color="#fff" stop-opacity="0.26"/><stop offset="0.23" stop-color="#fff" stop-opacity="0.16"/><stop offset="0.29" stop-color="#fff" stop-opacity="0.09"/><stop offset="0.35" stop-color="#fff" stop-opacity="0.04"/><stop offset="0.43" stop-color="#fff" stop-opacity="0.01"/><stop offset="0.59" stop-color="#fff" stop-opacity="0"/></linearGradient></defs><g id="BG"><rect class="cls-1" width="200" height="200"/></g><g id="Stufen"><g id="v-fuge"><path class="cls-2" d="M100.09,82.69,68.7,51.37l-2,.22A68.77,68.77,0,0,0,5.9,119.92v79.92H194.28V120a68.64,68.64,0,0,0-60.14-68.26c-.87-.11-1.76-.2-2.65-.3Z" transform="translate(-4.3 -1.89)"/><path class="cls-3" d="M134.14,51.73c-.87-.11-1.76-.2-2.65-.3l-31.4,31.26L68.7,51.37l-2,.22A68.77,68.77,0,0,0,5.9,119.92v79.92H194.28V120A68.64,68.64,0,0,0,134.14,51.73Z" transform="translate(-4.3 -1.89)"/><polygon class="cls-4" points="64.39 49.48 64.39 197.95 127.19 197.95 127.19 49.54 95.79 80.8 64.39 49.48"/><polygon class="cls-5" points="64.39 49.48 64.39 197.95 127.19 197.95 127.19 49.54 95.79 80.8 64.39 49.48"/><polygon class="cls-4" points="95.79 80.8 64.39 49.48 64.39 197.95 95.79 197.95 95.79 80.8 95.79 80.8"/><path id="Seite-Licht" class="cls-6" d="M194.28,120c0-41.08-32.3-61.31-44.07-64.12,0,0,30.79,15.79,31,49.63.14,22.49.38,94.34.38,94.34h12.7Z" transform="translate(-4.3 -1.89)"/><path class="cls-7" d="M131.49,53.41V199.84H68.7V51.11c-27.6,6-48.52,32.08-48.52,61.3V200H172.24V112.41C172.24,86,155.15,62.22,131.49,53.41Z" transform="translate(-4.3 -1.89)"/><rect class="cls-8" x="63.49" y="49.62" width="0.91" height="148.48"/><rect class="cls-8" x="127.19" y="49.62" width="0.91" height="148.48"/></g></g></svg>