<svg xmlns="http://www.w3.org/2000/svg" xmlns:xlink="http://www.w3.org/1999/xlink" viewBox="0 0 200 200.09"><defs><style>.cls-1,.cls-5,.cls-8{fill:#fff;}.cls-1{opacity:0;}.cls-2{fill:url(#Neues_Verlaufsfeld_2);}.cls-3{fill:#b2b2b2;}.cls-4{fill:#666;}.cls-6,.cls-7{opacity:0.7;}.cls-7{fill:url(#Unbenannter_Verlauf_154);}.cls-8{opacity:0.1;}.cls-9{fill:url(#Unbenannter_Verlauf_79);}</style><linearGradient id="Neues_Verlaufsfeld_2" x1="5.9" y1="124.84" x2="194.28" y2="124.84" gradientUnits="userSpaceOnUse"><stop offset="0" stop-color="#8a8a8a"/><stop offset="0.04" stop-color="#9e9e9e"/><stop offset="0.15" stop-color="#bebebe"/><stop offset="0.32" stop-color="#ededed"/><stop offset="0.4" stop-color="#fff"/><stop offset="0.45" stop-color="#f6f6f6"/><stop offset="0.6" stop-color="#e0e0e0"/><stop offset="0.63" stop-color="#cacaca"/><stop offset="0.69" stop-color="#999"/><stop offset="0.75" stop-color="#7b7b7b"/><stop offset="0.78" stop-color="#707070"/><stop offset="0.82" stop-color="#737373"/><stop offset="0.85" stop-color="#7e7e7e"/><stop offset="0.88" stop-color="#909090"/><stop offset="0.91" stop-color="#a9a9a9"/><stop offset="0.94" stop-color="#c9c9c9"/><stop offset="0.96" stop-color="#efefef"/><stop offset="0.96" stop-color="#f0f0f0"/><stop offset="1" stop-color="#d9d9d9"/></linearGradient><linearGradient id="Unbenannter_Verlauf_154" x1="102" y1="26.22" x2="100.64" y2="121.32" gradientUnits="userSpaceOnUse"><stop offset="0" stop-color="#666"/><stop offset="0.7" stop-color="#9e9e9e" stop-opacity="0"/></linearGradient><linearGradient id="Unbenannter_Verlauf_79" x1="51.19" y1="73.28" x2="133.84" y2="209.7" gradientUnits="userSpaceOnUse"><stop offset="0" stop-color="#fff"/><stop offset="0.02" stop-color="#fff" stop-opacity="0.86"/><stop offset="0.06" stop-color="#fff" stop-opacity="0.68"/><stop offset="0.1" stop-color="#fff" stop-opacity="0.52"/><stop offset="0.14" stop-color="#fff" stop-opacity="0.38"/><stop offset="0.18" stop-color="#fff" stop-opacity="0.26"/><stop offset="0.23" stop-color="#fff" stop-opacity="0.16"/><stop offset="0.29" stop-color="#fff" stop-opacity="0.09"/><stop offset="0.35" stop-color="#fff" stop-opacity="0.04"/><stop offset="0.43" stop-color="#fff" stop-opacity="0.01"/><stop offset="0.59" stop-color="#fff" stop-opacity="0"/></linearGradient></defs><g id="BG"><rect class="cls-1" width="200" height="200"/></g><g id="Position"><g id="Links"><path id="Einfarbig" class="cls-2" d="M194.28,120a68.64,68.64,0,0,0-60.14-68.26,287.58,287.58,0,0,0-34.76-1.89,284.31,284.31,0,0,0-32.73,1.75A68.77,68.77,0,0,0,5.9,119.92v79.92H194.28Z" transform="translate(0.11)"/><path class="cls-3" d="M74.78,50.85c-2.54.22-5.78.46-8.13.74A68.77,68.77,0,0,0,5.9,119.92v79.92H74.78Z" transform="translate(0.11)"/><path class="cls-4" d="M43.1,58.78a69.16,69.16,0,0,0-7,4.18L17.76,81.3a66.57,66.57,0,0,0-4.13,7Z" transform="translate(0.11)"/><path class="cls-4" d="M61.71,52.36c-1.22.23-2.42.5-3.62.79L7.94,103.3c-.3,1.2-.57,2.41-.8,3.64Z" transform="translate(0.11)"/><path class="cls-4" d="M5.9,120.36l69-69-.5-.5-2,.17L6,117.47c0,.82-.06,1.63-.06,2.45Z" transform="translate(0.11)"/><polygon class="cls-4" points="75.05 63.51 73.64 62.1 6.02 129.72 6.02 132.55 75.05 63.51"/><polygon class="cls-4" points="75.05 75.7 73.64 74.29 6.02 141.91 6.02 144.74 75.05 75.7"/><polygon class="cls-4" points="75.05 87.89 73.64 86.48 6.02 154.1 6.02 156.93 75.05 87.89"/><polygon class="cls-4" points="75.05 100.08 73.64 98.67 6.02 166.29 6.02 169.12 75.05 100.08"/><polygon class="cls-4" points="75.05 112.27 73.64 110.86 6.02 178.48 6.02 181.31 75.05 112.27"/><polygon class="cls-4" points="75.05 124.47 73.64 123.05 6.02 190.67 6.02 193.5 75.05 124.47"/><polygon class="cls-4" points="75.05 136.66 73.64 135.24 9.04 199.84 11.87 199.84 75.05 136.66"/><polygon class="cls-4" points="75.05 148.85 73.64 147.43 21.23 199.84 24.06 199.84 75.05 148.85"/><polygon class="cls-4" points="75.05 161.04 73.64 159.62 33.42 199.84 36.25 199.84 75.05 161.04"/><polygon class="cls-4" points="75.05 173.23 73.64 171.81 45.61 199.84 48.44 199.84 75.05 173.23"/><polygon class="cls-4" points="75.05 185.42 73.64 184 57.8 199.84 60.63 199.84 75.05 185.42"/><polygon class="cls-4" points="73.64 196.19 69.99 199.84 72.82 199.84 75.05 197.61 73.64 196.19"/><circle class="cls-5" cx="39.72" cy="131.11" r="18.98"/><path class="cls-6" d="M39.61,147.52A16.41,16.41,0,1,1,56,131.11,16.43,16.43,0,0,1,39.61,147.52Zm0-29.37a13,13,0,1,0,13,13A13,13,0,0,0,39.61,118.15Z" transform="translate(0.11)"/><path id="Top-Schatten" class="cls-7" d="M194.28,120a68.64,68.64,0,0,0-60.14-68.26,287.58,287.58,0,0,0-34.76-1.89,284.31,284.31,0,0,0-32.73,1.75A68.77,68.77,0,0,0,5.9,119.92v79.92H194.28Z" transform="translate(0.11)"/><path id="Seite-Licht" class="cls-8" d="M194.28,120c0-41.08-32.3-61.31-44.07-64.12,0,0,30.79,15.79,31,49.63.14,22.49.38,94.34.38,94.34h12.7Z" transform="translate(0.11)"/><path id="Glanzlicht" class="cls-9" d="M172.24,200.09v-87.6c0-33.39-27.32-62.61-60.71-62.61H80.9c-33.39,0-60.72,29.22-60.72,62.61v87.6Z" transform="translate(0.11)"/></g></g></svg>