<svg id="Ebene_1" data-name="Ebene 1" xmlns="http://www.w3.org/2000/svg" viewBox="0 0 729.66 384.04"><g id="double-heart"><path d="M301.17,412.12a25.3,25.3,0,0,1-16.69-6.27c-17.43-15.24-34.25-29.57-49.08-42.21l-.07-.07C191.84,326.51,154.28,294.51,128.16,263,99,227.74,85.34,194.32,85.34,157.81c0-35.46,12.17-68.19,34.25-92.14,22.34-24.23,53-37.58,86.34-37.58,24.92,0,47.74,7.88,67.82,23.41a138.6,138.6,0,0,1,27.42,28.63A138.86,138.86,0,0,1,328.59,51.5C348.68,36,371.5,28.09,396.42,28.09a116.1,116.1,0,0,1,86.34,37.58c22.08,24,34.24,56.68,34.24,92.14,0,36.51-13.6,69.93-42.81,105.17C448.06,294.51,410.51,326.51,367,363.57c-14.86,12.65-31.7,27-49.17,42.29A25.35,25.35,0,0,1,301.17,412.12ZM205.93,53.37a91.1,91.1,0,0,0-67.76,29.44c-17.76,19.27-27.54,45.9-27.54,75,0,30.71,11.41,58.17,37,89,24.73,29.84,61.51,61.18,104.1,97.48l.08.07c14.89,12.68,31.77,27.07,49.34,42.43,17.67-15.39,34.57-29.8,49.49-42.51C393.22,308,430,276.69,454.72,246.85c25.59-30.87,37-58.33,37-89,0-29.1-9.79-55.73-27.55-75a91.08,91.08,0,0,0-67.75-29.44A83.84,83.84,0,0,0,344.06,71.5c-13.86,10.72-23.52,24.28-29.18,33.76a16,16,0,0,1-27.42,0c-5.66-9.48-15.31-23-29.18-33.76A83.83,83.83,0,0,0,205.93,53.37Z" transform="translate(-85.34 -28.09)"/><path d="M599.17,412.12a25.3,25.3,0,0,1-16.69-6.27c-17.43-15.24-34.25-29.57-49.08-42.21l-.07-.07C489.84,326.51,452.28,294.51,426.16,263c-29.21-35.24-42.82-68.66-42.82-105.17,0-35.46,12.17-68.19,34.25-92.14,22.34-24.23,53-37.58,86.34-37.58,24.92,0,47.74,7.88,67.82,23.41a138.6,138.6,0,0,1,27.42,28.63A138.86,138.86,0,0,1,626.59,51.5C646.68,36,669.5,28.09,694.42,28.09a116.1,116.1,0,0,1,86.34,37.58c22.08,24,34.24,56.68,34.24,92.14,0,36.51-13.6,69.93-42.81,105.17C746.06,294.51,708.51,326.51,665,363.57c-14.86,12.65-31.7,27-49.17,42.29A25.35,25.35,0,0,1,599.17,412.12ZM503.93,53.37a91.1,91.1,0,0,0-67.76,29.44c-17.76,19.27-27.54,45.9-27.54,75,0,30.71,11.41,58.17,37,89,24.73,29.84,61.51,61.18,104.1,97.48l.08.07c14.89,12.68,31.77,27.07,49.34,42.43,17.67-15.39,34.57-29.8,49.49-42.51C691.22,308,728,276.69,752.72,246.85c25.59-30.87,37-58.33,37-89,0-29.1-9.79-55.73-27.55-75a91.08,91.08,0,0,0-67.75-29.44A83.84,83.84,0,0,0,642.06,71.5c-13.86,10.72-23.52,24.28-29.18,33.76a16,16,0,0,1-27.42,0c-5.66-9.48-15.31-23-29.18-33.76A83.83,83.83,0,0,0,503.93,53.37Z" transform="translate(-85.34 -28.09)"/></g></svg>