<?xml version="1.0" encoding="utf-8"?>
<!-- Generator: Adobe Illustrator 24.3.0, SVG Export Plug-In . SVG Version: 6.00 Build 0)  -->
<svg version="1.1" xmlns="http://www.w3.org/2000/svg" xmlns:xlink="http://www.w3.org/1999/xlink" x="0px" y="0px"
	 viewBox="0 0 200 200" style="enable-background:new 0 0 200 200;" xml:space="preserve">
<style type="text/css">
	.st0{opacity:0;fill:#FFFFFF;}
	.st1{fill:#F2F2F2;}
	.st2{fill:#E6E6E6;}
	.st3{fill:url(#SVGID_1_);}
	.st4{fill:#3E3E3E;}
	.st5{fill:#808080;}
	.st6{fill:#CCCCCC;}
	.st7{fill:#FFFFFF;}
	.st8{fill:#B3B3B3;}
	.st9{display:none;}
	.st10{display:inline;}
	.st11{fill:url(#SVGID_2_);}
	.st12{fill:url(#SVGID_3_);}
	.st13{fill:url(#SVGID_4_);}
	.st14{fill:url(#SVGID_5_);}
	.st15{display:inline;fill:#3E3E3E;}
	.st16{fill:url(#SVGID_6_);}
	.st17{fill:url(#SVGID_7_);}
	.st18{fill:url(#SVGID_8_);}
	.st19{fill:url(#SVGID_9_);}
	.st20{fill:url(#SVGID_10_);}
	.st21{fill:url(#SVGID_11_);}
	.st22{fill:url(#SVGID_12_);}
	.st23{fill:url(#SVGID_13_);}
</style>
<g id="BG">
	<rect x="-0.1" class="st0" width="200" height="200"/>
</g>
<g id="Brillant">
	<g>
		<path class="st1" d="M27.2,70.2l21,8.4l-3.5-34.4c0,0-8,9.1-10.2,12.4C32.3,59.8,27.2,70.2,27.2,70.2z"/>
		<path class="st1" d="M69.9,27.3l8.1,20.1l-34.2-1.5c0,0,9.1-9.1,12.4-11.3C59.5,32.5,69.9,27.3,69.9,27.3z"/>
		<path class="st2" d="M27.2,129.9l21-8.4l-3.5,34.4c0,0-8-9.1-10.2-12.4C32.3,140.3,27.2,129.9,27.2,129.9z"/>
		<path class="st1" d="M69.9,172.8l8.1-20.1l-34.2,1.5c0,0,9.1,9.1,12.4,11.3C59.5,167.7,69.9,172.8,69.9,172.8z"/>
		<path class="st1" d="M172.8,70.2l-21,8.4l3.5-34.4c0,0,8,9.1,10.2,12.4C167.7,59.8,172.8,70.2,172.8,70.2z"/>
		<path class="st2" d="M130,27.3l-8.1,20.1l34.2-1.5c0,0-9.1-9.1-12.4-11.3C140.4,32.5,130,27.3,130,27.3z"/>
		<path class="st1" d="M172.8,129.9l-21-8.4l3.5,34.4c0,0,8-9.1,10.2-12.4C167.7,140.3,172.8,129.9,172.8,129.9z"/>
		<path class="st2" d="M130,172.8l-8.1-20.1l34.2,1.5c0,0-9.1,9.1-12.4,11.3C140.4,167.7,130,172.8,130,172.8z"/>
	</g>
	<g>
		<linearGradient id="SVGID_1_" gradientUnits="userSpaceOnUse" x1="99.8868" y1="138.5823" x2="99.8868" y2="62.7394">
			<stop  offset="0" style="stop-color:#C9C9C9"/>
			<stop  offset="0.3411" style="stop-color:#BABABA"/>
			<stop  offset="1" style="stop-color:#F7F7F7"/>
		</linearGradient>
		<polygon class="st3" points="69.6,69.7 57,100 69.6,130.3 99.9,142.9 130.2,130.3 142.8,100 130.2,69.7 99.9,57.1 		"/>
		<path class="st4" d="M99.9,144.5l-31.5-13l-13-31.5l13-31.5l31.5-13l31.5,13l13,31.5l-13,31.5L99.9,144.5z M70.7,129.2l29.2,12.1
			l29.2-12.1l12.1-29.2l-12.1-29.2L99.9,58.8L70.7,70.8L58.6,100L70.7,129.2z"/>
	</g>
	<g>
		<g>
			<polygon class="st2" points="48.1,121.4 69.6,130.3 57,100 			"/>
			<polygon class="st1" points="121.3,151.7 130.2,130.3 99.9,142.9 			"/>
			<polygon class="st2" points="78.5,48.3 69.6,69.7 99.9,57.1 			"/>
			<polygon class="st5" points="151.6,78.6 130.2,69.7 142.8,100 			"/>
			<polygon class="st6" points="142.8,100 130.2,130.3 151.6,121.4 			"/>
			<polygon class="st1" points="78.5,151.7 99.9,142.9 69.6,130.3 			"/>
			<polygon class="st1" points="48.1,78.6 57,100 69.6,69.7 			"/>
			<polygon class="st1" points="121.3,48.3 99.9,57.1 130.2,69.7 			"/>
		</g>
		<g>
			<path class="st4" d="M72.3,133.1l-26.2-10.8L57,96.1L72.3,133.1z M50.1,120.6l16.7,6.9L57,103.9L50.1,120.6z"/>
			<path class="st4" d="M122.1,153.7L96,142.9l37-15.3L122.1,153.7z M103.8,142.9l16.7,6.9l6.9-16.7L103.8,142.9z"/>
			<path class="st4" d="M66.8,72.5l10.8-26.2l26.2,10.8L66.8,72.5z M79.3,50.2l-6.9,16.7L96,57.1L79.3,50.2z"/>
			<path class="st4" d="M142.8,103.9l-15.3-37l26.2,10.8L142.8,103.9z M133,72.5l9.8,23.6l6.9-16.7L133,72.5z"/>
			<path class="st4" d="M127.4,133.1l15.3-37l10.8,26.2L127.4,133.1z M142.8,103.9l-9.8,23.6l16.7-6.9L142.8,103.9z"/>
			<path class="st4" d="M77.6,153.7l-10.8-26.2l37,15.3L77.6,153.7z M72.3,133.1l6.9,16.7l16.7-6.9L72.3,133.1z"/>
			<path class="st4" d="M57,103.9L46.2,77.8l26.2-10.8L57,103.9z M50.1,79.4L57,96.1l9.8-23.6L50.1,79.4z"/>
			<path class="st4" d="M133,72.5L96,57.1l26.2-10.8L133,72.5z M103.8,57.1l23.6,9.8l-6.9-16.7L103.8,57.1z"/>
		</g>
	</g>
	<g>
		<g>
			<polygon class="st7" points="142.8,100 151.6,78.6 177.9,100 151.6,121.4 			"/>
			<polygon class="st8" points="57,100 48.1,121.4 21.9,100 48.1,78.6 			"/>
			<polygon class="st2" points="99.9,57.1 78.5,48.3 99.9,22 121.3,48.3 			"/>
			<polygon class="st1" points="100,142.9 121.4,151.7 100,178 78.6,151.7 			"/>
		</g>
		<g>
			<path class="st4" d="M151,123.9l-9.9-23.9l9.9-23.9l29.3,23.9L151,123.9z M144.4,100l7.9,19l23.3-19l-23.3-19L144.4,100z"/>
			<path class="st4" d="M48.8,123.9L19.5,100l29.3-23.9l9.9,23.9L48.8,123.9z M24.2,100l23.3,19l7.9-19l-7.9-19L24.2,100z"/>
			<path class="st4" d="M99.9,58.8L76,48.9l23.9-29.3l23.9,29.3L99.9,58.8z M80.9,47.6l19,7.9l19-7.9l-19-23.3L80.9,47.6z"/>
			<path class="st4" d="M100,180.4l-23.9-29.3l23.9-9.9l23.9,9.9L100,180.4z M81,152.4l19,23.3l19-23.3l-19-7.9L81,152.4z"/>
		</g>
	</g>
	<g>
		<g>
			<polygon class="st2" points="78.5,47.4 44.6,45.9 48.1,78.6 69.6,69.7 			"/>
			<polygon class="st2" points="121.4,47.4 155.3,45.9 151.7,78.6 130.3,69.7 			"/>
			<polygon class="st7" points="78.5,152.7 44.6,154.2 48.1,121.5 69.6,130.4 			"/>
			<polygon class="st6" points="121.4,152.7 155.3,154.2 151.7,121.5 130.3,130.4 			"/>
		</g>
		<g>
			<path class="st4" d="M46.9,80.7l-3.9-36.4L80.6,46l-9.9,24.8L46.9,80.7z M46.3,47.4l3.1,29l19-7.9l7.9-19.7L46.3,47.4z"/>
			<path class="st4" d="M153,80.7l-23.9-9.9L119.3,46l37.7-1.7L153,80.7z M131.5,68.5l19,7.9l3.1-29l-30,1.4L131.5,68.5z"/>
			<path class="st4" d="M42.9,155.8l3.9-36.4l23.9,9.9l9.9,24.8L42.9,155.8z M49.4,123.7l-3.1,29l30-1.4l-7.9-19.7L49.4,123.7z"/>
			<path class="st4" d="M157,155.8l-37.7-1.7l9.9-24.8l23.9-9.9L157,155.8z M123.6,151.3l30,1.4l-3.1-29l-19,7.9L123.6,151.3z"/>
		</g>
	</g>
	<g>
		<g>
			<path class="st8" d="M70,27.3l8.4,21L99.9,22c0,0-11.4,0.2-15.2,0.9C81,23.6,70,27.3,70,27.3z"/>
			<path class="st6" d="M130,27.3l-8.4,21L100.1,22c0,0,11.4,0.2,15.2,0.9C119.1,23.6,130,27.3,130,27.3z"/>
			<path class="st2" d="M70,173l8.4-21l21.4,26.3c0,0-11.4-0.2-15.2-0.9C81,176.7,70,173,70,173z"/>
			<path class="st1" d="M130,173l-8.4-21l-21.4,26.3c0,0,11.4-0.2,15.2-0.9C119.1,176.7,130,173,130,173z"/>
			<path class="st1" d="M27.2,130.1l21-8.4l-26.3-21.4c0,0,0.2,11.4,0.9,15.2C23.4,119.2,27.2,130.1,27.2,130.1z"/>
			<path class="st1" d="M27.2,70.2l21,8.4L21.9,100c0,0,0.2-11.4,0.9-15.2C23.4,81.1,27.2,70.2,27.2,70.2z"/>
			<path class="st6" d="M172.9,130.1l-21-8.4l26.3-21.4c0,0-0.2,11.4-0.9,15.2C176.6,119.2,172.9,130.1,172.9,130.1z"/>
			<path class="st8" d="M172.9,70.2l-21,8.4l26.3,21.4c0,0-0.2-11.4-0.9-15.2C176.6,81.1,172.9,70.2,172.9,70.2z"/>
		</g>
		<g>
			<path class="st4" d="M78,51.2l-9.9-24.8l1.5-0.5c0.5-0.2,11.1-3.8,14.9-4.5c3.8-0.7,14.9-0.9,15.4-0.9l3.2-0.1L78,51.2z M72,28.2
				l6.9,17.1l17.8-21.8c-3.6,0.1-9.3,0.4-11.7,0.8C82.2,24.9,75.1,27.2,72,28.2z"/>
			<path class="st4" d="M122,51.2L96.9,20.4l3.2,0.1c0.5,0,11.6,0.2,15.4,0.9c3.8,0.7,14.5,4.3,14.9,4.5l1.5,0.5L122,51.2z
				 M103.4,23.6l17.8,21.8l6.9-17.1c-3.1-1-10.2-3.3-13-3.8C112.7,23.9,107,23.7,103.4,23.6z"/>
			<path class="st4" d="M103.1,179.9l-3.2-0.1c-0.5,0-11.6-0.2-15.4-0.9c-3.8-0.7-14.5-4.3-14.9-4.5l-1.5-0.5l9.9-24.8L103.1,179.9z
				 M72,172.1c3.1,1,10.2,3.3,13,3.8c2.4,0.4,8,0.7,11.7,0.8l-17.8-21.8L72,172.1z"/>
			<path class="st4" d="M96.9,179.9l25.1-30.7l9.9,24.8l-1.5,0.5c-0.5,0.2-11.1,3.8-14.9,4.5c-3.8,0.7-14.9,0.9-15.4,0.9L96.9,179.9
				z M121.1,154.9l-17.8,21.8c3.6-0.1,9.3-0.4,11.7-0.8c2.8-0.5,9.9-2.8,13-3.8L121.1,154.9z"/>
			<path class="st4" d="M26.2,132.1l-0.5-1.5c-0.2-0.5-3.8-11.1-4.5-14.9c-0.7-3.8-0.9-14.9-0.9-15.4L20.3,97L51,122.1L26.2,132.1z
				 M23.4,103.5c0.1,3.6,0.4,9.3,0.8,11.7c0.5,2.8,2.8,9.9,3.8,13l17.1-6.9L23.4,103.5z"/>
			<path class="st4" d="M20.3,103.2l0.1-3.2c0-0.5,0.2-11.6,0.9-15.4c0.7-3.8,4.3-14.5,4.5-14.9l0.5-1.5L51,78.1L20.3,103.2z
				 M28.1,72.2c-1,3.1-3.3,10.2-3.8,13c-0.4,2.4-0.7,8-0.8,11.7L45.2,79L28.1,72.2z"/>
			<path class="st4" d="M173.8,132.1l-24.8-9.9L179.7,97l-0.1,3.2c0,0.5-0.2,11.6-0.9,15.4c-0.7,3.8-4.3,14.5-4.5,14.9L173.8,132.1z
				 M154.8,121.2l17.1,6.9c1-3.1,3.3-10.2,3.8-13c0.4-2.4,0.7-8,0.8-11.7L154.8,121.2z"/>
			<path class="st4" d="M179.7,103.2L149,78.1l24.8-9.9l0.5,1.5c0.2,0.5,3.8,11.1,4.5,14.9c0.7,3.8,0.9,14.9,0.9,15.4L179.7,103.2z
				 M154.8,79l21.8,17.8c-0.1-3.6-0.4-9.3-0.8-11.7c-0.5-2.8-2.8-9.9-3.8-13L154.8,79z"/>
		</g>
	</g>
	<g>
		<path class="st4" d="M99.9,180.6c-44.4,0-80.6-36.1-80.6-80.6s36.1-80.6,80.6-80.6c44.4,0,80.6,36.1,80.6,80.6
			S144.3,180.6,99.9,180.6z M99.9,23.4c-42.2,0-76.6,34.4-76.6,76.6s34.4,76.6,76.6,76.6s76.6-34.4,76.6-76.6S142.1,23.4,99.9,23.4z
			"/>
	</g>
</g>
</svg>
