<svg id="Einfarbig" xmlns="http://www.w3.org/2000/svg" viewBox="0 0 196.38 51.37"><defs><style>.cls-1{fill:#333;}</style></defs><path class="cls-1" d="M198.28,53.12h-8c0-24.56-9.07-28.23-22.81-33.79-10.08-4.08-23.17-6.93-38.9-8.47-1.54-.08-21.71-1.1-28.48-1.11h0c-6.87,0-27.1,1-28.65,1.07s-2.84.3-4.28.47V37.51H11.39A66,66,0,0,0,9.9,53h-8c0-8.86.87-15.47,2.72-20.81l.93-2.69H59.11V4.31l3.44-.48c2.79-.4,5.46-.72,8.16-1h.19c.89,0,21.83-1.09,29.14-1.09h.06c7.21,0,28.08,1.08,29,1.12l.18,0c16.54,1.61,30.41,4.65,41.22,9C187.27,18.71,198.28,25.25,198.28,53.12Z" transform="translate(-1.9 -1.75)"/></svg>