<svg xmlns="http://www.w3.org/2000/svg" viewBox="0 0 160 96" role="img" aria-label="Außen 2 Reihen">
  <rect width="160" height="96" fill="none"/>
  <path d="M20 18 H140" stroke="#d7aa55" stroke-width="4" stroke-linecap="round" opacity=".7"/>
  <path d="M20 78 H140" stroke="#d7aa55" stroke-width="4" stroke-linecap="round" opacity=".7"/>
  <circle cx="32" cy="28" r="4.2" fill="#f3c15d" stroke="#7a4a12" stroke-width="1.2"/><circle cx="44" cy="28" r="4.2" fill="#f3c15d" stroke="#7a4a12" stroke-width="1.2"/><circle cx="56" cy="28" r="4.2" fill="#f3c15d" stroke="#7a4a12" stroke-width="1.2"/><circle cx="68" cy="28" r="4.2" fill="#f3c15d" stroke="#7a4a12" stroke-width="1.2"/><circle cx="80" cy="28" r="4.2" fill="#f3c15d" stroke="#7a4a12" stroke-width="1.2"/><circle cx="92" cy="28" r="4.2" fill="#f3c15d" stroke="#7a4a12" stroke-width="1.2"/><circle cx="104" cy="28" r="4.2" fill="#f3c15d" stroke="#7a4a12" stroke-width="1.2"/><circle cx="116" cy="28" r="4.2" fill="#f3c15d" stroke="#7a4a12" stroke-width="1.2"/><circle cx="128" cy="28" r="4.2" fill="#f3c15d" stroke="#7a4a12" stroke-width="1.2"/><path d="M26 20 H134 M26 36 H134" stroke="#b5893a" stroke-width="1.2" opacity=".65"/><circle cx="32" cy="68" r="4.2" fill="#f3c15d" stroke="#7a4a12" stroke-width="1.2"/><circle cx="44" cy="68" r="4.2" fill="#f3c15d" stroke="#7a4a12" stroke-width="1.2"/><circle cx="56" cy="68" r="4.2" fill="#f3c15d" stroke="#7a4a12" stroke-width="1.2"/><circle cx="68" cy="68" r="4.2" fill="#f3c15d" stroke="#7a4a12" stroke-width="1.2"/><circle cx="80" cy="68" r="4.2" fill="#f3c15d" stroke="#7a4a12" stroke-width="1.2"/><circle cx="92" cy="68" r="4.2" fill="#f3c15d" stroke="#7a4a12" stroke-width="1.2"/><circle cx="104" cy="68" r="4.2" fill="#f3c15d" stroke="#7a4a12" stroke-width="1.2"/><circle cx="116" cy="68" r="4.2" fill="#f3c15d" stroke="#7a4a12" stroke-width="1.2"/><circle cx="128" cy="68" r="4.2" fill="#f3c15d" stroke="#7a4a12" stroke-width="1.2"/><path d="M26 60 H134 M26 76 H134" stroke="#b5893a" stroke-width="1.2" opacity=".65"/>
  <text x="80" y="92" text-anchor="middle" font-family="Arial, sans-serif" font-size="11" fill="#5f3b0e">Außen 2 Reihen</text>
</svg>
