<?xml version="1.0" encoding="utf-8"?>
<!-- Generator: Adobe Illustrator 25.2.1, SVG Export Plug-In . SVG Version: 6.00 Build 0)  -->
<svg version="1.1" id="Ebene_1" xmlns:serif="http://www.serif.com/"
	 xmlns="http://www.w3.org/2000/svg" xmlns:xlink="http://www.w3.org/1999/xlink" x="0px" y="0px" viewBox="0 0 512 512"
	 style="enable-background:new 0 0 512 512;" xml:space="preserve">
<style type="text/css">
	.st0{fill-rule:evenodd;clip-rule:evenodd;fill:#F2F2F2;}
</style>
<g>
	<path class="st0" d="M256,0.5C115,0.5,0.5,115,0.5,256S115,511.5,256,511.5S511.5,397,511.5,256S397,0.5,256,0.5z M256,18.5
		c131.1,0,237.5,106.4,237.5,237.5S387.1,493.5,256,493.5S18.5,387.1,18.5,256S124.9,18.5,256,18.5z M302.9,259.4
		c0-25.9-21-46.9-46.9-46.9h0c-12.4,0-24.4,4.9-33.2,13.7c-8.8,8.8-13.7,20.7-13.7,33.2v99.9c0,12.4,4.9,24.4,13.7,33.2
		s20.7,13.7,33.2,13.7h0c25.9,0,46.9-21,46.9-46.9V259.4z M284.9,259.4c0-16-13-28.9-28.9-28.9h0c-7.7,0-15,3-20.5,8.5
		c-5.4,5.4-8.5,12.8-8.5,20.5v99.9c0,7.7,3,15,8.5,20.5c5.4,5.4,12.8,8.5,20.5,8.5h0c16,0,28.9-13,28.9-28.9V259.4z M256,105.8
		c-25.9,0-46.9,21-46.9,46.9s21,46.9,46.9,46.9s46.9-21,46.9-46.9S281.9,105.8,256,105.8z M256,123.7c16,0,28.9,13,28.9,28.9
		c0,16-13,28.9-28.9,28.9s-28.9-13-28.9-28.9C227.1,136.7,240,123.7,256,123.7z"/>
</g>
</svg>
