<svg xmlns="http://www.w3.org/2000/svg" xmlns:xlink="http://www.w3.org/1999/xlink" viewBox="0 0 265 200"><defs><style>.cls-1,.cls-7{fill:#fff;}.cls-1{opacity:0;}.cls-2{isolation:isolate;}.cls-3{fill:url(#Neues_Verlaufsfeld_1);}.cls-4{fill:#666;}.cls-5{fill:url(#Neues_Verlaufsfeld_4);}.cls-6{fill:#3e3e3e;}.cls-8{fill:url(#Neues_Verlaufsfeld_3);}</style><linearGradient id="Neues_Verlaufsfeld_1" x1="308.8" y1="208.26" x2="308.8" y2="102.08" gradientUnits="userSpaceOnUse"><stop offset="0" stop-color="#adadad"/><stop offset="0.18" stop-color="#cfcfcf"/><stop offset="0.58" stop-color="#767676"/><stop offset="0.86" stop-color="#3c3c3c"/><stop offset="1" stop-color="#262626"/></linearGradient><linearGradient id="Neues_Verlaufsfeld_4" x1="296.57" y1="214.86" x2="298.6" y2="59.97" gradientUnits="userSpaceOnUse"><stop offset="0" stop-color="#8a8a8a"/><stop offset="0.75" stop-color="#fff"/><stop offset="0.81" stop-color="#f6f6f6"/><stop offset="1" stop-color="#e0e0e0"/></linearGradient><linearGradient id="Neues_Verlaufsfeld_3" x1="383.38" y1="50.87" x2="383.38" y2="193.12" gradientUnits="userSpaceOnUse"><stop offset="0" stop-color="#666"/><stop offset="0.24" stop-color="#fff"/><stop offset="0.26" stop-color="#f9f9f9"/><stop offset="0.62" stop-color="#9d9d9d"/><stop offset="0.88" stop-color="#636363"/><stop offset="1" stop-color="#4d4d4d"/></linearGradient></defs><g id="BG_Kopie" data-name="BG Kopie"><rect class="cls-1" width="265" height="200"/></g><g id="Ebene_5" data-name="Ebene 5"><g id="Seitlich_Verschnitten_links" data-name="Seitlich Verschnitten links" class="cls-2"><path class="cls-3" d="M320.84,200q.39-3.72.87-7.37c7.35-54.34,32.17-94.31,61.66-94.31h-86.6c-29.49,0-54.31,40-61.66,94.31q-.5,3.65-.87,7.37Z" transform="translate(-207.47)"/><path class="cls-4" d="M234.93,200c0-.32,0-.65.08-1,.18-2.22.38-4.74.6-6.32,7.47-55.28,32.62-93.88,61.16-93.88h78.57c-25.64,6.42-47.29,43.17-54.12,93.75-.22,1.61-.42,4-.61,6.4,0,.35-.05.69-.08,1h1c0-.31.05-.63.08-.95.18-2.24.38-4.77.6-6.35,7.47-55.28,32.62-93.88,61.16-93.88v-1h-86.6c-29.06,0-54.61,39-62.15,94.75-.22,1.6-.42,4-.61,6.37,0,.36,0,.71-.08,1.06Z" transform="translate(-207.47)"/><path class="cls-5" d="M234.24,200C240.25,142,266,98.32,296.77,98.32S353.28,142,359.3,200h24.09c-6.29-84.4-42.68-149.13-86.62-149.13S216.44,115.6,210.14,200Z" transform="translate(-207.47)"/><path class="cls-4" d="M296.77,97.82c-30.19,0-56.52,42.88-62.92,102.18h1c6.36-58.73,32.26-101.18,61.91-101.18S352.32,141.27,358.68,200h1C353.28,140.7,327,97.82,296.77,97.82Z" transform="translate(-207.47)"/><path class="cls-4" d="M210.73,200c6.61-84.85,43.45-148.63,86-148.63s79.42,63.78,86,148.63h1c-3.16-40.76-13.47-78.26-29.07-105.75-16.07-28.3-36.65-43.88-58-43.88s-41.9,15.58-58,43.88c-15.61,27.49-25.91,65-29.08,105.75Z" transform="translate(-207.47)"/><path class="cls-4" d="M352.15,100.18c-15.8-27.85-35.59-41.79-55.38-41.79s-39.52,13.89-55.3,41.66a11.21,11.21,0,0,0-.35,8.75l6.18,15.09c.63,1.53,1.53,2.3,2.44,2.3a2.62,2.62,0,0,0,2.13-1.63c12.8-22.67,28.85-34,44.9-34s32.14,11.37,44.94,34.1c.62,1.1,1.38,1.64,2.14,1.64s1.8-.77,2.43-2.29l6.21-15A11.29,11.29,0,0,0,352.15,100.18Z" transform="translate(-207.47)"/><path class="cls-6" d="M296.77,59.39c20.06,0,39.42,14.66,54.51,41.29a10.25,10.25,0,0,1,.29,7.9l-6.21,15c-.42,1-1,1.67-1.51,1.67s-.87-.42-1.27-1.13C330,101.84,313.75,89.55,296.77,89.55S263.56,101.81,251,124.07c-.39.7-.86,1.12-1.26,1.12s-1.09-.66-1.51-1.68L242,108.42a10.16,10.16,0,0,1,.3-7.88C257.42,74,276.75,59.39,296.77,59.39m0-1c-19.76,0-39.52,13.89-55.3,41.66a11.21,11.21,0,0,0-.35,8.75l6.18,15.09c.63,1.53,1.53,2.3,2.44,2.3a2.62,2.62,0,0,0,2.13-1.63c12.8-22.67,28.85-34,44.9-34s32.14,11.37,44.94,34.1c.62,1.1,1.38,1.64,2.14,1.64s1.8-.77,2.43-2.29l6.21-15a11.29,11.29,0,0,0-.34-8.78c-15.8-27.85-35.59-41.79-55.38-41.79Z" transform="translate(-207.47)"/><path class="cls-7" d="M249.35,116.69c.31,0,.63.28.84.82a3.73,3.73,0,0,1-.19,3,.84.84,0,0,1-.65.45c-.32,0-.63-.28-.84-.82a3.72,3.72,0,0,1,.18-3A.84.84,0,0,1,249.35,116.69Z" transform="translate(-207.47)"/><path class="cls-7" d="M251.66,90.09c.32,0,.63.28.84.81a3.75,3.75,0,0,1-.18,3,.84.84,0,0,1-.66.45c-.31,0-.63-.29-.84-.83a3.69,3.69,0,0,1,.19-3A.8.8,0,0,1,251.66,90.09Z" transform="translate(-207.47)"/><path class="cls-7" d="M256.26,84.44c.38,0,.76.43.94,1.16a3.33,3.33,0,0,1-.47,2.86.64.64,0,0,1-.47.23c-.39,0-.76-.42-.95-1.16a3.32,3.32,0,0,1,.47-2.85A.67.67,0,0,1,256.26,84.44Z" transform="translate(-207.47)"/><path class="cls-7" d="M260.36,100.62c.39,0,.76.43.95,1.16a3.4,3.4,0,0,1-.47,2.87.68.68,0,0,1-.47.23c-.39,0-.77-.43-1-1.17a3.42,3.42,0,0,1,.47-2.86A.66.66,0,0,1,260.36,100.62Z" transform="translate(-207.47)"/><path class="cls-7" d="M262.76,79.62c2.2,0,4.25,2.75,5,7.13,1,5.53-.5,11.56-3.27,13.47a3,3,0,0,1-1.73.59c-2.19,0-4.24-2.76-5-7.13-1-5.54.5-11.57,3.27-13.48A3,3,0,0,1,262.76,79.62Z" transform="translate(-207.47)"/><path class="cls-7" d="M269.92,71.82c.46,0,.89.61,1,1.53a2.81,2.81,0,0,1-.72,2.63.58.58,0,0,1-.3.09c-.46,0-.89-.6-1-1.54a2.83,2.83,0,0,1,.73-2.63A.67.67,0,0,1,269.92,71.82Z" transform="translate(-207.47)"/><path class="cls-7" d="M276,69.36c2.59,0,4.85,3.79,5.23,9.06.43,5.79-1.58,11.17-4.47,12a3,3,0,0,1-.78.11c-2.58,0-4.84-3.79-5.23-9.07-.42-5.79,1.58-11.16,4.48-12A2.92,2.92,0,0,1,276,69.36Z" transform="translate(-207.47)"/><path class="cls-7" d="M289.76,64.23H290c2.92.23,5.19,5.15,5.08,11s-2.46,10.17-5.29,10.17h-.21c-2.92-.23-5.2-5.15-5.08-11S286.93,64.23,289.76,64.23Z" transform="translate(-207.47)"/><path class="cls-7" d="M294.31,62.62c.54,0,1,.82,1.06,1.92s-.37,2.22-1,2.32l-.1,0c-.54,0-1-.83-1.06-1.92s.37-2.21,1-2.33Z" transform="translate(-207.47)"/><path class="cls-7" d="M295.2,80.8c.54,0,1,.82,1.05,1.91s-.37,2.22-.95,2.33h-.11c-.54,0-1-.82-1.05-1.92s.37-2.21.95-2.32Z" transform="translate(-207.47)"/><path class="cls-7" d="M299.17,62.73h.09c.58.1,1,1.14,1,2.31S299.71,67,299.17,67h-.1c-.58-.1-1-1.13-1-2.3S298.62,62.73,299.17,62.73Z" transform="translate(-207.47)"/><path class="cls-7" d="M308.34,82.63h.09c.59.1,1,1.14,1,2.31s-.51,1.94-1,1.94h-.1c-.58-.1-1-1.13-1-2.3S307.8,82.63,308.34,82.63Z" transform="translate(-207.47)"/><path class="cls-7" d="M309.13,64.45h.09c.58.1,1,1.14,1,2.31s-.51,1.94-1.06,1.94H309c-.59-.11-1-1.13-1-2.3S308.58,64.45,309.13,64.45Z" transform="translate(-207.47)"/><path class="cls-7" d="M314,66.34a.58.58,0,0,1,.28.07A2.82,2.82,0,0,1,315,69c-.13,1-.56,1.56-1,1.56a.63.63,0,0,1-.29-.08,2.8,2.8,0,0,1-.74-2.61C313.05,67,313.48,66.34,314,66.34Z" transform="translate(-207.47)"/><path class="cls-7" d="M321.14,89.28a.55.55,0,0,1,.29.08,2.79,2.79,0,0,1,.73,2.61c-.13.94-.55,1.56-1,1.56a.67.67,0,0,1-.29-.08c-.56-.31-.89-1.48-.73-2.62C320.25,89.89,320.67,89.28,321.14,89.28Z" transform="translate(-207.47)"/><path class="cls-7" d="M317.52,69.34a3.26,3.26,0,0,1,2.1.86c2.68,2.33,3.92,8.55,2.76,13.93-.86,4-2.81,6.39-4.86,6.39a3.23,3.23,0,0,1-2.1-.87c-2.68-2.31-3.92-8.55-2.76-13.91C313.52,71.73,315.47,69.34,317.52,69.34Z" transform="translate(-207.47)"/><path class="cls-7" d="M323.58,71.68a.67.67,0,0,1,.29.08,2.79,2.79,0,0,1,.73,2.61c-.13.94-.55,1.56-1,1.56a.62.62,0,0,1-.29-.07,2.82,2.82,0,0,1-.73-2.62C322.69,72.29,323.11,71.68,323.58,71.68Z" transform="translate(-207.47)"/><path class="cls-7" d="M324.28,91.72a.66.66,0,0,1,.47.22,3.36,3.36,0,0,1,.48,2.84c-.18.76-.56,1.19-1,1.19a.66.66,0,0,1-.46-.22,3.31,3.31,0,0,1-.48-2.85C323.51,92.15,323.89,91.72,324.28,91.72Z" transform="translate(-207.47)"/><path class="cls-7" d="M328.29,75.45a.7.7,0,0,1,.48.22,3.35,3.35,0,0,1,.48,2.84c-.19.75-.57,1.19-1,1.19a.68.68,0,0,1-.47-.23,3.31,3.31,0,0,1-.48-2.84C327.53,75.88,327.9,75.45,328.29,75.45Z" transform="translate(-207.47)"/><path class="cls-7" d="M333.22,100.66a.66.66,0,0,1,.47.22,3.37,3.37,0,0,1,.48,2.86c-.18.75-.56,1.18-.95,1.18a.66.66,0,0,1-.47-.22,3.34,3.34,0,0,1-.48-2.85C332.45,101.1,332.83,100.66,333.22,100.66Z" transform="translate(-207.47)"/><path class="cls-7" d="M330.74,79.58a3.8,3.8,0,0,1,3,1.82c2.42,3.28,3.06,9.86,1.42,14.71-1,3-2.69,4.65-4.39,4.65a3.8,3.8,0,0,1-3-1.82c-2.42-3.28-3.06-9.86-1.42-14.71C327.37,81.21,329,79.58,330.74,79.58Z" transform="translate(-207.47)"/><path class="cls-7" d="M337.26,84.29a.66.66,0,0,1,.47.22,3.34,3.34,0,0,1,.48,2.85c-.19.75-.56,1.19-.95,1.19a.66.66,0,0,1-.47-.22,3.34,3.34,0,0,1-.48-2.85C336.49,84.73,336.87,84.29,337.26,84.29Z" transform="translate(-207.47)"/><path class="cls-7" d="M341.8,90.11a.81.81,0,0,1,.64.43,3.68,3.68,0,0,1,.2,3c-.21.55-.52.84-.84.84a.82.82,0,0,1-.65-.43,3.76,3.76,0,0,1-.2-3C341.16,90.4,341.48,90.11,341.8,90.11Z" transform="translate(-207.47)"/><path class="cls-7" d="M344.23,116.75a.81.81,0,0,1,.64.43,3.68,3.68,0,0,1,.2,3c-.21.55-.52.84-.84.84a.82.82,0,0,1-.65-.43,3.76,3.76,0,0,1-.2-3C343.59,117,343.91,116.75,344.23,116.75Z" transform="translate(-207.47)"/><path class="cls-7" d="M343,95c1.36,0,2.72,1,3.75,3.11a18.82,18.82,0,0,1,0,15c-1,2.07-2.39,3.1-3.74,3.1s-2.71-1-3.75-3.11a18.89,18.89,0,0,1,0-15C340.29,96,341.64,95,343,95Z" transform="translate(-207.47)"/><path class="cls-7" d="M349.76,102.21a.82.82,0,0,1,.64.44,3.68,3.68,0,0,1,.2,3c-.2.55-.52.84-.84.84a.81.81,0,0,1-.65-.44,3.76,3.76,0,0,1-.2-3C349.12,102.5,349.44,102.21,349.76,102.21Z" transform="translate(-207.47)"/><path class="cls-7" d="M243.77,102.37c.32,0,.63.28.84.82a3.75,3.75,0,0,1-.18,3,.83.83,0,0,1-.65.44c-.32,0-.64-.28-.85-.82a3.69,3.69,0,0,1,.19-3A.81.81,0,0,1,243.77,102.37Z" transform="translate(-207.47)"/><path class="cls-7" d="M250.5,95c1.83,0,3.61,1.89,4.59,5.28,1.46,5.07.6,11.55-1.93,14.47a3.56,3.56,0,0,1-2.65,1.43c-1.83,0-3.6-1.89-4.58-5.28-1.47-5.07-.61-11.55,1.92-14.47A3.56,3.56,0,0,1,250.5,95Z" transform="translate(-207.47)"/><path class="cls-7" d="M265.17,75.39c.39,0,.76.43.95,1.17a3.36,3.36,0,0,1-.47,2.85.66.66,0,0,1-.48.23c-.39,0-.76-.42-.95-1.17a3.36,3.36,0,0,1,.47-2.85A.7.7,0,0,1,265.17,75.39Z" transform="translate(-207.47)"/><path class="cls-7" d="M269.3,91.67c.39,0,.76.43.95,1.17a3.32,3.32,0,0,1-.47,2.85.64.64,0,0,1-.48.23c-.38,0-.76-.42-.95-1.16a3.41,3.41,0,0,1,.47-2.86A.72.72,0,0,1,269.3,91.67Z" transform="translate(-207.47)"/><path class="cls-7" d="M279.53,66.26c.46,0,.88.61,1,1.53a2.84,2.84,0,0,1-.72,2.64.55.55,0,0,1-.29.08c-.47,0-.89-.6-1-1.54a2.8,2.8,0,0,1,.72-2.63A.56.56,0,0,1,279.53,66.26Z" transform="translate(-207.47)"/><path class="cls-7" d="M284.36,64.57c.54,0,1,.82,1.06,1.92s-.37,2.2-1,2.32h-.1c-.54,0-1-.82-1.06-1.92s.37-2.21,1-2.32Z" transform="translate(-207.47)"/><path class="cls-7" d="M285.24,82.62c.54,0,1,.83,1.06,1.93s-.37,2.2-.95,2.32h-.1c-.55,0-1-.82-1.07-1.92s.37-2.21,1-2.33Z" transform="translate(-207.47)"/><path class="cls-7" d="M311.52,83.82a.67.67,0,0,1,.29.08,2.84,2.84,0,0,1,.74,2.62c-.13.94-.56,1.55-1,1.55a.58.58,0,0,1-.28-.07,2.79,2.79,0,0,1-.74-2.62C310.63,84.44,311.05,83.82,311.52,83.82Z" transform="translate(-207.47)"/><path class="cls-7" d="M257.27,104.49c.32,0,.63.28.84.82a3.68,3.68,0,0,1-.19,3,.81.81,0,0,1-.65.45c-.32,0-.63-.28-.84-.82a3.69,3.69,0,0,1,.19-3A.81.81,0,0,1,257.27,104.49Z" transform="translate(-207.47)"/><path class="cls-7" d="M272.44,89.25c.47,0,.89.6,1,1.54a2.82,2.82,0,0,1-.73,2.62.58.58,0,0,1-.3.09c-.46,0-.88-.61-1-1.53a2.84,2.84,0,0,1,.73-2.64A.55.55,0,0,1,272.44,89.25Z" transform="translate(-207.47)"/><path class="cls-7" d="M282.07,83.8c.46,0,.88.6,1,1.53a2.84,2.84,0,0,1-.73,2.63.58.58,0,0,1-.3.09c-.46,0-.88-.61-1-1.54a2.85,2.85,0,0,1,.73-2.63A.56.56,0,0,1,282.07,83.8Z" transform="translate(-207.47)"/><path class="cls-7" d="M298.39,80.81h.09c.59.1,1,1.14,1,2.31s-.52,1.94-1.06,1.94h-.09c-.59-.1-1-1.13-1-2.3S297.84,80.81,298.39,80.81Z" transform="translate(-207.47)"/><path class="cls-7" d="M303.73,64.22a2.76,2.76,0,0,1,1.17.26c2.86,1.3,4.65,7,4,12.67-.56,4.92-2.74,8.26-5.17,8.26a2.84,2.84,0,0,1-1.17-.27c-2.85-1.29-4.64-7-4-12.67C299.13,67.55,301.31,64.22,303.73,64.22Z" transform="translate(-207.47)"/><path class="cls-7" d="M336.31,104.55a.82.82,0,0,1,.64.44,3.72,3.72,0,0,1,.2,3c-.21.55-.52.84-.84.84a.81.81,0,0,1-.65-.44,3.76,3.76,0,0,1-.2-3C335.67,104.84,336,104.55,336.31,104.55Z" transform="translate(-207.47)"/><path class="cls-8" d="M305.7,51.77a49.2,49.2,0,0,1,10,3.19,62.12,62.12,0,0,1,14.07,8.75c9,7.34,17.29,17.59,24.52,30.18a177.91,177.91,0,0,1,10.4,21.48q3.21,7.86,6,16.45,2.28,7.13,4.21,14.69,1.73,6.75,3.16,13.82,1.33,6.66,2.42,13.57,1.05,6.71,1.82,13.63c.46,4.1.84,8.27,1.15,12.47H470c-.32-4.2-.69-8.37-1.15-12.47q-.78-6.92-1.83-13.63-1.06-6.92-2.42-13.57-1.44-7.07-3.16-13.82-1.92-7.56-4.21-14.69-2.75-8.58-6-16.45a177.93,177.93,0,0,0-10.41-21.48c-7.22-12.59-15.5-22.84-24.52-30.18A62.12,62.12,0,0,0,402.27,55a49.32,49.32,0,0,0-10-3.19,45.27,45.27,0,0,0-8.62-.9H297.08A45.19,45.19,0,0,1,305.7,51.77Z" transform="translate(-207.47)"/><path class="cls-4" d="M305.61,52.26a48.63,48.63,0,0,1,9.85,3.16,61.4,61.4,0,0,1,14,8.68c8.9,7.24,17.11,17.35,24.4,30a179.9,179.9,0,0,1,10.37,21.42c2.13,5.22,4.13,10.74,5.94,16.42,1.52,4.72,2.93,9.65,4.21,14.66,1.14,4.48,2.2,9.12,3.15,13.79.89,4.43,1.71,9,2.42,13.55s1.31,9.05,1.82,13.61c.4,3.58.73,8.24,1,12.36V200h1v-.12c-.3-4.13-.64-8.8-1-12.4-.51-4.57-1.13-9.17-1.82-13.66s-1.53-9.15-2.43-13.59c-1-4.68-2-9.34-3.17-13.84-1.28-5-2.7-10-4.21-14.72-1.82-5.69-3.83-11.24-6-16.49A181.93,181.93,0,0,0,354.7,93.64c-7.35-12.8-15.64-23-24.64-30.32a63,63,0,0,0-14.19-8.82,49.85,49.85,0,0,0-9.63-3.13h77.44a44.75,44.75,0,0,1,8.53.89,48.91,48.91,0,0,1,9.86,3.16,61.56,61.56,0,0,1,14,8.68c8.9,7.24,17.11,17.35,24.4,30a179.9,179.9,0,0,1,10.37,21.42c2.13,5.22,4.13,10.74,5.95,16.42,1.51,4.72,2.92,9.65,4.2,14.66,1.14,4.48,2.2,9.12,3.15,13.79.9,4.45,1.71,9,2.42,13.55s1.31,9,1.82,13.61c.4,3.58.74,8.24,1,12.36V200h1v-.12c-.3-4.13-.63-8.8-1-12.4-.51-4.6-1.13-9.19-1.82-13.66s-1.53-9.12-2.43-13.59c-.95-4.68-2-9.34-3.16-13.84-1.29-5-2.7-10-4.22-14.72-1.82-5.69-3.83-11.24-6-16.49A181.93,181.93,0,0,0,441.3,93.64c-7.35-12.8-15.64-23-24.64-30.32a62.78,62.78,0,0,0-14.19-8.82,50,50,0,0,0-10.06-3.22,45.85,45.85,0,0,0-8.72-.91H296.77v1h.31A44.75,44.75,0,0,1,305.61,52.26Z" transform="translate(-207.47)"/></g></g></svg>