<svg id="Einfarbig" xmlns="http://www.w3.org/2000/svg" viewBox="0 0 196.38 50.45"><defs><style>.cls-1{fill:#333;}</style></defs><path class="cls-1" d="M198.28,53.12h-8c0-24.56-9.07-28.23-22.81-33.79-9.69-3.92-22.18-6.71-37.12-8.29L100,41.39,69.61,11a166.07,166.07,0,0,0-37.34,8.39C17.17,24.55,9.9,28.13,9.9,53h-8c0-27.3,8.19-34.5,27.79-41.19a173.59,173.59,0,0,1,41-9l1.88-.18L100,30.08,127.37,2.7l1.88.19c16.54,1.61,30.41,4.65,41.22,9C187.27,18.71,198.28,25.25,198.28,53.12Z" transform="translate(-1.9 -2.67)"/></svg>