<?xml version="1.0" encoding="UTF-8" standalone="no"?>
<!-- Generator: Adobe Illustrator 24.3.0, SVG Export Plug-In . SVG Version: 6.00 Build 0)  -->

<svg
   version="1.1"
   x="0px"
   y="0px"
   viewBox="0 0 200 200"
   style="enable-background:new 0 0 200 200;"
   xml:space="preserve"
   id="svg330"
   xmlns="http://www.w3.org/2000/svg"
   xmlns:svg="http://www.w3.org/2000/svg"><defs
   id="defs334" />
<style
   type="text/css"
   id="style169">
	.st0{opacity:0;fill:#FFFFFF;}
	.st1{fill:#F2F2F2;}
	.st2{fill:#E6E6E6;}
	.st3{fill:url(#SVGID_1_);}
	.st4{fill:#3E3E3E;}
	.st5{fill:#808080;}
	.st6{fill:#CCCCCC;}
	.st7{fill:#FFFFFF;}
	.st8{fill:#B3B3B3;}
	.st9{display:none;}
	.st10{display:inline;}
	.st11{fill:url(#SVGID_2_);}
	.st12{fill:url(#SVGID_3_);}
	.st13{fill:url(#SVGID_4_);}
	.st14{fill:url(#SVGID_5_);}
	.st15{display:inline;fill:#3E3E3E;}
	.st16{fill:url(#SVGID_6_);}
	.st17{fill:url(#SVGID_7_);}
	.st18{fill:url(#SVGID_8_);}
	.st19{fill:url(#SVGID_9_);}
	.st20{fill:url(#SVGID_10_);}
	.st21{fill:url(#SVGID_11_);}
	.st22{fill:url(#SVGID_12_);}
	.st23{fill:url(#SVGID_13_);}
</style>
<g
   id="BG">
	<rect
   x="-0.1"
   class="st0"
   width="200"
   height="200"
   id="rect171" />
</g>
<g
   id="Brillant"
   transform="matrix(1.2406948,0,0,1.2406948,-23.945409,-24.069479)">
	<g
   id="g190">
		<path
   class="st1"
   d="m 27.2,70.2 21,8.4 -3.5,-34.4 c 0,0 -8,9.1 -10.2,12.4 -2.2,3.2 -7.3,13.6 -7.3,13.6 z"
   id="path174" />
		<path
   class="st1"
   d="M 69.9,27.3 78,47.4 43.8,45.9 c 0,0 9.1,-9.1 12.4,-11.3 3.3,-2.1 13.7,-7.3 13.7,-7.3 z"
   id="path176" />
		<path
   class="st2"
   d="m 27.2,129.9 21,-8.4 -3.5,34.4 c 0,0 -8,-9.1 -10.2,-12.4 -2.2,-3.2 -7.3,-13.6 -7.3,-13.6 z"
   id="path178" />
		<path
   class="st1"
   d="m 69.9,172.8 8.1,-20.1 -34.2,1.5 c 0,0 9.1,9.1 12.4,11.3 3.3,2.2 13.7,7.3 13.7,7.3 z"
   id="path180" />
		<path
   class="st1"
   d="m 172.8,70.2 -21,8.4 3.5,-34.4 c 0,0 8,9.1 10.2,12.4 2.2,3.2 7.3,13.6 7.3,13.6 z"
   id="path182" />
		<path
   class="st2"
   d="m 130,27.3 -8.1,20.1 34.2,-1.5 c 0,0 -9.1,-9.1 -12.4,-11.3 C 140.4,32.5 130,27.3 130,27.3 Z"
   id="path184" />
		<path
   class="st1"
   d="m 172.8,129.9 -21,-8.4 3.5,34.4 c 0,0 8,-9.1 10.2,-12.4 2.2,-3.2 7.3,-13.6 7.3,-13.6 z"
   id="path186" />
		<path
   class="st2"
   d="m 130,172.8 -8.1,-20.1 34.2,1.5 c 0,0 -9.1,9.1 -12.4,11.3 -3.3,2.2 -13.7,7.3 -13.7,7.3 z"
   id="path188" />
	</g>
	<g
   id="g203">
		<linearGradient
   id="SVGID_1_"
   gradientUnits="userSpaceOnUse"
   x1="99.886803"
   y1="138.58231"
   x2="99.886803"
   y2="62.739399">
			<stop
   offset="0"
   style="stop-color:#C9C9C9"
   id="stop192" />
			<stop
   offset="0.3411"
   style="stop-color:#BABABA"
   id="stop194" />
			<stop
   offset="1"
   style="stop-color:#F7F7F7"
   id="stop196" />
		</linearGradient>
		<polygon
   class="st3"
   points="130.2,130.3 142.8,100 130.2,69.7 99.9,57.1 69.6,69.7 57,100 69.6,130.3 99.9,142.9 "
   id="polygon199"
   style="fill:url(#SVGID_1_)" />
		<path
   class="st4"
   d="m 99.9,144.5 -31.5,-13 -13,-31.5 13,-31.5 31.5,-13 31.5,13 13,31.5 -13,31.5 z M 70.7,129.2 99.9,141.3 129.1,129.2 141.2,100 129.1,70.8 99.9,58.8 70.7,70.8 58.6,100 Z"
   id="path201" />
	</g>
	<g
   id="g241">
		<g
   id="g221">
			<polygon
   class="st2"
   points="69.6,130.3 57,100 48.1,121.4 "
   id="polygon205" />
			<polygon
   class="st1"
   points="130.2,130.3 99.9,142.9 121.3,151.7 "
   id="polygon207" />
			<polygon
   class="st2"
   points="69.6,69.7 99.9,57.1 78.5,48.3 "
   id="polygon209" />
			<polygon
   class="st5"
   points="130.2,69.7 142.8,100 151.6,78.6 "
   id="polygon211" />
			<polygon
   class="st6"
   points="130.2,130.3 151.6,121.4 142.8,100 "
   id="polygon213" />
			<polygon
   class="st1"
   points="99.9,142.9 69.6,130.3 78.5,151.7 "
   id="polygon215" />
			<polygon
   class="st1"
   points="57,100 69.6,69.7 48.1,78.6 "
   id="polygon217" />
			<polygon
   class="st1"
   points="99.9,57.1 130.2,69.7 121.3,48.3 "
   id="polygon219" />
		</g>
		<g
   id="g239">
			<path
   class="st4"
   d="M 72.3,133.1 46.1,122.3 57,96.1 Z M 50.1,120.6 66.8,127.5 57,103.9 Z"
   id="path223" />
			<path
   class="st4"
   d="M 122.1,153.7 96,142.9 133,127.6 Z m -18.3,-10.8 16.7,6.9 6.9,-16.7 z"
   id="path225" />
			<path
   class="st4"
   d="M 66.8,72.5 77.6,46.3 103.8,57.1 Z M 79.3,50.2 72.4,66.9 96,57.1 Z"
   id="path227" />
			<path
   class="st4"
   d="m 142.8,103.9 -15.3,-37 26.2,10.8 z m -9.8,-31.4 9.8,23.6 6.9,-16.7 z"
   id="path229" />
			<path
   class="st4"
   d="m 127.4,133.1 15.3,-37 10.8,26.2 z m 15.4,-29.2 -9.8,23.6 16.7,-6.9 z"
   id="path231" />
			<path
   class="st4"
   d="m 77.6,153.7 -10.8,-26.2 37,15.3 z m -5.3,-20.6 6.9,16.7 16.7,-6.9 z"
   id="path233" />
			<path
   class="st4"
   d="M 57,103.9 46.2,77.8 72.4,67 Z M 50.1,79.4 57,96.1 66.8,72.5 Z"
   id="path235" />
			<path
   class="st4"
   d="M 133,72.5 96,57.1 122.2,46.3 Z m -29.2,-15.4 23.6,9.8 -6.9,-16.7 z"
   id="path237" />
		</g>
	</g>
	<g
   id="g263">
		<g
   id="g251">
			<polygon
   class="st7"
   points="142.8,100 151.6,78.6 177.9,100 151.6,121.4 "
   id="polygon243" />
			<polygon
   class="st8"
   points="57,100 48.1,121.4 21.9,100 48.1,78.6 "
   id="polygon245" />
			<polygon
   class="st2"
   points="99.9,57.1 78.5,48.3 99.9,22 121.3,48.3 "
   id="polygon247" />
			<polygon
   class="st1"
   points="100,142.9 121.4,151.7 100,178 78.6,151.7 "
   id="polygon249" />
		</g>
		<g
   id="g261">
			<path
   class="st4"
   d="M 151,123.9 141.1,100 151,76.1 180.3,100 Z m -6.6,-23.9 7.9,19 23.3,-19 -23.3,-19 z"
   id="path253" />
			<path
   class="st4"
   d="M 48.8,123.9 19.5,100 48.8,76.1 58.7,100 Z M 24.2,100 47.5,119 55.4,100 47.5,81 Z"
   id="path255" />
			<path
   class="st4"
   d="M 99.9,58.8 76,48.9 99.9,19.6 123.8,48.9 Z m -19,-11.2 19,7.9 19,-7.9 -19,-23.3 z"
   id="path257" />
			<path
   class="st4"
   d="m 100,180.4 -23.9,-29.3 23.9,-9.9 23.9,9.9 z m -19,-28 19,23.3 19,-23.3 -19,-7.9 z"
   id="path259" />
		</g>
	</g>
	<g
   id="g285">
		<g
   id="g273">
			<polygon
   class="st2"
   points="78.5,47.4 44.6,45.9 48.1,78.6 69.6,69.7 "
   id="polygon265" />
			<polygon
   class="st2"
   points="121.4,47.4 155.3,45.9 151.7,78.6 130.3,69.7 "
   id="polygon267" />
			<polygon
   class="st7"
   points="78.5,152.7 44.6,154.2 48.1,121.5 69.6,130.4 "
   id="polygon269" />
			<polygon
   class="st6"
   points="121.4,152.7 155.3,154.2 151.7,121.5 130.3,130.4 "
   id="polygon271" />
		</g>
		<g
   id="g283">
			<path
   class="st4"
   d="M 46.9,80.7 43,44.3 80.6,46 70.7,70.8 Z m -0.6,-33.3 3.1,29 19,-7.9 7.9,-19.7 z"
   id="path275" />
			<path
   class="st4"
   d="M 153,80.7 129.1,70.8 119.3,46 157,44.3 Z m -21.5,-12.2 19,7.9 3.1,-29 -30,1.4 z"
   id="path277" />
			<path
   class="st4"
   d="m 42.9,155.8 3.9,-36.4 23.9,9.9 9.9,24.8 z m 6.5,-32.1 -3.1,29 30,-1.4 -7.9,-19.7 z"
   id="path279" />
			<path
   class="st4"
   d="m 157,155.8 -37.7,-1.7 9.9,-24.8 23.9,-9.9 z m -33.4,-4.5 30,1.4 -3.1,-29 -19,7.9 z"
   id="path281" />
		</g>
	</g>
	<g
   id="g323">
		<g
   id="g303">
			<path
   class="st8"
   d="m 70,27.3 8.4,21 L 99.9,22 c 0,0 -11.4,0.2 -15.2,0.9 C 81,23.6 70,27.3 70,27.3 Z"
   id="path287" />
			<path
   class="st6"
   d="m 130,27.3 -8.4,21 L 100.1,22 c 0,0 11.4,0.2 15.2,0.9 3.8,0.7 14.7,4.4 14.7,4.4 z"
   id="path289" />
			<path
   class="st2"
   d="m 70,173 8.4,-21 21.4,26.3 c 0,0 -11.4,-0.2 -15.2,-0.9 C 81,176.7 70,173 70,173 Z"
   id="path291" />
			<path
   class="st1"
   d="m 130,173 -8.4,-21 -21.4,26.3 c 0,0 11.4,-0.2 15.2,-0.9 3.7,-0.7 14.6,-4.4 14.6,-4.4 z"
   id="path293" />
			<path
   class="st1"
   d="m 27.2,130.1 21,-8.4 -26.3,-21.4 c 0,0 0.2,11.4 0.9,15.2 0.6,3.7 4.4,14.6 4.4,14.6 z"
   id="path295" />
			<path
   class="st1"
   d="m 27.2,70.2 21,8.4 -26.3,21.4 c 0,0 0.2,-11.4 0.9,-15.2 0.6,-3.7 4.4,-14.6 4.4,-14.6 z"
   id="path297" />
			<path
   class="st6"
   d="m 172.9,130.1 -21,-8.4 26.3,-21.4 c 0,0 -0.2,11.4 -0.9,15.2 -0.7,3.7 -4.4,14.6 -4.4,14.6 z"
   id="path299" />
			<path
   class="st8"
   d="m 172.9,70.2 -21,8.4 26.3,21.4 c 0,0 -0.2,-11.4 -0.9,-15.2 -0.7,-3.7 -4.4,-14.6 -4.4,-14.6 z"
   id="path301" />
		</g>
		<g
   id="g321">
			<path
   class="st4"
   d="m 78,51.2 -9.9,-24.8 1.5,-0.5 c 0.5,-0.2 11.1,-3.8 14.9,-4.5 3.8,-0.7 14.9,-0.9 15.4,-0.9 l 3.2,-0.1 z m -6,-23 6.9,17.1 17.8,-21.8 c -3.6,0.1 -9.3,0.4 -11.7,0.8 -2.8,0.6 -9.9,2.9 -13,3.9 z"
   id="path305" />
			<path
   class="st4"
   d="m 122,51.2 -25.1,-30.8 3.2,0.1 c 0.5,0 11.6,0.2 15.4,0.9 3.8,0.7 14.5,4.3 14.9,4.5 l 1.5,0.5 z m -18.6,-27.6 17.8,21.8 6.9,-17.1 c -3.1,-1 -10.2,-3.3 -13,-3.8 -2.4,-0.6 -8.1,-0.8 -11.7,-0.9 z"
   id="path307" />
			<path
   class="st4"
   d="m 103.1,179.9 -3.2,-0.1 c -0.5,0 -11.6,-0.2 -15.4,-0.9 -3.8,-0.7 -14.5,-4.3 -14.9,-4.5 L 68.1,173.9 78,149.1 Z M 72,172.1 c 3.1,1 10.2,3.3 13,3.8 2.4,0.4 8,0.7 11.7,0.8 L 78.9,154.9 Z"
   id="path309" />
			<path
   class="st4"
   d="m 96.9,179.9 25.1,-30.7 9.9,24.8 -1.5,0.5 c -0.5,0.2 -11.1,3.8 -14.9,4.5 -3.8,0.7 -14.9,0.9 -15.4,0.9 z m 24.2,-25 -17.8,21.8 c 3.6,-0.1 9.3,-0.4 11.7,-0.8 2.8,-0.5 9.9,-2.8 13,-3.8 z"
   id="path311" />
			<path
   class="st4"
   d="m 26.2,132.1 -0.5,-1.5 c -0.2,-0.5 -3.8,-11.1 -4.5,-14.9 -0.7,-3.8 -0.9,-14.9 -0.9,-15.4 V 97 L 51,122.1 Z m -2.8,-28.6 c 0.1,3.6 0.4,9.3 0.8,11.7 0.5,2.8 2.8,9.9 3.8,13 l 17.1,-6.9 z"
   id="path313" />
			<path
   class="st4"
   d="m 20.3,103.2 0.1,-3.2 c 0,-0.5 0.2,-11.6 0.9,-15.4 0.7,-3.8 4.3,-14.5 4.5,-14.9 l 0.5,-1.5 24.7,9.9 z m 7.8,-31 c -1,3.1 -3.3,10.2 -3.8,13 -0.4,2.4 -0.7,8 -0.8,11.7 L 45.2,79 Z"
   id="path315" />
			<path
   class="st4"
   d="M 173.8,132.1 149,122.2 179.7,97 l -0.1,3.2 c 0,0.5 -0.2,11.6 -0.9,15.4 -0.7,3.8 -4.3,14.5 -4.5,14.9 z m -19,-10.9 17.1,6.9 c 1,-3.1 3.3,-10.2 3.8,-13 0.4,-2.4 0.7,-8 0.8,-11.7 z"
   id="path317" />
			<path
   class="st4"
   d="M 179.7,103.2 149,78.1 l 24.8,-9.9 0.5,1.5 c 0.2,0.5 3.8,11.1 4.5,14.9 0.7,3.8 0.9,14.9 0.9,15.4 z M 154.8,79 176.6,96.8 c -0.1,-3.6 -0.4,-9.3 -0.8,-11.7 -0.5,-2.8 -2.8,-9.9 -3.8,-13 z"
   id="path319" />
		</g>
	</g>
	<g
   id="g327">
		<path
   class="st4"
   d="m 99.9,180.6 c -44.4,0 -80.6,-36.1 -80.6,-80.6 0,-44.5 36.1,-80.6 80.6,-80.6 44.4,0 80.6,36.1 80.6,80.6 0,44.5 -36.2,80.6 -80.6,80.6 z m 0,-157.2 c -42.2,0 -76.6,34.4 -76.6,76.6 0,42.2 34.4,76.6 76.6,76.6 42.2,0 76.6,-34.4 76.6,-76.6 0,-42.2 -34.4,-76.6 -76.6,-76.6 z"
   id="path325" />
	</g>
</g>
</svg>
