<svg xmlns="http://www.w3.org/2000/svg" xmlns:xlink="http://www.w3.org/1999/xlink" viewBox="0 0 200 200"><defs><style>.cls-1,.cls-8{fill:#fff;}.cls-1{opacity:0;}.cls-2{fill:url(#Neues_Verlaufsfeld_2);}.cls-3{opacity:0.7;fill:url(#Unbenannter_Verlauf_154);}.cls-4,.cls-6,.cls-7{opacity:0.4;}.cls-5{opacity:0.6;fill:url(#Unbenannter_Verlauf_21);}.cls-6{fill:url(#Unbenannter_Verlauf_39);}.cls-7{fill:url(#Unbenannter_Verlauf_38);}.cls-8{opacity:0.1;}.cls-9{fill:url(#Unbenannter_Verlauf_79);}.cls-10{fill:#999;}</style><linearGradient id="Neues_Verlaufsfeld_2" x1="5.9" y1="125.6" x2="194.28" y2="125.6" gradientUnits="userSpaceOnUse"><stop offset="0" stop-color="#8a8a8a"/><stop offset="0.04" stop-color="#9e9e9e"/><stop offset="0.15" stop-color="#bebebe"/><stop offset="0.32" stop-color="#ededed"/><stop offset="0.4" stop-color="#fff"/><stop offset="0.45" stop-color="#f6f6f6"/><stop offset="0.6" stop-color="#e0e0e0"/><stop offset="0.63" stop-color="#cacaca"/><stop offset="0.69" stop-color="#999"/><stop offset="0.75" stop-color="#7b7b7b"/><stop offset="0.78" stop-color="#707070"/><stop offset="0.82" stop-color="#737373"/><stop offset="0.85" stop-color="#7e7e7e"/><stop offset="0.88" stop-color="#909090"/><stop offset="0.91" stop-color="#a9a9a9"/><stop offset="0.94" stop-color="#c9c9c9"/><stop offset="0.96" stop-color="#efefef"/><stop offset="0.96" stop-color="#f0f0f0"/><stop offset="1" stop-color="#d9d9d9"/></linearGradient><linearGradient id="Unbenannter_Verlauf_154" x1="101.98" y1="27.58" x2="100.63" y2="121.93" gradientUnits="userSpaceOnUse"><stop offset="0" stop-color="#666"/><stop offset="0.7" stop-color="#9e9e9e" stop-opacity="0"/></linearGradient><linearGradient id="Unbenannter_Verlauf_21" x1="100.09" y1="51.43" x2="100.09" y2="199.84" gradientUnits="userSpaceOnUse"><stop offset="0"/><stop offset="0.99" stop-opacity="0"/></linearGradient><linearGradient id="Unbenannter_Verlauf_39" x1="68.7" y1="125.63" x2="131.49" y2="125.63" gradientUnits="userSpaceOnUse"><stop offset="0"/><stop offset="0.4" stop-opacity="0"/></linearGradient><linearGradient id="Unbenannter_Verlauf_38" x1="131.49" y1="125.63" x2="68.7" y2="125.63" xlink:href="#Unbenannter_Verlauf_39"/><linearGradient id="Unbenannter_Verlauf_79" x1="51.19" y1="73.2" x2="133.84" y2="209.62" gradientUnits="userSpaceOnUse"><stop offset="0" stop-color="#fff"/><stop offset="0.02" stop-color="#fff" stop-opacity="0.86"/><stop offset="0.06" stop-color="#fff" stop-opacity="0.68"/><stop offset="0.1" stop-color="#fff" stop-opacity="0.52"/><stop offset="0.14" stop-color="#fff" stop-opacity="0.38"/><stop offset="0.18" stop-color="#fff" stop-opacity="0.26"/><stop offset="0.23" stop-color="#fff" stop-opacity="0.16"/><stop offset="0.29" stop-color="#fff" stop-opacity="0.09"/><stop offset="0.35" stop-color="#fff" stop-opacity="0.04"/><stop offset="0.43" stop-color="#fff" stop-opacity="0.01"/><stop offset="0.59" stop-color="#fff" stop-opacity="0"/></linearGradient></defs><g id="BG"><rect class="cls-1" width="200" height="200"/></g><g id="Stufen"><g id="u-fuge"><path class="cls-2" d="M134.14,51.73c-.87-.11-1.76-.2-2.65-.3h0a25.06,25.06,0,0,1-25.06,25.06H93.76A25.06,25.06,0,0,1,68.7,51.43v-.06l-2,.22A68.77,68.77,0,0,0,5.9,119.92v79.92H194.28V120A68.64,68.64,0,0,0,134.14,51.73Z" transform="translate(-4.3 -1.89)"/><path class="cls-3" d="M134.14,51.73c-.87-.11-1.76-.2-2.65-.3h0a25.06,25.06,0,0,1-25.06,25.06H93.76A25.06,25.06,0,0,1,68.7,51.43v-.06l-2,.22A68.77,68.77,0,0,0,5.9,119.92v79.92H194.28V120A68.64,68.64,0,0,0,134.14,51.73Z" transform="translate(-4.3 -1.89)"/><path class="cls-4" d="M106.43,76.49H93.76A25.06,25.06,0,0,1,68.7,51.43V199.84h62.79V51.43A25.06,25.06,0,0,1,106.43,76.49Z" transform="translate(-4.3 -1.89)"/><path class="cls-5" d="M106.43,76.49H93.76A25.06,25.06,0,0,1,68.7,51.43V199.84h62.79V51.43A25.06,25.06,0,0,1,106.43,76.49Z" transform="translate(-4.3 -1.89)"/><path class="cls-6" d="M106.43,76.49H93.76A25.06,25.06,0,0,1,68.7,51.43V199.84h62.79V51.43A25.06,25.06,0,0,1,106.43,76.49Z" transform="translate(-4.3 -1.89)"/><path class="cls-7" d="M106.43,76.49H93.76A25.06,25.06,0,0,1,68.7,51.43V199.84h62.79V51.43A25.06,25.06,0,0,1,106.43,76.49Z" transform="translate(-4.3 -1.89)"/><path id="Seite-Licht" class="cls-8" d="M194.28,120c0-41.08-32.3-61.31-44.07-64.12,0,0,30.79,15.79,31,49.63.14,22.49.38,94.34.38,94.34h12.7Z" transform="translate(-4.3 -1.89)"/><path class="cls-9" d="M131.49,53.41h-.08a25.07,25.07,0,0,1-25,23.08H93.76A25.06,25.06,0,0,1,68.7,51.43v-.06l-1.88.2c-26.66,6.8-46.64,32.29-46.64,60.84V200H172.24V112.41C172.24,86,155.15,62.22,131.49,53.41Z" transform="translate(-4.3 -1.89)"/><rect class="cls-10" x="63.49" y="49.62" width="0.91" height="148.48"/><rect class="cls-10" x="127.19" y="49.62" width="0.91" height="148.48"/></g></g></svg>