<svg xmlns="http://www.w3.org/2000/svg" xmlns:xlink="http://www.w3.org/1999/xlink" viewBox="0 0 200 200"><defs><style>.cls-1,.cls-7{fill:#fff;}.cls-1{opacity:0;}.cls-2,.cls-5,.cls-6{opacity:0.7;}.cls-3{fill:url(#Neues_Verlaufsfeld_2);}.cls-4{fill:url(#Neues_Verlaufsfeld_2-2);}.cls-5{fill:url(#Unbenannter_Verlauf_154);}.cls-6{fill:url(#Unbenannter_Verlauf_154-2);}.cls-7{opacity:0.1;}.cls-8{fill:url(#Unbenannter_Verlauf_79);}.cls-9{fill:url(#Unbenannter_Verlauf_79-2);}</style><linearGradient id="Neues_Verlaufsfeld_2" x1="5.9" y1="88.85" x2="194.28" y2="88.85" gradientUnits="userSpaceOnUse"><stop offset="0" stop-color="#8a8a8a"/><stop offset="0.04" stop-color="#9e9e9e"/><stop offset="0.15" stop-color="#bebebe"/><stop offset="0.32" stop-color="#ededed"/><stop offset="0.4" stop-color="#fff"/><stop offset="0.45" stop-color="#f6f6f6"/><stop offset="0.6" stop-color="#e0e0e0"/><stop offset="0.63" stop-color="#cacaca"/><stop offset="0.69" stop-color="#999"/><stop offset="0.75" stop-color="#7b7b7b"/><stop offset="0.78" stop-color="#707070"/><stop offset="0.82" stop-color="#737373"/><stop offset="0.85" stop-color="#7e7e7e"/><stop offset="0.88" stop-color="#909090"/><stop offset="0.91" stop-color="#a9a9a9"/><stop offset="0.94" stop-color="#c9c9c9"/><stop offset="0.96" stop-color="#efefef"/><stop offset="0.96" stop-color="#f0f0f0"/><stop offset="1" stop-color="#d9d9d9"/></linearGradient><linearGradient id="Neues_Verlaufsfeld_2-2" x1="5.9" y1="184.94" x2="194.28" y2="184.94" xlink:href="#Neues_Verlaufsfeld_2"/><linearGradient id="Unbenannter_Verlauf_154" x1="101.3" y1="37.45" x2="100.58" y2="87.29" gradientUnits="userSpaceOnUse"><stop offset="0" stop-color="#666"/><stop offset="0.7" stop-color="#9e9e9e" stop-opacity="0"/></linearGradient><linearGradient id="Unbenannter_Verlauf_154-2" x1="100.42" y1="163.69" x2="100.13" y2="184.07" xlink:href="#Unbenannter_Verlauf_154"/><linearGradient id="Unbenannter_Verlauf_79" x1="-6.47" y1="168.9" x2="82.69" y2="182.63" gradientUnits="userSpaceOnUse"><stop offset="0" stop-color="#fff"/><stop offset="0.02" stop-color="#fff" stop-opacity="0.86"/><stop offset="0.06" stop-color="#fff" stop-opacity="0.68"/><stop offset="0.1" stop-color="#fff" stop-opacity="0.52"/><stop offset="0.14" stop-color="#fff" stop-opacity="0.38"/><stop offset="0.18" stop-color="#fff" stop-opacity="0.26"/><stop offset="0.23" stop-color="#fff" stop-opacity="0.16"/><stop offset="0.29" stop-color="#fff" stop-opacity="0.09"/><stop offset="0.35" stop-color="#fff" stop-opacity="0.04"/><stop offset="0.43" stop-color="#fff" stop-opacity="0.01"/><stop offset="0.59" stop-color="#fff" stop-opacity="0"/></linearGradient><linearGradient id="Unbenannter_Verlauf_79-2" x1="65.02" y1="60.66" x2="119.59" y2="150.74" xlink:href="#Unbenannter_Verlauf_79"/></defs><g id="BG"><rect class="cls-1" width="200" height="200"/></g><g id="Diamanten"><g id="Spannring"><path class="cls-2" d="M99.89,172.85a23.91,23.91,0,1,1,23.9-23.9A23.93,23.93,0,0,1,99.89,172.85Zm0-42.78A18.88,18.88,0,1,0,118.77,149,18.9,18.9,0,0,0,99.89,130.07Z" transform="translate(-0.3 -0.19)"/><path class="cls-3" d="M190.28,127.85a4,4,0,0,0,4-4V120a68.64,68.64,0,0,0-60.14-68.26,287.58,287.58,0,0,0-34.76-1.89,285.86,285.86,0,0,0-32.5,1.72,68.83,68.83,0,0,0-61,68.36v3.93a4,4,0,0,0,4,4Z" transform="translate(-0.3 -0.19)"/><path class="cls-4" d="M5.9,174v25.8H194.28V174a4,4,0,0,0-4-4H9.9A4,4,0,0,0,5.9,174Z" transform="translate(-0.3 -0.19)"/><path class="cls-5" d="M190.28,127.85a4,4,0,0,0,4-4V120a68.64,68.64,0,0,0-60.14-68.26,287.58,287.58,0,0,0-34.76-1.89,285.86,285.86,0,0,0-32.5,1.72,68.83,68.83,0,0,0-61,68.36v3.93a4,4,0,0,0,4,4Z" transform="translate(-0.3 -0.19)"/><path class="cls-6" d="M5.9,174v25.8H194.28V174a4,4,0,0,0-4-4H9.9A4,4,0,0,0,5.9,174Z" transform="translate(-0.3 -0.19)"/><path class="cls-7" d="M181.48,170c.06,16.73.1,29.8.1,29.8h12.7V174a4,4,0,0,0-4-4Z" transform="translate(-0.3 -0.19)"/><path class="cls-7" d="M181.2,105.5c0,5.27.07,13.23.11,22.35h9a4,4,0,0,0,4-4V120c0-41.08-32.3-61.31-44.07-64.12C150.21,55.87,181,71.66,181.2,105.5Z" transform="translate(-0.3 -0.19)"/><rect class="cls-8" x="19.88" y="169.85" width="152.06" height="29.62"/><path class="cls-9" d="M172.24,127.85V114.29c0-33.39-27.32-64.21-60.71-64.21,0,0-10.72-.24-16.79-.19-5.44,0-13.84.59-13.84.59-33.39,0-60.72,30.42-60.72,63.81v13.56Z" transform="translate(-0.3 -0.19)"/></g></g></svg>