<svg xmlns="http://www.w3.org/2000/svg" xmlns:xlink="http://www.w3.org/1999/xlink" viewBox="0 0 265 200"><defs><style>.cls-1,.cls-7{fill:#fff;}.cls-1{opacity:0;}.cls-2{isolation:isolate;}.cls-3{fill:url(#Neues_Verlaufsfeld_1);}.cls-4{fill:#666;}.cls-5{fill:url(#Neues_Verlaufsfeld_4);}.cls-6{fill:#3e3e3e;}.cls-8{fill:url(#Neues_Verlaufsfeld_3);}</style><linearGradient id="Neues_Verlaufsfeld_1" x1="308.8" y1="208.26" x2="308.8" y2="102.08" gradientTransform="matrix(-1, 0, 0, 1, 680.11, 0)" gradientUnits="userSpaceOnUse"><stop offset="0" stop-color="#adadad"/><stop offset="0.18" stop-color="#cfcfcf"/><stop offset="0.58" stop-color="#767676"/><stop offset="0.86" stop-color="#3c3c3c"/><stop offset="1" stop-color="#262626"/></linearGradient><linearGradient id="Neues_Verlaufsfeld_4" x1="296.57" y1="214.86" x2="298.6" y2="59.97" gradientTransform="matrix(-1, 0, 0, 1, 680.11, 0)" gradientUnits="userSpaceOnUse"><stop offset="0" stop-color="#8a8a8a"/><stop offset="0.75" stop-color="#fff"/><stop offset="0.81" stop-color="#f6f6f6"/><stop offset="1" stop-color="#e0e0e0"/></linearGradient><linearGradient id="Neues_Verlaufsfeld_3" x1="383.38" y1="50.87" x2="383.38" y2="193.12" gradientTransform="matrix(-1, 0, 0, 1, 680.11, 0)" gradientUnits="userSpaceOnUse"><stop offset="0" stop-color="#666"/><stop offset="0.24" stop-color="#fff"/><stop offset="0.26" stop-color="#f9f9f9"/><stop offset="0.62" stop-color="#9d9d9d"/><stop offset="0.88" stop-color="#636363"/><stop offset="1" stop-color="#4d4d4d"/></linearGradient></defs><g id="BG_Kopie" data-name="BG Kopie"><rect class="cls-1" width="265" height="200"/></g><g id="Ebene_5" data-name="Ebene 5"><g id="Seitlich_Verschnitten_rechts" data-name="Seitlich Verschnitten rechts" class="cls-2"><path class="cls-3" d="M359.27,200q-.39-3.72-.88-7.37c-7.34-54.34-32.16-94.31-61.65-94.31h86.6c29.49,0,54.31,40,61.65,94.31q.5,3.65.88,7.37Z" transform="translate(-207.47)"/><path class="cls-4" d="M445.18,200c0-.32-.06-.65-.08-1-.18-2.22-.39-4.74-.6-6.32-7.47-55.28-32.62-93.88-61.16-93.88H304.77c25.63,6.42,47.28,43.17,54.12,93.75.22,1.61.41,4,.6,6.4l.09,1h-1c0-.31-.05-.63-.07-.95-.18-2.24-.39-4.77-.6-6.35-7.48-55.28-32.63-93.88-61.16-93.88v-1h86.6c29.05,0,54.61,39,62.15,94.75.22,1.6.41,4,.6,6.37l.09,1.06Z" transform="translate(-207.47)"/><path class="cls-5" d="M445.87,200c-6-58.05-31.72-101.68-62.53-101.68S326.82,142,320.81,200H296.72C303,115.6,339.39,50.87,383.34,50.87S463.67,115.6,470,200Z" transform="translate(-207.47)"/><path class="cls-4" d="M383.34,97.82c30.19,0,56.52,42.88,62.92,102.18h-1C438.89,141.27,413,98.82,383.34,98.82S327.79,141.27,321.43,200h-1C326.82,140.7,353.15,97.82,383.34,97.82Z" transform="translate(-207.47)"/><path class="cls-4" d="M469.37,200c-6.61-84.85-43.44-148.63-86-148.63s-79.43,63.78-86,148.63h-1c3.17-40.76,13.47-78.26,29.08-105.75,16.07-28.3,36.65-43.88,58-43.88s41.89,15.58,58,43.88c15.61,27.49,25.91,65,29.08,105.75Z" transform="translate(-207.47)"/><path class="cls-4" d="M328,100.18c15.8-27.85,35.59-41.79,55.38-41.79s39.52,13.89,55.31,41.66a11.21,11.21,0,0,1,.35,8.75l-6.19,15.09c-.62,1.53-1.52,2.3-2.43,2.3a2.64,2.64,0,0,1-2.14-1.63c-12.79-22.67-28.84-34-44.89-34s-32.15,11.37-44.95,34.1a2.63,2.63,0,0,1-2.13,1.64c-.91,0-1.81-.77-2.43-2.29l-6.21-15A11.29,11.29,0,0,1,328,100.18Z" transform="translate(-207.47)"/><path class="cls-6" d="M383.33,59.39c20,0,39.36,14.62,54.44,41.15a10.22,10.22,0,0,1,.29,7.89l-6.18,15.08c-.42,1-1,1.68-1.51,1.68s-.87-.42-1.27-1.12c-12.56-22.26-28.81-34.52-45.76-34.52s-33.25,12.29-45.82,34.61c-.39.71-.87,1.13-1.26,1.13s-1.09-.66-1.51-1.67l-6.21-15a10.25,10.25,0,0,1,.28-7.9c15.1-26.63,34.46-41.29,54.51-41.29m0-1c-19.79,0-39.58,13.94-55.38,41.79a11.29,11.29,0,0,0-.33,8.78l6.21,15c.62,1.52,1.52,2.29,2.43,2.29a2.63,2.63,0,0,0,2.13-1.64c12.8-22.73,28.87-34.1,44.95-34.1s32.1,11.34,44.89,34a2.64,2.64,0,0,0,2.14,1.63c.91,0,1.81-.77,2.43-2.3L439,108.8a11.21,11.21,0,0,0-.35-8.75c-15.79-27.77-35.54-41.66-55.31-41.66Z" transform="translate(-207.47)"/><path class="cls-7" d="M430.76,116.69c-.32,0-.63.28-.84.82a3.69,3.69,0,0,0,.19,3,.81.81,0,0,0,.65.45c.32,0,.63-.28.84-.82a3.68,3.68,0,0,0-.19-3A.81.81,0,0,0,430.76,116.69Z" transform="translate(-207.47)"/><path class="cls-7" d="M428.44,90.09c-.31,0-.63.28-.83.81a3.75,3.75,0,0,0,.18,3,.81.81,0,0,0,.65.45c.32,0,.63-.29.84-.83a3.73,3.73,0,0,0-.18-3A.81.81,0,0,0,428.44,90.09Z" transform="translate(-207.47)"/><path class="cls-7" d="M423.85,84.44c-.39,0-.76.43-1,1.16a3.37,3.37,0,0,0,.47,2.86.66.66,0,0,0,.48.23c.39,0,.76-.42.95-1.16a3.35,3.35,0,0,0-.47-2.85A.67.67,0,0,0,423.85,84.44Z" transform="translate(-207.47)"/><path class="cls-7" d="M419.75,100.62c-.39,0-.77.43-1,1.16a3.43,3.43,0,0,0,.47,2.87.72.72,0,0,0,.48.23c.39,0,.76-.43.95-1.17a3.38,3.38,0,0,0-.46-2.86A.68.68,0,0,0,419.75,100.62Z" transform="translate(-207.47)"/><path class="cls-7" d="M417.34,79.62c-2.19,0-4.24,2.75-5,7.13-1,5.53.51,11.56,3.27,13.47a3,3,0,0,0,1.74.59c2.19,0,4.24-2.76,5-7.13.95-5.54-.51-11.57-3.28-13.48A3,3,0,0,0,417.34,79.62Z" transform="translate(-207.47)"/><path class="cls-7" d="M410.18,71.82c-.46,0-.88.61-1,1.53a2.84,2.84,0,0,0,.73,2.63.58.58,0,0,0,.3.09c.46,0,.88-.6,1-1.54a2.83,2.83,0,0,0-.73-2.63A.67.67,0,0,0,410.18,71.82Z" transform="translate(-207.47)"/><path class="cls-7" d="M404.13,69.36c-2.59,0-4.85,3.79-5.24,9.06-.42,5.79,1.59,11.17,4.48,12a3,3,0,0,0,.77.11c2.59,0,4.85-3.79,5.23-9.07.42-5.79-1.58-11.16-4.47-12A3,3,0,0,0,404.13,69.36Z" transform="translate(-207.47)"/><path class="cls-7" d="M390.35,64.23h-.21c-2.92.23-5.2,5.15-5.08,11s2.46,10.17,5.28,10.17h.22c2.92-.23,5.19-5.15,5.08-11S393.18,64.23,390.35,64.23Z" transform="translate(-207.47)"/><path class="cls-7" d="M385.79,62.62c-.54,0-1,.82-1.05,1.92s.37,2.22.95,2.32l.11,0c.54,0,1-.83,1.05-1.92s-.37-2.21-1-2.33Z" transform="translate(-207.47)"/><path class="cls-7" d="M384.91,80.8c-.54,0-1,.82-1.06,1.91s.37,2.22,1,2.33h.1c.54,0,1-.82,1.06-1.92s-.38-2.21-1-2.32Z" transform="translate(-207.47)"/><path class="cls-7" d="M380.94,62.73h-.09c-.59.1-1,1.14-1,2.31s.51,1.94,1.06,1.94H381c.59-.1,1-1.13,1-2.3S381.48,62.73,380.94,62.73Z" transform="translate(-207.47)"/><path class="cls-7" d="M371.76,82.63h-.09c-.58.1-1,1.14-1,2.31s.51,1.94,1.06,1.94h.09c.59-.1,1-1.13,1-2.3S372.31,82.63,371.76,82.63Z" transform="translate(-207.47)"/><path class="cls-7" d="M371,64.45h-.09c-.59.1-1,1.14-1,2.31s.51,1.94,1.06,1.94h.09c.58-.11,1-1.13,1-2.3S371.53,64.45,371,64.45Z" transform="translate(-207.47)"/><path class="cls-7" d="M366.16,66.34a.65.65,0,0,0-.29.07,2.82,2.82,0,0,0-.73,2.62c.13,1,.55,1.56,1,1.56a.67.67,0,0,0,.29-.08,2.79,2.79,0,0,0,.73-2.61C367.05,67,366.63,66.34,366.16,66.34Z" transform="translate(-207.47)"/><path class="cls-7" d="M359,89.28a.53.53,0,0,0-.29.08,2.79,2.79,0,0,0-.74,2.61c.13.94.56,1.56,1,1.56a.6.6,0,0,0,.28-.08,2.8,2.8,0,0,0,.74-2.62C359.86,89.89,359.43,89.28,359,89.28Z" transform="translate(-207.47)"/><path class="cls-7" d="M362.58,69.34a3.22,3.22,0,0,0-2.09.86c-2.69,2.33-3.93,8.55-2.77,13.93.87,4,2.82,6.39,4.86,6.39a3.19,3.19,0,0,0,2.1-.87c2.69-2.31,3.93-8.55,2.77-13.91C366.58,71.73,364.63,69.34,362.58,69.34Z" transform="translate(-207.47)"/><path class="cls-7" d="M356.53,71.68a.63.63,0,0,0-.29.08,2.8,2.8,0,0,0-.74,2.61c.13.94.56,1.56,1,1.56a.58.58,0,0,0,.28-.07,2.82,2.82,0,0,0,.74-2.62C357.42,72.29,357,71.68,356.53,71.68Z" transform="translate(-207.47)"/><path class="cls-7" d="M355.83,91.72a.66.66,0,0,0-.47.22,3.35,3.35,0,0,0-.49,2.84c.19.76.57,1.19,1,1.19a.66.66,0,0,0,.47-.22,3.34,3.34,0,0,0,.48-2.85C356.59,92.15,356.22,91.72,355.83,91.72Z" transform="translate(-207.47)"/><path class="cls-7" d="M351.81,75.45a.66.66,0,0,0-.47.22,3.35,3.35,0,0,0-.48,2.84c.18.75.56,1.19.95,1.19a.68.68,0,0,0,.47-.23,3.31,3.31,0,0,0,.49-2.84C352.58,75.88,352.21,75.45,351.81,75.45Z" transform="translate(-207.47)"/><path class="cls-7" d="M346.89,100.66a.66.66,0,0,0-.47.22,3.37,3.37,0,0,0-.49,2.86c.19.75.56,1.18,1,1.18a.68.68,0,0,0,.47-.22,3.37,3.37,0,0,0,.48-2.85C347.65,101.1,347.28,100.66,346.89,100.66Z" transform="translate(-207.47)"/><path class="cls-7" d="M349.37,79.58a3.8,3.8,0,0,0-3,1.82c-2.42,3.28-3,9.86-1.41,14.71,1,3,2.69,4.65,4.38,4.65a3.8,3.8,0,0,0,3-1.82c2.42-3.28,3.05-9.86,1.42-14.71C352.73,81.21,351.06,79.58,349.37,79.58Z" transform="translate(-207.47)"/><path class="cls-7" d="M342.85,84.29a.66.66,0,0,0-.47.22,3.34,3.34,0,0,0-.49,2.85c.19.75.57,1.19,1,1.19a.66.66,0,0,0,.47-.22,3.38,3.38,0,0,0,.48-2.85C343.62,84.73,343.24,84.29,342.85,84.29Z" transform="translate(-207.47)"/><path class="cls-7" d="M338.31,90.11a.82.82,0,0,0-.65.43,3.76,3.76,0,0,0-.2,3c.21.55.53.84.85.84a.81.81,0,0,0,.64-.43,3.68,3.68,0,0,0,.2-3C338.94,90.4,338.63,90.11,338.31,90.11Z" transform="translate(-207.47)"/><path class="cls-7" d="M335.88,116.75a.82.82,0,0,0-.65.43,3.76,3.76,0,0,0-.2,3c.21.55.53.84.85.84a.81.81,0,0,0,.64-.43,3.68,3.68,0,0,0,.2-3C336.51,117,336.2,116.75,335.88,116.75Z" transform="translate(-207.47)"/><path class="cls-7" d="M337.11,95c-1.36,0-2.71,1-3.75,3.11a18.86,18.86,0,0,0,0,15c1,2.07,2.39,3.1,3.74,3.1s2.72-1,3.75-3.11a18.89,18.89,0,0,0,0-15C339.82,96,338.46,95,337.11,95Z" transform="translate(-207.47)"/><path class="cls-7" d="M330.35,102.21a.84.84,0,0,0-.65.44,3.76,3.76,0,0,0-.2,3c.21.55.53.84.85.84A.8.8,0,0,0,331,106a3.68,3.68,0,0,0,.2-3C331,102.5,330.67,102.21,330.35,102.21Z" transform="translate(-207.47)"/><path class="cls-7" d="M436.33,102.37c-.31,0-.63.28-.84.82a3.75,3.75,0,0,0,.19,3,.8.8,0,0,0,.65.44c.32,0,.63-.28.84-.82a3.73,3.73,0,0,0-.18-3A.84.84,0,0,0,436.33,102.37Z" transform="translate(-207.47)"/><path class="cls-7" d="M429.6,95c-1.83,0-3.6,1.89-4.58,5.28-1.47,5.07-.6,11.55,1.92,14.47a3.56,3.56,0,0,0,2.66,1.43c1.82,0,3.6-1.89,4.58-5.28,1.47-5.07.6-11.55-1.93-14.47A3.54,3.54,0,0,0,429.6,95Z" transform="translate(-207.47)"/><path class="cls-7" d="M414.94,75.39c-.39,0-.76.43-.95,1.17a3.36,3.36,0,0,0,.46,2.85.68.68,0,0,0,.49.23c.38,0,.76-.42.94-1.17a3.36,3.36,0,0,0-.46-2.85A.72.72,0,0,0,414.94,75.39Z" transform="translate(-207.47)"/><path class="cls-7" d="M410.8,91.67c-.38,0-.76.43-.95,1.17a3.39,3.39,0,0,0,.47,2.85.68.68,0,0,0,.48.23c.39,0,.76-.42.95-1.16a3.34,3.34,0,0,0-.47-2.86A.68.68,0,0,0,410.8,91.67Z" transform="translate(-207.47)"/><path class="cls-7" d="M400.58,66.26c-.46,0-.88.61-1,1.53a2.84,2.84,0,0,0,.73,2.64.51.51,0,0,0,.29.08c.46,0,.89-.6,1-1.54a2.83,2.83,0,0,0-.72-2.63A.56.56,0,0,0,400.58,66.26Z" transform="translate(-207.47)"/><path class="cls-7" d="M395.74,64.57c-.54,0-1,.82-1.05,1.92s.37,2.2.95,2.32h.11c.54,0,1-.82,1.05-1.92s-.37-2.21-.95-2.32Z" transform="translate(-207.47)"/><path class="cls-7" d="M394.87,82.62c-.55,0-1,.83-1.06,1.93s.37,2.2.95,2.32h.1c.54,0,1-.82,1.06-1.92s-.37-2.21-.95-2.33Z" transform="translate(-207.47)"/><path class="cls-7" d="M368.59,83.82a.63.63,0,0,0-.29.08,2.79,2.79,0,0,0-.74,2.62c.13.94.56,1.55,1,1.55a.62.62,0,0,0,.29-.07,2.82,2.82,0,0,0,.74-2.62C369.48,84.44,369.05,83.82,368.59,83.82Z" transform="translate(-207.47)"/><path class="cls-7" d="M422.84,104.49c-.32,0-.63.28-.84.82a3.72,3.72,0,0,0,.18,3,.84.84,0,0,0,.66.45c.31,0,.62-.28.83-.82a3.69,3.69,0,0,0-.18-3A.84.84,0,0,0,422.84,104.49Z" transform="translate(-207.47)"/><path class="cls-7" d="M407.66,89.25c-.46,0-.89.6-1,1.54a2.82,2.82,0,0,0,.72,2.62.58.58,0,0,0,.3.09c.46,0,.89-.61,1-1.53a2.84,2.84,0,0,0-.72-2.64A.56.56,0,0,0,407.66,89.25Z" transform="translate(-207.47)"/><path class="cls-7" d="M398,83.8c-.46,0-.88.6-1,1.53-.16,1.13.16,2.31.73,2.63a.58.58,0,0,0,.3.09c.46,0,.88-.61,1-1.54a2.83,2.83,0,0,0-.72-2.63A.56.56,0,0,0,398,83.8Z" transform="translate(-207.47)"/><path class="cls-7" d="M381.72,80.81h-.1c-.58.1-1,1.14-1,2.31s.51,1.94,1.06,1.94h.09c.58-.1,1-1.13,1-2.3S382.26,80.81,381.72,80.81Z" transform="translate(-207.47)"/><path class="cls-7" d="M376.38,64.22a2.83,2.83,0,0,0-1.18.26c-2.85,1.3-4.64,7-4,12.67.55,4.92,2.74,8.26,5.16,8.26a2.77,2.77,0,0,0,1.17-.27c2.85-1.29,4.64-7,4-12.67C381,67.55,378.8,64.22,376.38,64.22Z" transform="translate(-207.47)"/><path class="cls-7" d="M343.8,104.55a.84.84,0,0,0-.65.44,3.76,3.76,0,0,0-.2,3c.21.55.53.84.85.84a.8.8,0,0,0,.64-.44,3.68,3.68,0,0,0,.2-3C344.43,104.84,344.12,104.55,343.8,104.55Z" transform="translate(-207.47)"/><path class="cls-8" d="M374.4,51.77a49.32,49.32,0,0,0-10,3.19,62.18,62.18,0,0,0-14.08,8.75c-9,7.34-17.29,17.59-24.52,30.18a179.42,179.42,0,0,0-10.4,21.48q-3.21,7.86-5.95,16.45-2.28,7.13-4.21,14.69-1.72,6.75-3.16,13.82-1.35,6.66-2.43,13.57-1,6.71-1.82,13.63c-.46,4.1-.83,8.27-1.15,12.47h-86.6c.31-4.2.69-8.37,1.15-12.47q.78-6.92,1.82-13.63,1.08-6.92,2.43-13.57,1.42-7.07,3.15-13.82,1.94-7.56,4.21-14.69,2.75-8.58,6-16.45a179.42,179.42,0,0,1,10.4-21.48c7.23-12.59,15.5-22.84,24.52-30.18A62.18,62.18,0,0,1,277.84,55a49.12,49.12,0,0,1,10-3.19,45.19,45.19,0,0,1,8.62-.9H383A45.27,45.27,0,0,0,374.4,51.77Z" transform="translate(-207.47)"/><path class="cls-4" d="M374.5,52.26a48.91,48.91,0,0,0-9.86,3.16,61.56,61.56,0,0,0-14,8.68c-8.9,7.24-17.11,17.35-24.4,30a176.88,176.88,0,0,0-10.37,21.42c-2.14,5.22-4.14,10.74-6,16.42-1.51,4.72-2.92,9.65-4.2,14.66-1.14,4.48-2.21,9.12-3.15,13.79-.9,4.43-1.71,9-2.42,13.55s-1.31,9.05-1.82,13.61c-.4,3.58-.74,8.24-1,12.36V200h-1v-.12c.3-4.13.63-8.8,1-12.4.52-4.57,1.13-9.17,1.83-13.66s1.53-9.15,2.43-13.59c.95-4.68,2-9.34,3.16-13.84,1.28-5,2.7-10,4.22-14.72,1.82-5.69,3.83-11.24,6-16.49a178.87,178.87,0,0,1,10.43-21.54c7.35-12.8,15.64-23,24.64-30.32a62.78,62.78,0,0,1,14.19-8.82,49.85,49.85,0,0,1,9.63-3.13H296.42a44.57,44.57,0,0,0-8.52.89A48.71,48.71,0,0,0,278,55.42a61.35,61.35,0,0,0-14,8.68c-8.91,7.24-17.11,17.35-24.41,30a179.9,179.9,0,0,0-10.37,21.42c-2.13,5.22-4.13,10.74-5.94,16.42-1.51,4.72-2.93,9.65-4.2,14.66-1.15,4.48-2.21,9.12-3.15,13.79-.9,4.45-1.72,9-2.42,13.55s-1.31,9-1.82,13.61c-.41,3.58-.74,8.24-1,12.36V200h-1v-.12c.29-4.13.63-8.8,1-12.4.52-4.6,1.13-9.19,1.83-13.66s1.52-9.12,2.43-13.59c.95-4.68,2-9.34,3.16-13.84,1.28-5,2.7-10,4.22-14.72,1.82-5.69,3.83-11.24,6-16.49a178.87,178.87,0,0,1,10.43-21.54c7.35-12.8,15.64-23,24.64-30.32a62.78,62.78,0,0,1,14.19-8.82,49.84,49.84,0,0,1,10.06-3.22,45.83,45.83,0,0,1,8.71-.91h86.93v1H383A44.65,44.65,0,0,0,374.5,52.26Z" transform="translate(-207.47)"/></g></g></svg>