<svg xmlns="http://www.w3.org/2000/svg" xmlns:xlink="http://www.w3.org/1999/xlink" viewBox="0 0 200 200.09"><defs><style>.cls-1,.cls-6,.cls-9{fill:#fff;}.cls-1{opacity:0;}.cls-2{fill:url(#Neues_Verlaufsfeld_2);}.cls-3{fill:#b2b2b2;}.cls-4{fill:none;}.cls-5{fill:#3e3e3e;}.cls-7,.cls-8{opacity:0.7;}.cls-8{fill:url(#Unbenannter_Verlauf_154);}.cls-9{opacity:0.1;}.cls-10{fill:url(#Unbenannter_Verlauf_79);}</style><linearGradient id="Neues_Verlaufsfeld_2" x1="5.9" y1="124.84" x2="194.28" y2="124.84" gradientUnits="userSpaceOnUse"><stop offset="0" stop-color="#8a8a8a"/><stop offset="0.04" stop-color="#9e9e9e"/><stop offset="0.15" stop-color="#bebebe"/><stop offset="0.32" stop-color="#ededed"/><stop offset="0.4" stop-color="#fff"/><stop offset="0.45" stop-color="#f6f6f6"/><stop offset="0.6" stop-color="#e0e0e0"/><stop offset="0.63" stop-color="#cacaca"/><stop offset="0.69" stop-color="#999"/><stop offset="0.75" stop-color="#7b7b7b"/><stop offset="0.78" stop-color="#707070"/><stop offset="0.82" stop-color="#737373"/><stop offset="0.85" stop-color="#7e7e7e"/><stop offset="0.88" stop-color="#909090"/><stop offset="0.91" stop-color="#a9a9a9"/><stop offset="0.94" stop-color="#c9c9c9"/><stop offset="0.96" stop-color="#efefef"/><stop offset="0.96" stop-color="#f0f0f0"/><stop offset="1" stop-color="#d9d9d9"/></linearGradient><linearGradient id="Unbenannter_Verlauf_154" x1="102" y1="26.22" x2="100.64" y2="121.32" gradientUnits="userSpaceOnUse"><stop offset="0" stop-color="#666"/><stop offset="0.7" stop-color="#9e9e9e" stop-opacity="0"/></linearGradient><linearGradient id="Unbenannter_Verlauf_79" x1="51.19" y1="73.28" x2="133.84" y2="209.7" gradientUnits="userSpaceOnUse"><stop offset="0" stop-color="#fff"/><stop offset="0.02" stop-color="#fff" stop-opacity="0.86"/><stop offset="0.06" stop-color="#fff" stop-opacity="0.68"/><stop offset="0.1" stop-color="#fff" stop-opacity="0.52"/><stop offset="0.14" stop-color="#fff" stop-opacity="0.38"/><stop offset="0.18" stop-color="#fff" stop-opacity="0.26"/><stop offset="0.23" stop-color="#fff" stop-opacity="0.16"/><stop offset="0.29" stop-color="#fff" stop-opacity="0.09"/><stop offset="0.35" stop-color="#fff" stop-opacity="0.04"/><stop offset="0.43" stop-color="#fff" stop-opacity="0.01"/><stop offset="0.59" stop-color="#fff" stop-opacity="0"/></linearGradient></defs><g id="BG"><rect class="cls-1" width="200" height="200"/></g><g id="Position"><g id="Mittig"><path id="Einfarbig" class="cls-2" d="M194.28,120a68.64,68.64,0,0,0-60.14-68.26,287.58,287.58,0,0,0-34.76-1.89,284.31,284.31,0,0,0-32.73,1.75A68.77,68.77,0,0,0,5.9,119.92v79.92H194.28Z" transform="translate(0.11)"/><path class="cls-3" d="M99.38,49.84c-2.34,0-4.61,0-6.83.08V199.84h14.6V49.92C104.63,49.87,102.05,49.84,99.38,49.84Z" transform="translate(0.11)"/><path class="cls-4" d="M134.14,51.73a284.76,284.76,0,0,0-32.23-1.88l-9.36,9.37V56.39l6.54-6.55h.29a284.31,284.31,0,0,0-32.73,1.75A68.77,68.77,0,0,0,5.9,119.92v79.92H95.38L107,188.18V191l-8.83,8.83h96.07V120A68.64,68.64,0,0,0,134.14,51.73ZM107,178.82,92.55,193.31v-2.83L107,176Zm0-12.19L92.55,181.12v-2.83L107,163.8Zm0-12.19L92.55,168.93V166.1L107,151.61Zm0-12.19L92.55,156.74v-2.83L107,139.42Zm0-12.19L92.55,144.55v-2.83L107,127.23Zm0-12.19L92.55,132.36v-2.83L107,115Zm0-12.19L92.55,120.17v-2.83L107,102.85Zm0-12.19L92.55,108v-2.83L107,90.66Zm0-12.19L92.55,95.79V93L107,78.47Zm0-12.19L92.55,83.6V80.77L107,66.28Zm0-12.19L92.55,71.41V68.58L107,54.09Z" transform="translate(0.11)"/><path class="cls-5" d="M92.55,56.39v2.83l9.36-9.37H99.09Z" transform="translate(0.11)"/><polygon class="cls-5" points="92.66 71.41 107.15 56.92 107.15 54.09 92.66 68.58 92.66 71.41"/><polygon class="cls-5" points="92.66 83.6 107.15 69.11 107.15 66.28 92.66 80.77 92.66 83.6"/><polygon class="cls-5" points="92.66 95.79 107.15 81.3 107.15 78.47 92.66 92.96 92.66 95.79"/><polygon class="cls-5" points="92.66 107.98 107.15 93.49 107.15 90.66 92.66 105.15 92.66 107.98"/><polygon class="cls-5" points="92.66 120.17 107.15 105.68 107.15 102.85 92.66 117.34 92.66 120.17"/><polygon class="cls-5" points="92.66 132.36 107.15 117.87 107.15 115.04 92.66 129.53 92.66 132.36"/><polygon class="cls-5" points="92.66 144.55 107.15 130.06 107.15 127.23 92.66 141.72 92.66 144.55"/><polygon class="cls-5" points="92.66 156.74 107.15 142.25 107.15 139.42 92.66 153.91 92.66 156.74"/><polygon class="cls-5" points="92.66 168.93 107.15 154.44 107.15 151.61 92.66 166.1 92.66 168.93"/><polygon class="cls-5" points="92.66 181.12 107.15 166.63 107.15 163.8 92.66 178.29 92.66 181.12"/><polygon class="cls-5" points="92.66 193.31 107.15 178.82 107.15 175.99 92.66 190.49 92.66 193.31"/><polygon class="cls-5" points="107.15 188.19 95.5 199.84 98.32 199.84 107.15 191.01 107.15 188.19"/><circle class="cls-6" cx="100" cy="130.99" r="18.98"/><path class="cls-7" d="M83.48,131A16.41,16.41,0,1,1,99.89,147.4,16.43,16.43,0,0,1,83.48,131Zm3.45,0a13,13,0,1,0,13-13A13,13,0,0,0,86.93,131Z" transform="translate(0.11)"/><path id="Top-Schatten" class="cls-8" d="M194.28,120a68.64,68.64,0,0,0-60.14-68.26,287.58,287.58,0,0,0-34.76-1.89,284.31,284.31,0,0,0-32.73,1.75A68.77,68.77,0,0,0,5.9,119.92v79.92H194.28Z" transform="translate(0.11)"/><path id="Seite-Licht" class="cls-9" d="M194.28,120c0-41.08-32.3-61.31-44.07-64.12,0,0,30.79,15.79,31,49.63.14,22.49.38,94.34.38,94.34h12.7Z" transform="translate(0.11)"/><path id="Glanzlicht" class="cls-10" d="M172.24,200.09v-87.6c0-33.39-27.32-62.61-60.71-62.61H80.9c-33.39,0-60.72,29.22-60.72,62.61v87.6Z" transform="translate(0.11)"/></g></g></svg>