<svg xmlns="http://www.w3.org/2000/svg" xmlns:xlink="http://www.w3.org/1999/xlink" viewBox="0 0 265 200"><defs><style>.cls-1,.cls-6{fill:#fff;}.cls-1{opacity:0;}.cls-2{isolation:isolate;}.cls-3{fill:url(#Neues_Verlaufsfeld_1);}.cls-4{fill:#666;}.cls-5{fill:url(#Neues_Verlaufsfeld_4);}.cls-7{fill:#3e3e3e;}.cls-8{fill:url(#Neues_Verlaufsfeld_3);}</style><linearGradient id="Neues_Verlaufsfeld_1" x1="308.8" y1="208.26" x2="308.8" y2="102.08" gradientUnits="userSpaceOnUse"><stop offset="0" stop-color="#adadad"/><stop offset="0.18" stop-color="#cfcfcf"/><stop offset="0.58" stop-color="#767676"/><stop offset="0.86" stop-color="#3c3c3c"/><stop offset="1" stop-color="#262626"/></linearGradient><linearGradient id="Neues_Verlaufsfeld_4" x1="296.57" y1="214.86" x2="298.6" y2="59.97" gradientUnits="userSpaceOnUse"><stop offset="0" stop-color="#8a8a8a"/><stop offset="0.75" stop-color="#fff"/><stop offset="0.81" stop-color="#f6f6f6"/><stop offset="1" stop-color="#e0e0e0"/></linearGradient><linearGradient id="Neues_Verlaufsfeld_3" x1="383.38" y1="50.87" x2="383.38" y2="193.12" gradientUnits="userSpaceOnUse"><stop offset="0" stop-color="#666"/><stop offset="0.24" stop-color="#fff"/><stop offset="0.26" stop-color="#f9f9f9"/><stop offset="0.62" stop-color="#9d9d9d"/><stop offset="0.88" stop-color="#636363"/><stop offset="1" stop-color="#4d4d4d"/></linearGradient></defs><g id="BG_Kopie" data-name="BG Kopie"><rect class="cls-1" width="265" height="200"/></g><g id="Ebene_5" data-name="Ebene 5"><g id="Seitlich_Kanal_links" data-name="Seitlich Kanal links" class="cls-2"><path class="cls-3" d="M320.84,200q.39-3.72.87-7.37c7.35-54.34,32.17-94.31,61.66-94.31h-86.6c-29.49,0-54.31,40-61.66,94.31q-.5,3.65-.87,7.37Z" transform="translate(-207.47)"/><path class="cls-4" d="M234.93,200c0-.32,0-.65.08-1,.18-2.22.38-4.74.6-6.32,7.47-55.28,32.62-93.88,61.16-93.88h78.57c-25.64,6.42-47.29,43.17-54.12,93.75-.22,1.61-.42,4-.61,6.4,0,.35-.05.69-.08,1h1c0-.31.05-.63.08-.95.18-2.24.38-4.77.6-6.35,7.47-55.28,32.62-93.88,61.16-93.88v-1h-86.6c-29.06,0-54.61,39-62.15,94.75-.22,1.6-.42,4-.61,6.37,0,.36,0,.71-.08,1.06Z" transform="translate(-207.47)"/><path class="cls-5" d="M234.24,200C240.25,142,266,98.32,296.77,98.32S353.28,142,359.3,200h24.09c-6.29-84.4-42.68-149.13-86.62-149.13S216.44,115.6,210.14,200Z" transform="translate(-207.47)"/><path class="cls-4" d="M296.77,97.82c-30.19,0-56.52,42.88-62.92,102.18h1c6.36-58.73,32.26-101.18,61.91-101.18S352.32,141.27,358.68,200h1C353.28,140.7,327,97.82,296.77,97.82Z" transform="translate(-207.47)"/><path class="cls-4" d="M210.73,200c6.61-84.85,43.45-148.63,86-148.63s79.42,63.78,86,148.63h1c-3.16-40.76-13.47-78.26-29.07-105.75-16.07-28.3-36.65-43.88-58-43.88s-41.9,15.58-58,43.88c-15.61,27.49-25.91,65-29.08,105.75Z" transform="translate(-207.47)"/><g class="cls-2"><path class="cls-4" d="M296.77,61.49c20.07,0,39.38,14.57,54.39,41a6,6,0,0,1,.17,4.62l-6.21,15c-.31.76-.78,1.2-1.27,1.2a1.42,1.42,0,0,1-1.14-.88c-12.66-22.48-29-34.86-45.94-34.86S263.53,100,250.88,122.41c-.32.57-.72.89-1.14.89s-1-.45-1.28-1.21L242.28,107a5.87,5.87,0,0,1,.18-4.61C257.45,76,276.74,61.49,296.77,61.49Z" transform="translate(-207.47)"/><path class="cls-6" d="M289,75a19.81,19.81,0,0,0-2.86-10,7.55,7.55,0,0,0-1.45-1.64,49.33,49.33,0,0,0-8.53,3.45,19.39,19.39,0,0,0-1.05,2.75,26.34,26.34,0,0,0-.64,11.47A19.64,19.64,0,0,0,278,90a6.83,6.83,0,0,0,2,1.74,40.12,40.12,0,0,1,6-2.43,17.21,17.21,0,0,0,1.53-3.25A30,30,0,0,0,289,75Z" transform="translate(-207.47)"/><path class="cls-6" d="M302,85.23A25.34,25.34,0,0,0,304.6,75a24.13,24.13,0,0,0-1.77-11,15.1,15.1,0,0,0-1.23-2.18,43.32,43.32,0,0,0-4.83-.29c-1.32,0-2.63.07-3.95.2l-.11.14a13.56,13.56,0,0,0-1.13,2,24.16,24.16,0,0,0-1.82,11,25.39,25.39,0,0,0,2.51,10.33,11.82,11.82,0,0,0,1.07,1.68,9.27,9.27,0,0,0,.78.94c.88-.07,1.76-.11,2.65-.11,1.13,0,2.26.06,3.38.17A10.19,10.19,0,0,0,302,85.23Z" transform="translate(-207.47)"/><path class="cls-6" d="M316.27,90.38a19.42,19.42,0,0,0,3.57-9,26.59,26.59,0,0,0-.58-11.52,18.71,18.71,0,0,0-1.07-2.75,49.8,49.8,0,0,0-8.48-3.62,6.81,6.81,0,0,0-1.45,1.59,19.75,19.75,0,0,0-2.92,10,29.73,29.73,0,0,0,1.4,11.11,18.94,18.94,0,0,0,1.52,3.33,41,41,0,0,1,6,2.54A6.42,6.42,0,0,0,316.27,90.38Z" transform="translate(-207.47)"/><path class="cls-6" d="M334.07,94.12a26.86,26.86,0,0,0,.64-11.55,23.47,23.47,0,0,0-.89-3.49,76,76,0,0,0-7.63-6.74,5.25,5.25,0,0,0-1.74,1c-1.84,1.59-3.25,4.65-3.91,8.6a32.17,32.17,0,0,0,.22,11.42A21.16,21.16,0,0,0,321.81,97a63.6,63.6,0,0,1,5.87,5.2,4.37,4.37,0,0,0,2-.85C331.38,100.17,333,97.73,334.07,94.12Z" transform="translate(-207.47)"/><path class="cls-6" d="M340.67,117.82a4.09,4.09,0,0,0,.91-.1c1.82-.45,3.7-2.2,5.1-5.29a24.12,24.12,0,0,0,1.81-11,26.75,26.75,0,0,0-.31-3c-.08-.47-.18-.93-.29-1.4q-3.09-4.9-6.38-9.17a3.68,3.68,0,0,0-.66-.06,4.11,4.11,0,0,0-1.43.26c-1.94.72-3.65,3.16-4.71,6.75a31.73,31.73,0,0,0-1,11.3,25.61,25.61,0,0,0,.57,3.57,96.15,96.15,0,0,1,5.57,8c.12,0,.24.06.36.07Z" transform="translate(-207.47)"/><path class="cls-6" d="M259.54,94.12c-1-3.59-2.73-6.08-4.67-6.86a3.85,3.85,0,0,0-1.45-.28,3.51,3.51,0,0,0-.72.07q-3.24,4.11-6.3,8.84a25.51,25.51,0,0,0-.67,4.52,24.45,24.45,0,0,0,1.77,11c1.38,3.11,3.24,4.88,5.06,5.35a5.05,5.05,0,0,0,1.16.15,3.44,3.44,0,0,0,.46,0,97.07,97.07,0,0,1,5.75-8.08,26.9,26.9,0,0,0,.55-3.44A31.33,31.33,0,0,0,259.54,94.12Z" transform="translate(-207.47)"/><path class="cls-6" d="M273.77,81.42c-.64-4-2-7-3.86-8.65a4.3,4.3,0,0,0-1.75-1,73.22,73.22,0,0,0-7.62,6.53,22.22,22.22,0,0,0-.93,3.57,26.1,26.1,0,0,0-.34,5.82,26.18,26.18,0,0,0,.92,5.72,18,18,0,0,0,1.93,4.55,10.88,10.88,0,0,0,1.18,1.6,8.3,8.3,0,0,0,1.29,1.19,4.42,4.42,0,0,0,1.89.85,59.77,59.77,0,0,1,6-5.13,27.65,27.65,0,0,0,1-3.57A32.05,32.05,0,0,0,273.77,81.42Z" transform="translate(-207.47)"/><path class="cls-7" d="M343.85,123.89a1.89,1.89,0,0,1-1.58-1.13c-12.56-22.32-28.72-34.61-45.5-34.61s-32.9,12.25-45.45,34.51a1.93,1.93,0,0,1-1.58,1.14c-.71,0-1.35-.56-1.74-1.52l-6.18-15.08a6.44,6.44,0,0,1,.2-5C257.11,75.61,276.55,61,296.77,61s39.73,14.67,54.82,41.3a6.39,6.39,0,0,1,.2,5l-6.21,15C345.19,123.34,344.56,123.89,343.85,123.89ZM296.77,87.15c17.15,0,33.62,12.47,46.37,35.12.22.38.48.62.71.62s.59-.34.81-.89l6.21-15a5.47,5.47,0,0,0-.15-4.18C335.81,76.48,316.65,62,296.77,62s-39,14.44-53.88,40.65a5.41,5.41,0,0,0-.15,4.17l6.19,15.09c.22.55.54.9.81.9s.48-.24.7-.63C263.19,99.58,279.64,87.15,296.77,87.15Z" transform="translate(-207.47)"/></g><path class="cls-8" d="M305.7,51.77a49.2,49.2,0,0,1,10,3.19,62.12,62.12,0,0,1,14.07,8.75c9,7.34,17.29,17.59,24.52,30.18a177.91,177.91,0,0,1,10.4,21.48q3.21,7.86,6,16.45,2.28,7.13,4.21,14.69,1.73,6.75,3.16,13.82,1.33,6.66,2.42,13.57,1.05,6.71,1.82,13.63c.46,4.1.84,8.27,1.15,12.47H470c-.32-4.2-.69-8.37-1.15-12.47q-.78-6.92-1.83-13.63-1.06-6.92-2.42-13.57-1.44-7.07-3.16-13.82-1.92-7.56-4.21-14.69-2.75-8.58-6-16.45a177.93,177.93,0,0,0-10.41-21.48c-7.22-12.59-15.5-22.84-24.52-30.18A62.12,62.12,0,0,0,402.27,55a49.32,49.32,0,0,0-10-3.19,45.27,45.27,0,0,0-8.62-.9H297.08A45.19,45.19,0,0,1,305.7,51.77Z" transform="translate(-207.47)"/><path class="cls-4" d="M305.61,52.26a48.63,48.63,0,0,1,9.85,3.16,61.4,61.4,0,0,1,14,8.68c8.9,7.24,17.11,17.35,24.4,30a179.9,179.9,0,0,1,10.37,21.42c2.13,5.22,4.13,10.74,5.94,16.42,1.52,4.72,2.93,9.65,4.21,14.66,1.14,4.48,2.2,9.12,3.15,13.79.89,4.43,1.71,9,2.42,13.55s1.31,9.05,1.82,13.61c.4,3.58.73,8.24,1,12.36V200h1v-.12c-.3-4.13-.64-8.8-1-12.4-.51-4.57-1.13-9.17-1.82-13.66s-1.53-9.15-2.43-13.59c-1-4.68-2-9.34-3.17-13.84-1.28-5-2.7-10-4.21-14.72-1.82-5.69-3.83-11.24-6-16.49A181.93,181.93,0,0,0,354.7,93.64c-7.35-12.8-15.64-23-24.64-30.32a63,63,0,0,0-14.19-8.82,49.85,49.85,0,0,0-9.63-3.13h77.44a44.75,44.75,0,0,1,8.53.89,48.91,48.91,0,0,1,9.86,3.16,61.56,61.56,0,0,1,14,8.68c8.9,7.24,17.11,17.35,24.4,30a179.9,179.9,0,0,1,10.37,21.42c2.13,5.22,4.13,10.74,5.95,16.42,1.51,4.72,2.92,9.65,4.2,14.66,1.14,4.48,2.2,9.12,3.15,13.79.9,4.45,1.71,9,2.42,13.55s1.31,9,1.82,13.61c.4,3.58.74,8.24,1,12.36V200h1v-.12c-.3-4.13-.63-8.8-1-12.4-.51-4.6-1.13-9.19-1.82-13.66s-1.53-9.12-2.43-13.59c-.95-4.68-2-9.34-3.16-13.84-1.29-5-2.7-10-4.22-14.72-1.82-5.69-3.83-11.24-6-16.49A181.93,181.93,0,0,0,441.3,93.64c-7.35-12.8-15.64-23-24.64-30.32a62.78,62.78,0,0,0-14.19-8.82,50,50,0,0,0-10.06-3.22,45.85,45.85,0,0,0-8.72-.91H296.77v1h.31A44.75,44.75,0,0,1,305.61,52.26Z" transform="translate(-207.47)"/></g></g></svg>