<svg xmlns="http://www.w3.org/2000/svg" viewBox="0 0 58.55 48.3"><defs><style>.cls-1{opacity:0.5;}</style></defs><g id="Steinbesatz" class="cls-1"><path d="M123.74,84.86l-8.08-12.47a3.38,3.38,0,0,0-2.84-1.54H77.2a3.34,3.34,0,0,0-2.83,1.54l-8.1,12.47A3.39,3.39,0,0,0,66.58,89L92.47,118A3.38,3.38,0,0,0,95,119.15h0A3.37,3.37,0,0,0,97.52,118L123.42,89A3.4,3.4,0,0,0,123.74,84.86ZM111.19,73.75l-6.79,10.5-6.8-10.5Zm-9.46,11.72H88.26L95,75.06ZM92.39,73.75,85.62,84.22,78.84,73.75ZM76.16,74.94,83,85.47H69.33ZM69.94,88.36H84.53l7.71,25ZM95,112.5,87.56,88.36h14.88Zm2.76.9,7.71-25h14.59Zm9.3-27.93L113.86,75l6.81,10.52Z" transform="translate(-65.72 -70.85)"/></g></svg>