<svg xmlns="http://www.w3.org/2000/svg" xmlns:xlink="http://www.w3.org/1999/xlink" viewBox="0 0 200 200"><defs><style>.cls-1,.cls-7{fill:#fff;}.cls-1{opacity:0;}.cls-2,.cls-5,.cls-6{opacity:0.7;}.cls-3{fill:url(#Neues_Verlaufsfeld_2);}.cls-4{fill:url(#Neues_Verlaufsfeld_2-2);}.cls-5{fill:url(#Unbenannter_Verlauf_154);}.cls-6{fill:url(#Unbenannter_Verlauf_154-2);}.cls-7{opacity:0.1;}.cls-8{fill:url(#Unbenannter_Verlauf_79);}.cls-9{fill:url(#Unbenannter_Verlauf_79-2);}</style><linearGradient id="Neues_Verlaufsfeld_2" x1="5.9" y1="96.75" x2="187.14" y2="96.75" gradientUnits="userSpaceOnUse"><stop offset="0" stop-color="#8a8a8a"/><stop offset="0.04" stop-color="#9e9e9e"/><stop offset="0.15" stop-color="#bebebe"/><stop offset="0.32" stop-color="#ededed"/><stop offset="0.4" stop-color="#fff"/><stop offset="0.45" stop-color="#f6f6f6"/><stop offset="0.6" stop-color="#e0e0e0"/><stop offset="0.63" stop-color="#cacaca"/><stop offset="0.69" stop-color="#999"/><stop offset="0.75" stop-color="#7b7b7b"/><stop offset="0.78" stop-color="#707070"/><stop offset="0.82" stop-color="#737373"/><stop offset="0.85" stop-color="#7e7e7e"/><stop offset="0.88" stop-color="#909090"/><stop offset="0.91" stop-color="#a9a9a9"/><stop offset="0.94" stop-color="#c9c9c9"/><stop offset="0.96" stop-color="#efefef"/><stop offset="0.96" stop-color="#f0f0f0"/><stop offset="1" stop-color="#d9d9d9"/></linearGradient><linearGradient id="Neues_Verlaufsfeld_2-2" x1="5.9" y1="168.18" x2="194.28" y2="168.18" xlink:href="#Neues_Verlaufsfeld_2"/><linearGradient id="Unbenannter_Verlauf_154" x1="97.52" y1="34.93" x2="96.67" y2="94.7" gradientUnits="userSpaceOnUse"><stop offset="0" stop-color="#666"/><stop offset="0.7" stop-color="#9e9e9e" stop-opacity="0"/></linearGradient><linearGradient id="Unbenannter_Verlauf_154-2" x1="101.1" y1="124.97" x2="100.51" y2="166.39" xlink:href="#Unbenannter_Verlauf_154"/><linearGradient id="Unbenannter_Verlauf_79" x1="61.11" y1="60.86" x2="103.82" y2="131.36" gradientUnits="userSpaceOnUse"><stop offset="0" stop-color="#fff"/><stop offset="0.02" stop-color="#fff" stop-opacity="0.86"/><stop offset="0.06" stop-color="#fff" stop-opacity="0.68"/><stop offset="0.1" stop-color="#fff" stop-opacity="0.52"/><stop offset="0.14" stop-color="#fff" stop-opacity="0.38"/><stop offset="0.18" stop-color="#fff" stop-opacity="0.26"/><stop offset="0.23" stop-color="#fff" stop-opacity="0.16"/><stop offset="0.29" stop-color="#fff" stop-opacity="0.09"/><stop offset="0.35" stop-color="#fff" stop-opacity="0.04"/><stop offset="0.43" stop-color="#fff" stop-opacity="0.01"/><stop offset="0.59" stop-color="#fff" stop-opacity="0"/></linearGradient><linearGradient id="Unbenannter_Verlauf_79-2" x1="-7.06" y1="160.07" x2="72.16" y2="168.18" xlink:href="#Unbenannter_Verlauf_79"/></defs><g id="BG"><rect class="cls-1" width="200" height="200"/></g><g id="Diamanten"><g id="Spannring_schräg" data-name="Spannring schräg"><path class="cls-2" d="M99.89,164a23.91,23.91,0,1,1,23.9-23.9A23.93,23.93,0,0,1,99.89,164Zm0-42.78a18.88,18.88,0,1,0,18.88,18.88A18.9,18.9,0,0,0,99.89,121.17Z" transform="translate(-0.3 -0.19)"/><path class="cls-3" d="M184.24,94.23a4,4,0,0,0,2.45-5.71,68.29,68.29,0,0,0-52.55-36.79,287.58,287.58,0,0,0-34.76-1.89,285.86,285.86,0,0,0-32.5,1.72,68.83,68.83,0,0,0-61,68.36v19.74A4,4,0,0,0,11,143.5Z" transform="translate(-0.3 -0.19)"/><path class="cls-4" d="M5.9,191.83v8H194.28V140.53a4,4,0,0,0-5.09-3.85L8.81,188A4,4,0,0,0,5.9,191.83Z" transform="translate(-0.3 -0.19)"/><path class="cls-5" d="M184.24,94.23a4,4,0,0,0,2.45-5.71,68.29,68.29,0,0,0-52.55-36.79,287.58,287.58,0,0,0-34.76-1.89,285.86,285.86,0,0,0-32.5,1.72,68.83,68.83,0,0,0-61,68.36v19.74A4,4,0,0,0,11,143.5Z" transform="translate(-0.3 -0.19)"/><path class="cls-6" d="M5.9,191.83v8H194.28V140.53a4,4,0,0,0-5.09-3.85L8.81,188A4,4,0,0,0,5.9,191.83Z" transform="translate(-0.3 -0.19)"/><path class="cls-7" d="M180.17,95.39l4.31-1.22A4,4,0,0,0,187,88.49c-10.25-20.17-28.51-30.66-36.74-32.62C150.21,55.87,174.82,68.51,180.17,95.39Z" transform="translate(-0.3 -0.19)"/><path class="cls-7" d="M181.36,138.91c.11,28.19.22,60.93.22,60.93h12.7V140.53a4,4,0,0,0-5.09-3.85Z" transform="translate(-0.3 -0.19)"/><path class="cls-8" d="M170.1,98.25c-7-26.18-30.68-48.17-58.57-48.17,0,0-12.29-.19-16.39-.19-7,0-14.24.59-14.24.59-33.39,0-60.72,30.42-60.72,63.81v26.6Z" transform="translate(-0.3 -0.19)"/><polygon class="cls-9" points="19.88 184.56 19.88 199.9 171.94 199.9 171.94 141.31 19.88 184.56"/></g></g></svg>