<svg xmlns="http://www.w3.org/2000/svg" xmlns:xlink="http://www.w3.org/1999/xlink" viewBox="0 0 200 200.09"><defs><style>.cls-1{fill:url(#Unbenannter_Verlauf_58);}.cls-10,.cls-2,.cls-7{fill:#fff;}.cls-2{opacity:0;}.cls-3{fill:url(#Neues_Verlaufsfeld_2);}.cls-4{mask:url(#mask);}.cls-5{fill:#b2b2b2;}.cls-6{fill:#3e3e3e;}.cls-8,.cls-9{opacity:0.7;}.cls-9{fill:url(#Unbenannter_Verlauf_154);}.cls-10{opacity:0.1;}.cls-11{fill:url(#Unbenannter_Verlauf_79);}</style><linearGradient id="Unbenannter_Verlauf_58" x1="73.53" y1="124.84" x2="171.34" y2="124.84" gradientUnits="userSpaceOnUse"><stop offset="0" stop-opacity="0"/><stop offset="0.5" stop-color="#fff"/><stop offset="0.66" stop-color="#a5a5a5" stop-opacity="0.65"/><stop offset="0.83" stop-color="#4d4d4d" stop-opacity="0.3"/><stop offset="0.94" stop-color="#151515" stop-opacity="0.08"/><stop offset="1" stop-opacity="0"/></linearGradient><linearGradient id="Neues_Verlaufsfeld_2" x1="5.9" y1="124.84" x2="194.28" y2="124.84" gradientUnits="userSpaceOnUse"><stop offset="0" stop-color="#8a8a8a"/><stop offset="0.04" stop-color="#9e9e9e"/><stop offset="0.15" stop-color="#bebebe"/><stop offset="0.32" stop-color="#ededed"/><stop offset="0.4" stop-color="#fff"/><stop offset="0.45" stop-color="#f6f6f6"/><stop offset="0.6" stop-color="#e0e0e0"/><stop offset="0.63" stop-color="#cacaca"/><stop offset="0.69" stop-color="#999"/><stop offset="0.75" stop-color="#7b7b7b"/><stop offset="0.78" stop-color="#707070"/><stop offset="0.82" stop-color="#737373"/><stop offset="0.85" stop-color="#7e7e7e"/><stop offset="0.88" stop-color="#909090"/><stop offset="0.91" stop-color="#a9a9a9"/><stop offset="0.94" stop-color="#c9c9c9"/><stop offset="0.96" stop-color="#efefef"/><stop offset="0.96" stop-color="#f0f0f0"/><stop offset="1" stop-color="#d9d9d9"/></linearGradient><mask id="mask" x="73.49" y="49.84" width="98.02" height="150" maskUnits="userSpaceOnUse"><g transform="translate(0.11)"><path class="cls-1" d="M73.53,199.84h97.81V68.62a67.79,67.79,0,0,0-37.2-16.89,287.58,287.58,0,0,0-34.76-1.89c-9.56,0-18.14.39-25.85,1Z"/></g></mask><linearGradient id="Unbenannter_Verlauf_154" x1="102" y1="26.22" x2="100.64" y2="121.32" gradientUnits="userSpaceOnUse"><stop offset="0" stop-color="#666"/><stop offset="0.7" stop-color="#9e9e9e" stop-opacity="0"/></linearGradient><linearGradient id="Unbenannter_Verlauf_79" x1="51.19" y1="73.28" x2="133.84" y2="209.7" gradientUnits="userSpaceOnUse"><stop offset="0" stop-color="#fff"/><stop offset="0.02" stop-color="#fff" stop-opacity="0.86"/><stop offset="0.06" stop-color="#fff" stop-opacity="0.68"/><stop offset="0.1" stop-color="#fff" stop-opacity="0.52"/><stop offset="0.14" stop-color="#fff" stop-opacity="0.38"/><stop offset="0.18" stop-color="#fff" stop-opacity="0.26"/><stop offset="0.23" stop-color="#fff" stop-opacity="0.16"/><stop offset="0.29" stop-color="#fff" stop-opacity="0.09"/><stop offset="0.35" stop-color="#fff" stop-opacity="0.04"/><stop offset="0.43" stop-color="#fff" stop-opacity="0.01"/><stop offset="0.59" stop-color="#fff" stop-opacity="0"/></linearGradient></defs><g id="BG"><rect class="cls-2" width="200" height="200"/></g><g id="Position"><g id="Frei"><path id="Einfarbig" class="cls-3" d="M194.28,120a68.64,68.64,0,0,0-60.14-68.26,287.58,287.58,0,0,0-34.76-1.89,284.31,284.31,0,0,0-32.73,1.75A68.77,68.77,0,0,0,5.9,119.92v79.92H194.28Z" transform="translate(0.11)"/><g class="cls-4"><path class="cls-5" d="M73.53,199.84h97.81V68.62a67.79,67.79,0,0,0-37.2-16.89,287.58,287.58,0,0,0-34.76-1.89c-9.56,0-18.14.39-25.85,1Z" transform="translate(0.11)"/><path class="cls-6" d="M74.79,74.78,99.73,49.84h-.35l-2.49,0L73.38,73.37Z" transform="translate(0.11)"/><path class="cls-6" d="M74.79,87l36.92-36.92C110.8,50,109.9,50,109,50L73.38,85.56Z" transform="translate(0.11)"/><path class="cls-6" d="M74.79,99.16l48.49-48.48-2.65-.19L73.38,97.75Z" transform="translate(0.11)"/><path class="cls-6" d="M74.79,111.35l59.59-59.59-.24,0-2.29-.26L73.38,109.94Z" transform="translate(0.11)"/><path class="cls-6" d="M74.79,123.54l69.72-69.72-2.24-.59-68.89,68.9Z" transform="translate(0.11)"/><path class="cls-6" d="M74.79,135.74l78.68-78.68c-.66-.29-1.32-.57-2-.84l-78.1,78.1Z" transform="translate(0.11)"/><path class="cls-6" d="M74.79,147.93l86.67-86.68-1.78-1-86.3,86.31Z" transform="translate(0.11)"/><path class="cls-6" d="M73.38,158.7l1.41,1.42,93.82-93.83c-.52-.42-1.06-.83-1.59-1.23Z" transform="translate(0.11)"/><rect class="cls-6" x="54.08" y="122.3" width="136.62" height="2" transform="translate(-51.23 122.65) rotate(-45)"/><rect class="cls-6" x="54.08" y="134.49" width="136.62" height="2" transform="translate(-59.85 126.22) rotate(-45)"/><rect class="cls-6" x="54.08" y="146.68" width="136.62" height="2" transform="translate(-68.47 129.79) rotate(-45)"/><polygon class="cls-6" points="171.51 112.27 170.09 110.86 81.11 199.84 83.94 199.84 171.51 112.27"/><polygon class="cls-6" points="170.09 123.05 93.3 199.84 96.13 199.84 171.51 124.47 170.09 123.05"/><polygon class="cls-6" points="170.09 135.24 105.49 199.84 108.32 199.84 171.51 136.66 170.09 135.24"/><polygon class="cls-6" points="170.09 147.43 117.69 199.84 120.51 199.84 171.51 148.85 170.09 147.43"/><polygon class="cls-6" points="170.09 159.62 129.88 199.84 132.7 199.84 171.51 161.04 170.09 159.62"/><polygon class="cls-6" points="170.09 171.81 142.06 199.84 144.89 199.84 171.51 173.23 170.09 171.81"/><polygon class="cls-6" points="170.09 184 154.26 199.84 157.08 199.84 171.51 185.42 170.09 184"/><polygon class="cls-6" points="170.09 196.19 166.45 199.84 169.27 199.84 171.51 197.61 170.09 196.19"/></g><circle class="cls-7" cx="123.05" cy="130.99" r="18.98"/><path class="cls-8" d="M106.53,131a16.41,16.41,0,1,1,16.41,16.41A16.43,16.43,0,0,1,106.53,131Zm3.45,0a13,13,0,1,0,13-13A13,13,0,0,0,110,131Z" transform="translate(0.11)"/><path id="Top-Schatten" class="cls-9" d="M194.28,120a68.64,68.64,0,0,0-60.14-68.26,287.58,287.58,0,0,0-34.76-1.89,284.31,284.31,0,0,0-32.73,1.75A68.77,68.77,0,0,0,5.9,119.92v79.92H194.28Z" transform="translate(0.11)"/><path id="Seite-Licht" class="cls-10" d="M194.28,120c0-41.08-32.3-61.31-44.07-64.12,0,0,30.79,15.79,31,49.63.14,22.49.38,94.34.38,94.34h12.7Z" transform="translate(0.11)"/><path id="Glanzlicht" class="cls-11" d="M172.24,200.09v-87.6c0-33.39-27.32-62.61-60.71-62.61H80.9c-33.39,0-60.72,29.22-60.72,62.61v87.6Z" transform="translate(0.11)"/><polygon class="cls-6" points="158.26 131.47 148.06 125.59 148.06 137.36 158.26 131.47"/><path class="cls-7" d="M148,125.59l10.2,5.88L148,137.36V125.59m-2-3.47v18.7l3-1.73,10.2-5.88,3-1.74-3-1.73L149,123.85l-3-1.73Z" transform="translate(0.11)"/><polygon class="cls-6" points="88.74 131.47 98.94 125.59 98.94 137.36 88.74 131.47"/><path class="cls-7" d="M98.83,125.59v11.77l-10.2-5.89,10.2-5.88m2-3.47-3,1.73-10.2,5.89-3,1.73,3,1.74,10.2,5.88,3,1.73v-18.7Z" transform="translate(0.11)"/></g></g></svg>