<svg id="Ebene_1" data-name="Ebene 1" xmlns="http://www.w3.org/2000/svg" viewBox="0 0 655.06 270.15"><path id="infinity" d="M455.06,250.36c18.25,18.45,47,45.06,80.11,67.13,39.31,26.15,74.89,39.41,105.76,39.41C726.77,356.9,776,307.67,776,221.83S726.77,86.76,640.93,86.76c-30.87,0-66.45,13.26-105.76,39.41-33.15,22.06-61.86,48.68-80.11,67.13L448.47,200l-6.59-6.66c-18.25-18.45-47-45.07-80.11-67.13C322.47,100,286.89,86.76,256,86.76c-85.84,0-135.08,49.23-135.08,135.07S170.18,356.9,256,356.9c30.87,0,66.45-13.26,105.75-39.41,33.15-22.06,61.86-48.68,80.11-67.13l6.59-6.66Zm19.82-35c22.88-23.22,102.5-99,166-99,69,0,105.49,36.48,105.49,105.5s-36.48,105.5-105.49,105.5c-63,0-143-75.76-166-99l-6.45-6.51Zm-52.82,13c-22.95,23.22-102.73,99-166,99-69,0-105.5-36.48-105.5-105.5S187,116.33,256,116.33c63,0,143,75.76,166,99l6.45,6.51Z" transform="translate(-120.94 -86.76)"/></svg>