<?xml version="1.0" encoding="utf-8"?>
<!-- Generator: Adobe Illustrator 25.2.0, SVG Export Plug-In . SVG Version: 6.00 Build 0)  -->
<svg version="1.1" id="Capa_1" xmlns="http://www.w3.org/2000/svg" xmlns:xlink="http://www.w3.org/1999/xlink" x="0px" y="0px"
	 viewBox="0 0 512 512" style="enable-background:new 0 0 512 512;" xml:space="preserve">
<style type="text/css">
	.st0{fill:#F2F2F2;}
</style>
<g>
	<g>
		<path class="st0" d="M208,400c-26.5,0-48,21.5-48,48s21.5,48,48,48s48-21.5,48-48S234.5,400,208,400z M208,464
			c-8.8,0-16-7.2-16-16s7.2-16,16-16s16,7.2,16,16S216.8,464,208,464z"/>
	</g>
</g>
<g>
	<g>
		<path class="st0" d="M400,400c-26.5,0-48,21.5-48,48s21.5,48,48,48s48-21.5,48-48S426.5,400,400,400z M400,464
			c-8.8,0-16-7.2-16-16s7.2-16,16-16s16,7.2,16,16S408.8,464,400,464z"/>
	</g>
</g>
<g>
	<g>
		<path class="st0" d="M508.3,85.7c-3-3.6-7.5-5.8-12.3-5.8H119.9l-13.9-52c-1.9-7-8.2-11.9-15.5-11.9H16C7.2,16,0,23.2,0,32
			s7.2,16,16,16h62.3l82.3,308.1c1.9,7,8.2,11.9,15.5,11.9h256c8.8,0,16-7.2,16-16s-7.2-16-16-16H188.3l-9.4-35.1L464.7,288
			c7.5-0.4,13.7-5.8,15-13.1l32-176C512.6,94.2,511.3,89.4,508.3,85.7z M450.6,256.6l-280.1,12.6l-42-157.2h348.4L450.6,256.6z"/>
	</g>
</g>
<g>
	<g>
		<path class="st0" d="M400,144c-8.8,0-16,7.2-16,16v64c0,8.8,7.2,16,16,16s16-7.2,16-16v-64C416,151.2,408.8,144,400,144z"/>
	</g>
</g>
<g>
	<g>
		<path class="st0" d="M304,144c-8.8,0-16,7.2-16,16v64c0,8.8,7.2,16,16,16s16-7.2,16-16v-64C320,151.2,312.8,144,304,144z"/>
	</g>
</g>
<g>
	<g>
		<path class="st0" d="M208,144c-8.8,0-16,7.2-16,16v64c0,8.8,7.2,16,16,16s16-7.2,16-16v-64C224,151.2,216.8,144,208,144z"/>
	</g>
</g>
</svg>
