<svg xmlns="http://www.w3.org/2000/svg" xmlns:xlink="http://www.w3.org/1999/xlink" viewBox="0 0 200 200"><defs><style>.cls-1,.cls-4{fill:#fff;}.cls-1{opacity:0;}.cls-2{fill:url(#Neues_Verlaufsfeld_2);}.cls-3{opacity:0.7;fill:url(#Unbenannter_Verlauf_154);}.cls-4{opacity:0.1;}.cls-5{fill:url(#Unbenannter_Verlauf_79);}.cls-6{opacity:0.8;}.cls-7{fill:#1d1d1b;}</style><linearGradient id="Neues_Verlaufsfeld_2" x1="5.9" y1="124.84" x2="194.28" y2="124.84" gradientUnits="userSpaceOnUse"><stop offset="0" stop-color="#8a8a8a"/><stop offset="0.04" stop-color="#9e9e9e"/><stop offset="0.15" stop-color="#bebebe"/><stop offset="0.32" stop-color="#ededed"/><stop offset="0.4" stop-color="#fff"/><stop offset="0.45" stop-color="#f6f6f6"/><stop offset="0.6" stop-color="#e0e0e0"/><stop offset="0.63" stop-color="#cacaca"/><stop offset="0.69" stop-color="#999"/><stop offset="0.75" stop-color="#7b7b7b"/><stop offset="0.78" stop-color="#707070"/><stop offset="0.82" stop-color="#737373"/><stop offset="0.85" stop-color="#7e7e7e"/><stop offset="0.88" stop-color="#909090"/><stop offset="0.91" stop-color="#a9a9a9"/><stop offset="0.94" stop-color="#c9c9c9"/><stop offset="0.96" stop-color="#efefef"/><stop offset="0.96" stop-color="#f0f0f0"/><stop offset="1" stop-color="#d9d9d9"/></linearGradient><linearGradient id="Unbenannter_Verlauf_154" x1="102" y1="26.22" x2="100.64" y2="121.32" gradientUnits="userSpaceOnUse"><stop offset="0" stop-color="#666"/><stop offset="0.7" stop-color="#9e9e9e" stop-opacity="0"/></linearGradient><linearGradient id="Unbenannter_Verlauf_79" x1="51.19" y1="73.18" x2="133.84" y2="209.6" gradientUnits="userSpaceOnUse"><stop offset="0" stop-color="#fff"/><stop offset="0.02" stop-color="#fff" stop-opacity="0.86"/><stop offset="0.06" stop-color="#fff" stop-opacity="0.68"/><stop offset="0.1" stop-color="#fff" stop-opacity="0.52"/><stop offset="0.14" stop-color="#fff" stop-opacity="0.38"/><stop offset="0.18" stop-color="#fff" stop-opacity="0.26"/><stop offset="0.23" stop-color="#fff" stop-opacity="0.16"/><stop offset="0.29" stop-color="#fff" stop-opacity="0.09"/><stop offset="0.35" stop-color="#fff" stop-opacity="0.04"/><stop offset="0.43" stop-color="#fff" stop-opacity="0.01"/><stop offset="0.59" stop-color="#fff" stop-opacity="0"/></linearGradient></defs><g id="BG"><rect class="cls-1" width="200" height="200"/></g><g id="Diamanten"><g id="Ohne"><path id="Einfarbig" class="cls-2" d="M194.28,120a68.64,68.64,0,0,0-60.14-68.26,287.58,287.58,0,0,0-34.76-1.89,284.31,284.31,0,0,0-32.73,1.75A68.77,68.77,0,0,0,5.9,119.92v79.92H194.28Z" transform="translate(-0.3 -0.19)"/><path id="Top-Schatten" class="cls-3" d="M194.28,120a68.64,68.64,0,0,0-60.14-68.26,287.58,287.58,0,0,0-34.76-1.89,284.31,284.31,0,0,0-32.73,1.75A68.77,68.77,0,0,0,5.9,119.92v79.92H194.28Z" transform="translate(-0.3 -0.19)"/><path id="Seite-Licht" class="cls-4" d="M194.28,120c0-41.08-32.3-61.31-44.07-64.12,0,0,30.79,15.79,31,49.63.14,22.49.38,94.34.38,94.34h12.7Z" transform="translate(-0.3 -0.19)"/><path id="Glanzlicht" class="cls-5" d="M172.24,200v-87.6c0-33.39-27.32-62.61-60.71-62.61H80.9c-33.39,0-60.72,29.22-60.72,62.61V200Z" transform="translate(-0.3 -0.19)"/><g class="cls-6"><rect class="cls-7" x="74.34" y="115.69" width="3.26" height="3.26" transform="translate(-61.01 87.9) rotate(-45)"/><rect class="cls-7" x="69.72" y="111.07" width="3.26" height="3.26" transform="translate(-59.1 83.29) rotate(-45)"/><rect class="cls-7" x="83.57" y="124.92" width="3.26" height="3.26" transform="translate(-64.83 97.13) rotate(-45)"/><rect class="cls-7" x="78.95" y="120.3" width="3.26" height="3.26" transform="translate(-62.92 92.49) rotate(-44.99)"/><rect class="cls-7" x="92.8" y="134.15" width="3.26" height="3.26" transform="translate(-68.66 106.36) rotate(-45)"/><rect class="cls-7" x="88.19" y="129.53" width="3.26" height="3.26" transform="translate(-66.74 101.71) rotate(-44.99)"/><rect class="cls-7" x="106.65" y="148" width="3.26" height="3.26" transform="translate(-74.39 120.2) rotate(-45)"/><rect class="cls-7" x="111.26" y="152.61" width="3.26" height="3.26" transform="translate(-76.3 124.82) rotate(-45)"/><rect class="cls-7" x="102.03" y="143.38" width="3.26" height="3.26" transform="translate(-72.48 115.59) rotate(-45)"/><rect class="cls-7" x="115.88" y="157.23" width="3.26" height="3.26" transform="translate(-78.21 129.43) rotate(-45)"/><rect class="cls-7" x="125.11" y="166.46" width="3.26" height="3.26" transform="translate(-82.04 138.66) rotate(-45)"/><rect class="cls-7" x="120.49" y="161.84" width="3.26" height="3.26" transform="translate(-80.13 134.05) rotate(-45)"/><rect class="cls-7" x="97.42" y="138.77" width="3.26" height="3.26" transform="translate(-70.57 110.97) rotate(-45)"/><rect class="cls-7" x="102.03" y="134.15" width="3.26" height="3.26" transform="translate(-65.95 112.88) rotate(-45)"/><rect class="cls-7" x="125.11" y="111.07" width="3.26" height="3.26" transform="translate(-42.88 122.44) rotate(-45)"/><rect class="cls-7" x="106.65" y="129.54" width="3.26" height="3.26" transform="translate(-61.33 114.77) rotate(-44.99)"/><rect class="cls-7" x="111.26" y="124.92" width="3.26" height="3.26" transform="translate(-56.72 116.71) rotate(-45)"/><rect class="cls-7" x="115.88" y="120.3" width="3.26" height="3.26" transform="translate(-52.11 118.59) rotate(-44.99)"/><rect class="cls-7" x="120.49" y="115.69" width="3.26" height="3.26" transform="translate(-47.49 120.53) rotate(-45)"/><rect class="cls-7" x="92.8" y="143.38" width="3.26" height="3.26" transform="translate(-75.18 109.06) rotate(-45)"/><rect class="cls-7" x="69.72" y="166.46" width="3.26" height="3.26" transform="translate(-98.26 99.5) rotate(-45)"/><rect class="cls-7" x="83.57" y="152.61" width="3.26" height="3.26" transform="translate(-84.41 105.24) rotate(-45)"/><rect class="cls-7" x="88.19" y="148" width="3.26" height="3.26" transform="translate(-79.8 107.15) rotate(-45)"/><rect class="cls-7" x="74.34" y="161.84" width="3.26" height="3.26" transform="translate(-93.64 101.41) rotate(-45)"/><rect class="cls-7" x="78.96" y="157.23" width="3.26" height="3.26" transform="translate(-89.03 103.33) rotate(-45)"/></g></g></g></svg>