<svg xmlns="http://www.w3.org/2000/svg" xmlns:xlink="http://www.w3.org/1999/xlink" viewBox="0 0 265 200"><defs><style>.cls-1,.cls-6{fill:#fff;}.cls-1{opacity:0;}.cls-2{isolation:isolate;}.cls-3{fill:url(#Neues_Verlaufsfeld_1);}.cls-4{fill:#666;}.cls-5{fill:url(#Neues_Verlaufsfeld_4);}.cls-7{fill:url(#Neues_Verlaufsfeld_3);}</style><linearGradient id="Neues_Verlaufsfeld_1" x1="308.8" y1="208.26" x2="308.8" y2="102.08" gradientUnits="userSpaceOnUse"><stop offset="0" stop-color="#adadad"/><stop offset="0.18" stop-color="#cfcfcf"/><stop offset="0.58" stop-color="#767676"/><stop offset="0.86" stop-color="#3c3c3c"/><stop offset="1" stop-color="#262626"/></linearGradient><linearGradient id="Neues_Verlaufsfeld_4" x1="296.57" y1="214.86" x2="298.6" y2="59.97" gradientUnits="userSpaceOnUse"><stop offset="0" stop-color="#8a8a8a"/><stop offset="0.75" stop-color="#fff"/><stop offset="0.81" stop-color="#f6f6f6"/><stop offset="1" stop-color="#e0e0e0"/></linearGradient><linearGradient id="Neues_Verlaufsfeld_3" x1="383.38" y1="50.87" x2="383.38" y2="193.12" gradientUnits="userSpaceOnUse"><stop offset="0" stop-color="#666"/><stop offset="0.24" stop-color="#fff"/><stop offset="0.26" stop-color="#f9f9f9"/><stop offset="0.62" stop-color="#9d9d9d"/><stop offset="0.88" stop-color="#636363"/><stop offset="1" stop-color="#4d4d4d"/></linearGradient></defs><g id="BG_Kopie" data-name="BG Kopie"><rect class="cls-1" width="265" height="200"/></g><g id="Ebene_5" data-name="Ebene 5"><g id="Seitlich_Eingerieben_links" data-name="Seitlich Eingerieben links" class="cls-2"><path class="cls-3" d="M320.84,200q.39-3.72.87-7.37c7.35-54.34,32.17-94.31,61.66-94.31h-86.6c-29.49,0-54.31,40-61.66,94.31q-.5,3.65-.87,7.37Z" transform="translate(-207.47)"/><path class="cls-4" d="M234.93,200c0-.32,0-.65.08-1,.18-2.22.38-4.74.6-6.32,7.47-55.28,32.62-93.88,61.16-93.88h78.57c-25.64,6.42-47.29,43.17-54.12,93.75-.22,1.61-.42,4-.61,6.4,0,.35-.05.69-.08,1h1c0-.31.05-.63.08-.95.18-2.24.38-4.77.6-6.35,7.47-55.28,32.62-93.88,61.16-93.88v-1h-86.6c-29.06,0-54.61,39-62.15,94.75-.22,1.6-.42,4-.61,6.37,0,.36,0,.71-.08,1.06Z" transform="translate(-207.47)"/><path class="cls-5" d="M234.24,200C240.25,142,266,98.32,296.77,98.32S353.28,142,359.3,200h24.09c-6.29-84.4-42.68-149.13-86.62-149.13S216.44,115.6,210.14,200Z" transform="translate(-207.47)"/><path class="cls-4" d="M296.77,97.82c-30.19,0-56.52,42.88-62.92,102.18h1c6.36-58.73,32.26-101.18,61.91-101.18S352.32,141.27,358.68,200h1C353.28,140.7,327,97.82,296.77,97.82Z" transform="translate(-207.47)"/><path class="cls-4" d="M210.73,200c6.61-84.85,43.45-148.63,86-148.63s79.42,63.78,86,148.63h1c-3.16-40.76-13.47-78.26-29.07-105.75-16.07-28.3-36.65-43.88-58-43.88s-41.9,15.58-58,43.88c-15.61,27.49-25.91,65-29.08,105.75Z" transform="translate(-207.47)"/><path class="cls-6" d="M250.5,95c1.83,0,3.61,1.89,4.59,5.28,1.46,5.07.6,11.55-1.93,14.47a3.56,3.56,0,0,1-2.65,1.43c-1.83,0-3.6-1.89-4.58-5.28-1.47-5.07-.61-11.55,1.92-14.47A3.56,3.56,0,0,1,250.5,95Z" transform="translate(-207.47)"/><path class="cls-4" d="M250.51,116.68c-2.15,0-4-2.11-5.06-5.64-1.51-5.2-.6-11.9,2-14.94a4.07,4.07,0,0,1,3-1.6h0c2.15,0,4.05,2.11,5.07,5.64,1.5,5.2.59,11.91-2,14.94A4.05,4.05,0,0,1,250.51,116.68Zm0-21.18a3.12,3.12,0,0,0-2.27,1.26c-2.43,2.81-3.25,9.09-1.82,14,.87,3,2.45,4.92,4.1,4.92a3.09,3.09,0,0,0,2.27-1.25c2.43-2.81,3.25-9.1,1.83-14-.88-3-2.45-4.92-4.11-4.92Z" transform="translate(-207.47)"/><path class="cls-6" d="M262.76,79.62c2.2,0,4.25,2.75,5,7.13,1,5.53-.5,11.56-3.27,13.47a3,3,0,0,1-1.73.59c-2.19,0-4.24-2.76-5-7.13-1-5.54.5-11.57,3.27-13.48A3,3,0,0,1,262.76,79.62Z" transform="translate(-207.47)"/><path class="cls-4" d="M262.76,101.31c-2.54,0-4.7-3-5.5-7.55-1-5.8.53-11.93,3.49-14a3.46,3.46,0,0,1,2-.67c2.51,0,4.72,3,5.5,7.54,1,5.79-.53,11.93-3.48,14A3.53,3.53,0,0,1,262.76,101.31Zm0-21.19a2.5,2.5,0,0,0-1.44.49c-2.62,1.81-4,7.63-3.07,13,.68,4,2.54,6.72,4.51,6.72a2.54,2.54,0,0,0,1.45-.5c2.61-1.81,4-7.63,3.06-13C266.59,82.88,264.74,80.12,262.76,80.12Z" transform="translate(-207.47)"/><path class="cls-6" d="M276,69.36c2.59,0,4.85,3.79,5.23,9.06.43,5.79-1.58,11.17-4.47,12a3,3,0,0,1-.78.11c-2.58,0-4.84-3.79-5.23-9.07-.42-5.79,1.58-11.16,4.48-12A2.92,2.92,0,0,1,276,69.36Z" transform="translate(-207.47)"/><path class="cls-4" d="M276,91.05c-2.91,0-5.32-4-5.72-9.53-.45-6.1,1.67-11.6,4.83-12.52a3.19,3.19,0,0,1,.91-.14c2.92,0,5.33,4,5.73,9.52.45,6.11-1.67,11.61-4.83,12.53A3.21,3.21,0,0,1,276,91.05Zm0-21.19a2.28,2.28,0,0,0-.63.09c-2.63.77-4.52,6-4.12,11.49S274,90.71,276.6,90s4.52-6,4.12-11.5C280.36,73.56,278.32,69.86,276,69.86Z" transform="translate(-207.47)"/><path class="cls-6" d="M289.76,64.23H290c2.92.23,5.19,5.15,5.08,11s-2.46,10.17-5.29,10.17h-.21c-2.92-.23-5.2-5.15-5.08-11S286.93,64.23,289.76,64.23Z" transform="translate(-207.47)"/><path class="cls-4" d="M289.76,85.91h-.25c-3.23-.26-5.67-5.31-5.54-11.5.11-6,2.66-10.67,5.79-10.67H290c3.23.26,5.66,5.31,5.54,11.51C295.43,81.23,292.89,85.91,289.76,85.91Zm0-21.18c-2.54,0-4.69,4.35-4.79,9.69s2,10.28,4.62,10.49,4.85-4.22,5-9.68-2-10.29-4.62-10.49Z" transform="translate(-207.47)"/><path class="cls-6" d="M303.73,64.22a2.76,2.76,0,0,1,1.17.26c2.86,1.3,4.65,7,4,12.67-.56,4.92-2.74,8.26-5.17,8.26a2.84,2.84,0,0,1-1.17-.27c-2.85-1.29-4.64-7-4-12.67C299.13,67.55,301.31,64.22,303.73,64.22Z" transform="translate(-207.47)"/><path class="cls-4" d="M303.73,85.91a3.37,3.37,0,0,1-1.37-.31c-3.09-1.4-5-7.19-4.29-13.19.58-5.12,2.91-8.69,5.66-8.69a3.4,3.4,0,0,1,1.38.3c3.08,1.41,5,7.2,4.29,13.19C308.82,82.33,306.49,85.91,303.73,85.91Zm0-21.19c-2.19,0-4.15,3.28-4.66,7.81-.62,5.4,1.08,11,3.7,12.16s5.05-2.4,5.63-7.59c.62-5.4-1.08-11-3.7-12.17A2.42,2.42,0,0,0,303.73,64.72Z" transform="translate(-207.47)"/><path class="cls-6" d="M317.52,69.34a3.26,3.26,0,0,1,2.1.86c2.68,2.33,3.92,8.55,2.76,13.93-.86,4-2.81,6.39-4.86,6.39a3.23,3.23,0,0,1-2.1-.87c-2.68-2.31-3.92-8.55-2.76-13.91C313.52,71.73,315.47,69.34,317.52,69.34Z" transform="translate(-207.47)"/><path class="cls-4" d="M317.52,91a3.68,3.68,0,0,1-2.42-1c-2.81-2.41-4.12-8.87-2.93-14.4.89-4.13,3-6.79,5.35-6.79a3.65,3.65,0,0,1,2.42,1c2.85,2.46,4.14,8.79,2.93,14.4C322,88.36,319.88,91,317.52,91Zm0-21.19c-1.84,0-3.6,2.41-4.38,6-1.12,5.21.05,11.23,2.61,13.43a2.72,2.72,0,0,0,1.77.76c1.84,0,3.6-2.42,4.38-6,1.12-5.2,0-11.23-2.61-13.44A2.72,2.72,0,0,0,317.52,69.84Z" transform="translate(-207.47)"/><path class="cls-6" d="M330.74,79.58a3.8,3.8,0,0,1,3,1.82c2.42,3.28,3.06,9.86,1.42,14.71-1,3-2.69,4.65-4.39,4.65a3.8,3.8,0,0,1-3-1.82c-2.42-3.28-3.06-9.86-1.42-14.71C327.37,81.21,329,79.58,330.74,79.58Z" transform="translate(-207.47)"/><path class="cls-4" d="M330.73,101.26a4.3,4.3,0,0,1-3.37-2c-2.5-3.39-3.17-10.19-1.48-15.16,1.05-3.13,2.87-5,4.86-5h0a4.27,4.27,0,0,1,3.36,2c2.51,3.39,3.18,10.19,1.49,15.17C334.54,99.39,332.72,101.26,330.73,101.26Zm0-21.18c-1.54,0-3,1.61-3.92,4.32-1.59,4.7-1,11.09,1.35,14.24a3.34,3.34,0,0,0,2.56,1.62c1.54,0,3-1.61,3.92-4.31,1.59-4.7,1-11.1-1.35-14.25a3.34,3.34,0,0,0-2.56-1.62Z" transform="translate(-207.47)"/><path class="cls-6" d="M343,95c1.36,0,2.72,1,3.75,3.11a18.82,18.82,0,0,1,0,15c-1,2.07-2.39,3.1-3.74,3.1s-2.71-1-3.75-3.11a18.89,18.89,0,0,1,0-15C340.29,96,341.64,95,343,95Z" transform="translate(-207.47)"/><path class="cls-4" d="M343,116.63c-1.62,0-3.11-1.21-4.2-3.39a19.45,19.45,0,0,1,0-15.42c1.09-2.18,2.57-3.37,4.18-3.37s3.11,1.2,4.2,3.38a19.47,19.47,0,0,1,0,15.43C346.09,115.43,344.6,116.63,343,116.63Zm0-21.18c-1.21,0-2.38,1-3.29,2.81a18.34,18.34,0,0,0,0,14.53c.91,1.83,2.08,2.84,3.3,2.84s2.38-1,3.3-2.82a18.34,18.34,0,0,0,0-14.53C345.38,96.45,344.21,95.45,343,95.45Z" transform="translate(-207.47)"/><path class="cls-7" d="M305.7,51.77a49.2,49.2,0,0,1,10,3.19,62.12,62.12,0,0,1,14.07,8.75c9,7.34,17.29,17.59,24.52,30.18a177.91,177.91,0,0,1,10.4,21.48q3.21,7.86,6,16.45,2.28,7.13,4.21,14.69,1.73,6.75,3.16,13.82,1.33,6.66,2.42,13.57,1.05,6.71,1.82,13.63c.46,4.1.84,8.27,1.15,12.47H470c-.32-4.2-.69-8.37-1.15-12.47q-.78-6.92-1.83-13.63-1.06-6.92-2.42-13.57-1.44-7.07-3.16-13.82-1.92-7.56-4.21-14.69-2.75-8.58-6-16.45a177.93,177.93,0,0,0-10.41-21.48c-7.22-12.59-15.5-22.84-24.52-30.18A62.12,62.12,0,0,0,402.27,55a49.32,49.32,0,0,0-10-3.19,45.27,45.27,0,0,0-8.62-.9H297.08A45.19,45.19,0,0,1,305.7,51.77Z" transform="translate(-207.47)"/><path class="cls-4" d="M305.61,52.26a48.63,48.63,0,0,1,9.85,3.16,61.4,61.4,0,0,1,14,8.68c8.9,7.24,17.11,17.35,24.4,30a179.9,179.9,0,0,1,10.37,21.42c2.13,5.22,4.13,10.74,5.94,16.42,1.52,4.72,2.93,9.65,4.21,14.66,1.14,4.48,2.2,9.12,3.15,13.79.89,4.43,1.71,9,2.42,13.55s1.31,9.05,1.82,13.61c.4,3.58.73,8.24,1,12.36V200h1v-.12c-.3-4.13-.64-8.8-1-12.4-.51-4.57-1.13-9.17-1.82-13.66s-1.53-9.15-2.43-13.59c-1-4.68-2-9.34-3.17-13.84-1.28-5-2.7-10-4.21-14.72-1.82-5.69-3.83-11.24-6-16.49A181.93,181.93,0,0,0,354.7,93.64c-7.35-12.8-15.64-23-24.64-30.32a63,63,0,0,0-14.19-8.82,49.85,49.85,0,0,0-9.63-3.13h77.44a44.75,44.75,0,0,1,8.53.89,48.91,48.91,0,0,1,9.86,3.16,61.56,61.56,0,0,1,14,8.68c8.9,7.24,17.11,17.35,24.4,30a179.9,179.9,0,0,1,10.37,21.42c2.13,5.22,4.13,10.74,5.95,16.42,1.51,4.72,2.92,9.65,4.2,14.66,1.14,4.48,2.2,9.12,3.15,13.79.9,4.45,1.71,9,2.42,13.55s1.31,9,1.82,13.61c.4,3.58.74,8.24,1,12.36V200h1v-.12c-.3-4.13-.63-8.8-1-12.4-.51-4.6-1.13-9.19-1.82-13.66s-1.53-9.12-2.43-13.59c-.95-4.68-2-9.34-3.16-13.84-1.29-5-2.7-10-4.22-14.72-1.82-5.69-3.83-11.24-6-16.49A181.93,181.93,0,0,0,441.3,93.64c-7.35-12.8-15.64-23-24.64-30.32a62.78,62.78,0,0,0-14.19-8.82,50,50,0,0,0-10.06-3.22,45.85,45.85,0,0,0-8.72-.91H296.77v1h.31A44.75,44.75,0,0,1,305.61,52.26Z" transform="translate(-207.47)"/></g></g></svg>