<?xml version="1.0" encoding="utf-8"?>
<!-- Generator: Adobe Illustrator 25.3.1, SVG Export Plug-In . SVG Version: 6.00 Build 0)  -->
<svg version="1.1" id="Options" xmlns="http://www.w3.org/2000/svg" xmlns:xlink="http://www.w3.org/1999/xlink" x="0px" y="0px"
	 viewBox="0 0 512 512" style="enable-background:new 0 0 512 512;" xml:space="preserve">
<style type="text/css">
	.st0{display:none;fill:#BFA289;}
	.st1{fill:#AB3333;}
</style>
<path id="Save_and_Load" class="st0" d="M255.2,340.2c-4.3,0-8.4-1.8-11.4-4.9L133.3,218.9c-9.6-10.1-2.4-26.8,11.4-26.8h57.9v-26.5
	c0-90.4,73.2-164,163.1-164c8.7,0,15.8,7.1,15.8,15.9s-7.1,15.9-15.8,15.9c-31.9,0-57.9,26.1-57.9,58.2v100.5h57.9
	c13.8,0,21,16.7,11.4,26.8L266.6,335.3C263.7,338.4,259.5,340.2,255.2,340.2L255.2,340.2z M444.6,382.6H65.8
	C31,382.6,2.7,411,2.7,446.1s28.3,63.5,63.1,63.5h378.8c34.8,0,63.1-28.5,63.1-63.5S479.4,382.6,444.6,382.6z M444.6,477.8H234.2
	v-63.5h210.4c17.4,0,31.6,14.2,31.6,31.8C476.2,463.6,462,477.8,444.6,477.8z"/>
<path id="Details" class="st0" d="M390.2,14H233.9c-1.7,0.7-3.1,1.8-4.3,3.2L79.2,166.5c-1.3,1.4-2.2,3.1-2.6,4.9v1.3
	c0,0.4,0,0.9,0,1.3L76,454.1c0.1,24.3,19.8,44,44.2,44.2h270.1c24.3-0.1,44-19.8,44.2-44.2V58.2C434.4,33.8,414.6,14,390.2,14z
	 M169.9,106.8l56.7-56.3v90.9c-0.1,12.6-10.4,22.8-23,22.8h-91.1L169.9,106.8z M413.1,58.2v395.9c-0.1,12.6-10.3,22.7-22.8,22.8
	H120.4c-12.6,0-22.9-10.2-23-22.8V185.5H204c24.3-0.1,44-19.8,44.2-44.2V34.7h142.3c12.6,0.1,22.7,10.4,22.6,23
	C413.1,57.9,413.1,58,413.1,58.2z M176.7,234.8h-21.3c-5.9,0-10.7,4.8-10.7,10.7v21.3c0,5.9,4.8,10.7,10.7,10.7h21.3
	c5.9,0,10.7-4.8,10.7-10.7v-21.3C187.4,239.6,182.6,234.8,176.7,234.8z M208.3,245.3h157.4v21.3H208.3V245.3z M176.7,313.5h-21.3
	c-5.9,0-10.7,4.8-10.7,10.7V346c0,5.9,4.8,10.7,10.7,10.7h21.3c5.9,0,10.7-4.8,10.7-10.7v-21.8C187.4,318.3,182.6,313.5,176.7,313.5
	z M208.3,324.4h157.4v21.3H208.3V324.4z M176.7,392.7h-21.3c-5.9,0-10.7,4.8-10.7,10.7v21.3c0,5.9,4.8,10.7,10.7,10.7h21.3
	c5.9,0,10.7-4.8,10.7-10.7v-21.3C187.4,397.4,182.6,392.7,176.7,392.7z M208.3,403.1h157.4v21.3H208.3V403.1z"/>
<path id="Print" class="st0" d="M428.5,135h-13.3V83.5c0-39.4-32.1-71.5-71.5-71.5H168.3c-39.4,0-71.5,32.1-71.5,71.5V135H83.5
	C44.1,135,12,167,12,206.4v114.4c0,39.4,32.1,71.5,71.5,71.5h13.3v64.8c0,23.6,19.2,42.9,42.9,42.9h232.6
	c23.6,0,42.9-19.2,42.9-42.9v-64.8h13.3c39.4,0,71.5-32.1,71.5-71.5V206.4C500,167,467.9,135,428.5,135z M125.4,83.5
	c0-23.6,19.2-42.9,42.9-42.9h175.4c23.6,0,42.9,19.2,42.9,42.9V135H125.4V83.5z M386.6,457.1c0,7.9-6.4,14.3-14.3,14.3H139.7
	c-7.9,0-14.3-6.4-14.3-14.3V316h261.2V457.1z M471.4,320.8c0,23.6-19.2,42.9-42.9,42.9h-13.3V316h8.6c7.9,0,14.3-6.4,14.3-14.3
	s-6.4-14.3-14.3-14.3H88.2c-7.9,0-14.3,6.4-14.3,14.3S80.3,316,88.2,316h8.6v47.7H83.5c-23.6,0-42.9-19.2-42.9-42.9V206.4
	c0-23.6,19.2-42.9,42.9-42.9h345c23.6,0,42.9,19.2,42.9,42.9V320.8z M294.1,348.5h-76.2c-7.9,0-14.3,6.4-14.3,14.3
	S210,377,217.9,377h76.2c7.9,0,14.3-6.4,14.3-14.3S302,348.5,294.1,348.5z M294.1,409.5h-76.2c-7.9,0-14.3,6.4-14.3,14.3
	S210,438,217.9,438h76.2c7.9,0,14.3-6.4,14.3-14.3S302,409.5,294.1,409.5z M134,196H88.2c-7.9,0-14.3,6.4-14.3,14.3
	s6.4,14.3,14.3,14.3H134c7.9,0,14.3-6.4,14.3-14.3S141.9,196,134,196z"/>
<path id="Undo" class="st1" d="M28.1,216.9c-10,0-17.5-9.3-15.2-19.2c0.2-0.8,0.4-1.5,0.6-2.3c2.1-8.4,10.6-13.4,19-11.3
	c8.4,2.1,13.4,10.6,11.3,19c-0.1,0.5-0.3,1.1-0.4,1.6C41.6,212.1,35.2,216.9,28.1,216.9z M256.1,505.7
	C115.3,505.7,3.6,390.2,6,251.6c0.2-8.6,7.3-15.5,15.9-15.3s15.5,7.3,15.3,15.9c-1.4,76.1,37.3,146.4,98.7,186.6
	c70,45.8,161.6,47.5,233.4,3.9c103-62.6,135.8-197.3,73.2-300.3C353.7-4,137.3,4.1,60.4,157.9c-3.9,7.7-13.2,10.8-20.9,7
	c-7.7-3.9-10.8-13.2-7-20.9C77.4,54,175.9-4.8,284.2,7.7C359,16.3,428,58.2,469.3,126.1C571,293.4,448.8,505.7,256.1,505.7z
	 M287.1,185.6h-79.4l4.6-4.6c6.1-6.1,6.1-16,0-22.1s-16-6.1-22.1,0c-33.4,33.4-33,32.4-34.6,36.3c-1.1,2.6-1.4,5.4-1,8.2
	c1,6.9,2,6.4,35.6,40.1c3,3,7,4.6,11,4.6c13.8,0,20.9-16.8,11-26.7l-4.6-4.6H287c21.5,0,39,17.5,39,39s-17.5,39-39,39h-85.9
	c-8.6,0-15.6,7-15.6,15.6s7,15.6,15.6,15.6H287c38.7,0,70.3-31.5,70.3-70.3S325.8,185.6,287.1,185.6L287.1,185.6z"/>
<path id="Reset" class="st0" d="M442.1,309.4c-13.2-5.9-28.7,0-34.6,13.2c-37.5,83.6-135.7,121-219.3,83.5
	c-34.9-15.6-63.3-42.9-80.4-77.1l14.8,6.6c13.2,5.9,28.7-0.1,34.6-13.3c5.9-13.2-0.1-28.7-13.3-34.6l0,0L75,257
	c-13.2-5.9-28.7,0.1-34.6,13.3l0,0l-30.8,69c-5.9,13.2,0.1,28.7,13.3,34.6s28.7-0.1,34.6-13.3l3.5-7.9C98,426.5,173.5,473,256,473
	c1.3,0,2.5,0,3.8,0c84.6-1.5,160.8-51.7,195.4-128.9C461.2,330.8,455.3,315.3,442.1,309.4z M489.2,135.5
	c-13.2-5.9-28.7,0.1-34.6,13.3l-3.5,7.9C396.9,48.9,265.7,5.5,157.9,59.7c-44.3,22.3-79.7,58.9-100.4,104
	c-6.1,13.1-0.3,28.7,12.8,34.8s28.7,0.3,34.8-12.8c0,0,0,0,0-0.1c38.2-83.3,136.8-119.8,220.1-81.6c34.3,15.7,62.2,42.7,79.1,76.4
	l-14.8-6.6c-13.2-5.8-28.7,0.2-34.5,13.5c-5.8,13.2,0.1,28.5,13.2,34.4l68.7,30.6l0.1,0.1c13.2,5.9,28.7,0,34.6-13.2c0,0,0,0,0-0.1
	l30.7-68.9C508.3,156.9,502.4,141.4,489.2,135.5L489.2,135.5z"/>
</svg>
