<svg xmlns="http://www.w3.org/2000/svg" viewBox="0 0 68.14 43.88"><defs><style>.cls-1{opacity:0.5;}.cls-2{fill:#181716;}</style></defs><g id="Ringprofil" class="cls-1"><path class="cls-2" d="M124.58,98.34a100,100,0,0,1,.7,18.6H129a95.41,95.41,0,0,0-1-18.78c-3.07-17.91-12.13-22.41-12.68-22.54l2,7.29C117.39,82.94,122.71,86,124.58,98.34Z" transform="translate(-60.93 -73.06)"/><path class="cls-2" d="M120.66,116.94h3.26a56.89,56.89,0,0,0-1.68-11.06c-2-8-8.43-13.33-8.66-13.59l-1.38,2.29a27,27,0,0,1,7.13,12A45.18,45.18,0,0,1,120.66,116.94Z" transform="translate(-60.93 -73.06)"/><path class="cls-2" d="M89.79,116.94h3.66a31.13,31.13,0,0,0-7-14.13A94.57,94.57,0,0,0,71.33,89.35L66.66,94s9.65,5,16,11.62A34.35,34.35,0,0,1,89.79,116.94Z" transform="translate(-60.93 -73.06)"/><rect class="cls-2" width="58.94" height="22.48" rx="11.24"/></g></svg>