<svg xmlns="http://www.w3.org/2000/svg" viewBox="0 0 33.02 25.94"><g id="Ebene_2" data-name="Ebene 2"><g id="Ebene_1_Kopie" data-name="Ebene 1 Kopie"><path d="M32.67,8.6,24.42.35a1.17,1.17,0,0,0-1.67,0,1.17,1.17,0,0,0-.34.83V4.72H14.15a1.18,1.18,0,0,0,0,2.36h9.43A1.18,1.18,0,0,0,24.76,5.9V4l5.41,5.4-5.41,5.41V13a1.18,1.18,0,0,0-1.18-1.18h-13V8.25a1.18,1.18,0,0,0-2-.83L.35,15.68a1.15,1.15,0,0,0,0,1.66L8.6,25.6a1.17,1.17,0,0,0,.83.34,1.22,1.22,0,0,0,.46-.09,1.17,1.17,0,0,0,.72-1.09V21.23h8.26a1.18,1.18,0,0,0,0-2.36H9.43a1.18,1.18,0,0,0-1.18,1.18v1.87l-5.4-5.41,5.4-5.41V13a1.18,1.18,0,0,0,1.18,1.18h13v3.54a1.17,1.17,0,0,0,2,.83l8.25-8.25A1.18,1.18,0,0,0,32.67,8.6Z"/></g></g></svg>