<svg xmlns="http://www.w3.org/2000/svg" viewBox="0 0 99.44 47.89"><defs><style>.cls-1{opacity:0.5;}</style></defs><g id="Gravur" class="cls-1"><path d="M99.72,118.44H86.33l-2.09-9.51H65.62l-5.77,9.51H45.28L75.94,71.06H88.08Zm-11-3H95.9L85.73,74.06H77.58L50.8,115.44h7.36l5.77-9.51H86.65ZM85.6,101.13H66.86l13.8-22.59Zm-13.39-3h9.66L79.33,86.48Zm44.69,20.81c-9.55,0-16.21-6.89-16.21-16.77,0-12.17,8.74-21.35,20.33-21.35,4.26,0,7.73,1.13,10.21,3.3l.53-2.79h13l-7.38,37.11H124.91l.29-1.51A17.3,17.3,0,0,1,116.9,118.94ZM121,83.82c-9.88,0-17.33,7.89-17.33,18.35,0,9.46,6.84,13.77,13.21,13.77a13.82,13.82,0,0,0,9.45-3.47l3.31-3-1.13,6h6.34l6.19-31.11h-6.82l-1.38,7.16-2-3.24C129,85.31,125.7,83.82,121,83.82Zm-1.08,27c-5.74,0-9.3-3.47-9.3-9,0-7.37,4.84-12.72,11.52-12.72,5.73,0,9.3,3.46,9.3,9C131.46,105.42,126.61,110.77,119.94,110.77ZM122.16,92c-5,0-8.52,4-8.52,9.72,0,3.9,2.24,6,6.3,6,5,0,8.52-4,8.52-9.73C128.46,94.15,126.22,92,122.16,92Z" transform="translate(-45.28 -71.06)"/></g></svg>