<svg xmlns="http://www.w3.org/2000/svg" xmlns:xlink="http://www.w3.org/1999/xlink" viewBox="0 0 200 200"><defs><style>.cls-1,.cls-6{fill:#fff;}.cls-1{opacity:0;}.cls-2{fill:url(#Neues_Verlaufsfeld_2);}.cls-3,.cls-4{opacity:0.4;}.cls-4{fill:url(#Unbenannter_Verlauf_6);}.cls-5{opacity:0.7;fill:url(#Unbenannter_Verlauf_154);}.cls-6{opacity:0.1;}.cls-7{fill:url(#Unbenannter_Verlauf_21);}.cls-8{opacity:0.65;fill:url(#Unbenannter_Verlauf_24);}.cls-9{fill:url(#Unbenannter_Verlauf_79);}.cls-10{fill:#999;}</style><linearGradient id="Neues_Verlaufsfeld_2" x1="5.9" y1="124.84" x2="194.28" y2="124.84" gradientUnits="userSpaceOnUse"><stop offset="0" stop-color="#8a8a8a"/><stop offset="0.04" stop-color="#9e9e9e"/><stop offset="0.15" stop-color="#bebebe"/><stop offset="0.32" stop-color="#ededed"/><stop offset="0.4" stop-color="#fff"/><stop offset="0.45" stop-color="#f6f6f6"/><stop offset="0.6" stop-color="#e0e0e0"/><stop offset="0.63" stop-color="#cacaca"/><stop offset="0.69" stop-color="#999"/><stop offset="0.75" stop-color="#7b7b7b"/><stop offset="0.78" stop-color="#707070"/><stop offset="0.82" stop-color="#737373"/><stop offset="0.85" stop-color="#7e7e7e"/><stop offset="0.88" stop-color="#909090"/><stop offset="0.91" stop-color="#a9a9a9"/><stop offset="0.94" stop-color="#c9c9c9"/><stop offset="0.96" stop-color="#efefef"/><stop offset="0.96" stop-color="#f0f0f0"/><stop offset="1" stop-color="#d9d9d9"/></linearGradient><linearGradient id="Unbenannter_Verlauf_6" x1="20.21" y1="197.95" x2="20.21" y2="113.55" gradientUnits="userSpaceOnUse"><stop offset="0"/><stop offset="0.09" stop-color="#1d1d1b" stop-opacity="0.95"/><stop offset="0.3" stop-color="#111110" stop-opacity="0.57"/><stop offset="0.66" stop-color="#040404" stop-opacity="0.14"/><stop offset="1" stop-opacity="0"/></linearGradient><linearGradient id="Unbenannter_Verlauf_154" x1="102" y1="26.22" x2="100.64" y2="121.32" gradientUnits="userSpaceOnUse"><stop offset="0" stop-color="#666"/><stop offset="0.7" stop-color="#9e9e9e" stop-opacity="0"/></linearGradient><linearGradient id="Unbenannter_Verlauf_21" x1="20.21" y1="113.55" x2="20.21" y2="118.28" gradientUnits="userSpaceOnUse"><stop offset="0" stop-color="#fff"/><stop offset="1" stop-opacity="0"/></linearGradient><linearGradient id="Unbenannter_Verlauf_24" x1="39.28" y1="155.75" x2="1.6" y2="155.75" gradientUnits="userSpaceOnUse"><stop offset="0"/><stop offset="0.6" stop-opacity="0"/></linearGradient><linearGradient id="Unbenannter_Verlauf_79" x1="58.62" y1="66.31" x2="142.26" y2="204.35" gradientUnits="userSpaceOnUse"><stop offset="0" stop-color="#fff"/><stop offset="0.02" stop-color="#fff" stop-opacity="0.86"/><stop offset="0.06" stop-color="#fff" stop-opacity="0.68"/><stop offset="0.1" stop-color="#fff" stop-opacity="0.52"/><stop offset="0.14" stop-color="#fff" stop-opacity="0.38"/><stop offset="0.18" stop-color="#fff" stop-opacity="0.26"/><stop offset="0.23" stop-color="#fff" stop-opacity="0.16"/><stop offset="0.29" stop-color="#fff" stop-opacity="0.09"/><stop offset="0.35" stop-color="#fff" stop-opacity="0.04"/><stop offset="0.43" stop-color="#fff" stop-opacity="0.01"/><stop offset="0.59" stop-color="#fff" stop-opacity="0"/></linearGradient></defs><g id="BG"><rect class="cls-1" width="200" height="200"/></g><g id="Stufen"><g id="links"><path class="cls-2" d="M134.14,51.73a287.58,287.58,0,0,0-34.76-1.89,284.31,284.31,0,0,0-32.73,1.75,68.47,68.47,0,0,0-23.07,6.95v57.09H6.05c-.09,1.42-.15,2.85-.15,4.29v79.92H194.28V120A68.64,68.64,0,0,0,134.14,51.73Z" transform="translate(-4.3 -1.89)"/><rect class="cls-3" x="1.6" y="113.74" width="37.68" height="84.03"/><rect class="cls-4" x="1.6" y="113.55" width="37.22" height="84.41"/><path class="cls-5" d="M134.14,51.73a287.58,287.58,0,0,0-34.76-1.89,284.31,284.31,0,0,0-32.73,1.75,68.47,68.47,0,0,0-23.07,6.95v57.09H6.05c-.09,1.42-.15,2.85-.15,4.29v79.92H194.28V120A68.64,68.64,0,0,0,134.14,51.73Z" transform="translate(-4.3 -1.89)"/><path id="Seite-Licht" class="cls-6" d="M194.28,120c0-41.08-32.3-61.31-44.07-64.12,0,0,30.79,15.79,31,49.63.14,22.49.38,94.34.38,94.34h12.7Z" transform="translate(-4.3 -1.89)"/><rect class="cls-7" x="1.6" y="113.55" width="37.22" height="4.73"/><rect class="cls-8" x="1.6" y="113.55" width="37.68" height="84.41"/><path class="cls-9" d="M111.53,50.89s-15.39-.35-28,.28c-16.06.79-30.29,2.57-40,9V200H172.24V112.41C172.24,79,144.92,50.89,111.53,50.89Z" transform="translate(-4.3 -1.89)"/><polygon class="cls-10" points="38.83 198.1 39.73 198.1 39.73 56.52 38.83 57.12 38.83 198.1"/></g></g></svg>