<svg id="Ebene_1" data-name="Ebene 1" xmlns="http://www.w3.org/2000/svg" viewBox="0 0 654 388"><g id="double-ring"><path d="M316,413c-107,0-194-87-194-194S209,25,316,25s194,87,194,194S423,413,316,413Zm0-362c-92.64,0-168,75.36-168,168s75.36,168,168,168,168-75.36,168-168S408.64,51,316,51Z" transform="translate(-122 -25)"/><path d="M582,413c-107,0-194-87-194-194S475,25,582,25s194,87,194,194S689,413,582,413Zm0-362c-92.64,0-168,75.36-168,168s75.36,168,168,168,168-75.36,168-168S674.64,51,582,51Z" transform="translate(-122 -25)"/></g></svg>