<svg xmlns="http://www.w3.org/2000/svg" viewBox="0 0 160 96" role="img" aria-label="Doppelt außen">
  <rect width="160" height="96" fill="none"/>
  <path d="M20 18 H140" stroke="#d7aa55" stroke-width="4" stroke-linecap="round" opacity=".7"/>
  <path d="M20 78 H140" stroke="#d7aa55" stroke-width="4" stroke-linecap="round" opacity=".7"/>
  <circle cx="32" cy="22" r="4.2" fill="#f3c15d" stroke="#7a4a12" stroke-width="1.2"/><circle cx="44" cy="22" r="4.2" fill="#f3c15d" stroke="#7a4a12" stroke-width="1.2"/><circle cx="56" cy="22" r="4.2" fill="#f3c15d" stroke="#7a4a12" stroke-width="1.2"/><circle cx="68" cy="22" r="4.2" fill="#f3c15d" stroke="#7a4a12" stroke-width="1.2"/><circle cx="80" cy="22" r="4.2" fill="#f3c15d" stroke="#7a4a12" stroke-width="1.2"/><circle cx="92" cy="22" r="4.2" fill="#f3c15d" stroke="#7a4a12" stroke-width="1.2"/><circle cx="104" cy="22" r="4.2" fill="#f3c15d" stroke="#7a4a12" stroke-width="1.2"/><circle cx="116" cy="22" r="4.2" fill="#f3c15d" stroke="#7a4a12" stroke-width="1.2"/><circle cx="128" cy="22" r="4.2" fill="#f3c15d" stroke="#7a4a12" stroke-width="1.2"/><path d="M26 14 H134 M26 30 H134" stroke="#b5893a" stroke-width="1.2" opacity=".65"/><circle cx="32" cy="38" r="4.2" fill="#f3c15d" stroke="#7a4a12" stroke-width="1.2"/><circle cx="44" cy="38" r="4.2" fill="#f3c15d" stroke="#7a4a12" stroke-width="1.2"/><circle cx="56" cy="38" r="4.2" fill="#f3c15d" stroke="#7a4a12" stroke-width="1.2"/><circle cx="68" cy="38" r="4.2" fill="#f3c15d" stroke="#7a4a12" stroke-width="1.2"/><circle cx="80" cy="38" r="4.2" fill="#f3c15d" stroke="#7a4a12" stroke-width="1.2"/><circle cx="92" cy="38" r="4.2" fill="#f3c15d" stroke="#7a4a12" stroke-width="1.2"/><circle cx="104" cy="38" r="4.2" fill="#f3c15d" stroke="#7a4a12" stroke-width="1.2"/><circle cx="116" cy="38" r="4.2" fill="#f3c15d" stroke="#7a4a12" stroke-width="1.2"/><circle cx="128" cy="38" r="4.2" fill="#f3c15d" stroke="#7a4a12" stroke-width="1.2"/><path d="M26 30 H134 M26 46 H134" stroke="#b5893a" stroke-width="1.2" opacity=".65"/><circle cx="32" cy="58" r="4.2" fill="#f3c15d" stroke="#7a4a12" stroke-width="1.2"/><circle cx="44" cy="58" r="4.2" fill="#f3c15d" stroke="#7a4a12" stroke-width="1.2"/><circle cx="56" cy="58" r="4.2" fill="#f3c15d" stroke="#7a4a12" stroke-width="1.2"/><circle cx="68" cy="58" r="4.2" fill="#f3c15d" stroke="#7a4a12" stroke-width="1.2"/><circle cx="80" cy="58" r="4.2" fill="#f3c15d" stroke="#7a4a12" stroke-width="1.2"/><circle cx="92" cy="58" r="4.2" fill="#f3c15d" stroke="#7a4a12" stroke-width="1.2"/><circle cx="104" cy="58" r="4.2" fill="#f3c15d" stroke="#7a4a12" stroke-width="1.2"/><circle cx="116" cy="58" r="4.2" fill="#f3c15d" stroke="#7a4a12" stroke-width="1.2"/><circle cx="128" cy="58" r="4.2" fill="#f3c15d" stroke="#7a4a12" stroke-width="1.2"/><path d="M26 50 H134 M26 66 H134" stroke="#b5893a" stroke-width="1.2" opacity=".65"/><circle cx="32" cy="74" r="4.2" fill="#f3c15d" stroke="#7a4a12" stroke-width="1.2"/><circle cx="44" cy="74" r="4.2" fill="#f3c15d" stroke="#7a4a12" stroke-width="1.2"/><circle cx="56" cy="74" r="4.2" fill="#f3c15d" stroke="#7a4a12" stroke-width="1.2"/><circle cx="68" cy="74" r="4.2" fill="#f3c15d" stroke="#7a4a12" stroke-width="1.2"/><circle cx="80" cy="74" r="4.2" fill="#f3c15d" stroke="#7a4a12" stroke-width="1.2"/><circle cx="92" cy="74" r="4.2" fill="#f3c15d" stroke="#7a4a12" stroke-width="1.2"/><circle cx="104" cy="74" r="4.2" fill="#f3c15d" stroke="#7a4a12" stroke-width="1.2"/><circle cx="116" cy="74" r="4.2" fill="#f3c15d" stroke="#7a4a12" stroke-width="1.2"/><circle cx="128" cy="74" r="4.2" fill="#f3c15d" stroke="#7a4a12" stroke-width="1.2"/><path d="M26 66 H134 M26 82 H134" stroke="#b5893a" stroke-width="1.2" opacity=".65"/>
  <text x="80" y="92" text-anchor="middle" font-family="Arial, sans-serif" font-size="11" fill="#5f3b0e">Doppelt außen</text>
</svg>
