<svg xmlns="http://www.w3.org/2000/svg" xmlns:xlink="http://www.w3.org/1999/xlink" viewBox="0 0 200 200.09"><defs><style>.cls-1,.cls-5,.cls-8{fill:#fff;}.cls-1{opacity:0;}.cls-2{fill:url(#Neues_Verlaufsfeld_2);}.cls-3{fill:#b2b2b2;}.cls-4{fill:#666;}.cls-6,.cls-7{opacity:0.7;}.cls-7{fill:url(#Unbenannter_Verlauf_154);}.cls-8{opacity:0.1;}.cls-9{fill:url(#Unbenannter_Verlauf_79);}</style><linearGradient id="Neues_Verlaufsfeld_2" x1="5.9" y1="124.84" x2="194.28" y2="124.84" gradientUnits="userSpaceOnUse"><stop offset="0" stop-color="#8a8a8a"/><stop offset="0.04" stop-color="#9e9e9e"/><stop offset="0.15" stop-color="#bebebe"/><stop offset="0.32" stop-color="#ededed"/><stop offset="0.4" stop-color="#fff"/><stop offset="0.45" stop-color="#f6f6f6"/><stop offset="0.6" stop-color="#e0e0e0"/><stop offset="0.63" stop-color="#cacaca"/><stop offset="0.69" stop-color="#999"/><stop offset="0.75" stop-color="#7b7b7b"/><stop offset="0.78" stop-color="#707070"/><stop offset="0.82" stop-color="#737373"/><stop offset="0.85" stop-color="#7e7e7e"/><stop offset="0.88" stop-color="#909090"/><stop offset="0.91" stop-color="#a9a9a9"/><stop offset="0.94" stop-color="#c9c9c9"/><stop offset="0.96" stop-color="#efefef"/><stop offset="0.96" stop-color="#f0f0f0"/><stop offset="1" stop-color="#d9d9d9"/></linearGradient><linearGradient id="Unbenannter_Verlauf_154" x1="102" y1="26.22" x2="100.64" y2="121.32" gradientUnits="userSpaceOnUse"><stop offset="0" stop-color="#666"/><stop offset="0.7" stop-color="#9e9e9e" stop-opacity="0"/></linearGradient><linearGradient id="Unbenannter_Verlauf_79" x1="51.19" y1="73.28" x2="133.84" y2="209.7" gradientUnits="userSpaceOnUse"><stop offset="0" stop-color="#fff"/><stop offset="0.02" stop-color="#fff" stop-opacity="0.86"/><stop offset="0.06" stop-color="#fff" stop-opacity="0.68"/><stop offset="0.1" stop-color="#fff" stop-opacity="0.52"/><stop offset="0.14" stop-color="#fff" stop-opacity="0.38"/><stop offset="0.18" stop-color="#fff" stop-opacity="0.26"/><stop offset="0.23" stop-color="#fff" stop-opacity="0.16"/><stop offset="0.29" stop-color="#fff" stop-opacity="0.09"/><stop offset="0.35" stop-color="#fff" stop-opacity="0.04"/><stop offset="0.43" stop-color="#fff" stop-opacity="0.01"/><stop offset="0.59" stop-color="#fff" stop-opacity="0"/></linearGradient></defs><g id="BG"><rect class="cls-1" width="200" height="200"/></g><g id="Position"><g id="Rechts"><path id="Einfarbig" class="cls-2" d="M194.28,120a68.64,68.64,0,0,0-60.14-68.26,287.58,287.58,0,0,0-34.76-1.89,284.31,284.31,0,0,0-32.73,1.75A68.77,68.77,0,0,0,5.9,119.92v79.92H194.28Z" transform="translate(0.11)"/><path class="cls-3" d="M125,50.85c2.54.22,5.78.46,8.13.74a68.76,68.76,0,0,1,60.74,68.33v79.92H125Z" transform="translate(0.11)"/><path class="cls-4" d="M156.69,58.78a69.16,69.16,0,0,1,7,4.18L182,81.3a68.37,68.37,0,0,1,4.13,7Z" transform="translate(0.11)"/><path class="cls-4" d="M138.08,52.36c1.22.23,2.42.5,3.61.79l50.16,50.15c.29,1.2.57,2.41.8,3.64Z" transform="translate(0.11)"/><path class="cls-4" d="M193.88,120.36l-69-69,.5-.5,2,.17,66.48,66.48c0,.82,0,1.63,0,2.45Z" transform="translate(0.11)"/><polygon class="cls-4" points="124.96 63.51 126.37 62.1 194 129.72 194 132.55 124.96 63.51"/><polygon class="cls-4" points="124.96 75.7 126.37 74.29 194 141.91 194 144.74 124.96 75.7"/><polygon class="cls-4" points="124.96 87.89 126.37 86.48 194 154.1 194 156.93 124.96 87.89"/><polygon class="cls-4" points="124.96 100.08 126.37 98.67 194 166.29 194 169.12 124.96 100.08"/><polygon class="cls-4" points="124.96 112.27 126.37 110.86 194 178.48 194 181.31 124.96 112.27"/><polygon class="cls-4" points="124.96 124.47 126.37 123.05 194 190.67 194 193.5 124.96 124.47"/><polygon class="cls-4" points="124.96 136.66 126.37 135.24 190.97 199.84 188.15 199.84 124.96 136.66"/><polygon class="cls-4" points="124.96 148.85 126.37 147.43 178.78 199.84 175.95 199.84 124.96 148.85"/><polygon class="cls-4" points="124.96 161.04 126.37 159.62 166.59 199.84 163.76 199.84 124.96 161.04"/><polygon class="cls-4" points="124.96 173.23 126.37 171.81 154.4 199.84 151.57 199.84 124.96 173.23"/><polygon class="cls-4" points="124.96 185.42 126.37 184 142.21 199.84 139.38 199.84 124.96 185.42"/><polygon class="cls-4" points="126.37 196.19 130.02 199.84 127.19 199.84 124.96 197.61 126.37 196.19"/><circle class="cls-5" cx="160.29" cy="131.15" r="18.98"/><path class="cls-6" d="M143.77,131.15a16.41,16.41,0,1,1,16.41,16.41A16.43,16.43,0,0,1,143.77,131.15Zm3.45,0a13,13,0,1,0,13-13A13,13,0,0,0,147.22,131.15Z" transform="translate(0.11)"/><path id="Top-Schatten" class="cls-7" d="M194.28,120a68.64,68.64,0,0,0-60.14-68.26,287.58,287.58,0,0,0-34.76-1.89,284.31,284.31,0,0,0-32.73,1.75A68.77,68.77,0,0,0,5.9,119.92v79.92H194.28Z" transform="translate(0.11)"/><path id="Seite-Licht" class="cls-8" d="M194.28,120c0-41.08-32.3-61.31-44.07-64.12,0,0,30.79,15.79,31,49.63.14,22.49.38,94.34.38,94.34h12.7Z" transform="translate(0.11)"/><path id="Glanzlicht" class="cls-9" d="M172.24,200.09v-87.6c0-33.39-27.32-62.61-60.71-62.61H80.9c-33.39,0-60.72,29.22-60.72,62.61v87.6Z" transform="translate(0.11)"/></g></g></svg>