<?xml version="1.0" encoding="utf-8"?>
<!-- Generator: Adobe Illustrator 25.2.0, SVG Export Plug-In . SVG Version: 6.00 Build 0)  -->
<svg version="1.1" id="Ebene_1" xmlns="http://www.w3.org/2000/svg" xmlns:xlink="http://www.w3.org/1999/xlink" x="0px" y="0px"
	 viewBox="0 0 52 52" style="enable-background:new 0 0 52 52;" xml:space="preserve">
<style type="text/css">
	.st0{display:none;}
	.st1{display:inline;}
	.st2{fill-rule:evenodd;clip-rule:evenodd;fill:#1D1D1B;}
	.st3{fill-rule:evenodd;clip-rule:evenodd;fill:none;}
	.st4{display:none;fill:#312782;}
	.st5{display:inline;fill:#312782;}
	.st6{display:inline;fill:none;}
	.st7{opacity:0.35;}
	.st8{display:none;fill:none;}
	.st9{fill:#1D1D1B;}
</style>
<g class="st0">
	<g class="st1">
		<path class="st2" d="M3.7,3.7h13l-32,32h-13L3.7,3.7z"/>
		<path class="st3" d="M16.7,3.7h13l-32,32h-13L16.7,3.7z"/>
		<path class="st2" d="M29.7,3.7h13l-32,32h-13L29.7,3.7z"/>
		<path class="st3" d="M42.8,3.7h13l-32,32h-13L42.8,3.7z"/>
		<path class="st2" d="M55.8,3.7h13l-32,32h-13L55.8,3.7z"/>
	</g>
</g>
<rect x="-2.9" y="15.2" transform="matrix(0.7071 -0.7072 0.7072 0.7071 -8.1677 19.7207)" class="st4" width="45.3" height="9"/>
<g class="st0">
	
		<rect x="-54.5" y="-4.5" transform="matrix(0.7071 -0.7072 0.7072 0.7071 -9.478556e-05 2.448676e-04)" class="st5" width="108.9" height="9"/>
	<rect x="-41.5" y="8.5" transform="matrix(0.7071 -0.7072 0.7072 0.7071 -5.3849 13.0017)" class="st5" width="108.9" height="9"/>
	
		<rect x="-28.5" y="21.5" transform="matrix(0.7071 -0.7072 0.7072 0.7071 -10.7697 26.0031)" class="st5" width="108.9" height="9"/>
	
		<rect x="-15.5" y="34.5" transform="matrix(0.7071 -0.7072 0.7072 0.7071 -16.1544 39.0045)" class="st5" width="108.9" height="9"/>
	
		<rect x="-2.5" y="47.5" transform="matrix(0.7071 -0.7072 0.7072 0.7071 -21.5392 52.0059)" class="st5" width="108.9" height="9"/>
</g>
<g class="st0">
	<polygon class="st6" points="6.4,0 0,6.4 0,19.6 19.6,0 	"/>
	<polygon class="st6" points="45.6,52 52,45.6 52,32.4 32.4,52 	"/>
	<polygon class="st6" points="32.4,0 0,32.4 0,45.6 45.6,0 	"/>
	<polygon class="st6" points="52,19.6 52,6.4 6.4,52 19.6,52 	"/>
	<polygon class="st5" points="0,0 0,6.4 6.4,0 	"/>
	<polygon class="st5" points="19.6,0 0,19.6 0,32.4 32.4,0 	"/>
	<polygon class="st5" points="52,0 45.6,0 0,45.6 0,52 6.4,52 52,6.4 	"/>
	<polygon class="st5" points="32.4,52 52,32.4 52,19.6 19.6,52 	"/>
	<polygon class="st5" points="52,52 52,45.6 45.6,52 	"/>
</g>
<g class="st7">
	<polygon class="st8" points="6.4,0 0,6.4 0,19.6 19.6,0 	"/>
	<polygon class="st8" points="45.6,52 52,45.6 52,32.4 32.4,52 	"/>
	<polygon class="st8" points="32.4,0 0,32.4 0,45.6 45.6,0 	"/>
	<polygon class="st8" points="52,19.6 52,6.4 6.4,52 19.6,52 	"/>
	<polygon class="st9" points="0,0 0,6.4 6.4,0 	"/>
	<polygon class="st9" points="19.6,0 0,19.6 0,32.4 32.4,0 	"/>
	<polygon class="st9" points="52,0 45.6,0 0,45.6 0,52 6.4,52 52,6.4 	"/>
	<polygon class="st9" points="32.4,52 52,32.4 52,19.6 19.6,52 	"/>
	<polygon class="st9" points="52,52 52,45.6 45.6,52 	"/>
</g>
</svg>
