<?xml version="1.0" encoding="utf-8"?>
<!-- Generator: Adobe Illustrator 25.4.1, SVG Export Plug-In . SVG Version: 6.00 Build 0)  -->
<svg version="1.1" id="Ebene_1" xmlns="http://www.w3.org/2000/svg" xmlns:xlink="http://www.w3.org/1999/xlink" x="0px" y="0px"
	 viewBox="0 0 230.5 179.4" style="enable-background:new 0 0 230.5 179.4;" xml:space="preserve">
<style type="text/css">
	.st0{fill:url(#SVGID_1_);}
	.st1{fill:url(#SVGID_00000144312168183556072570000015198368980419934083_);}
	.st2{fill:url(#SVGID_00000136406807094167380660000011920115739006259103_);}
	.st3{opacity:0.78;fill:url(#SVGID_00000165950423079339394220000014781445755122053022_);enable-background:new    ;}
	.st4{opacity:0.51;fill:url(#SVGID_00000132084732787716360590000014547980068666586498_);enable-background:new    ;}
	.st5{fill:url(#SVGID_00000000212488239308456640000002313198908303087258_);}
	.st6{fill:#222222;}
</style>
<g id="Sockel">
	<g id="Sockel-2">
		
			<linearGradient id="SVGID_1_" gradientUnits="userSpaceOnUse" x1="75.5091" y1="193.4572" x2="244.5791" y2="152.4772" gradientTransform="matrix(1 0 0 -1 -34.73 287.1432)">
			<stop  offset="0" style="stop-color:#CDCBC9;stop-opacity:0.8"/>
			<stop  offset="1" style="stop-color:#BEBBB9"/>
		</linearGradient>
		<path class="st0" d="M199.3,67.6l-10.2-20.3H42.6L32.4,67.6c-0.7,1.4-0.8,2.9-0.2,4.4c3.1,8.4,14.1,38.7,16.2,53.1
			c5,35.4,5.9,54.2,5.9,54.2h123.3c0,0,0.9-18.8,5.9-54.2c2-14.4,13-44.7,16.2-53.1C200.1,70.5,200,68.9,199.3,67.6z"/>
		
			<radialGradient id="SVGID_00000113324778949460823000000014834591501719613605_" cx="121.4518" cy="-58.5049" r="7.43" gradientTransform="matrix(0.9879 -0.1551 -1.2466 -7.9428 -144.6852 -313.3573)" gradientUnits="userSpaceOnUse">
			<stop  offset="0.54" style="stop-color:#FFFFFF;stop-opacity:0.7"/>
			<stop  offset="0.56" style="stop-color:#FFFFFF;stop-opacity:0.61"/>
			<stop  offset="0.62" style="stop-color:#FFFFFF;stop-opacity:0.42"/>
			<stop  offset="0.67" style="stop-color:#FFFFFF;stop-opacity:0.27"/>
			<stop  offset="0.73" style="stop-color:#FFFFFF;stop-opacity:0.15"/>
			<stop  offset="0.78" style="stop-color:#FFFFFF;stop-opacity:7.000000e-02"/>
			<stop  offset="0.84" style="stop-color:#FFFFFF;stop-opacity:2.000000e-02"/>
			<stop  offset="0.88" style="stop-color:#FFFFFF;stop-opacity:0"/>
		</radialGradient>
		<path style="fill:url(#SVGID_00000113324778949460823000000014834591501719613605_);" d="M41.4,73.5c-2.2-8.3,9.2-26.3,9.2-26.3
			h-8L32.4,67.6c-0.7,1.4-0.8,2.9-0.2,4.4c3.1,8.4,14.1,38.7,16.2,53.1c5,35.4,5.9,54.2,5.9,54.2h5.6c0,0,1.2-16.8-4.3-52.1
			C53.3,113,52.5,116.1,41.4,73.5z"/>
		
			<linearGradient id="SVGID_00000102535974992566750740000004827974894199009948_" gradientUnits="userSpaceOnUse" x1="95.34" y1="168.2904" x2="204.36" y2="168.2904" gradientTransform="matrix(1 0 0 -1 -34.73 287.1432)">
			<stop  offset="0" style="stop-color:#DAD7D4"/>
			<stop  offset="0.48" style="stop-color:#F0EFEE"/>
			<stop  offset="1" style="stop-color:#CAC6C2"/>
		</linearGradient>
		<path style="fill:url(#SVGID_00000102535974992566750740000004827974894199009948_);" d="M115.8,59c33-0.7,52.7,5.7,58.1,18.4
			c10.3,24.1-7.4,46.4-9.6,67.6s-0.1,33.8-0.1,33.8H66c0,0,4.3-35.1-3.4-51.2c-7.5-15.7-11.8-36.1-3.4-51.6
			C69.7,56.6,115.8,59,115.8,59z"/>
		
			<linearGradient id="SVGID_00000070100308844200385780000011653047453763988129_" gradientUnits="userSpaceOnUse" x1="112.8657" y1="170.551" x2="145.2057" y2="168.291" gradientTransform="matrix(1 0 0 -1 -34.73 287.1432)">
			<stop  offset="0" style="stop-color:#FFFFFF;stop-opacity:0"/>
			<stop  offset="4.000000e-02" style="stop-color:#FFFFFF;stop-opacity:6.000000e-02"/>
			<stop  offset="0.24" style="stop-color:#FFFFFF;stop-opacity:0.34"/>
			<stop  offset="0.44" style="stop-color:#FFFFFF;stop-opacity:0.58"/>
			<stop  offset="0.61" style="stop-color:#FFFFFF;stop-opacity:0.76"/>
			<stop  offset="0.76" style="stop-color:#FFFFFF;stop-opacity:0.89"/>
			<stop  offset="0.89" style="stop-color:#FFFFFF;stop-opacity:0.97"/>
			<stop  offset="0.97" style="stop-color:#FFFFFF"/>
		</linearGradient>
		<path style="opacity:0.78;fill:url(#SVGID_00000070100308844200385780000011653047453763988129_);enable-background:new    ;" d="
			M160.3,60.5c5.4,0.6-42.6-0.1-52.3,15.2c-11.1,17.4-4.9,42.3,1.8,63.7c3.9,12.8,5.8,26.1,5.6,39.5H82.3c0,0,4.3-35.1-3.4-51.2
			C71.4,112,67.5,91.8,75.5,76C87.7,51.8,160.3,60.5,160.3,60.5z"/>
		
			<radialGradient id="SVGID_00000000921476891323355590000003444372637987192712_" cx="150.58" cy="166.1588" r="61.0011" gradientTransform="matrix(1 0 0 -1 -34.73 287.1432)" gradientUnits="userSpaceOnUse">
			<stop  offset="0" style="stop-color:#FFFFFF"/>
			<stop  offset="0.12" style="stop-color:#FFFFFF;stop-opacity:0.91"/>
			<stop  offset="0.38" style="stop-color:#FFFFFF;stop-opacity:0.66"/>
			<stop  offset="0.75" style="stop-color:#FFFFFF;stop-opacity:0.27"/>
			<stop  offset="1" style="stop-color:#FFFFFF;stop-opacity:0"/>
		</radialGradient>
		<path style="opacity:0.51;fill:url(#SVGID_00000000921476891323355590000003444372637987192712_);enable-background:new    ;" d="
			M81.5,179.4h68.7c29.5-19,38-58.2,19-87.7s-58.2-38-87.7-19s-38,58.2-19,87.7C67.4,168,73.9,174.5,81.5,179.4z"/>
		
			<radialGradient id="SVGID_00000181806419363005559700000016219773817349118138_" cx="156.71" cy="1222.0043" r="110.06" gradientTransform="matrix(1 0 0 -0.18 -34.71 401.9912)" gradientUnits="userSpaceOnUse">
			<stop  offset="0" style="stop-color:#1D1D1B;stop-opacity:0.7"/>
			<stop  offset="7.000000e-02" style="stop-color:#1D1D1B;stop-opacity:0.61"/>
			<stop  offset="0.56" style="stop-color:#1D1D1B;stop-opacity:0.15"/>
			<stop  offset="1" style="stop-color:#1D1D1B;stop-opacity:0"/>
		</radialGradient>
		
			<rect x="8.9" y="155.7" style="fill:url(#SVGID_00000181806419363005559700000016219773817349118138_);" width="213.9" height="23.5"/>
	</g>
</g>
<g id="Profile-Fill_Render">
	<g id="P8">
		<path id="P8-2" class="st6" d="M5.2,2h220.2c1.8,0,3.2,1.4,3.2,3.2V70c0,1.8-1.4,3.2-3.2,3.2H5.2C3.4,73.2,2,71.8,2,70V5.2
			C2,3.4,3.4,2,5.2,2z"/>
		<path class="st6" d="M225.4,75.2H5.2C2.3,75.2,0,72.9,0,70V5.2C0,2.3,2.3,0,5.2,0l0,0h220.2c2.9,0,5.2,2.3,5.2,5.2V70
			C230.6,72.9,228.2,75.2,225.4,75.2L225.4,75.2z M5.2,4C4.5,4,4,4.5,4,5.1V70c0,0.6,0.5,1.2,1.2,1.2l0,0h220.2
			c0.6,0,1.2-0.5,1.2-1.1l0,0V5.2c0-0.6-0.5-1.2-1.1-1.2l0,0C225.5,4,5.2,4,5.2,4z"/>
	</g>
</g>
</svg>
