<?xml version="1.0" encoding="utf-8"?>
<!-- Generator: Adobe Illustrator 25.4.1, SVG Export Plug-In . SVG Version: 6.00 Build 0)  -->
<svg version="1.1" id="Ebene_1" xmlns="http://www.w3.org/2000/svg" xmlns:xlink="http://www.w3.org/1999/xlink" x="0px" y="0px"
	 viewBox="0 0 213.9 220.1" style="enable-background:new 0 0 213.9 220.1;" xml:space="preserve">
<style type="text/css">
	.st0{fill:url(#SVGID_1_);}
	.st1{fill:url(#SVGID_00000114756274056203038300000013039647136745935281_);}
	.st2{fill:url(#SVGID_00000074401449930036595220000003950003410144619687_);}
	.st3{opacity:0.78;fill:url(#SVGID_00000067941682879139733670000012381579161383845032_);enable-background:new    ;}
	.st4{opacity:0.51;fill:url(#SVGID_00000105407590276451363370000017750590994164708536_);enable-background:new    ;}
	.st5{fill:url(#SVGID_00000007387905114585719140000015840657324139157931_);}
	.st6{fill:url(#P9-2_00000096019497392647021290000004023773749494442384_);}
	.st7{fill:#222222;}
</style>
<g id="Sockel">
	<g id="Sockel-2">
		
			<linearGradient id="SVGID_1_" gradientUnits="userSpaceOnUse" x1="75.5172" y1="273.4904" x2="244.5872" y2="232.5104" gradientTransform="matrix(1 0 0 -1 -43.66 407.8832)">
			<stop  offset="0" style="stop-color:#CDCBC9;stop-opacity:0.8"/>
			<stop  offset="1" style="stop-color:#BEBBB9"/>
		</linearGradient>
		<path class="st0" d="M190.4,108.3L180.2,88H33.6l-10.2,20.3c-0.7,1.4-0.8,2.9-0.2,4.4c3.1,8.4,14.1,38.8,16.2,53.1
			c5,35.4,5.9,54.2,5.9,54.2h123.3c0,0,0.9-18.8,5.9-54.2c2-14.4,13-44.7,16.2-53.1C191.2,111.2,191.1,109.7,190.4,108.3z"/>
		
			<radialGradient id="SVGID_00000156563381322497649990000007749369693026604941_" cx="130.4645" cy="-31.5955" r="7.43" gradientTransform="matrix(0.9879 -0.1551 -1.2466 -7.9428 -128.9726 -57.484)" gradientUnits="userSpaceOnUse">
			<stop  offset="0.54" style="stop-color:#FFFFFF;stop-opacity:0.7"/>
			<stop  offset="0.56" style="stop-color:#FFFFFF;stop-opacity:0.61"/>
			<stop  offset="0.62" style="stop-color:#FFFFFF;stop-opacity:0.42"/>
			<stop  offset="0.67" style="stop-color:#FFFFFF;stop-opacity:0.27"/>
			<stop  offset="0.73" style="stop-color:#FFFFFF;stop-opacity:0.15"/>
			<stop  offset="0.78" style="stop-color:#FFFFFF;stop-opacity:7.000000e-02"/>
			<stop  offset="0.84" style="stop-color:#FFFFFF;stop-opacity:2.000000e-02"/>
			<stop  offset="0.88" style="stop-color:#FFFFFF;stop-opacity:0"/>
		</radialGradient>
		<path style="fill:url(#SVGID_00000156563381322497649990000007749369693026604941_);" d="M32.5,114.2c-2.2-8.3,9.2-26.3,9.2-26.3
			h-8l-10.2,20.4c-0.7,1.4-0.8,2.9-0.2,4.4c3.1,8.4,14.1,38.8,16.2,53.1c5,35.4,5.9,54.2,5.9,54.2H51c0,0,1.2-16.8-4.3-52.1
			C44.3,153.8,43.6,156.8,32.5,114.2z"/>
		
			<linearGradient id="SVGID_00000019639402589927462820000003756785220645972405_" gradientUnits="userSpaceOnUse" x1="95.34" y1="248.3258" x2="204.36" y2="248.3258" gradientTransform="matrix(1 0 0 -1 -43.66 407.8832)">
			<stop  offset="0" style="stop-color:#DAD7D4"/>
			<stop  offset="0.48" style="stop-color:#F0EFEE"/>
			<stop  offset="1" style="stop-color:#CAC6C2"/>
		</linearGradient>
		<path style="fill:url(#SVGID_00000019639402589927462820000003756785220645972405_);" d="M106.9,99.7c33-0.7,52.7,5.7,58.1,18.4
			c10.3,24.1-7.4,46.4-9.6,67.6s-0.1,33.8-0.1,33.8H57c0,0,4.3-35.1-3.4-51.2c-7.5-15.7-11.8-36.1-3.4-51.6
			C60.8,97.4,106.9,99.7,106.9,99.7z"/>
		
			<linearGradient id="SVGID_00000156581658233180190360000013635951513337116813_" gradientUnits="userSpaceOnUse" x1="112.8677" y1="250.5806" x2="145.2077" y2="248.3206" gradientTransform="matrix(1 0 0 -1 -43.66 407.8832)">
			<stop  offset="0" style="stop-color:#FFFFFF;stop-opacity:0"/>
			<stop  offset="4.000000e-02" style="stop-color:#FFFFFF;stop-opacity:6.000000e-02"/>
			<stop  offset="0.24" style="stop-color:#FFFFFF;stop-opacity:0.34"/>
			<stop  offset="0.44" style="stop-color:#FFFFFF;stop-opacity:0.58"/>
			<stop  offset="0.61" style="stop-color:#FFFFFF;stop-opacity:0.76"/>
			<stop  offset="0.76" style="stop-color:#FFFFFF;stop-opacity:0.89"/>
			<stop  offset="0.89" style="stop-color:#FFFFFF;stop-opacity:0.97"/>
			<stop  offset="0.97" style="stop-color:#FFFFFF"/>
		</linearGradient>
		<path style="opacity:0.78;fill:url(#SVGID_00000156581658233180190360000013635951513337116813_);enable-background:new    ;" d="
			M151.3,101.2c5.4,0.6-42.6-0.1-52.3,15.2c-11.1,17.4-4.9,42.3,1.8,63.7c3.9,12.8,5.8,26.1,5.6,39.5H73.3c0,0,4.3-35.1-3.4-51.2
			c-7.5-15.7-11.4-35.9-3.4-51.7C78.8,92.6,151.3,101.2,151.3,101.2z"/>
		
			<radialGradient id="SVGID_00000145051571065487579360000009864838268913933502_" cx="150.61" cy="246.1988" r="61.0011" gradientTransform="matrix(1 0 0 -1 -43.66 407.8832)" gradientUnits="userSpaceOnUse">
			<stop  offset="0" style="stop-color:#FFFFFF"/>
			<stop  offset="0.12" style="stop-color:#FFFFFF;stop-opacity:0.91"/>
			<stop  offset="0.38" style="stop-color:#FFFFFF;stop-opacity:0.66"/>
			<stop  offset="0.75" style="stop-color:#FFFFFF;stop-opacity:0.27"/>
			<stop  offset="1" style="stop-color:#FFFFFF;stop-opacity:0"/>
		</radialGradient>
		<path style="opacity:0.51;fill:url(#SVGID_00000145051571065487579360000009864838268913933502_);enable-background:new    ;" d="
			M72.6,220.1h68.7c29.5-19,38-58.2,19-87.7s-58.2-38-87.7-19s-38,58.2-19,87.7C58.5,208.7,65,215.2,72.6,220.1z"/>
		
			<radialGradient id="SVGID_00000181791090258869841780000002058886041285767605_" cx="156.71" cy="1575.3376" r="110.06" gradientTransform="matrix(1 0 0 -0.18 -43.64 506.3312)" gradientUnits="userSpaceOnUse">
			<stop  offset="0" style="stop-color:#1D1D1B;stop-opacity:0.7"/>
			<stop  offset="7.000000e-02" style="stop-color:#1D1D1B;stop-opacity:0.61"/>
			<stop  offset="0.56" style="stop-color:#1D1D1B;stop-opacity:0.15"/>
			<stop  offset="1" style="stop-color:#1D1D1B;stop-opacity:0"/>
		</radialGradient>
		<rect y="196.4" style="fill:url(#SVGID_00000181791090258869841780000002058886041285767605_);" width="213.9" height="23.5"/>
	</g>
</g>
<g id="Profile-Konturen_Render">
	<g id="P9">
		
			<linearGradient id="P9-2_00000152256586302059393210000011161346140560493696_" gradientUnits="userSpaceOnUse" x1="17.4" y1="331.2732" x2="195.2" y2="331.2732" gradientTransform="matrix(1 0 0 -1 0 422.1732)">
			<stop  offset="0" style="stop-color:#E9E9E9"/>
			<stop  offset="0.53" style="stop-color:#F8F8F8"/>
			<stop  offset="1" style="stop-color:#FFFFFF"/>
		</linearGradient>
		<circle id="P9-2" style="fill:url(#P9-2_00000152256586302059393210000011161346140560493696_);" cx="106.3" cy="90.9" r="88.9"/>
		<path class="st7" d="M106.3,181.7c-50.2,0-90.9-40.7-90.9-90.9C15.5,40.7,56.2,0,106.4,0s90.9,40.7,90.9,90.9
			C197.1,141,156.5,181.6,106.3,181.7z M106.3,4c-48,0-86.9,38.9-86.9,86.9s38.9,86.9,86.9,86.9s86.9-38.9,86.9-86.9
			C193.1,42.9,154.3,4.1,106.3,4L106.3,4z"/>
	</g>
</g>
</svg>
