<?xml version="1.0" encoding="utf-8"?>
<!-- Generator: Adobe Illustrator 25.3.1, SVG Export Plug-In . SVG Version: 6.00 Build 0)  -->
<svg version="1.1" id="Ebene_1" xmlns="http://www.w3.org/2000/svg" xmlns:xlink="http://www.w3.org/1999/xlink" x="0px" y="0px"
	 viewBox="0 0 231 169.6" style="enable-background:new 0 0 231 169.6;" xml:space="preserve">
<style type="text/css">
	.st0{fill:url(#SVGID_1_);}
	.st1{fill:url(#SVGID_2_);}
	.st2{fill:url(#SVGID_3_);}
	.st3{opacity:0.78;fill:url(#SVGID_4_);enable-background:new    ;}
	.st4{opacity:0.51;fill:url(#SVGID_5_);enable-background:new    ;}
	.st5{fill:url(#SVGID_6_);}
	.st6{fill:#AB3333;}
</style>
<g id="Sockel">
	<g id="Sockel-2">
		
			<linearGradient id="SVGID_1_" gradientUnits="userSpaceOnUse" x1="75.5298" y1="21.5424" x2="244.5998" y2="-19.4376" gradientTransform="matrix(1 0 0 -1 -34.23 105.3832)">
			<stop  offset="0" style="stop-color:#CDCBC9;stop-opacity:0.8"/>
			<stop  offset="1" style="stop-color:#BEBBB9"/>
		</linearGradient>
		<path class="st0" d="M199.8,57.8l-10.2-20.3H43.1L32.9,57.8c-0.7,1.4-0.8,2.9-0.2,4.4c3.1,8.4,14.1,38.7,16.2,53.1
			c5,35.4,5.9,54.2,5.9,54.2H178c0,0,0.9-18.8,5.9-54.2c2-14.4,13-44.7,16.2-53.1C200.6,60.7,200.5,59.2,199.8,57.8z"/>
		
			<radialGradient id="SVGID_2_" cx="95.2078" cy="-84.584" r="7.43" gradientTransform="matrix(0.9879 -0.1551 -1.2466 -7.9428 -150.7693 -534.3291)" gradientUnits="userSpaceOnUse">
			<stop  offset="0.54" style="stop-color:#FFFFFF;stop-opacity:0.7"/>
			<stop  offset="0.56" style="stop-color:#FFFFFF;stop-opacity:0.61"/>
			<stop  offset="0.62" style="stop-color:#FFFFFF;stop-opacity:0.42"/>
			<stop  offset="0.67" style="stop-color:#FFFFFF;stop-opacity:0.27"/>
			<stop  offset="0.73" style="stop-color:#FFFFFF;stop-opacity:0.15"/>
			<stop  offset="0.78" style="stop-color:#FFFFFF;stop-opacity:7.000000e-02"/>
			<stop  offset="0.84" style="stop-color:#FFFFFF;stop-opacity:2.000000e-02"/>
			<stop  offset="0.88" style="stop-color:#FFFFFF;stop-opacity:0"/>
		</radialGradient>
		<path class="st1" d="M41.9,63.7c-2.2-8.3,9.2-26.3,9.2-26.3h-8L32.9,57.8c-0.7,1.4-0.8,2.9-0.2,4.4c3.1,8.4,14.1,38.7,16.2,53.1
			c5,35.4,5.9,54.2,5.9,54.2h5.6c0,0,1.2-16.8-4.3-52.1C53.8,103.3,53,106.3,41.9,63.7z"/>
		
			<linearGradient id="SVGID_3_" gradientUnits="userSpaceOnUse" x1="95.34" y1="-3.6974" x2="204.36" y2="-3.6974" gradientTransform="matrix(1 0 0 -1 -34.23 105.3832)">
			<stop  offset="0" style="stop-color:#DAD7D4"/>
			<stop  offset="0.48" style="stop-color:#F0EFEE"/>
			<stop  offset="1" style="stop-color:#CAC6C2"/>
		</linearGradient>
		<path class="st2" d="M116.3,49.2c33-0.7,52.7,5.7,58.1,18.4c10.3,24.1-7.4,46.4-9.6,67.6s-0.1,33.8-0.1,33.8H66.5
			c0,0,4.3-35.1-3.4-51.2c-7.5-15.7-11.8-36.1-3.4-51.6C70.2,46.9,116.3,49.2,116.3,49.2z"/>
		
			<linearGradient id="SVGID_4_" gradientUnits="userSpaceOnUse" x1="112.8701" y1="-1.3856" x2="145.2101" y2="-3.6456" gradientTransform="matrix(1 0 0 -1 -34.23 105.3832)">
			<stop  offset="0" style="stop-color:#FFFFFF;stop-opacity:0"/>
			<stop  offset="4.000000e-02" style="stop-color:#FFFFFF;stop-opacity:6.000000e-02"/>
			<stop  offset="0.24" style="stop-color:#FFFFFF;stop-opacity:0.34"/>
			<stop  offset="0.44" style="stop-color:#FFFFFF;stop-opacity:0.58"/>
			<stop  offset="0.61" style="stop-color:#FFFFFF;stop-opacity:0.76"/>
			<stop  offset="0.76" style="stop-color:#FFFFFF;stop-opacity:0.89"/>
			<stop  offset="0.89" style="stop-color:#FFFFFF;stop-opacity:0.97"/>
			<stop  offset="0.97" style="stop-color:#FFFFFF"/>
		</linearGradient>
		<path class="st3" d="M160.8,50.7c5.4,0.6-42.6-0.1-52.3,15.2c-11.1,17.4-4.9,42.3,1.8,63.7c3.9,12.8,5.8,26.1,5.6,39.5H82.8
			c0,0,4.3-35.1-3.4-51.2c-7.5-15.7-11.4-35.9-3.4-51.7C88.2,42.1,160.8,50.7,160.8,50.7z"/>
		
			<radialGradient id="SVGID_5_" cx="150.6" cy="-5.7989" r="61.005" gradientTransform="matrix(1 0 0 -1 -34.23 105.3832)" gradientUnits="userSpaceOnUse">
			<stop  offset="0" style="stop-color:#FFFFFF"/>
			<stop  offset="0.12" style="stop-color:#FFFFFF;stop-opacity:0.91"/>
			<stop  offset="0.38" style="stop-color:#FFFFFF;stop-opacity:0.66"/>
			<stop  offset="0.75" style="stop-color:#FFFFFF;stop-opacity:0.27"/>
			<stop  offset="1" style="stop-color:#FFFFFF;stop-opacity:0"/>
		</radialGradient>
		<path class="st4" d="M82,169.6h68.7c29.5-19,38-58.2,19-87.7s-58.2-38-87.7-19s-38,58.2-19,87.7C67.9,158.2,74.4,164.7,82,169.6z"
			/>
		
			<radialGradient id="SVGID_6_" cx="156.71" cy="289.2265" r="110.06" gradientTransform="matrix(1 0 0 -0.18 -34.21 224.3312)" gradientUnits="userSpaceOnUse">
			<stop  offset="0" style="stop-color:#1D1D1B;stop-opacity:0.7"/>
			<stop  offset="7.000000e-02" style="stop-color:#1D1D1B;stop-opacity:0.61"/>
			<stop  offset="0.56" style="stop-color:#1D1D1B;stop-opacity:0.15"/>
			<stop  offset="1" style="stop-color:#1D1D1B;stop-opacity:0"/>
		</radialGradient>
		<rect x="9.4" y="145.9" class="st5" width="213.9" height="23.5"/>
	</g>
</g>
<g id="Profile-Fill_Render">
	<g id="P2">
		<path id="P2-2" class="st6" d="M20.1,13C13.8,14.5,2,20.3,2,32.8c0,7.3,3.3,12,6.8,14.7c60.7,47.1,151.2,47.1,213.5,0
			c3.5-2.7,6.8-7.3,6.8-14.7c0-12.4-11.8-18.2-18.1-19.8C154.1-1.7,80.8-1.7,20.1,13z"/>
		<path class="st6" d="M114.9,84.7C75.4,84.7,37.2,72,7.5,49C4.1,46.3,0,41.3,0,32.8c0-13.4,12.3-20,19.6-21.7
			C80.7-3.7,154.2-3.7,211.5,11c9,2.3,19.6,9.4,19.6,21.7c0,9.2-4.7,14.1-7.6,16.3C193,72.1,154.4,84.7,114.9,84.7z M20.5,14.9
			C14.4,16.4,4,21.8,4,32.8c0,7,3.3,11,6,13.1c60.3,46.8,149.1,46.8,211.1,0c2.7-2.1,6-6,6-13.1c0-13.2-14.9-17.4-16.6-17.8
			C153.8,0.4,81.1,0.4,20.5,14.9L20.5,14.9z M20.1,13L20.1,13z"/>
	</g>
</g>
</svg>
