<?xml version="1.0" encoding="UTF-8"?>
<svg id="Ebene_1" xmlns="http://www.w3.org/2000/svg" version="1.1" xmlns:xlink="http://www.w3.org/1999/xlink" viewBox="0 0 246.1 174.8">
  <!-- Generator: Adobe Illustrator 30.1.0, SVG Export Plug-In . SVG Version: 2.1.1 Build 136)  -->
  <defs>
    <style>
      .st0 {
        fill: url(#Unbenannter_Verlauf_4);
        opacity: .8;
      }

      .st0, .st1 {
        isolation: isolate;
      }

      .st2 {
        fill: url(#Unbenannter_Verlauf_3);
      }

      .st3 {
        fill: url(#Unbenannter_Verlauf_6);
      }

      .st4 {
        fill: #fff;
        stroke: #30312c;
        stroke-miterlimit: 10;
        stroke-width: 4px;
      }

      .st5 {
        fill: url(#Unbenannter_Verlauf);
      }

      .st1 {
        fill: url(#Unbenannter_Verlauf_5);
        opacity: .5;
      }

      .st6 {
        fill: url(#Unbenannter_Verlauf_2);
      }
    </style>
    <linearGradient id="Unbenannter_Verlauf" data-name="Unbenannter Verlauf" x1="75.5" y1="185.6" x2="244.6" y2="144.6" gradientTransform="translate(-27 274.6) scale(1 -1)" gradientUnits="userSpaceOnUse">
      <stop offset="0" stop-color="#cdcbc9" stop-opacity=".8"/>
      <stop offset="1" stop-color="#bebbb9"/>
    </linearGradient>
    <radialGradient id="Unbenannter_Verlauf_2" data-name="Unbenannter Verlauf 2" cx="121.2" cy="-61.1" fx="121.2" fy="-61.1" r="7.4" gradientTransform="translate(-141 -343.2) rotate(-8.9) scale(1 -8)" gradientUnits="userSpaceOnUse">
      <stop offset=".5" stop-color="#fff" stop-opacity=".7"/>
      <stop offset=".6" stop-color="#fff" stop-opacity=".6"/>
      <stop offset=".6" stop-color="#fff" stop-opacity=".4"/>
      <stop offset=".7" stop-color="#fff" stop-opacity=".3"/>
      <stop offset=".7" stop-color="#fff" stop-opacity=".2"/>
      <stop offset=".8" stop-color="#fff" stop-opacity="0"/>
      <stop offset=".8" stop-color="#fff" stop-opacity="0"/>
      <stop offset=".9" stop-color="#fff" stop-opacity="0"/>
    </radialGradient>
    <linearGradient id="Unbenannter_Verlauf_3" data-name="Unbenannter Verlauf 3" x1="95.3" y1="160.3" x2="204.4" y2="160.3" gradientTransform="translate(-27 274.6) scale(1 -1)" gradientUnits="userSpaceOnUse">
      <stop offset="0" stop-color="#dad7d4"/>
      <stop offset=".5" stop-color="#f0efee"/>
      <stop offset="1" stop-color="#cac6c2"/>
    </linearGradient>
    <linearGradient id="Unbenannter_Verlauf_4" data-name="Unbenannter Verlauf 4" x1="112.9" y1="162.7" x2="145.2" y2="160.4" gradientTransform="translate(-27 274.6) scale(1 -1)" gradientUnits="userSpaceOnUse">
      <stop offset="0" stop-color="#fff" stop-opacity="0"/>
      <stop offset="0" stop-color="#fff" stop-opacity="0"/>
      <stop offset=".2" stop-color="#fff" stop-opacity=".3"/>
      <stop offset=".4" stop-color="#fff" stop-opacity=".6"/>
      <stop offset=".6" stop-color="#fff" stop-opacity=".8"/>
      <stop offset=".8" stop-color="#fff" stop-opacity=".9"/>
      <stop offset=".9" stop-color="#fff"/>
      <stop offset="1" stop-color="#fff"/>
    </linearGradient>
    <radialGradient id="Unbenannter_Verlauf_5" data-name="Unbenannter Verlauf 5" cx="150.5" cy="158.2" fx="150.5" fy="158.2" r="61" gradientTransform="translate(-27 274.6) scale(1 -1)" gradientUnits="userSpaceOnUse">
      <stop offset="0" stop-color="#fff"/>
      <stop offset="0" stop-color="#fff" stop-opacity=".9"/>
      <stop offset=".4" stop-color="#fff" stop-opacity=".7"/>
      <stop offset=".8" stop-color="#fff" stop-opacity=".3"/>
      <stop offset="1" stop-color="#fff" stop-opacity="0"/>
    </radialGradient>
    <radialGradient id="Unbenannter_Verlauf_6" data-name="Unbenannter Verlauf 6" cx="156.7" cy="1146.8" fx="156.7" fy="1146.8" r="110.1" gradientTransform="translate(-27 393.7) scale(1 -.2)" gradientUnits="userSpaceOnUse">
      <stop offset="0" stop-color="#1d1d1b" stop-opacity=".7"/>
      <stop offset="0" stop-color="#1d1d1b" stop-opacity=".6"/>
      <stop offset=".6" stop-color="#1d1d1b" stop-opacity=".2"/>
      <stop offset="1" stop-color="#1d1d1b" stop-opacity="0"/>
    </radialGradient>
  </defs>
  <g id="Sockel">
    <g id="Sockel-2">
      <path class="st5" d="M207,62.9l-10.2-20.3H50.3l-10.2,20.3c-.7,1.4-.8,2.9-.2,4.4,3.1,8.5,14.1,38.8,16.1,53.1,5,35.4,5.9,54.2,5.9,54.2h123.3s.9-18.8,5.9-54.2c2-14.4,13-44.7,16.2-53.1.5-1.4.4-3-.3-4.4Z"/>
      <path class="st6" d="M49.1,68.9c-2.2-8.3,9.2-26.3,9.2-26.3h-8l-10.2,20.3c-.7,1.4-.8,2.9-.2,4.4,3.1,8.5,14.1,38.8,16.1,53.1,5,35.4,5.9,54.2,5.9,54.2h5.6s1.2-16.8-4.3-52.1c-2.2-14.1-3-11-14.1-53.6Z"/>
      <path class="st2" d="M123.5,54.4c33-.7,52.7,5.7,58.1,18.4,10.3,24.1-7.4,46.4-9.6,67.6-2.3,21.3-.1,33.8-.1,33.8h-98.2s4.3-35.1-3.4-51.2c-7.5-15.7-11.8-36.1-3.4-51.6,10.5-19.4,56.6-17,56.6-17Z"/>
      <path class="st0" d="M168,55.8c5.4.6-42.6,0-52.3,15.2-11.1,17.4-4.9,42.3,1.8,63.7,3.9,12.8,5.8,26.1,5.6,39.5h-33.1s4.3-35.1-3.4-51.2c-7.5-15.7-11.4-35.9-3.4-51.7,12.2-24.1,84.8-15.5,84.8-15.5Z"/>
      <path class="st1" d="M89.2,174.8h68.7c29.5-19,38-58.2,19-87.7s-58.2-38-87.7-19-38,58.2-19,87.7c4.9,7.6,11.4,14,19,19Z"/>
      <rect class="st3" x="16.6" y="151.1" width="213.9" height="23.5"/>
    </g>
  </g>
  <path class="st4" d="M21.2,66.8c13.2,3.5,26.5,6.4,40,8.6,13.5,2.2,27,3.6,40.7,4.3,13.6.7,27.3.8,40.9,0,13.6-.7,27.2-2.1,40.7-4.2,13.5-2.1,26.8-4.9,40-8.4,1.2-.3,2.5-.6,3.6-1.1s2.3-1,3.4-1.6,2.2-1.3,3.2-2.1c1-.8,2-1.6,2.9-2.5.9-.9,1.7-1.9,2.5-2.9s1.4-2.1,2-3.2c.6-1.1,1.1-2.3,1.6-3.5.4-1.2.8-2.4,1.1-3.6.3-1.2.4-2.5.5-3.8,0-1.3,0-2.5,0-3.8,0-1.3-.3-2.5-.5-3.8-.3-1.2-.6-2.5-1.1-3.6-.4-1.2-1-2.3-1.6-3.5-.6-1.1-1.3-2.2-2-3.2s-1.6-2-2.5-2.9-1.8-1.7-2.9-2.5c-1-.8-2.1-1.5-3.2-2.1-1.1-.6-2.3-1.1-3.4-1.6-1.2-.4-2.4-.8-3.6-1.1-13.2-3.5-26.5-6.3-40-8.4-13.5-2.1-27.1-3.5-40.7-4.2-13.6-.7-27.3-.7-40.9,0-13.6.7-27.2,2.2-40.7,4.3-13.5,2.2-26.8,5-40,8.6-1.2.3-2.4.8-3.6,1.3-1.2.5-2.3,1.1-3.4,1.8-1.1.7-2.1,1.4-3.1,2.3-1,.8-1.9,1.7-2.7,2.7s-1.6,2-2.3,3.1c-.7,1.1-1.3,2.2-1.9,3.4-.5,1.2-1,2.4-1.3,3.6-.4,1.2-.6,2.5-.8,3.7-.2,1.3-.3,2.5-.3,3.8s0,2.6.3,3.8c.2,1.3.5,2.5.8,3.7.4,1.2.8,2.4,1.3,3.6.5,1.2,1.2,2.3,1.9,3.4.7,1.1,1.5,2.1,2.3,3.1.8,1,1.8,1.9,2.7,2.7,1,.8,2,1.6,3.1,2.3,1.1.7,2.2,1.3,3.4,1.8,1.2.5,2.4,1,3.6,1.3"/>
</svg>