<?xml version="1.0" encoding="utf-8"?>
<!-- Generator: Adobe Illustrator 25.3.1, SVG Export Plug-In . SVG Version: 6.00 Build 0)  -->
<svg version="1.1" id="Ebene_1" xmlns="http://www.w3.org/2000/svg" xmlns:xlink="http://www.w3.org/1999/xlink" x="0px" y="0px"
	 viewBox="0 0 246.1 174.8" style="enable-background:new 0 0 246.1 174.8;" xml:space="preserve">
<style type="text/css">
	.st0{fill:url(#SVGID_1_);}
	.st1{fill:url(#SVGID_2_);}
	.st2{fill:url(#SVGID_3_);}
	.st3{opacity:0.78;fill:url(#SVGID_4_);enable-background:new    ;}
	.st4{opacity:0.51;fill:url(#SVGID_5_);enable-background:new    ;}
	.st5{fill:url(#SVGID_6_);}
	.st6{fill:#AB3333;}
</style>
<g id="Sockel">
	<g id="Sockel-2">
		
			<linearGradient id="SVGID_1_" gradientUnits="userSpaceOnUse" x1="75.5298" y1="25.5424" x2="244.5998" y2="-15.4376" gradientTransform="matrix(1 0 0 -1 -27.04 114.5332)">
			<stop  offset="0" style="stop-color:#CDCBC9;stop-opacity:0.8"/>
			<stop  offset="1" style="stop-color:#BEBBB9"/>
		</linearGradient>
		<path class="st0" d="M207,62.9l-10.2-20.3H50.3L40.1,62.9c-0.7,1.4-0.8,2.9-0.2,4.4C43,75.8,54,106.1,56,120.4
			c5,35.4,5.9,54.2,5.9,54.2h123.3c0,0,0.9-18.8,5.9-54.2c2-14.4,13-44.7,16.2-53.1C207.8,65.9,207.7,64.3,207,62.9z"/>
		
			<radialGradient id="SVGID_2_" cx="95.6026" cy="-82.2033" r="7.43" gradientTransform="matrix(0.9879 -0.1551 -1.2466 -7.9428 -141.0013 -510.2082)" gradientUnits="userSpaceOnUse">
			<stop  offset="0.54" style="stop-color:#FFFFFF;stop-opacity:0.7"/>
			<stop  offset="0.56" style="stop-color:#FFFFFF;stop-opacity:0.61"/>
			<stop  offset="0.62" style="stop-color:#FFFFFF;stop-opacity:0.42"/>
			<stop  offset="0.67" style="stop-color:#FFFFFF;stop-opacity:0.27"/>
			<stop  offset="0.73" style="stop-color:#FFFFFF;stop-opacity:0.15"/>
			<stop  offset="0.78" style="stop-color:#FFFFFF;stop-opacity:7.000000e-02"/>
			<stop  offset="0.84" style="stop-color:#FFFFFF;stop-opacity:2.000000e-02"/>
			<stop  offset="0.88" style="stop-color:#FFFFFF;stop-opacity:0"/>
		</radialGradient>
		<path class="st1" d="M49.1,68.9c-2.2-8.3,9.2-26.3,9.2-26.3h-8L40.1,62.9c-0.7,1.4-0.8,2.9-0.2,4.4C43,75.8,54,106.1,56,120.4
			c5,35.4,5.9,54.2,5.9,54.2h5.6c0,0,1.2-16.8-4.3-52.1C61,108.4,60.2,111.5,49.1,68.9z"/>
		
			<linearGradient id="SVGID_3_" gradientUnits="userSpaceOnUse" x1="95.34" y1="0.3026" x2="204.36" y2="0.3026" gradientTransform="matrix(1 0 0 -1 -27.04 114.5332)">
			<stop  offset="0" style="stop-color:#DAD7D4"/>
			<stop  offset="0.48" style="stop-color:#F0EFEE"/>
			<stop  offset="1" style="stop-color:#CAC6C2"/>
		</linearGradient>
		<path class="st2" d="M123.5,54.4c33-0.7,52.7,5.7,58.1,18.4c10.3,24.1-7.4,46.4-9.6,67.6c-2.3,21.3-0.1,33.8-0.1,33.8H73.7
			c0,0,4.3-35.1-3.4-51.2c-7.5-15.7-11.8-36.1-3.4-51.6C77.4,52,123.5,54.4,123.5,54.4z"/>
		
			<linearGradient id="SVGID_4_" gradientUnits="userSpaceOnUse" x1="112.8701" y1="2.6144" x2="145.2101" y2="0.3544" gradientTransform="matrix(1 0 0 -1 -27.04 114.5332)">
			<stop  offset="0" style="stop-color:#FFFFFF;stop-opacity:0"/>
			<stop  offset="4.000000e-02" style="stop-color:#FFFFFF;stop-opacity:6.000000e-02"/>
			<stop  offset="0.24" style="stop-color:#FFFFFF;stop-opacity:0.34"/>
			<stop  offset="0.44" style="stop-color:#FFFFFF;stop-opacity:0.58"/>
			<stop  offset="0.61" style="stop-color:#FFFFFF;stop-opacity:0.76"/>
			<stop  offset="0.76" style="stop-color:#FFFFFF;stop-opacity:0.89"/>
			<stop  offset="0.89" style="stop-color:#FFFFFF;stop-opacity:0.97"/>
			<stop  offset="0.97" style="stop-color:#FFFFFF"/>
		</linearGradient>
		<path class="st3" d="M168,55.8c5.4,0.6-42.6-0.1-52.3,15.2c-11.1,17.4-4.9,42.3,1.8,63.7c3.9,12.8,5.8,26.1,5.6,39.5H90
			c0,0,4.3-35.1-3.4-51.2c-7.5-15.7-11.4-35.9-3.4-51.7C95.4,47.2,168,55.8,168,55.8z"/>
		
			<radialGradient id="SVGID_5_" cx="150.6" cy="-1.7989" r="61.005" gradientTransform="matrix(1 0 0 -1 -27.04 114.5332)" gradientUnits="userSpaceOnUse">
			<stop  offset="0" style="stop-color:#FFFFFF"/>
			<stop  offset="0.12" style="stop-color:#FFFFFF;stop-opacity:0.91"/>
			<stop  offset="0.38" style="stop-color:#FFFFFF;stop-opacity:0.66"/>
			<stop  offset="0.75" style="stop-color:#FFFFFF;stop-opacity:0.27"/>
			<stop  offset="1" style="stop-color:#FFFFFF;stop-opacity:0"/>
		</radialGradient>
		<path class="st4" d="M89.2,174.8h68.7c29.5-19,38-58.2,19-87.7s-58.2-38-87.7-19s-38,58.2-19,87.7
			C75.1,163.4,81.6,169.8,89.2,174.8z"/>
		
			<radialGradient id="SVGID_6_" cx="156.71" cy="302.3376" r="110.06" gradientTransform="matrix(1 0 0 -0.18 -27.01 231.8412)" gradientUnits="userSpaceOnUse">
			<stop  offset="0" style="stop-color:#1D1D1B;stop-opacity:0.7"/>
			<stop  offset="7.000000e-02" style="stop-color:#1D1D1B;stop-opacity:0.61"/>
			<stop  offset="0.56" style="stop-color:#1D1D1B;stop-opacity:0.15"/>
			<stop  offset="1" style="stop-color:#1D1D1B;stop-opacity:0"/>
		</radialGradient>
		<rect x="16.6" y="151.1" class="st5" width="213.9" height="23.5"/>
	</g>
</g>
<g id="Profile-Fill_Render">
	<g id="P3">
		<path id="P3-2" class="st6" d="M2.1,35.8c-0.2,1.4-0.2,2.8,0.1,4.2c0.6,2.8,1.8,5.5,3.6,7.8c30.9,39.8,206.2,40.7,234.6-0.2
			c1.7-2.2,2.9-4.8,3.5-7.5c0.2-1.2,0.3-2.5,0.1-3.7C233.5-9.4,12.7-9.3,2.1,35.8z"/>
		<path class="st6" d="M125.2,79.8c-48.4,0-104.2-9.3-121-30.9c-2-2.5-3.4-5.5-4-8.6c-0.3-1.6-0.3-3.2-0.1-4.8v-0.2
			C6,10.9,65.8,0,122.8,0h0.8C180.4,0.1,240.3,11.2,246,35.7v0.2c0.2,1.5,0.1,2.9-0.2,4.4c-0.7,3-1.9,5.8-3.8,8.3
			c-14.8,21.2-65,30-107.1,31.1C131.8,79.8,128.5,79.8,125.2,79.8z M4.1,36.1c-0.2,1.1-0.2,2.3,0.1,3.4c0.5,2.5,1.6,4.9,3.2,6.9
			c13.7,17.7,60.9,29.3,116.7,29.3c3.5,0,7.1,0,10.7-0.1c52.5-1.4,92.3-12.6,104-29.4c1.5-2,2.5-4.3,3.1-6.8c0.2-1,0.2-2,0.1-3
			C237.5,17.5,188.8,4.1,123.5,4h-0.7C67.5,4,9.2,15,4.1,36.1z"/>
	</g>
</g>
</svg>
