<?xml version="1.0" encoding="utf-8"?>
<!-- Generator: Adobe Illustrator 25.4.1, SVG Export Plug-In . SVG Version: 6.00 Build 0)  -->
<svg version="1.1" id="Ebene_1" xmlns="http://www.w3.org/2000/svg" xmlns:xlink="http://www.w3.org/1999/xlink" x="0px" y="0px"
	 viewBox="0 0 224.1 150.7" style="enable-background:new 0 0 224.1 150.7;" xml:space="preserve">
<style type="text/css">
	.st0{fill:url(#SVGID_1_);}
	.st1{fill:url(#SVGID_00000093155340176440264790000017975091192049120944_);}
	.st2{fill:url(#SVGID_00000026156356137560223730000007884236911768181667_);}
	.st3{opacity:0.78;fill:url(#SVGID_00000176039281068742535340000010114526195326227875_);enable-background:new    ;}
	.st4{opacity:0.51;fill:url(#SVGID_00000162341725518698618440000003011521756594684055_);enable-background:new    ;}
	.st5{fill:url(#SVGID_00000047048435639580031690000016902112729186444961_);}
	.st6{fill:url(#P4-2_00000086665918314220358480000009283527388251777187_);}
	.st7{fill:#222222;}
</style>
<g id="Sockel">
	<g id="Sockel-2">
		
			<linearGradient id="SVGID_1_" gradientUnits="userSpaceOnUse" x1="75.5274" y1="133.5324" x2="244.5974" y2="92.5524" gradientTransform="matrix(1 0 0 -1 -37.92 198.4632)">
			<stop  offset="0" style="stop-color:#CDCBC9;stop-opacity:0.8"/>
			<stop  offset="1" style="stop-color:#BEBBB9"/>
		</linearGradient>
		<path class="st0" d="M196.2,38.9L186,18.5H39.4L29.2,38.9c-0.7,1.4-0.8,2.9-0.2,4.4c3.1,8.4,14.1,38.7,16.2,53.1
			c5,35.4,5.9,54.2,5.9,54.2h123.3c0,0,0.9-18.8,5.9-54.2c2-14.4,13-44.7,16.2-53.1C196.9,41.8,196.8,40.2,196.2,38.9z"/>
		
			<radialGradient id="SVGID_00000116953387027556755280000002717635824694995370_" cx="114.3657" cy="-79.2077" r="7.43" gradientTransform="matrix(0.9879 -0.1551 -1.2466 -7.9428 -166.6837 -507.5745)" gradientUnits="userSpaceOnUse">
			<stop  offset="0.54" style="stop-color:#FFFFFF;stop-opacity:0.7"/>
			<stop  offset="0.56" style="stop-color:#FFFFFF;stop-opacity:0.61"/>
			<stop  offset="0.62" style="stop-color:#FFFFFF;stop-opacity:0.42"/>
			<stop  offset="0.67" style="stop-color:#FFFFFF;stop-opacity:0.27"/>
			<stop  offset="0.73" style="stop-color:#FFFFFF;stop-opacity:0.15"/>
			<stop  offset="0.78" style="stop-color:#FFFFFF;stop-opacity:7.000000e-02"/>
			<stop  offset="0.84" style="stop-color:#FFFFFF;stop-opacity:2.000000e-02"/>
			<stop  offset="0.88" style="stop-color:#FFFFFF;stop-opacity:0"/>
		</radialGradient>
		<path style="fill:url(#SVGID_00000116953387027556755280000002717635824694995370_);" d="M38.2,44.8c-2.2-8.3,9.2-26.3,9.2-26.3
			h-8L29.2,38.9c-0.7,1.4-0.8,2.9-0.2,4.4c3.1,8.4,14.1,38.7,16.2,53.1c5,35.4,5.9,54.2,5.9,54.2h5.6c0,0,1.2-16.8-4.3-52.1
			C50.1,84.3,49.3,87.4,38.2,44.8z"/>
		
			<linearGradient id="SVGID_00000075132177082510769390000014656952135597196724_" gradientUnits="userSpaceOnUse" x1="95.34" y1="108.3058" x2="204.36" y2="108.3058" gradientTransform="matrix(1 0 0 -1 -37.92 198.4632)">
			<stop  offset="0" style="stop-color:#DAD7D4"/>
			<stop  offset="0.48" style="stop-color:#F0EFEE"/>
			<stop  offset="1" style="stop-color:#CAC6C2"/>
		</linearGradient>
		<path style="fill:url(#SVGID_00000075132177082510769390000014656952135597196724_);" d="M112.7,30.3c33-0.7,52.7,5.7,58.1,18.4
			c10.3,24.1-7.4,46.4-9.6,67.6s-0.1,33.8-0.1,33.8H62.8c0,0,4.3-35.1-3.4-51.2C51.9,83.2,47.6,62.8,56,47.3
			C66.5,28,112.7,30.3,112.7,30.3z"/>
		
			<linearGradient id="SVGID_00000070819566156408075540000006129423693056978061_" gradientUnits="userSpaceOnUse" x1="112.8667" y1="110.565" x2="145.2066" y2="108.305" gradientTransform="matrix(1 0 0 -1 -37.92 198.4632)">
			<stop  offset="0" style="stop-color:#FFFFFF;stop-opacity:0"/>
			<stop  offset="4.000000e-02" style="stop-color:#FFFFFF;stop-opacity:6.000000e-02"/>
			<stop  offset="0.24" style="stop-color:#FFFFFF;stop-opacity:0.34"/>
			<stop  offset="0.44" style="stop-color:#FFFFFF;stop-opacity:0.58"/>
			<stop  offset="0.61" style="stop-color:#FFFFFF;stop-opacity:0.76"/>
			<stop  offset="0.76" style="stop-color:#FFFFFF;stop-opacity:0.89"/>
			<stop  offset="0.89" style="stop-color:#FFFFFF;stop-opacity:0.97"/>
			<stop  offset="0.97" style="stop-color:#FFFFFF"/>
		</linearGradient>
		<path style="opacity:0.78;fill:url(#SVGID_00000070819566156408075540000006129423693056978061_);enable-background:new    ;" d="
			M157.1,31.8c5.4,0.6-42.6-0.1-52.3,15.2c-11.1,17.4-4.9,42.3,1.8,63.7c3.9,12.8,5.8,26.1,5.6,39.5H79.1c0,0,4.3-35.1-3.4-51.2
			c-7.5-15.8-11.4-36-3.4-51.8C84.5,23.2,157.1,31.8,157.1,31.8z"/>
		
			<radialGradient id="SVGID_00000015350048074555049960000013465899468650159293_" cx="150.57" cy="106.1788" r="61.0011" gradientTransform="matrix(1 0 0 -1 -37.92 198.4632)" gradientUnits="userSpaceOnUse">
			<stop  offset="0" style="stop-color:#FFFFFF"/>
			<stop  offset="0.12" style="stop-color:#FFFFFF;stop-opacity:0.91"/>
			<stop  offset="0.38" style="stop-color:#FFFFFF;stop-opacity:0.66"/>
			<stop  offset="0.75" style="stop-color:#FFFFFF;stop-opacity:0.27"/>
			<stop  offset="1" style="stop-color:#FFFFFF;stop-opacity:0"/>
		</radialGradient>
		<path style="opacity:0.51;fill:url(#SVGID_00000015350048074555049960000013465899468650159293_);enable-background:new    ;" d="
			M78.3,150.7H147c29.5-19,38-58.2,19-87.7s-58.2-38-87.7-19s-38,58.2-19,87.7C64.2,139.3,70.7,145.8,78.3,150.7z"/>
		
			<radialGradient id="SVGID_00000014610294361710396010000002933930968264951475_" cx="156.71" cy="957.0043" r="110.06" gradientTransform="matrix(1 0 0 -0.18 -37.9 325.6112)" gradientUnits="userSpaceOnUse">
			<stop  offset="0" style="stop-color:#1D1D1B;stop-opacity:0.7"/>
			<stop  offset="7.000000e-02" style="stop-color:#1D1D1B;stop-opacity:0.61"/>
			<stop  offset="0.56" style="stop-color:#1D1D1B;stop-opacity:0.15"/>
			<stop  offset="1" style="stop-color:#1D1D1B;stop-opacity:0"/>
		</radialGradient>
		
			<rect x="5.7" y="127" style="fill:url(#SVGID_00000014610294361710396010000002933930968264951475_);" width="213.9" height="23.5"/>
	</g>
</g>
<g id="Profile-Konturen_Render">
	<g id="P4">
		
			<linearGradient id="P4-2_00000010291717462153997700000000088598380607226267_" gradientUnits="userSpaceOnUse" x1="40.02" y1="164.3006" x2="260.22" y2="164.3006" gradientTransform="matrix(1 0 0 -1 -37.92 198.4632)">
			<stop  offset="0" style="stop-color:#E9E9E9"/>
			<stop  offset="0.53" style="stop-color:#F8F8F8"/>
			<stop  offset="1" style="stop-color:#FFFFFF"/>
		</linearGradient>
		<path id="P4-2" style="fill:url(#P4-2_00000010291717462153997700000000088598380607226267_);" d="M218.8,40.1
			C150.8,75.2,79.4,75,5.4,39.9c-2-1.1-3.3-3.2-3.3-5.5V3.7C2.1,2.8,2.8,2,3.7,2h0.1h216.8c0.9,0,1.7,0.8,1.7,1.7c0,0,0,0,0,0.1
			v30.6C222.2,36.8,220.9,39,218.8,40.1z"/>
		<path class="st7" d="M114.7,68.3c-36,0-72.8-8.9-110.1-26.6c-2.7-1.4-4.4-4.2-4.5-7.3V3.7c0-2,1.6-3.6,3.6-3.7h0.1h216.8
			c1,0,1.9,0.3,2.6,1c0.7,0.7,1.1,1.7,1.1,2.8v30.6c0,3.1-1.8,6-4.6,7.5C185.7,59.5,150.6,68.3,114.7,68.3z M4.1,4v30.4
			c0.1,1.5,0.9,2.9,2.2,3.7C79.7,72.9,150.9,73,217.9,38.3l0.9,1.8l-0.9-1.8c1.5-0.8,2.4-2.3,2.4-3.9V4H4.1z"/>
	</g>
</g>
</svg>
