<?xml version="1.0" encoding="utf-8"?>
<!-- Generator: Adobe Illustrator 25.3.1, SVG Export Plug-In . SVG Version: 6.00 Build 0)  -->
<svg version="1.1" id="Ebene_1" xmlns="http://www.w3.org/2000/svg" xmlns:xlink="http://www.w3.org/1999/xlink" x="0px" y="0px"
	 viewBox="0 0 230.3 171.8" style="enable-background:new 0 0 230.3 171.8;" xml:space="preserve">
<style type="text/css">
	.st0{fill:url(#SVGID_1_);}
	.st1{fill:url(#SVGID_2_);}
	.st2{fill:url(#SVGID_3_);}
	.st3{opacity:0.78;fill:url(#SVGID_4_);enable-background:new    ;}
	.st4{opacity:0.51;fill:url(#SVGID_5_);enable-background:new    ;}
	.st5{fill:url(#SVGID_6_);}
	.st6{fill:#AB3333;}
</style>
<g id="Sockel">
	<g id="Sockel-2">
		
			<linearGradient id="SVGID_1_" gradientUnits="userSpaceOnUse" x1="75.5298" y1="23.5424" x2="244.5998" y2="-17.4376" gradientTransform="matrix(1 0 0 -1 -35.17 109.6032)">
			<stop  offset="0" style="stop-color:#CDCBC9;stop-opacity:0.8"/>
			<stop  offset="1" style="stop-color:#BEBBB9"/>
		</linearGradient>
		<path class="st0" d="M198.9,60l-10.2-20.3H42.1L32,60c-0.7,1.4-0.8,2.9-0.2,4.4c3.1,8.4,14.1,38.7,16.2,53.1
			c5,35.4,5.9,54.2,5.9,54.2h123.3c0,0,0.9-18.8,5.9-54.2c2-14.4,13-44.7,16.2-53.1C199.7,63,199.6,61.4,198.9,60z"/>
		
			<radialGradient id="SVGID_2_" cx="95.3508" cy="-83.4804" r="7.43" gradientTransform="matrix(0.9879 -0.1551 -1.2466 -7.9428 -150.4747 -523.3214)" gradientUnits="userSpaceOnUse">
			<stop  offset="0.54" style="stop-color:#FFFFFF;stop-opacity:0.7"/>
			<stop  offset="0.56" style="stop-color:#FFFFFF;stop-opacity:0.61"/>
			<stop  offset="0.62" style="stop-color:#FFFFFF;stop-opacity:0.42"/>
			<stop  offset="0.67" style="stop-color:#FFFFFF;stop-opacity:0.27"/>
			<stop  offset="0.73" style="stop-color:#FFFFFF;stop-opacity:0.15"/>
			<stop  offset="0.78" style="stop-color:#FFFFFF;stop-opacity:7.000000e-02"/>
			<stop  offset="0.84" style="stop-color:#FFFFFF;stop-opacity:2.000000e-02"/>
			<stop  offset="0.88" style="stop-color:#FFFFFF;stop-opacity:0"/>
		</radialGradient>
		<path class="st1" d="M41,66c-2.2-8.3,9.2-26.3,9.2-26.3h-8L32,60c-0.7,1.4-0.8,2.9-0.2,4.4c3.1,8.4,14.1,38.7,16.2,53.1
			c5,35.4,5.9,54.2,5.9,54.2h5.6c0,0,1.2-16.8-4.3-52.1C52.8,105.5,52.1,108.5,41,66z"/>
		
			<linearGradient id="SVGID_3_" gradientUnits="userSpaceOnUse" x1="95.34" y1="-1.6974" x2="204.36" y2="-1.6974" gradientTransform="matrix(1 0 0 -1 -35.17 109.6032)">
			<stop  offset="0" style="stop-color:#DAD7D4"/>
			<stop  offset="0.48" style="stop-color:#F0EFEE"/>
			<stop  offset="1" style="stop-color:#CAC6C2"/>
		</linearGradient>
		<path class="st2" d="M115.4,51.4c33-0.7,52.7,5.7,58.1,18.4c10.3,24.1-7.4,46.4-9.6,67.6s-0.1,33.8-0.1,33.8H65.5
			c0,0,4.3-35.1-3.4-51.2c-7.5-15.7-11.8-36.1-3.4-51.6C69.2,49.1,115.4,51.4,115.4,51.4z"/>
		
			<linearGradient id="SVGID_4_" gradientUnits="userSpaceOnUse" x1="112.8701" y1="0.6144" x2="145.2101" y2="-1.6456" gradientTransform="matrix(1 0 0 -1 -35.17 109.6032)">
			<stop  offset="0" style="stop-color:#FFFFFF;stop-opacity:0"/>
			<stop  offset="4.000000e-02" style="stop-color:#FFFFFF;stop-opacity:6.000000e-02"/>
			<stop  offset="0.24" style="stop-color:#FFFFFF;stop-opacity:0.34"/>
			<stop  offset="0.44" style="stop-color:#FFFFFF;stop-opacity:0.58"/>
			<stop  offset="0.61" style="stop-color:#FFFFFF;stop-opacity:0.76"/>
			<stop  offset="0.76" style="stop-color:#FFFFFF;stop-opacity:0.89"/>
			<stop  offset="0.89" style="stop-color:#FFFFFF;stop-opacity:0.97"/>
			<stop  offset="0.97" style="stop-color:#FFFFFF"/>
		</linearGradient>
		<path class="st3" d="M159.8,52.9c5.4,0.6-42.6-0.1-52.3,15.2c-11.1,17.4-4.9,42.3,1.8,63.7c3.9,12.8,5.8,26.1,5.6,39.5H81.8
			c0,0,4.3-35.1-3.4-51.2C71,104.3,67,84.2,75,68.4C87.3,44.3,159.8,52.9,159.8,52.9z"/>
		
			<radialGradient id="SVGID_5_" cx="150.6" cy="-3.7989" r="61.005" gradientTransform="matrix(1 0 0 -1 -35.17 109.6032)" gradientUnits="userSpaceOnUse">
			<stop  offset="0" style="stop-color:#FFFFFF"/>
			<stop  offset="0.12" style="stop-color:#FFFFFF;stop-opacity:0.91"/>
			<stop  offset="0.38" style="stop-color:#FFFFFF;stop-opacity:0.66"/>
			<stop  offset="0.75" style="stop-color:#FFFFFF;stop-opacity:0.27"/>
			<stop  offset="1" style="stop-color:#FFFFFF;stop-opacity:0"/>
		</radialGradient>
		<path class="st4" d="M81.1,171.8h68.7c29.5-19,38-58.2,19-87.7s-58.2-38-87.7-19s-38,58.2-19,87.7C67,160.4,73.5,166.9,81.1,171.8
			z"/>
		
			<radialGradient id="SVGID_6_" cx="156.71" cy="295.7821" r="110.06" gradientTransform="matrix(1 0 0 -0.18 -35.15 227.7312)" gradientUnits="userSpaceOnUse">
			<stop  offset="0" style="stop-color:#1D1D1B;stop-opacity:0.7"/>
			<stop  offset="7.000000e-02" style="stop-color:#1D1D1B;stop-opacity:0.61"/>
			<stop  offset="0.56" style="stop-color:#1D1D1B;stop-opacity:0.15"/>
			<stop  offset="1" style="stop-color:#1D1D1B;stop-opacity:0"/>
		</radialGradient>
		<rect x="8.5" y="148.1" class="st5" width="213.9" height="23.5"/>
	</g>
</g>
<g id="Profile-Fill_Render">
	<g id="P5">
		<path id="P5-2" class="st6" d="M14.3,2.4C9.2,0.9,3.9,3.8,2.4,8.9C2.1,9.8,2,10.7,2,11.6v35.7c0.1,3.2,1.8,6.1,4.5,7.9
			c41.7,24.2,177.4,24.5,217.3-0.1c2.8-1.9,4.5-5.1,4.5-8.4V11.5c0-7.8-8.1-10.3-12.2-9.1C155.3,20.7,76.8,21,14.3,2.4z"/>
		<path class="st6" d="M116.1,75.4h-0.3c-48.4,0-90.7-7.1-110.3-18.5c-3.3-2.1-5.4-5.7-5.5-9.6V11.6C0,5.2,5.1,0,11.5,0
			c1.1,0,2.2,0.2,3.3,0.5c61.4,18.2,140.1,18.2,200.6,0c3.6-0.9,7.5-0.1,10.5,2.1c2.8,2.1,4.4,5.4,4.4,8.9v35.2
			c0,4.1-2,7.9-5.4,10.1C206.2,68.3,164.6,75.4,116.1,75.4z M11.5,4C7.4,4,4,7.4,4,11.6v35.7c0.1,2.5,1.5,4.7,3.5,6.1
			c41.4,24,176.1,24,215.2,0c2.2-1.5,3.5-4,3.5-6.7V11.5c0.1-2.2-1-4.4-2.8-5.7c-2-1.5-4.5-2-6.9-1.5c-61.1,18.5-140.8,18.5-202.9,0
			l0,0C13,4.1,12.3,4,11.5,4z"/>
	</g>
</g>
</svg>
