<?xml version="1.0" encoding="utf-8"?>
<!-- Generator: Adobe Illustrator 25.4.1, SVG Export Plug-In . SVG Version: 6.00 Build 0)  -->
<svg version="1.1" id="Ebene_1" xmlns="http://www.w3.org/2000/svg" xmlns:xlink="http://www.w3.org/1999/xlink" x="0px" y="0px"
	 viewBox="0 0 230.7 172.1" style="enable-background:new 0 0 230.7 172.1;" xml:space="preserve">
<style type="text/css">
	.st0{fill:url(#SVGID_1_);}
	.st1{fill:url(#SVGID_00000011016409684368725820000009419670796898122663_);}
	.st2{fill:url(#SVGID_00000126317163117374406200000014832756027206057131_);}
	.st3{opacity:0.78;fill:url(#SVGID_00000005975147304303015030000006055191420205350044_);enable-background:new    ;}
	.st4{opacity:0.51;fill:url(#SVGID_00000017509410366713471390000018264073551441713044_);enable-background:new    ;}
	.st5{fill:url(#SVGID_00000083775341330613418660000017879200529897642380_);}
	.st6{fill:url(#P6-2_00000093141086218564114220000013617105146596301243_);}
	.st7{fill:#222222;}
</style>
<g id="Sockel">
	<g id="Sockel-2">
		
			<linearGradient id="SVGID_1_" gradientUnits="userSpaceOnUse" x1="75.5257" y1="177.5253" x2="244.5956" y2="136.5453" gradientTransform="matrix(1 0 0 -1 -34.73 263.9032)">
			<stop  offset="0" style="stop-color:#CDCBC9;stop-opacity:0.8"/>
			<stop  offset="1" style="stop-color:#BEBBB9"/>
		</linearGradient>
		<path class="st0" d="M199.3,60.3L189.2,40H42.6L32.4,60.3c-0.7,1.4-0.8,2.9-0.2,4.4c3.1,8.4,14.1,38.7,16.2,53.1
			c5,35.4,5.9,54.2,5.9,54.2h123.3c0,0,0.9-18.8,5.9-54.2c2-14.4,13-44.7,16.2-53.1C200.1,63.3,200,61.7,199.3,60.3z"/>
		
			<radialGradient id="SVGID_00000115491150393370684970000006461677656118730631_" cx="119.5912" cy="-63.9793" r="7.43" gradientTransform="matrix(0.9879 -0.1551 -1.2466 -7.9428 -149.6717 -364.3684)" gradientUnits="userSpaceOnUse">
			<stop  offset="0.54" style="stop-color:#FFFFFF;stop-opacity:0.7"/>
			<stop  offset="0.56" style="stop-color:#FFFFFF;stop-opacity:0.61"/>
			<stop  offset="0.62" style="stop-color:#FFFFFF;stop-opacity:0.42"/>
			<stop  offset="0.67" style="stop-color:#FFFFFF;stop-opacity:0.27"/>
			<stop  offset="0.73" style="stop-color:#FFFFFF;stop-opacity:0.15"/>
			<stop  offset="0.78" style="stop-color:#FFFFFF;stop-opacity:7.000000e-02"/>
			<stop  offset="0.84" style="stop-color:#FFFFFF;stop-opacity:2.000000e-02"/>
			<stop  offset="0.88" style="stop-color:#FFFFFF;stop-opacity:0"/>
		</radialGradient>
		<path style="fill:url(#SVGID_00000115491150393370684970000006461677656118730631_);" d="M41.4,66.3C39.2,58,50.6,40,50.6,40h-8
			L32.4,60.3c-0.7,1.4-0.8,2.9-0.2,4.4c3.1,8.4,14.1,38.7,16.2,53.1c5,35.4,5.9,54.2,5.9,54.2h5.6c0,0,1.2-16.8-4.3-52
			C53.3,105.8,52.5,108.8,41.4,66.3z"/>
		
			<linearGradient id="SVGID_00000144314954656371471600000001951809450725972144_" gradientUnits="userSpaceOnUse" x1="95.34" y1="152.3458" x2="204.36" y2="152.3458" gradientTransform="matrix(1 0 0 -1 -34.73 263.9032)">
			<stop  offset="0" style="stop-color:#DAD7D4"/>
			<stop  offset="0.48" style="stop-color:#F0EFEE"/>
			<stop  offset="1" style="stop-color:#CAC6C2"/>
		</linearGradient>
		<path style="fill:url(#SVGID_00000144314954656371471600000001951809450725972144_);" d="M115.8,51.7c33-0.7,52.7,5.7,58.1,18.4
			c10.3,24.1-7.4,46.4-9.6,67.6s-0.1,33.8-0.1,33.8H66c0,0,4.3-35.1-3.4-51.2c-7.5-15.7-11.8-36.1-3.4-51.6
			C69.7,49.4,115.8,51.7,115.8,51.7z"/>
		
			<linearGradient id="SVGID_00000051344531451326754870000009348482735454470810_" gradientUnits="userSpaceOnUse" x1="112.8694" y1="154.605" x2="145.2094" y2="152.345" gradientTransform="matrix(1 0 0 -1 -34.73 263.9032)">
			<stop  offset="0" style="stop-color:#FFFFFF;stop-opacity:0"/>
			<stop  offset="4.000000e-02" style="stop-color:#FFFFFF;stop-opacity:6.000000e-02"/>
			<stop  offset="0.24" style="stop-color:#FFFFFF;stop-opacity:0.34"/>
			<stop  offset="0.44" style="stop-color:#FFFFFF;stop-opacity:0.58"/>
			<stop  offset="0.61" style="stop-color:#FFFFFF;stop-opacity:0.76"/>
			<stop  offset="0.76" style="stop-color:#FFFFFF;stop-opacity:0.89"/>
			<stop  offset="0.89" style="stop-color:#FFFFFF;stop-opacity:0.97"/>
			<stop  offset="0.97" style="stop-color:#FFFFFF"/>
		</linearGradient>
		<path style="opacity:0.78;fill:url(#SVGID_00000051344531451326754870000009348482735454470810_);enable-background:new    ;" d="
			M160.3,53.2c5.4,0.6-42.6-0.1-52.3,15.2c-11.1,17.4-4.9,42.3,1.8,63.7c3.9,12.8,5.8,26.1,5.6,39.5H82.3c0,0,4.3-35.1-3.4-51.2
			c-7.5-15.7-11.4-35.9-3.4-51.7C87.7,44.6,160.3,53.2,160.3,53.2z"/>
		
			<radialGradient id="SVGID_00000022545172155057257570000005390264631005458058_" cx="150.58" cy="150.2188" r="61.0011" gradientTransform="matrix(1 0 0 -1 -34.73 263.9032)" gradientUnits="userSpaceOnUse">
			<stop  offset="0" style="stop-color:#FFFFFF"/>
			<stop  offset="0.12" style="stop-color:#FFFFFF;stop-opacity:0.91"/>
			<stop  offset="0.38" style="stop-color:#FFFFFF;stop-opacity:0.66"/>
			<stop  offset="0.75" style="stop-color:#FFFFFF;stop-opacity:0.27"/>
			<stop  offset="1" style="stop-color:#FFFFFF;stop-opacity:0"/>
		</radialGradient>
		<path style="opacity:0.51;fill:url(#SVGID_00000022545172155057257570000005390264631005458058_);enable-background:new    ;" d="
			M81.5,172.1h68.7c29.5-19,38-58.2,19-87.7s-58.2-38-87.7-19s-38,58.2-19,87.7C67.4,160.7,73.9,167.2,81.5,172.1z"/>
		
			<radialGradient id="SVGID_00000005225047825076728610000014134788185943243420_" cx="156.71" cy="1151.3376" r="110.06" gradientTransform="matrix(1 0 0 -0.18 -34.71 382.0312)" gradientUnits="userSpaceOnUse">
			<stop  offset="0" style="stop-color:#1D1D1B;stop-opacity:0.7"/>
			<stop  offset="7.000000e-02" style="stop-color:#1D1D1B;stop-opacity:0.61"/>
			<stop  offset="0.56" style="stop-color:#1D1D1B;stop-opacity:0.15"/>
			<stop  offset="1" style="stop-color:#1D1D1B;stop-opacity:0"/>
		</radialGradient>
		
			<rect x="8.9" y="148.4" style="fill:url(#SVGID_00000005225047825076728610000014134788185943243420_);" width="213.9" height="23.5"/>
	</g>
</g>
<g id="Profile-Konturen_Render">
	<g id="P6">
		
			<linearGradient id="P6-2_00000043435948776346163520000011887063257640553151_" gradientUnits="userSpaceOnUse" x1="36.73" y1="225.6907" x2="263.5452" y2="225.6907" gradientTransform="matrix(1 0 0 -1 -34.73 263.9032)">
			<stop  offset="0" style="stop-color:#E9E9E9"/>
			<stop  offset="0.53" style="stop-color:#F8F8F8"/>
			<stop  offset="1" style="stop-color:#FFFFFF"/>
		</linearGradient>
		<path id="P6-2" style="fill:url(#P6-2_00000043435948776346163520000011887063257640553151_);" d="M228.7,55.7
			c0,0.5-0.3,1-0.8,1.1c-78.4,23.4-140.6,23.6-225.2,0c-0.2,0-0.7-0.3-0.7-1.2V21.3c0-1.2,0.7-1.4,1-1.6
			C81.7-3.8,149.4-4,227.8,19.7c0.7,0.2,1.1,0.8,1,1.5L228.7,55.7z"/>
		<path class="st7" d="M117.3,76.3c-36.2,0-73.1-5.9-115.1-17.6C0.8,58.3-0.1,57,0,55.5V21.3c-0.1-1.6,0.9-3,2.4-3.5
			c79.7-23.8,147.3-23.7,226,0c1.5,0.4,2.5,1.8,2.4,3.4v34.5c0,1.4-0.9,2.6-2.3,3C189.1,70.5,153.5,76.3,117.3,76.3z M4,55.1
			c82.7,23,145.2,23,222.7,0V21.5C149.2-1.8,82.5-1.8,4,21.5V55.1z"/>
	</g>
</g>
</svg>
