<?xml version="1.0" encoding="utf-8"?>
<!-- Generator: Adobe Illustrator 25.3.1, SVG Export Plug-In . SVG Version: 6.00 Build 0)  -->
<svg version="1.1" id="Ebene_1" xmlns="http://www.w3.org/2000/svg" xmlns:xlink="http://www.w3.org/1999/xlink" x="0px" y="0px"
	 viewBox="0 0 230.7 172.1" style="enable-background:new 0 0 230.7 172.1;" xml:space="preserve">
<style type="text/css">
	.st0{fill:url(#SVGID_1_);}
	.st1{fill:url(#SVGID_2_);}
	.st2{fill:url(#SVGID_3_);}
	.st3{opacity:0.78;fill:url(#SVGID_4_);enable-background:new    ;}
	.st4{opacity:0.51;fill:url(#SVGID_5_);enable-background:new    ;}
	.st5{fill:url(#SVGID_6_);}
	.st6{fill:#AB3333;}
</style>
<g id="Sockel">
	<g id="Sockel-2">
		
			<linearGradient id="SVGID_1_" gradientUnits="userSpaceOnUse" x1="75.5298" y1="23.5424" x2="244.5998" y2="-17.4376" gradientTransform="matrix(1 0 0 -1 -34.73 109.9032)">
			<stop  offset="0" style="stop-color:#CDCBC9;stop-opacity:0.8"/>
			<stop  offset="1" style="stop-color:#BEBBB9"/>
		</linearGradient>
		<path class="st0" d="M199.3,60.3L189.2,40H42.6L32.4,60.3c-0.7,1.4-0.8,2.9-0.2,4.4c3.1,8.4,14.1,38.7,16.2,53.1
			c5,35.4,5.9,54.2,5.9,54.2h123.3c0,0,0.9-18.8,5.9-54.2c2-14.4,13-44.7,16.2-53.1C200.1,63.3,200,61.7,199.3,60.3z"/>
		
			<radialGradient id="SVGID_2_" cx="95.3508" cy="-83.4804" r="7.43" gradientTransform="matrix(0.9879 -0.1551 -1.2466 -7.9428 -150.0347 -523.0214)" gradientUnits="userSpaceOnUse">
			<stop  offset="0.54" style="stop-color:#FFFFFF;stop-opacity:0.7"/>
			<stop  offset="0.56" style="stop-color:#FFFFFF;stop-opacity:0.61"/>
			<stop  offset="0.62" style="stop-color:#FFFFFF;stop-opacity:0.42"/>
			<stop  offset="0.67" style="stop-color:#FFFFFF;stop-opacity:0.27"/>
			<stop  offset="0.73" style="stop-color:#FFFFFF;stop-opacity:0.15"/>
			<stop  offset="0.78" style="stop-color:#FFFFFF;stop-opacity:7.000000e-02"/>
			<stop  offset="0.84" style="stop-color:#FFFFFF;stop-opacity:2.000000e-02"/>
			<stop  offset="0.88" style="stop-color:#FFFFFF;stop-opacity:0"/>
		</radialGradient>
		<path class="st1" d="M41.4,66.3C39.2,58,50.6,40,50.6,40h-8L32.4,60.3c-0.7,1.4-0.8,2.9-0.2,4.4c3.1,8.4,14.1,38.7,16.2,53.1
			c5,35.4,5.9,54.2,5.9,54.2h5.6c0,0,1.2-16.8-4.3-52C53.3,105.8,52.5,108.8,41.4,66.3z"/>
		
			<linearGradient id="SVGID_3_" gradientUnits="userSpaceOnUse" x1="95.34" y1="-1.6974" x2="204.36" y2="-1.6974" gradientTransform="matrix(1 0 0 -1 -34.73 109.9032)">
			<stop  offset="0" style="stop-color:#DAD7D4"/>
			<stop  offset="0.48" style="stop-color:#F0EFEE"/>
			<stop  offset="1" style="stop-color:#CAC6C2"/>
		</linearGradient>
		<path class="st2" d="M115.8,51.7c33-0.7,52.7,5.7,58.1,18.4c10.3,24.1-7.4,46.4-9.6,67.6s-0.1,33.8-0.1,33.8H66
			c0,0,4.3-35.1-3.4-51.2c-7.5-15.7-11.8-36.1-3.4-51.6C69.7,49.4,115.8,51.7,115.8,51.7z"/>
		
			<linearGradient id="SVGID_4_" gradientUnits="userSpaceOnUse" x1="112.8701" y1="0.6144" x2="145.2101" y2="-1.6456" gradientTransform="matrix(1 0 0 -1 -34.73 109.9032)">
			<stop  offset="0" style="stop-color:#FFFFFF;stop-opacity:0"/>
			<stop  offset="4.000000e-02" style="stop-color:#FFFFFF;stop-opacity:6.000000e-02"/>
			<stop  offset="0.24" style="stop-color:#FFFFFF;stop-opacity:0.34"/>
			<stop  offset="0.44" style="stop-color:#FFFFFF;stop-opacity:0.58"/>
			<stop  offset="0.61" style="stop-color:#FFFFFF;stop-opacity:0.76"/>
			<stop  offset="0.76" style="stop-color:#FFFFFF;stop-opacity:0.89"/>
			<stop  offset="0.89" style="stop-color:#FFFFFF;stop-opacity:0.97"/>
			<stop  offset="0.97" style="stop-color:#FFFFFF"/>
		</linearGradient>
		<path class="st3" d="M160.3,53.2c5.4,0.6-42.6-0.1-52.3,15.2c-11.1,17.4-4.9,42.3,1.8,63.7c3.9,12.8,5.8,26.1,5.6,39.5H82.3
			c0,0,4.3-35.1-3.4-51.2c-7.5-15.7-11.4-35.9-3.4-51.7C87.7,44.6,160.3,53.2,160.3,53.2z"/>
		
			<radialGradient id="SVGID_5_" cx="150.6" cy="-3.7989" r="61.005" gradientTransform="matrix(1 0 0 -1 -34.73 109.9032)" gradientUnits="userSpaceOnUse">
			<stop  offset="0" style="stop-color:#FFFFFF"/>
			<stop  offset="0.12" style="stop-color:#FFFFFF;stop-opacity:0.91"/>
			<stop  offset="0.38" style="stop-color:#FFFFFF;stop-opacity:0.66"/>
			<stop  offset="0.75" style="stop-color:#FFFFFF;stop-opacity:0.27"/>
			<stop  offset="1" style="stop-color:#FFFFFF;stop-opacity:0"/>
		</radialGradient>
		<path class="st4" d="M81.5,172.1h68.7c29.5-19,38-58.2,19-87.7s-58.2-38-87.7-19s-38,58.2-19,87.7
			C67.4,160.7,73.9,167.2,81.5,172.1z"/>
		
			<radialGradient id="SVGID_6_" cx="156.71" cy="295.7821" r="110.06" gradientTransform="matrix(1 0 0 -0.18 -34.71 228.0312)" gradientUnits="userSpaceOnUse">
			<stop  offset="0" style="stop-color:#1D1D1B;stop-opacity:0.7"/>
			<stop  offset="7.000000e-02" style="stop-color:#1D1D1B;stop-opacity:0.61"/>
			<stop  offset="0.56" style="stop-color:#1D1D1B;stop-opacity:0.15"/>
			<stop  offset="1" style="stop-color:#1D1D1B;stop-opacity:0"/>
		</radialGradient>
		<rect x="8.9" y="148.4" class="st5" width="213.9" height="23.5"/>
	</g>
</g>
<g id="Profile-Fill_Render">
	<g id="P6">
		<path id="P6-2" class="st6" d="M228.7,55.7c0,0.5-0.3,1-0.8,1.1c-78.4,23.4-140.6,23.6-225.2,0C2.5,56.8,2,56.5,2,55.6V21.3
			c0-1.2,0.7-1.4,1-1.6c78.7-23.5,146.4-23.7,224.8,0c0.7,0.2,1.1,0.8,1,1.5L228.7,55.7z"/>
		<path class="st6" d="M117.3,76.3c-36.2,0-73.1-5.9-115.1-17.6C0.8,58.3-0.1,57,0,55.5V21.3c-0.1-1.6,0.9-3,2.4-3.5
			C82.1-6,149.7-5.9,228.4,17.8c1.5,0.4,2.5,1.8,2.4,3.4v34.5c0,1.4-0.9,2.6-2.3,3C189.1,70.5,153.5,76.3,117.3,76.3z M4,55.1
			c82.7,23,145.2,23,222.7,0V21.5C149.2-1.8,82.5-1.8,4,21.5L4,55.1z"/>
	</g>
</g>
</svg>
