<?xml version="1.0" encoding="utf-8"?>
<!-- Generator: Adobe Illustrator 25.4.1, SVG Export Plug-In . SVG Version: 6.00 Build 0)  -->
<svg version="1.1" id="Ebene_1" xmlns="http://www.w3.org/2000/svg" xmlns:xlink="http://www.w3.org/1999/xlink" x="0px" y="0px"
	 viewBox="0 0 239.5 179.1" style="enable-background:new 0 0 239.5 179.1;" xml:space="preserve">
<style type="text/css">
	.st0{fill:url(#SVGID_1_);}
	.st1{fill:url(#SVGID_00000081607179922460358730000002393120909680622208_);}
	.st2{fill:url(#SVGID_00000096759563939496296000000007320847164197901757_);}
	.st3{opacity:0.78;fill:url(#SVGID_00000098215723594916868870000012521039552543063206_);enable-background:new    ;}
	.st4{opacity:0.51;fill:url(#SVGID_00000053516146949481716460000000752458223796075650_);enable-background:new    ;}
	.st5{fill:url(#SVGID_00000176005427925166029200000002341573288330549919_);}
	.st6{fill:url(#P7-2_00000036939691248194068740000000334143227643467681_);}
	.st7{fill:#222222;}
</style>
<g id="Sockel">
	<g id="Sockel-2">
		
			<linearGradient id="SVGID_1_" gradientUnits="userSpaceOnUse" x1="75.5429" y1="191.5963" x2="244.6129" y2="150.6163" gradientTransform="matrix(1 0 0 -1 -30.31 284.8332)">
			<stop  offset="0" style="stop-color:#CDCBC9;stop-opacity:0.8"/>
			<stop  offset="1" style="stop-color:#BEBBB9"/>
		</linearGradient>
		<path class="st0" d="M203.8,67.2l-10.2-20.4H47L36.8,67.2c-0.7,1.4-0.8,2.9-0.2,4.4c3.1,8.4,14.1,38.7,16.2,53.1
			c5,35.4,5.9,54.2,5.9,54.2H182c0,0,0.9-18.8,5.9-54.2c2-14.4,13-44.7,16.2-53.1C204.5,70.2,204.4,68.6,203.8,67.2z"/>
		
			<radialGradient id="SVGID_00000034770592598648182270000004697763628786050690_" cx="121.4782" cy="-59.3384" r="7.43" gradientTransform="matrix(0.9879 -0.1551 -1.2466 -7.9428 -141.3303 -320.2838)" gradientUnits="userSpaceOnUse">
			<stop  offset="0.54" style="stop-color:#FFFFFF;stop-opacity:0.7"/>
			<stop  offset="0.56" style="stop-color:#FFFFFF;stop-opacity:0.61"/>
			<stop  offset="0.62" style="stop-color:#FFFFFF;stop-opacity:0.42"/>
			<stop  offset="0.67" style="stop-color:#FFFFFF;stop-opacity:0.27"/>
			<stop  offset="0.73" style="stop-color:#FFFFFF;stop-opacity:0.15"/>
			<stop  offset="0.78" style="stop-color:#FFFFFF;stop-opacity:7.000000e-02"/>
			<stop  offset="0.84" style="stop-color:#FFFFFF;stop-opacity:2.000000e-02"/>
			<stop  offset="0.88" style="stop-color:#FFFFFF;stop-opacity:0"/>
		</radialGradient>
		<path style="fill:url(#SVGID_00000034770592598648182270000004697763628786050690_);" d="M45.8,73.2C43.7,64.9,55,46.9,55,46.9h-8
			L36.8,67.2c-0.7,1.4-0.8,2.9-0.2,4.4c3.1,8.4,14.1,38.7,16.2,53.1c5,35.4,5.9,54.2,5.9,54.2h5.6c0,0,1.2-16.8-4.3-52.1
			C57.7,112.7,57,115.8,45.8,73.2z"/>
		
			<linearGradient id="SVGID_00000113351312293829392920000004293334039777438641_" gradientUnits="userSpaceOnUse" x1="95.34" y1="166.2804" x2="204.36" y2="166.2804" gradientTransform="matrix(1 0 0 -1 -30.31 284.8332)">
			<stop  offset="0" style="stop-color:#DAD7D4"/>
			<stop  offset="0.48" style="stop-color:#F0EFEE"/>
			<stop  offset="1" style="stop-color:#CAC6C2"/>
		</linearGradient>
		<path style="fill:url(#SVGID_00000113351312293829392920000004293334039777438641_);" d="M120.3,58.7c33-0.7,52.7,5.7,58.1,18.4
			c10.3,24.1-7.4,46.4-9.6,67.6s-0.1,33.8-0.1,33.8H70.4c0,0,4.3-35.1-3.4-51.2c-7.5-15.7-11.8-36.1-3.4-51.6
			C74.1,56.3,120.3,58.7,120.3,58.7z"/>
		
			<linearGradient id="SVGID_00000102546450376805363220000014562033608918394803_" gradientUnits="userSpaceOnUse" x1="112.8715" y1="168.6338" x2="145.2115" y2="166.3738" gradientTransform="matrix(1 0 0 -1 -30.31 284.8332)">
			<stop  offset="0" style="stop-color:#FFFFFF;stop-opacity:0"/>
			<stop  offset="4.000000e-02" style="stop-color:#FFFFFF;stop-opacity:6.000000e-02"/>
			<stop  offset="0.24" style="stop-color:#FFFFFF;stop-opacity:0.34"/>
			<stop  offset="0.44" style="stop-color:#FFFFFF;stop-opacity:0.58"/>
			<stop  offset="0.61" style="stop-color:#FFFFFF;stop-opacity:0.76"/>
			<stop  offset="0.76" style="stop-color:#FFFFFF;stop-opacity:0.89"/>
			<stop  offset="0.89" style="stop-color:#FFFFFF;stop-opacity:0.97"/>
			<stop  offset="0.97" style="stop-color:#FFFFFF"/>
		</linearGradient>
		<path style="opacity:0.78;fill:url(#SVGID_00000102546450376805363220000014562033608918394803_);enable-background:new    ;" d="
			M164.7,60.1c5.4,0.6-42.6-0.1-52.3,15.2c-11.1,17.4-4.9,42.3,1.8,63.7c3.9,12.8,5.8,26.1,5.6,39.5H86.7c0,0,4.3-35.1-3.4-51.2
			c-7.5-15.7-11.4-35.9-3.4-51.7C92.2,51.5,164.7,60.1,164.7,60.1z"/>
		
			<radialGradient id="SVGID_00000102502923591553046900000003343889465665039266_" cx="150.66" cy="164.1488" r="61.0011" gradientTransform="matrix(1 0 0 -1 -30.31 284.8332)" gradientUnits="userSpaceOnUse">
			<stop  offset="0" style="stop-color:#FFFFFF"/>
			<stop  offset="0.12" style="stop-color:#FFFFFF;stop-opacity:0.91"/>
			<stop  offset="0.38" style="stop-color:#FFFFFF;stop-opacity:0.66"/>
			<stop  offset="0.75" style="stop-color:#FFFFFF;stop-opacity:0.27"/>
			<stop  offset="1" style="stop-color:#FFFFFF;stop-opacity:0"/>
		</radialGradient>
		<path style="opacity:0.51;fill:url(#SVGID_00000102502923591553046900000003343889465665039266_);enable-background:new    ;" d="
			M86,179.1h68.7c29.5-19,38-58.2,19-87.7s-58.2-38-87.7-19s-38,58.2-19,87.7C71.8,167.7,78.3,174.1,86,179.1z"/>
		
			<radialGradient id="SVGID_00000064324214752826254100000018145048337988229516_" cx="156.71" cy="1215.4487" r="110.06" gradientTransform="matrix(1 0 0 -0.18 -30.29 400.4912)" gradientUnits="userSpaceOnUse">
			<stop  offset="0" style="stop-color:#1D1D1B;stop-opacity:0.7"/>
			<stop  offset="7.000000e-02" style="stop-color:#1D1D1B;stop-opacity:0.61"/>
			<stop  offset="0.56" style="stop-color:#1D1D1B;stop-opacity:0.15"/>
			<stop  offset="1" style="stop-color:#1D1D1B;stop-opacity:0"/>
		</radialGradient>
		
			<rect x="13.4" y="155.4" style="fill:url(#SVGID_00000064324214752826254100000018145048337988229516_);" width="213.9" height="23.5"/>
	</g>
</g>
<g id="Profile-Konturen_Render">
	<g id="P7">
		
			<linearGradient id="P7-2_00000183945581989191651110000014580059423203661194_" gradientUnits="userSpaceOnUse" x1="2" y1="296.5732" x2="237.5" y2="296.5732" gradientTransform="matrix(1 0 0 -1 0 340.1732)">
			<stop  offset="0" style="stop-color:#E9E9E9"/>
			<stop  offset="0.53" style="stop-color:#F8F8F8"/>
			<stop  offset="1" style="stop-color:#FFFFFF"/>
		</linearGradient>
		<path id="P7-2" style="fill:url(#P7-2_00000183945581989191651110000014580059423203661194_);" d="M42.1,2h155.3
			c22.1,0,40.1,18,40.1,40.1v3c0,22.1-18,40.1-40.1,40.1H42.1C20,85.2,2,67.3,2,45.1v-3C2,20,20,2,42.1,2z"/>
		<path class="st7" d="M197.4,87.2H42.1C18.9,87.2,0,68.4,0,45.1v-3C0,18.9,18.9,0,42.1,0h155.3c23.2,0,42.1,18.9,42.1,42.1v3
			C239.5,68.4,220.6,87.2,197.4,87.2z M42.1,4C21.1,4,4,21.1,4,42.1v3c0,21,17.1,38.1,38.1,38.1h155.3c21,0,38.1-17.1,38.1-38.1v-3
			c0-21-17.1-38.1-38.1-38.1H42.1z"/>
	</g>
</g>
</svg>
