# Blender v3.0.1 OBJ File: 'baguette.blend'
# www.blender.org
o baguette
v 0.000000 -0.087800 0.292259
v 0.500004 -0.087800 0.292166
v 0.500004 -0.081500 0.292166
v 0.500004 -0.094100 0.292166
v -0.500004 -0.081500 0.292166
v -0.500004 -0.087800 0.292166
v 0.000000 -0.087800 0.292259
v -0.500004 -0.094100 0.292166
v -0.500004 -0.081500 0.292166
v 0.000000 -0.087800 0.292259
v 0.500004 -0.081500 0.292166
v 0.000000 -0.087800 0.292259
v -0.500004 -0.094100 0.292166
v 0.500004 -0.094100 0.292166
v 0.375002 0.000001 0.000002
v 0.000000 0.000001 0.000002
v 0.000000 0.000001 0.178575
v 0.375002 0.000001 0.178575
v 0.000000 0.000001 0.000002
v -0.375002 0.000001 0.000002
v -0.375002 0.000001 0.178575
v 0.000000 0.000001 -0.178570
v -0.375002 0.000001 -0.178570
v 0.000000 0.000001 0.000002
v 0.375002 0.000001 -0.178570
v 0.000000 0.000001 0.000002
v 0.375002 0.000001 0.000002
v 0.187502 -0.381202 0.000002
v 0.250002 -0.335202 -0.058430
v 0.250002 -0.335202 0.058435
v -0.187502 -0.381202 0.000002
v -0.250002 -0.335202 0.058435
v -0.250002 -0.335202 -0.058430
v 0.437502 -0.169701 -0.233728
v 0.250002 -0.335202 -0.058430
v -0.250002 -0.335202 -0.058430
v -0.437502 -0.169701 -0.233728
v -0.500004 -0.087800 0.292166
v -0.500004 -0.087800 -0.292161
v -0.500004 -0.094100 -0.292161
v -0.500004 -0.094100 0.292166
v -0.500004 -0.081500 0.292166
v -0.500004 -0.081500 -0.292161
v -0.500004 -0.087800 -0.292161
v 0.500004 -0.087800 -0.292161
v 0.500004 -0.094100 -0.292161
v -0.500004 -0.094100 -0.292161
v -0.500004 -0.081500 -0.292161
v 0.500004 -0.081500 -0.292161
v 0.500004 -0.094100 -0.292161
v 0.437502 -0.169701 -0.233728
v -0.437502 -0.169701 -0.233728
v -0.500004 -0.094100 -0.292161
v 0.500004 -0.081500 0.292166
v 0.500004 -0.087800 0.000002
v 0.500004 -0.081500 -0.292161
v 0.500004 -0.087800 0.000002
v 0.500004 -0.094100 0.292166
v 0.500004 -0.094100 -0.292161
v 0.500004 -0.087800 0.000002
v 0.500004 -0.087800 -0.292161
v 0.500004 -0.087800 0.292166
v 0.500004 -0.094100 0.292166
v 0.500004 -0.087800 0.000002
v 0.500004 -0.081500 0.292166
v 0.500004 -0.087800 0.000002
v 0.500004 -0.094100 0.292166
v 0.437502 -0.169701 0.233733
v 0.437502 -0.169701 -0.233728
v 0.500004 -0.094100 -0.292161
v -0.500004 -0.094100 0.292166
v -0.437502 -0.169701 0.233733
v 0.437502 -0.169701 0.233733
v 0.500004 -0.094100 0.292166
v -0.437502 -0.028200 0.234924
v -0.437502 -0.028200 -0.234918
v -0.500004 -0.081500 -0.292161
v -0.500004 -0.081500 0.292166
v 0.437502 -0.028200 0.234924
v 0.437502 -0.028200 -0.234918
v 0.375002 0.000001 0.000002
v -0.437502 -0.028200 0.234924
v 0.437502 -0.028200 0.234924
v 0.000000 0.000001 0.178575
v -0.437502 -0.028200 -0.234918
v -0.437502 -0.028200 0.234924
v -0.375002 0.000001 0.000002
v 0.437502 -0.028200 -0.234918
v -0.437502 -0.028200 -0.234918
v 0.000000 0.000001 -0.178570
v -0.375002 0.000001 -0.178570
v 0.375002 0.000001 -0.178570
v 0.375002 0.000001 0.000002
v 0.375002 0.000001 -0.178570
v 0.375002 0.000001 0.178575
v 0.437502 -0.028200 0.234924
v 0.375002 0.000001 0.000002
v 0.375002 0.000001 0.178575
v -0.375002 0.000001 0.178575
v -0.375002 0.000001 0.178575
v -0.375002 0.000001 -0.178570
v -0.437502 -0.028200 0.234924
v -0.500004 -0.081500 0.292166
v 0.500004 -0.081500 0.292166
v 0.437502 -0.028200 0.234924
v 0.437502 -0.028200 -0.234918
v 0.500004 -0.081500 -0.292161
v -0.500004 -0.081500 -0.292161
v -0.437502 -0.028200 -0.234918
v 0.437502 -0.028200 -0.234918
v 0.437502 -0.028200 0.234924
v 0.500004 -0.081500 0.292166
v 0.500004 -0.081500 -0.292161
v 0.437502 -0.169701 0.233733
v 0.250002 -0.335202 0.058435
v 0.250002 -0.335202 -0.058430
v 0.437502 -0.169701 -0.233728
v -0.437502 -0.169701 0.233733
v -0.250002 -0.335202 0.058435
v 0.250002 -0.335202 0.058435
v 0.437502 -0.169701 0.233733
v -0.437502 -0.169701 -0.233728
v -0.250002 -0.335202 -0.058430
v -0.250002 -0.335202 0.058435
v -0.437502 -0.169701 0.233733
v 0.250002 -0.335202 -0.058430
v 0.000000 -0.381202 0.000002
v -0.250002 -0.335202 -0.058430
v -0.250002 -0.335202 0.058435
v 0.000000 -0.381202 0.000002
v 0.250002 -0.335202 0.058435
v 0.000000 -0.381202 0.000002
v 0.187502 -0.381202 0.000002
v -0.187502 -0.381202 0.000002
v 0.000000 -0.381202 0.000002
v 0.000000 -0.381202 0.000002
v -0.187502 -0.381202 0.000002
v 0.187502 -0.381202 0.000002
v 0.000000 -0.381202 0.000002
v -0.500004 -0.094100 -0.292161
v -0.437502 -0.169701 -0.233728
v -0.437502 -0.169701 0.233733
v -0.500004 -0.094100 0.292166
vn 0.0002 0.0000 1.0000
vn -0.0002 0.0000 1.0000
vn 0.0000 0.0148 0.9999
vn 0.0000 -0.0148 0.9999
vn 0.0000 1.0000 -0.0000
vn 0.5928 -0.8054 0.0000
vn -0.5928 -0.8054 0.0000
vn 0.0000 -0.7271 -0.6865
vn -1.0000 0.0000 0.0000
vn 0.0000 -0.0000 -1.0000
vn 0.0000 -0.6115 -0.7912
vn 1.0000 0.0000 0.0000
vn 0.7707 -0.6372 0.0000
vn 0.0000 -0.6115 0.7912
vn -0.6489 0.7609 -0.0000
vn 0.4113 0.9115 -0.0000
vn 0.0000 0.8943 0.4475
vn -0.4113 0.9115 -0.0000
vn 0.0000 0.8943 -0.4476
vn 0.0000 0.7319 0.6815
vn 0.0000 0.7319 -0.6815
vn 0.6489 0.7609 -0.0000
vn 0.6618 -0.7497 0.0000
vn 0.0000 -0.7271 0.6865
vn -0.6618 -0.7497 0.0000
vn 0.0000 -0.7857 -0.6186
vn 0.0000 -0.7857 0.6186
vn -0.7707 -0.6372 0.0000
s 1
f 1//1 2//1 3//1
f 2//1 1//1 4//1
f 5//2 6//2 7//2
f 6//2 8//2 7//2
f 9//3 10//3 11//3
f 12//4 13//4 14//4
f 15//5 16//5 17//5 18//5
f 19//5 20//5 21//5 17//5
f 22//5 23//5 20//5 24//5
f 25//5 22//5 26//5 27//5
f 28//6 29//6 30//6
f 31//7 32//7 33//7
f 34//8 35//8 36//8 37//8
f 38//9 39//9 40//9 41//9
f 42//9 43//9 39//9 38//9
f 44//10 45//10 46//10 47//10
f 48//10 49//10 45//10 44//10
f 50//11 51//11 52//11 53//11
f 54//12 55//12 56//12
f 57//12 58//12 59//12
f 60//12 61//12 56//12
f 62//12 63//12 64//12
f 65//12 62//12 64//12
f 61//12 66//12 59//12
f 67//13 68//13 69//13 70//13
f 71//14 72//14 73//14 74//14
f 75//15 76//15 77//15 78//15
f 79//16 80//16 81//16
f 82//17 83//17 84//17
f 85//18 86//18 87//18
f 88//19 89//19 90//19
f 90//19 89//19 91//19
f 92//19 88//19 90//19
f 93//16 80//16 94//16
f 95//16 96//16 97//16
f 84//17 83//17 98//17
f 99//17 82//17 84//17
f 87//18 86//18 100//18
f 101//18 85//18 87//18
f 102//20 103//20 104//20 105//20
f 106//21 107//21 108//21 109//21
f 110//22 111//22 112//22 113//22
f 114//23 115//23 116//23 117//23
f 118//24 119//24 120//24 121//24
f 122//25 123//25 124//25 125//25
f 126//26 127//26 128//26
f 129//27 130//27 131//27
f 132//27 133//27 131//27
f 129//27 134//27 135//27
f 136//26 137//26 128//26
f 126//26 138//26 139//26
f 140//28 141//28 142//28 143//28
