<svg id="Ebene_1" data-name="Ebene 1" xmlns="http://www.w3.org/2000/svg" xmlns:xlink="http://www.w3.org/1999/xlink" viewBox="0 0 41.73 53.2">
    <defs>
        <style>
            .cls-1{opacity:0.2;}.cls-10,.cls-11,.cls-12,.cls-13,.cls-14,.cls-15,.cls-16,.cls-17,.cls-18,.cls-19,.cls-2,.cls-20,.cls-21,.cls-22,.cls-23,.cls-24,.cls-25,.cls-26,.cls-27,.cls-28,.cls-29,.cls-3,.cls-30,.cls-31,.cls-32,.cls-33,.cls-4,.cls-5,.cls-6,.cls-7,.cls-8,.cls-9{fill:#181716;}.cls-2{opacity:0;}.cls-3{opacity:0.03;}.cls-4{opacity:0.06;}.cls-5{opacity:0.1;}.cls-6{opacity:0.13;}.cls-7{opacity:0.16;}.cls-8{opacity:0.19;}.cls-9{opacity:0.23;}.cls-10{opacity:0.26;}.cls-11{opacity:0.29;}.cls-12{opacity:0.32;}.cls-13{opacity:0.35;}.cls-14{opacity:0.39;}.cls-15{opacity:0.42;}.cls-16{opacity:0.45;}.cls-17{opacity:0.48;}.cls-18{opacity:0.52;}.cls-19{opacity:0.55;}.cls-20{opacity:0.58;}.cls-21{opacity:0.61;}.cls-22{opacity:0.65;}.cls-23{opacity:0.68;}.cls-24{opacity:0.71;}.cls-25{opacity:0.74;}.cls-26{opacity:0.77;}.cls-27{opacity:0.81;}.cls-28{opacity:0.84;}.cls-29{opacity:0.87;}.cls-30{opacity:0.9;}.cls-31{opacity:0.94;}.cls-32{opacity:0.97;}.cls-34{fill:url(#Unbenannter_Verlauf_4);}
        </style>
        <linearGradient id="Unbenannter_Verlauf_4" x1="92.06" y1="73.6" x2="92.06" y2="258.25" gradientUnits="userSpaceOnUse">
            <stop offset="0.11" stop-color="#fff"/>
            <stop offset="1"/>
        </linearGradient>
    </defs>
    <g class="cls-1">
        <path class="cls-2" d="M98.29,117.47H85.84A14.66,14.66,0,0,1,71.2,102.79V84.68l21-20.41,20.76,20.41v18.11A14.66,14.66,0,0,1,98.29,117.47Z" transform="translate(-71.2 -64.27)"/>
        <path class="cls-3" d="M98.3,117.36H85.82a14.54,14.54,0,0,1-14.53-14.57V84.71L92.17,64.38l20.67,20.33v18.08A14.55,14.55,0,0,1,98.3,117.36Z" transform="translate(-71.2 -64.27)"/>
        <path class="cls-4" d="M98.32,117.26H85.81a14.45,14.45,0,0,1-14.43-14.47V84.74L92.17,64.5l20.58,20.24v18.05A14.45,14.45,0,0,1,98.32,117.26Z" transform="translate(-71.2 -64.27)"/>
        <path class="cls-5" d="M98.33,117.15H85.8a14.34,14.34,0,0,1-14.33-14.37v-18l20.7-20.16,20.49,20.16v18A14.35,14.35,0,0,1,98.33,117.15Z" transform="translate(-71.2 -64.27)"/>
        <path class="cls-6" d="M98.34,117H85.78a14.23,14.23,0,0,1-14.22-14.26v-18L92.17,64.73l20.4,20.06v18A14.24,14.24,0,0,1,98.34,117Z" transform="translate(-71.2 -64.27)"/>
        <path class="cls-7" d="M98.36,116.94H85.77a14.14,14.14,0,0,1-14.12-14.16v-18l20.52-20,20.31,20v18A14.14,14.14,0,0,1,98.36,116.94Z" transform="translate(-71.2 -64.27)"/>
        <path class="cls-8" d="M98.37,116.83H85.75a14,14,0,0,1-14-14V84.85L92.17,65l20.22,19.89v17.93A14,14,0,0,1,98.37,116.83Z" transform="translate(-71.2 -64.27)"/>
        <path class="cls-9" d="M98.39,116.72H85.74a13.93,13.93,0,0,1-13.91-13.94V84.88l20.34-19.8,20.13,19.8v17.9A13.93,13.93,0,0,1,98.39,116.72Z" transform="translate(-71.2 -64.27)"/>
        <path class="cls-10" d="M98.4,116.62H85.73a13.83,13.83,0,0,1-13.81-13.85V84.9L92.17,65.19l20,19.71v17.87A13.83,13.83,0,0,1,98.4,116.62Z" transform="translate(-71.2 -64.27)"/>
        <path class="cls-11" d="M98.41,116.51H85.71A13.72,13.72,0,0,1,72,102.77V84.93L92.17,65.31l20,19.62v17.84A13.73,13.73,0,0,1,98.41,116.51Z" transform="translate(-71.2 -64.27)"/>
        <path class="cls-12" d="M98.43,116.41H85.7a13.62,13.62,0,0,1-13.6-13.64V85L92.17,65.42,112,85v17.81A13.62,13.62,0,0,1,98.43,116.41Z" transform="translate(-71.2 -64.27)"/>
        <path class="cls-13" d="M98.44,116.3H85.68a13.51,13.51,0,0,1-13.49-13.53V85l20-19.44L111.94,85v17.79A13.51,13.51,0,0,1,98.44,116.3Z" transform="translate(-71.2 -64.27)"/>
        <path class="cls-14" d="M98.45,116.19H85.67a13.4,13.4,0,0,1-13.39-13.42V85L92.16,65.65,111.85,85v17.76A13.41,13.41,0,0,1,98.45,116.19Z" transform="translate(-71.2 -64.27)"/>
        <path class="cls-15" d="M98.47,116.09H85.66a13.31,13.31,0,0,1-13.29-13.33V85L92.16,65.77,111.76,85v17.72A13.31,13.31,0,0,1,98.47,116.09Z" transform="translate(-71.2 -64.27)"/>
        <path class="cls-16" d="M98.48,116H85.64a13.2,13.2,0,0,1-13.18-13.22V85.07l19.7-19.19,19.51,19.19v17.69A13.21,13.21,0,0,1,98.48,116Z" transform="translate(-71.2 -64.27)"/>
        <path class="cls-17" d="M98.5,115.87H85.63a13.09,13.09,0,0,1-13.08-13.11V85.09L92.16,66l19.42,19.09v17.67A13.1,13.1,0,0,1,98.5,115.87Z" transform="translate(-71.2 -64.27)"/>
        <path class="cls-18" d="M98.51,115.77H85.61a13,13,0,0,1-13-13V85.12l19.52-19,19.33,19v17.64A13,13,0,0,1,98.51,115.77Z" transform="translate(-71.2 -64.27)"/>
        <path class="cls-19" d="M98.52,115.66H85.6a12.89,12.89,0,0,1-12.87-12.9V85.15L92.16,66.23,111.4,85.15v17.61A12.9,12.9,0,0,1,98.52,115.66Z" transform="translate(-71.2 -64.27)"/>
        <path class="cls-20" d="M98.54,115.55h-13a12.78,12.78,0,0,1-12.77-12.8V85.18L92.16,66.35l19.15,18.83v17.57A12.79,12.79,0,0,1,98.54,115.55Z" transform="translate(-71.2 -64.27)"/>
        <path class="cls-21" d="M98.55,115.45h-13a12.68,12.68,0,0,1-12.66-12.7V85.2L92.16,66.46,111.22,85.2v17.55A12.69,12.69,0,0,1,98.55,115.45Z" transform="translate(-71.2 -64.27)"/>
        <path class="cls-22" d="M98.57,115.34h-13A12.57,12.57,0,0,1,73,102.75V85.23L92.16,66.58l19,18.65v17.52A12.58,12.58,0,0,1,98.57,115.34Z" transform="translate(-71.2 -64.27)"/>
        <path class="cls-23" d="M98.58,115.24h-13a12.48,12.48,0,0,1-12.46-12.49V85.26L92.16,66.69,111,85.26v17.49A12.48,12.48,0,0,1,98.58,115.24Z" transform="translate(-71.2 -64.27)"/>
        <path class="cls-24" d="M98.59,115.13H85.53a12.37,12.37,0,0,1-12.35-12.38V85.29l19-18.48L111,85.29v17.46A12.37,12.37,0,0,1,98.59,115.13Z" transform="translate(-71.2 -64.27)"/>
        <path class="cls-25" d="M98.61,115H85.52a12.26,12.26,0,0,1-12.25-12.28V85.31L92.16,66.92l18.7,18.39v17.43A12.26,12.26,0,0,1,98.61,115Z" transform="translate(-71.2 -64.27)"/>
        <path class="cls-26" d="M98.62,114.92H85.5a12.16,12.16,0,0,1-12.14-12.18V85.34L92.16,67l18.61,18.3v17.4A12.16,12.16,0,0,1,98.62,114.92Z" transform="translate(-71.2 -64.27)"/>
        <path class="cls-27" d="M98.64,114.81H85.49a12.05,12.05,0,0,1-12-12.07V85.37L92.16,67.15l18.52,18.22v17.37A12.05,12.05,0,0,1,98.64,114.81Z" transform="translate(-71.2 -64.27)"/>
        <path class="cls-28" d="M98.65,114.7H85.48a11.94,11.94,0,0,1-11.94-12V85.39L92.16,67.27l18.43,18.12v17.35A12,12,0,0,1,98.65,114.7Z" transform="translate(-71.2 -64.27)"/>
        <path class="cls-29" d="M98.66,114.6H85.46a11.85,11.85,0,0,1-11.83-11.87V85.42l18.53-18,18.34,18v17.31A11.85,11.85,0,0,1,98.66,114.6Z" transform="translate(-71.2 -64.27)"/>
        <path class="cls-30" d="M98.68,114.49H85.45a11.74,11.74,0,0,1-11.73-11.76V85.45l18.44-18,18.25,18v17.28A11.75,11.75,0,0,1,98.68,114.49Z" transform="translate(-71.2 -64.27)"/>
        <path class="cls-31" d="M98.69,114.38H85.43a11.63,11.63,0,0,1-11.62-11.65V85.48L92.16,67.62l18.16,17.86v17.25A11.64,11.64,0,0,1,98.69,114.38Z" transform="translate(-71.2 -64.27)"/>
        <path class="cls-32" d="M98.7,114.28H85.42A11.54,11.54,0,0,1,73.9,102.73V85.5L92.16,67.73,110.23,85.5v17.23A11.54,11.54,0,0,1,98.7,114.28Z" transform="translate(-71.2 -64.27)"/>
        <path class="cls-33" d="M98.72,114.17H85.41A11.43,11.43,0,0,1,74,102.73V85.53L92.16,67.85l18,17.68v17.2A11.43,11.43,0,0,1,98.72,114.17Z" transform="translate(-71.2 -64.27)"/>
    </g>
    <path class="cls-34" d="M98.72,114.39H85.41A11.44,11.44,0,0,1,74,102.94V85.75L92.16,68.06l18,17.69v17.19A11.44,11.44,0,0,1,98.72,114.39Z" transform="translate(-71.2 -64.27)"/>
</svg>